<svg height='100px' width='100px'  fill="#000000" xmlns="http://www.w3.org/2000/svg" xmlns:xlink="http://www.w3.org/1999/xlink" version="1.1" x="0px" y="0px" viewBox="0 0 100 100" enable-background="new 0 0 100 100" xml:space="preserve"><g><path fill-rule="evenodd" clip-rule="evenodd" d="M19.364,24.633c1.591-3.368,4.591-5.329,5.52-9.36   c-2.604-0.903-3.357,2.529-5.04,2.64c0.348,0.441-1.093,1.137-1.2,1.92c-0.754-0.883-1.266-1.639-2.4-1.68   C12.357,18.013,16.377,24.286,19.364,24.633z"></path><path fill-rule="evenodd" clip-rule="evenodd" d="M11.204,53.193c0,0.56,0,1.119,0,1.68c0.56,4.08,0.081,9.199,0.24,13.68   c3.856-0.093,5.482,0.87,8.4,0.48c0.631-0.071,0.189,0.931,0.96,0.72c1.378-1.461,4.233,1.1,6.96-0.96   c-0.127,0.193-0.25,0.39-0.24,0.72c0.411,0.051,0.622-0.409,0.72,0c0.753,0.113,0.634-0.646,1.2-0.72   c-0.075-6.016-0.492-11.629-0.24-17.521c-5.672-1.208-10.666,0.808-17.52,0C11.134,51.522,11.798,52.986,11.204,53.193z"></path><path fill-rule="evenodd" clip-rule="evenodd" d="M11.204,15.033c0.56,3.921,0.081,8.88,0.24,13.2c3.3,0.396,6.17,1.057,8.16,0.72   c0.674,0.436,0.284,0.046,0.72,0.72c0.99-0.242,1.542,0.148,2.16-0.72c0.721,1.692,4.967-0.364,6.24,0.48   c1.484-2.367,0.383-5.413,0.24-8.4c-0.169-3.534,0.976-7.562-0.48-10.32c-0.96,0-1.92,0-2.88,0c-2.833,0.536-4.539,0.402-6.96,0.48   c-3.686,0.119-7.808-0.432-7.44,1.92C11.204,13.753,11.204,14.393,11.204,15.033z M13.604,13.593   c2.542-0.185,3.337,0.656,5.04,0.24c0,0.24,0,0.48,0,0.72c0.058-0.662,1.185-0.255,1.44-0.72c0.664,0.103,0.013,0.755-0.48,0.48   c0.062,0.499,1.055,0.065,1.2,0.48c0.84-1.218,2.261,0.287,4.8-0.48c-0.073,3.463,0.554,8.912,0.24,11.52   c-4.479,0.072-7.013,0.804-12.24,0.48C13.736,22.688,13.518,17.911,13.604,13.593z"></path><path fill-rule="evenodd" clip-rule="evenodd" d="M28.724,70.953c-2.654-0.441-8.119,0.414-11.04,0.479   c-1.598,0.036-5.784-0.524-6.24,0c-0.234,0.27,0.386,2.214-0.24,1.681c0,0.64,0,1.279,0,1.92c0.56,3.92,0.081,8.879,0.24,13.199   c3.3,0.396,6.17,1.057,8.16,0.721c0.674,0.437,0.284,0.046,0.72,0.72c0.99-0.242,1.542,0.147,2.16-0.72   c0.721,1.692,4.967-0.364,6.24,0.479c1.487-2.373,0.377-5.535,0.24-8.399C28.796,77.529,29.762,73.843,28.724,70.953z"></path><path fill-rule="evenodd" clip-rule="evenodd" d="M29.204,31.353c-3.11-0.907-8.328-0.083-13.44,0   c-2.632,0.043-4.679-0.68-4.56,1.92c0,0.56,0,1.12,0,1.68c0.56,3.92,0.081,8.879,0.24,13.2c3.742,0.571,5.193,1.219,8.4,0.72   c0.422,0.058,0.547,0.413,0.48,0.96c1.28-1.304,1.281,0.556,2.16-0.96c1.474,1.843,4.87-0.503,5.76,0.72   c2.288-1.988,0.839-5.518,0.72-8.4C28.824,37.816,29.378,34.437,29.204,31.353z"></path><path fill-rule="evenodd" clip-rule="evenodd" d="M32.564,22.713c3.359,0.257,6.492,0.506,9.12,0.24   c0.024,0.269-0.349,0.374,0,0.48c0.569-0.09,2.026,0.597,2.64-0.48c-0.013,0.307-0.308,0.332-0.24,0.72   c2.423-0.973,7.659,0.906,11.28-0.96c0.152,0.523-0.681,0.764,0.24,0.72c10.307-0.079,19.872-0.484,31.92-0.24   c0.134-0.346,0.374-0.585,0.72-0.72c-0.252-2.22,0.023-3.693-0.24-5.28c-4.521-0.43-8.863-0.011-13.439,0   c-12.828,0.032-27.196,0.414-42,0.24C32.734,19.856,32.011,20.583,32.564,22.713z"></path><path fill-rule="evenodd" clip-rule="evenodd" d="M87.044,36.633c-15.021,1.041-35.645,0.64-54.48,0.96c0,1.6,0,3.2,0,4.8   c6.219,0.208,8.787,0.992,14.16,0.48c-0.414,0.499,0.565,0.409,1.2,0.96c0.379-0.004,0.556-0.63,1.44-0.72   c-0.165,0.592,1.348,0.378,2.16-0.24c0.022,0.377-0.032,0.832,0.479,0.72c2.583-0.391,5.602,0.649,8.16-0.96   c0.399,0.477-0.021,0.305,0,0.96c4.986-0.699,10.271,0.347,15.36-0.72c1.556,0.883,4.004-0.036,6,0   c2.308,0.042,4.849,0.995,6.72-0.24c-0.426-2.027-0.013-2.509,0-5.28C87.745,37.212,87.469,36.849,87.044,36.633z"></path><path fill-rule="evenodd" clip-rule="evenodd" d="M87.524,56.793c-17.912,0.678-32.122,0.599-54.96,0.72c0,1.681,0,3.36,0,5.04   c3.898-0.171,6.455,0.761,10.08,0.24c0.454,0.026,0.167,0.793,0.72,0.72c1.59-1.093,1.86,0.364,3.36-0.72   c-0.001,0.24,0.194,0.285,0.24,0.479c-1.528,0.263,1.393,0.728,2.4-0.239c-0.013,0.307-0.308,0.332-0.24,0.72   c0.855-0.573,1.615-0.094,2.4-0.96c0.022,0.377-0.032,0.832,0.479,0.72c1.968-0.137,5.358,0.507,8.4-0.72   c-0.014,0.307-0.308,0.332-0.24,0.72c8.634-0.018,16.688-0.622,24-0.479c1.489,0.028,3.025,0.747,4.08-0.48   C87.462,60.881,89.062,58.465,87.524,56.793z"></path><path fill-rule="evenodd" clip-rule="evenodd" d="M70.964,77.433c-11.662-0.512-24.731,0.307-38.4,0c0,1.681,0,3.36,0,5.04   c3.818-0.144,6.5,0.789,10.08,0.24c0.557,0.352-0.469,0.761,0.48,0.72c0.976-0.635,4.239-0.837,3.36,0   c0.756-0.096,2.085,0.571,2.88-0.479c-0.013,0.307-0.308,0.332-0.24,0.72c1.086-0.687,1.263,0.193,2.4-0.72   c0.438,1.638,4.925-0.216,6.72,0.72c0.637-0.403,1.449-0.631,2.16-0.96c-0.058,0.343-0.396,0.404-0.48,0.72   c9.6-0.162,17.784-0.141,28.08-0.479c0.168-1.437,0.053-3.603,0.24-5.521C83.511,75.809,76.686,77.685,70.964,77.433z"></path></g></svg>