<svg height='100px' width='100px'  fill="#000000" xmlns="http://www.w3.org/2000/svg" xmlns:xlink="http://www.w3.org/1999/xlink" version="1.1" x="0px" y="0px" viewBox="0 0 64 64" style="enable-background:new 0 0 64 64;" xml:space="preserve"><g><path d="M27.304,20h2.609l-0.5-6H28c-1.654,0-3-1.346-3-3s1.346-3,3-3h0.16c1.548,0,2.861,1.208,2.99,2.751L31.253,12h1.493   l0.104-1.249C32.979,9.208,34.292,8,35.84,8H36c1.654,0,3,1.346,3,3s-1.346,3-3,3h-1.413l-0.5,6h2.609   C39.275,18.396,41,15.222,41,12c0-4.963-4.038-9-9-9s-9,4.037-9,9C23,15.222,24.725,18.396,27.304,20z"></path><path d="M30,26v0.667c0,0.544-0.152,1.058-0.413,1.506L32,30.586l2.413-2.413C34.152,27.725,34,27.211,34,26.667V26H30z"></path><path d="M27.924,37h8.267c0.437-2.364,1.631-4.46,3.323-6.036l-3.574-1.489L32,33.414l-3.939-3.94l-3.233,1.348   C26.506,32.421,27.64,34.58,27.924,37z"></path><path d="M37,11c0-0.552-0.449-1-1-1h-0.16c-0.516,0-0.954,0.402-0.997,0.917L34.753,12H36C36.551,12,37,11.552,37,11z"></path><rect x="28" y="22" width="8" height="2"></rect><path d="M38,39v14.417l4.384-1.827C42.758,51.434,43,51.071,43,50.667v-0.951c-1.873-1.801-3-4.317-3-7.041v-4.396l7-2.333l7,2.333   v4.396c0,2.724-1.127,5.239-3,7.041v0.951c0,0.404,0.242,0.767,0.615,0.923L56,53.417V39c0-4.963-4.038-9-9-9S38,34.037,38,39z"></path><path d="M43.618,55h6.764l0.727-1.455l-0.263-0.11c-0.963-0.401-1.63-1.26-1.8-2.264c-0.544,0.308-1.119,0.573-1.73,0.777   L47,52.054l-0.316-0.105c-0.61-0.203-1.185-0.469-1.73-0.777c-0.17,1.004-0.837,1.863-1.801,2.264l-0.263,0.109L43.618,55z"></path><path d="M52,42.676v-2.955l-5-1.667l-5,1.667v2.955c0,3.239,1.996,6.116,5,7.263C50.004,48.792,52,45.915,52,42.676z"></path><polygon points="32.58,14 31.42,14 31.92,20 32.08,20  "></polygon><path d="M28.16,10H28c-0.551,0-1,0.448-1,1s0.449,1,1,1h1.247l-0.09-1.083C29.113,10.402,28.676,10,28.16,10z"></path><path d="M10.822,46.592C10.293,45.383,10,44.057,10,42.676V38h2.171c1.557,0,3.021-0.606,4.122-1.707L17,35.586l0.707,0.707   C18.808,37.394,20.272,38,21.829,38H24v4.676c0,1.381-0.293,2.707-0.822,3.916C24.898,45.305,26,43.272,26,41v-2.808   C26,33.675,22.325,30,17.808,30c-2.188,0-4.245,0.853-5.793,2.399l-0.503,0.504l-0.269,0.066C9.333,33.447,8,35.155,8,37.123V41   C8,43.273,9.102,45.306,10.822,46.592z"></path><path d="M27,56l-3.667-1.528l-1.771,6.2L17,57.25l-4.563,3.422l-1.771-6.2L7,56c-2.117,0.882-3.582,2.783-3.923,5h27.847   C30.582,58.783,29.117,56.882,27,56z"></path><path d="M37,56c-2.117,0.882-3.582,2.783-3.923,5h11.305l-3.342-6.684L37,56z"></path><path d="M57,56l-4.041-1.684L49.618,61h11.305C60.582,58.783,59.117,56.882,57,56z"></path><polygon points="46.618,61 47.382,61 49.382,57 44.618,57  "></polygon><polygon points="21.475,53.698 20.939,53.474 18.522,55.892 20.437,57.328  "></polygon><path d="M22,40h-0.171c-1.773,0-3.456-0.586-4.829-1.665C15.627,39.414,13.944,40,12.171,40H12v2.676c0,3.239,1.996,6.116,5,7.263   c3.004-1.146,5-4.023,5-7.263V40z"></path><polygon points="12.525,53.697 13.562,57.328 15.478,55.892 13.061,53.474  "></polygon><path d="M19.413,52.173c-0.179-0.307-0.306-0.643-0.367-1.001c-0.544,0.308-1.119,0.573-1.73,0.777L17,52.054l-0.316-0.105   c-0.61-0.203-1.185-0.469-1.73-0.777c-0.061,0.358-0.188,0.695-0.367,1.001L17,54.586L19.413,52.173z"></path><rect x="45" y="11" width="6" height="2"></rect><rect x="42.856" y="3" transform="matrix(0.8661 -0.4999 0.4999 0.8661 4.1418 23.4603)" width="6" height="2"></rect><rect x="17.143" y="1" transform="matrix(0.5 -0.866 0.866 0.5 5.6078 17.7129)" width="2" height="6"></rect><rect x="13" y="11" width="6" height="2"></rect><rect x="15.143" y="19" transform="matrix(0.8661 -0.4999 0.4999 0.8661 -7.5685 11.7489)" width="6" height="2"></rect><rect x="44.856" y="17" transform="matrix(0.5 -0.866 0.866 0.5 5.6081 49.7133)" width="2" height="6"></rect></g></svg>