<svg height='100px' width='100px'  fill="#1A1A1A" xmlns="http://www.w3.org/2000/svg" xmlns:xlink="http://www.w3.org/1999/xlink" version="1.1" x="0px" y="0px" viewBox="0 0 184.848 281.744" style="enable-background:new 0 0 184.848 281.744;" xml:space="preserve"><g><g><circle cx="113.847" cy="67.062" r="22.5"></circle><path d="M140.898,123.562v-4.137c0.482,0.992,0.97,2.111,1.453,3.369c4.841-2.674,9.271-6.005,13.165-9.876    c-0.976-2.05-2.011-3.894-3.095-5.55c-3.286-4.988-7.128-8.184-10.678-9.955c-3.398-1.717-6.39-2.109-8.193-2.134    c-0.128-0.007-0.253-0.019-0.382-0.019H94.534c-0.116,0-0.229,0.013-0.344,0.018c-1.8,0.02-4.812,0.406-8.239,2.134    c-0.174,0.086-0.35,0.183-0.524,0.276c2.124,1.827,4.375,4.259,6.497,7.481c3.992,6.1,6.973,13.898,8.979,23.509    c4.17,0.94,8.496,1.46,12.946,1.46C123.593,130.138,132.785,127.754,140.898,123.562z"></path><path d="M57.892,41.759c10.55-20.144,31.641-33.897,55.956-33.897c34.869,0,63.137,28.268,63.137,63.138    s-28.268,63.138-63.137,63.138c-4.151,0-8.204-0.412-12.132-1.177c0.442,2.606,0.819,5.337,1.134,8.189    c3.585,0.557,7.257,0.851,10.998,0.851c39.211,0,71-31.789,71-71.001s-31.789-71-71-71C85.526,0,61.085,16.586,49.689,40.571    c0.107-0.001,0.215-0.008,0.323-0.008C52.755,40.563,55.402,40.981,57.892,41.759z"></path><path d="M8.576,190.987c0.158,0,0.316-0.004,0.477-0.014c4.41-0.259,7.777-4.045,7.519-8.455    c-0.391-6.652-0.569-12.709-0.569-18.221c-0.035-24.221,3.496-37.824,6.966-44.924v150.007c0,6.83,5.537,12.363,12.363,12.363    c6.828,0,12.365-5.533,12.365-12.363v-90.271h4.635v90.271c0,6.83,5.537,12.363,12.363,12.363c6.829,0,12.365-5.533,12.365-12.363    V119.425c0.593,1.215,1.19,2.609,1.78,4.235c2.817,7.813,5.188,20.63,5.18,40.638c0,5.515-0.178,11.574-0.565,18.225    c-0.257,4.412,3.112,8.193,7.522,8.451c0.158,0.01,0.316,0.014,0.473,0.014c4.207,0,7.733-3.283,7.979-7.535    c0.401-6.932,0.59-13.297,0.59-19.154c-0.039-30.182-4.861-46.886-11.434-56.93c-3.286-4.988-7.128-8.184-10.678-9.955    c-3.398-1.717-6.39-2.109-8.193-2.134c-0.128-0.007-0.253-0.019-0.382-0.019H30.696c-0.116,0-0.228,0.013-0.344,0.018    c-1.8,0.02-4.812,0.406-8.239,2.134c-5.377,2.668-11.174,8.502-15.236,18.841C2.773,126.632,0.014,141.64,0,164.298    c0.003,5.855,0.189,12.225,0.598,19.16C0.847,187.708,4.373,190.987,8.576,190.987z"></path><circle cx="50.014" cy="67.062" r="22.5"></circle><rect x="143.264" y="22.95" transform="matrix(0.7071 -0.7071 0.7071 0.7071 17.4332 112.4081)" width="2.271" height="24.423"></rect><rect x="136.171" y="30.043" transform="matrix(0.7071 -0.7071 0.7071 0.7071 10.3383 109.4672)" width="2.272" height="24.422"></rect><rect x="139.719" y="15.017" transform="matrix(0.7071 -0.7071 0.7071 0.7071 13.8857 110.9375)" width="2.27" height="47.381"></rect></g></g></svg>