<svg height='100px' width='100px'  fill="#000000" xmlns="http://www.w3.org/2000/svg" viewBox="0 0 64 64" x="0px" y="0px"><title>ruin icon</title><desc>ruin icon for website, application, printing, document, poster design, etc.</desc><metadata><?xpacket begin="&#65279;" id="W5M0MpCehiHzreSzNTczkc9d"?><x:xmpmeta xmlns:x="adobe:ns:meta/" x:xmptk="Adobe XMP Core 5.6-c148 79.163820, 2019/02/20-18:54:02        "></x:xmpmeta><?xpacket end="w"?></metadata><path d="M61,56H59V53a1,1,0,0,0-1-1H44V50H55a1,1,0,0,0,0-2H54V35a1,1,0,0,0-.29-.71l-1.86-1.85-1.92-4.81h0s0,0,0-.05a.78.78,0,0,0-.16-.24.6.6,0,0,0-.08-.08.86.86,0,0,0-.2-.13l-.1-.05A1,1,0,0,0,49,27H45a1,1,0,0,0-1,1V48H43a1,1,0,0,0-1,1v3H39V49a1,1,0,0,0-1-1H37V29h1a1,1,0,0,0,.92-1.39l-1.5-3.5a1,1,0,0,0-.81-.6l-4.5-.5H4V21H30a1,1,0,0,0,.38-.08,1,1,0,0,0,.33-.21l4-4a1,1,0,0,0,0-1.42L31,11.59V7a1,1,0,0,0-1.41-.91l-27,12A1,1,0,0,0,2,19v5a1,1,0,0,0,1,1H8v3a1,1,0,0,0,1,1h1V48H9a1,1,0,0,0-1,1v3H6a1,1,0,0,0,0,2H57v2H3a1,1,0,0,0-1,1v4a1,1,0,0,0,1,1H61a1,1,0,0,0,1-1V57A1,1,0,0,0,61,56ZM50.29,33.71,52,35.41V48H50V33.19l.07.18A1.11,1.11,0,0,0,50.29,33.71ZM46,29h2V48H46ZM32.59,16l-.76.76a2.91,2.91,0,0,1-1.77-3.29ZM29,11.06a4.92,4.92,0,0,0,1.35,7.17l-.76.77H5.46L29,8.54ZM35,48H33V29h2Zm-6,0V32a1,1,0,0,0-2,0V48H26a1,1,0,0,0-1,1v3H22V49a1,1,0,0,0-1-1H16V29h2V45a1,1,0,0,0,2,0V29h1a1,1,0,0,0,1-1V25h3v3a1,1,0,0,0,1,1h5V48ZM32,25l3.86.43L36.48,27H27V25ZM20,25v2H10V25Zm-8,4h2V48H12ZM10,52V50H20v2Zm17,0V50H37v2Zm33,8H4V58H60Z"></path></svg>