<svg xmlns="http://www.w3.org/2000/svg" xmlns:xlink="http://www.w3.org/1999/xlink" width="100" height="100" viewBox="0 0 100 100"><g transform="translate(50 50) scale(0.69 -0.69) rotate(0) translate(-50 -50)" style="fill:#000000"><svg fill="#000000" xmlns="http://www.w3.org/2000/svg" xmlns:xlink="http://www.w3.org/1999/xlink" xml:space="preserve" version="1.1" style="shape-rendering:geometricPrecision;text-rendering:geometricPrecision;image-rendering:optimizeQuality;" viewBox="0 0 846.66 846.66" x="0px" y="0px" fill-rule="evenodd" clip-rule="evenodd"><defs><style type="text/css">
   
    .fil0 {fill:#000000}
   
  </style></defs><g><path class="fil0" d="M611.95 256.47l51.44 50.12c-24.28,23.65 -59.35,30.36 -89.75,20.12l-13.01 12.67 3.48 3.4c5.6,5.46 5.6,14.37 0,19.82l-83.48 81.35 22.44 15.77 22.82 -22.23 35.04 34.14 -88.02 85.78 -35.05 -34.15 22.82 -22.24 -16.19 -21.86 -66.91 65.2c-5.6,5.45 -14.74,5.45 -20.34,0l-7.79 -7.59c-27.04,13.46 -58.81,-17.49 -44.99,-43.83l-7.79 -7.59c-5.6,-5.46 -5.59,-14.37 0.01,-19.82l66.52 -64.82 -19.61 -13.78 -22.82 22.24 -35.05 -34.15 88.03 -85.78 35.04 34.15 -22.81 22.23 14.14 19.12 83.09 -80.96c5.6,-5.46 14.74,-5.47 20.34,-0.01l3.49 3.4 13.01 -12.67c-10.51,-29.63 -3.63,-63.81 20.65,-87.46l51.43 50.12 23.77 -14.1 10.52 10.25 -14.47 23.16zm-161.12 109.08l-31.14 30.35c-21.03,20.48 10.77,51.46 31.79,30.98l31.15 -30.35c21.02,-20.49 -10.77,-51.47 -31.8,-30.98zm380.15 369.21l-88.03 85.77 -35.05 -34.15 88.03 -85.77 35.05 34.15zm-45.08 -43.92l-88.03 85.76 -34.91 -34.01 88.03 -85.77 34.91 34.02zm-44.94 -43.79l-88.02 85.77 -35.04 -34.14 88.02 -85.77 35.04 34.14zm-45.01 -43.85l-88.02 85.77 -35.05 -34.15 88.03 -85.77 35.04 34.15zm-45 -43.85l-88.03 85.77 -35.04 -34.15 88.03 -85.77 35.04 34.15zm-45.01 -43.87l-88.03 85.78 -35.05 -34.15 88.03 -85.77 35.05 34.14zm-502.23 -489.36l-88.03 85.78 35.04 34.14 88.03 -85.77 -35.04 -34.15zm45.07 43.92l-88.02 85.78 34.91 34.01 88.02 -85.77 -34.91 -34.02zm44.94 43.79l-88.03 85.77 35.04 34.14 88.03 -85.77 -35.04 -34.14zm45.01 43.85l-88.03 85.78 35.05 34.14 88.02 -85.77 -35.04 -34.15zm45 43.85l-88.03 85.78 35.05 34.14 88.03 -85.77 -35.05 -34.15zm45.02 43.86l-88.03 85.78 35.04 34.15 88.03 -85.78 -35.04 -34.15zm217.98 66.55c-2.07,-1.68 -4.09,-3.46 -6.03,-5.35 -1.95,-1.89 -3.77,-3.86 -5.49,-5.88l-7.13 6.96 11.52 11.22 7.13 -6.95z"></path></g></svg></g></svg>