<svg xmlns="http://www.w3.org/2000/svg" xmlns:xlink="http://www.w3.org/1999/xlink" width="100" height="100" viewBox="0 0 100 100"><g transform="translate(50 50) scale(-0.69 0.69) rotate(0) translate(-50 -50)" style="fill:#000000"><svg fill="#000000" xmlns="http://www.w3.org/2000/svg" xmlns:xlink="http://www.w3.org/1999/xlink" version="1.1" x="0px" y="0px" viewBox="0 0 100 100" enable-background="new 0 0 100 100" xml:space="preserve"><path d="M82.93,5.801l-2.665,2.674c-0.191,0.193-0.298,0.453-0.298,0.723c0,0.001,0,0.001,0,0.002c0,0.271,0.108,0.531,0.3,0.722  l1.832,1.825l-8.231,8.23l-6.055-6.063c-0.399-0.399-1.047-0.399-1.447-0.001l-2.668,2.665c-0.191,0.191-0.3,0.452-0.3,0.723v0.001  c0,0.271,0.107,0.532,0.299,0.724l1.659,1.661L30.956,54.083c-0.197,0.197-0.3,0.459-0.3,0.725c0,0.151,0.034,0.305,0.104,0.447  c0.646,1.324,1.462,2.66,2.418,3.975l-4.687,4.688c-0.198,0.198-0.3,0.46-0.3,0.724c0,0.209,0.063,0.419,0.193,0.6  c0.684,0.943,1.452,1.842,2.257,2.708L5.839,92.753c-0.199,0.2-0.299,0.462-0.299,0.725c0,0.262,0.1,0.523,0.299,0.723  c0.4,0.399,1.048,0.399,1.447,0l24.801-24.803c0.845,0.791,1.727,1.546,2.706,2.262c0.407,0.297,0.97,0.254,1.326-0.104l4.7-4.695  c1.312,0.951,2.644,1.767,3.961,2.41c0.393,0.192,0.864,0.113,1.173-0.195l20.052-20.051c0.005-0.006,0.012-0.007,0.017-0.012  c0.004-0.005,0.006-0.011,0.01-0.016l14.307-14.306l1.638,1.64c0.399,0.4,1.047,0.4,1.447,0.001l2.669-2.664  c0.191-0.191,0.3-0.452,0.3-0.724v-0.001c0-0.271-0.107-0.531-0.299-0.723l-5.965-5.975l8.246-8.244l1.675,1.669  c0.399,0.398,1.048,0.397,1.446-0.002l2.667-2.675c0.191-0.191,0.299-0.451,0.299-0.722c0-0.001,0-0.001,0-0.002  c-0.001-0.271-0.109-0.532-0.301-0.723l-9.783-9.749C83.977,5.398,83.329,5.4,82.93,5.801z M34.438,60.863  c0.061,0.069,0.126,0.138,0.187,0.207c0.649,0.771,1.341,1.528,2.078,2.265c0.718,0.717,1.458,1.391,2.209,2.025  c0.09,0.08,0.175,0.169,0.265,0.248l-3.874,3.873c-0.901-0.701-1.728-1.432-2.51-2.218c-0.003-0.003-0.004-0.008-0.007-0.011  s-0.007-0.004-0.011-0.007c-0.791-0.794-1.531-1.634-2.21-2.509L34.438,60.863z M47.059,45.459c0.399,0.4,0.399,1.048,0,1.447  l-9.009,9.008c-0.399,0.4-1.047,0.4-1.446,0c-0.2-0.199-0.3-0.461-0.3-0.723s0.1-0.523,0.3-0.723l9.009-9.01  C46.012,45.06,46.659,45.06,47.059,45.459z M52.072,40.446c0.4,0.399,0.399,1.047,0.001,1.446l-2.47,2.472  c-0.399,0.399-1.048,0.399-1.447,0c-0.2-0.199-0.3-0.461-0.3-0.723s0.1-0.523,0.3-0.724l2.47-2.472  C51.025,40.046,51.673,40.046,52.072,40.446z M66.801,21.134l12.091,12.108L65.295,46.839L53.193,34.741L66.801,21.134z   M73.101,22.106c0.014,0.015,0.019,0.035,0.033,0.05l4.818,4.819c0.01,0.01,0.023,0.014,0.034,0.023l5.936,5.943L82.7,34.161  l-1.594-1.596c-0.015-0.018-0.02-0.038-0.036-0.055L67.529,18.96c-0.007-0.007-0.016-0.01-0.022-0.016l-1.641-1.643l1.222-1.219  L73.101,22.106z M83.531,13.208l3.371,3.373l-8.221,8.218l-3.369-3.374L83.531,13.208z M83.657,7.97l8.333,8.304L90.769,17.5  l-8.333-8.304L83.657,7.97z M70.77,32.625c0.399,0.399,1.047,0.399,1.447,0c0.399-0.399,0.399-1.047,0-1.446l-3.736-3.737  c-0.399-0.399-1.047-0.399-1.447,0c-0.199,0.199-0.3,0.461-0.3,0.723s0.101,0.523,0.3,0.724L70.77,32.625z M64.716,31.203  c-0.399-0.399-1.048-0.399-1.447,0c-0.199,0.2-0.3,0.462-0.3,0.724s0.101,0.523,0.3,0.724l3.737,3.739  c0.399,0.399,1.047,0.399,1.446,0c0.4-0.4,0.399-1.047,0.001-1.447L64.716,31.203z M60.95,34.969c-0.399-0.399-1.048-0.399-1.447,0  c-0.199,0.2-0.299,0.462-0.299,0.724s0.1,0.523,0.299,0.723l3.739,3.736c0.399,0.4,1.048,0.4,1.447,0  c0.398-0.399,0.399-1.047-0.001-1.446L60.95,34.969z"></path></svg></g></svg>