<svg height='100px' width='100px'  fill="#000000" xmlns:dc="http://purl.org/dc/elements/1.1/" xmlns:cc="http://creativecommons.org/ns#" xmlns:rdf="http://www.w3.org/1999/02/22-rdf-syntax-ns#" xmlns:svg="http://www.w3.org/2000/svg" xmlns="http://www.w3.org/2000/svg" xmlns:sodipodi="http://sodipodi.sourceforge.net/DTD/sodipodi-0.dtd" xmlns:inkscape="http://www.inkscape.org/namespaces/inkscape" version="1.1" x="0px" y="0px" viewBox="0 0 100 100"><g transform="translate(0,-952.36218)"><path style="color:#000000;enable-background:accumulate;" d="m 50.000001,959.36219 -5.5938,3.84375 -6.6562,-1.40625 -3.7188,5.68749 -6.6562,1.25 -1.25,6.6875 -5.6876,3.7188 1.375,6.625 -3.8124,5.5937 3.8124,5.625 -1.375,6.62502 5.6876,3.7187 1.25,6.6875 6.6562,1.25 3.7188,5.6875 6.6562,-1.4062 5.5938,3.8125 5.5937,-3.8125 6.6563,1.4062 3.7187,-5.6875 6.6563,-1.25 1.25,-6.6875 5.6874,-3.7187 -1.375,-6.62502 3.812597,-5.625 -3.812597,-5.5937 1.375,-6.625 -5.6874,-3.7188 -1.25,-6.6875 -6.6563,-1.25 -3.7187,-5.68749 -6.6563,1.40625 -5.5937,-3.84375 z m 0,9.03129 c 12.6908,0 23,10.3092 23,23 0,12.69072 -10.3092,22.99992 -23,22.99992 -12.6908,0 -23,-10.3092 -23,-22.99992 0,-12.6908 10.3092,-23 23,-23 z m 0,2 c -11.6098,0 -21,9.3901 -21,21 0,11.60982 9.3902,20.99992 21,20.99992 11.609801,0 21,-9.3901 21,-20.99992 0,-11.6099 -9.390199,-21 -21,-21 z m 11,10.8437 4.25,4.25 -2.125,2.0938 -14,14.00002 -2,2 -2.0938,-1.8438 -8,-7.00002 -2.25,-1.9687 3.9375,-4.5313 2.25,1.9688 5.9063,5.1562 12,-12 2.125,-2.125 z m -37.1876,26.96872 -16.8123995,26.1563 14.9999995,-3 4,14 13.6874,-22.8125 -1.5312,0.3125 c -0.7806,0.1714 -1.6501,-0.1791 -2.0938,-0.8438 l -3.25,-4.9687 -5.8124,-1.125 c -0.7837,-0.1485 -1.4455,-0.81 -1.5938,-1.5938 l -1.125,-5.8125 -0.4688,-0.3125 z m 52.375,0 -0.4687,0.3125 -1.125,5.8125 c -0.1485,0.7838 -0.8101,1.4453 -1.5937,1.5938 l -5.8126,1.125 -3.25,4.9687 c -0.4435,0.6647 -1.3133,1.0152 -2.0937,0.8438 l -1.5313,-0.3125 13.6876,22.8125 4,-14 14.999998,3 -16.812597,-26.1563 z" fill="#000000" stroke="none" marker="none" visibility="visible" display="inline" overflow="visible"></path></g></svg>