<svg height='100px' width='100px'  fill="#1A1A1A" xmlns="http://www.w3.org/2000/svg" xmlns:xlink="http://www.w3.org/1999/xlink" version="1.1" x="0px" y="0px" viewBox="0 0 100 100" style="enable-background:new 0 0 100 100;" xml:space="preserve"><polygon points="20,98 84,98 84,94 84,16 84,12 80,12 68,12 68,16 80,16 80,94 20,94 20,16 32,16 32,12 16,12 16,14 16,16 16,98   17,98 "></polygon><path d="M50,2c-4.4,0-8,3.6-8,8h-6v14h28V10h-6C58,5.6,54.4,2,50,2z M50,14c-2.2,0-4-1.8-4-4c0-2.2,1.8-4,4-4s4,1.8,4,4  C54,12.2,52.2,14,50,14z"></path><rect x="48" y="58" width="24" height="2"></rect><rect x="48" y="78" width="24" height="2"></rect><rect x="48" y="38" width="24" height="2"></rect><polygon points="38.6,32.6 32,39.2 29.4,36.6 26.6,39.4 32,44.8 41.4,35.4 "></polygon><polygon points="38.6,52.6 32,59.2 29.4,56.6 26.6,59.4 32,64.8 41.4,55.4 "></polygon><polygon points="29.4,76.6 26.6,79.4 32,84.8 41.4,75.4 38.6,72.6 32,79.2 "></polygon></svg>