<svg height='100px' width='100px'  fill="#1A1A1A" xmlns="http://www.w3.org/2000/svg" xmlns:xlink="http://www.w3.org/1999/xlink" version="1.1" x="0px" y="0px" viewBox="0 0 32 32" enable-background="new 0 0 32 32" xml:space="preserve"><g><path d="M13.236,15.32L13.236,15.32c1.922,0.349,3.623-1.543,2.232-2.408c-0.915-0.569-1.993-0.9-3.148-0.9   c1.211-0.273,2.42-0.156,3.497,0.266c0.264,0.103,0.522-0.15,0.435-0.419c-0.6-1.848-2.771-2.537-4.789-0.898   c-1.062,0.862-1.461,1.046-1.471,1.05C10.692,12.712,11.491,15.06,13.236,15.32z"></path><path d="M16.935,8.095c0.069-1.791,0.961-3.143,2.622-3.893c-0.745,0.966-1.235,2.047-1.488,3.165l-0.003,0   c-0.393,1.741-0.801,2.883-0.952,8.433c-0.015,0.563,0.441,1.029,1.004,1.022c0.408-0.005,0.757-0.264,0.913-0.64   c0.238-0.572,0.626-1.164,1.258-1.707c0.6,0.663,1.513,1.016,2.458,0.845v0c1.737-0.259,2.548-2.612,3.244-3.308   c-0.01-0.005-0.409-0.188-1.471-1.05c-3.484-2.83-5.706,1.633-4.325,1.19c0.981-0.314,2.053-0.383,3.129-0.14   c-1.822,0-3.502,0.835-4.622,2.195c0.092-2.136,0.231-3.474,0.392-4.468c0.931-0.032,2.172-0.784,2.853-2.099   c1.175-2.102,0.63-4.258,0.455-5.618c-0.918,0.894-4.927-0.154-6.517,2.57c-0.702,1.203-0.498,2.667,0.241,3.739   C16.36,8.67,16.919,8.507,16.935,8.095z"></path><path d="M29.642,17.877c-1.089-0.739-2.274-0.212-2.819,0.102l-6.831,5l-4,0.001l-1-1h3.674c1.105,0,2.342-0.72,2.342-2   c0-1.36-1.237-2-2.342-2h-1.377c-1.023,0-2.218,0.091-3.06-0.36l0,0.003c-0.801-0.407-1.723-0.642-2.707-0.642   c-1.652,0-3.131,0.659-4.145,1.698l-5.385,5.302l6,6l2-3h9.451c1.008,0,1.981-0.37,2.734-1.039l7.533-6.692   C30.129,18.875,30.106,18.191,29.642,17.877z"></path></g></svg>