<svg height='100px' width='100px'  fill="#000000" xmlns="http://www.w3.org/2000/svg" xmlns:xlink="http://www.w3.org/1999/xlink" xmlns:xodm="http://www.corel.com/coreldraw/odm/2003" xml:space="preserve" version="1.1" style="shape-rendering:geometricPrecision;text-rendering:geometricPrecision;image-rendering:optimizeQuality;" viewBox="0 0 1000000 1000000" x="0px" y="0px" fill-rule="evenodd" clip-rule="evenodd"><defs><style type="text/css">
   
    .fil0 {fill:#000000}
    .fil1 {fill:#000000;fill-rule:nonzero}
    .fil2 {fill:#000000;fill-rule:nonzero}
   
  </style></defs><g><g><path class="fil0" d="M161500 431900c-24900,0 -45000,23500 -45000,52500 0,29000 20100,52500 45000,52500 24800,0 45000,-23500 45000,-52500 0,-29000 -20200,-52500 -45000,-52500z"></path><path class="fil1" d="M282900 603100c12400,-200 22700,9600 22900,22000 200,12400 -9600,22600 -22000,22800 -31900,700 -57900,-9700 -79200,-25100 -4900,-3600 -5900,-2200 -6700,3100 -1100,7500 -2000,15600 -2900,24100l-25000 0c-7500,0 -14500,3700 -18700,9900l-21800 29100c-3600,4900 -5100,11000 -4200,17000l35100 224500c-4000,10800 -14100,18700 -26300,19400 -16500,1000 -30700,-11600 -31700,-28100 -4500,-75100 -4900,-187000 2100,-267400 400,-4700 600,-5200 -1000,-200 -3800,11900 -6800,25700 -8700,41900 -1400,12300 -12500,21200 -24900,19800 -12300,-1500 -21200,-12600 -19800,-24900 5000,-42000 16900,-72500 30800,-94100 23000,-35800 53500,-48800 70200,-49700 25900,-1500 45700,13500 67500,29900 18800,14300 41400,26500 64300,26000z"></path><path class="fil0" d="M797500 432500c24800,0 45000,23500 45000,52500 0,29000 -20200,52500 -45000,52500 -24900,0 -45000,-23500 -45000,-52500 0,-29000 20100,-52500 45000,-52500z"></path><path class="fil1" d="M903200 809000c3900,36000 4900,72400 4900,111000 0,16600 -13400,30000 -30000,30000 -16600,0 -30000,-13400 -30000,-30000 0,-14000 -100,-27500 -500,-40800l27100 -173200c900,-6000 -600,-12100 -4200,-17000l-21800 -29100c-4200,-6200 -11200,-9900 -18700,-9900l-43500 0c-3600,-13300 -8100,-24600 -13400,-32800 -9800,-16800 -19900,-21600 -43600,-24600 -28700,-3500 -66000,-15400 -81900,-41400 -6500,-10600 -3200,-24400 7300,-30900 10600,-6500 24500,-3200 31000,7400 35000,56900 196900,-21000 260100,69900 7100,10200 4500,24200 -5600,31300 -10200,7100 -24200,4600 -31300,-5600 -9300,-13300 -23200,-20800 -39600,-25000 -2900,-700 -5000,1900 -3700,5400 20800,55900 31300,148700 37400,205300z"></path><path class="fil2" d="M650000 665000l180000 0c2700,0 5100,1400 6400,3500l22100 29500c1200,1700 1700,3700 1400,5600l-37500 240000c-600,3700 -3800,6400 -7400,6400l0 0 -150000 0c-4100,0 -7500,-3400 -7500,-7500l-15000 -269600c-200,-4100 3000,-7600 7100,-7900l400 0 0 0zm176300 15000l-168400 0 14200 255000 136500 0 36000 -230500 -18300 -24500z"></path><path class="fil2" d="M350000 665000l-180000 0c-2700,0 -5000,1400 -6400,3500l-22100 29500c-1200,1700 -1700,3700 -1400,5600l37500 240000c600,3700 3800,6400 7400,6400l0 0 150000 0c4100,0 7500,-3400 7500,-7500l15000 -269600c200,-4100 -3000,-7600 -7100,-7900l-400 0 0 0zm-176300 15000l168400 0 -14200 255000 -136500 0 -36000 -230500 18300 -24500z"></path><path class="fil0" d="M742100 715600c17600,0 31900,14300 31900,31900 0,17600 -14300,31900 -31900,31900 -17600,0 -31900,-14300 -31900,-31900 0,-17600 14300,-31900 31900,-31900z"></path><path class="fil0" d="M235400 717500l45000 0c4100,0 7500,3400 7500,7500l0 45000c0,4100 -3400,7500 -7500,7500l-45000 0c-4100,0 -7500,-3400 -7500,-7500l0 -45000c0,-4100 3400,-7500 7500,-7500z"></path><path class="fil1" d="M402500 665000l195000 0c4100,0 7500,3400 7500,7500 0,300 0,600 -100,900l-14900 269500c-200,4000 -3600,7100 -7500,7100l0 0 -165000 0c-4100,0 -7500,-3400 -7500,-7500l-15000 -269600c-200,-4100 3000,-7600 7100,-7900l400 0 0 0zm187100 15000l-179200 0 14200 255000 150800 0 14200 -255000z"></path><path class="fil0" d="M503300 718000l31800 55200c1100,1800 500,4100 -1300,5100 -600,400 -1300,500 -1900,500l0 100 -63800 0c-2000,0 -3700,-1700 -3700,-3800 0,-800 200,-1500 600,-2100l31800 -55000c1000,-1800 3300,-2400 5100,-1300 600,300 1100,800 1400,1300z"></path><g><path class="fil0" d="M507100 432500c-24800,0 -45000,23500 -45000,52500 0,29000 20200,52500 45000,52500 24900,0 45000,-23500 45000,-52500 0,-29000 -20100,-52500 -45000,-52500z"></path><path class="fil1" d="M361000 560800c-6700,-10400 -3700,-24300 6700,-31000 10500,-6700 24400,-3700 31100,6700 5900,9200 13400,16200 24400,19200 13200,3700 32100,2700 59400,-5000 12900,-5000 29000,-3900 40900,3100 21100,8700 49600,29000 70000,10400 9200,-8400 23400,-7700 31700,1500 8400,9100 7700,23300 -1500,31700 -23500,21400 -45800,23600 -66400,18800 -9500,-2200 -11200,900 -11200,7100 0,8500 0,17400 -200,26700l-89700 0c200,-13400 100,-25900 100,-37700 0,-9100 -2800,-10100 -10700,-9800 -13000,500 -24400,-700 -34400,-3500 -23400,-6500 -38800,-20300 -50200,-38200z"></path></g></g></g></svg>