<svg height='100px' width='100px'  fill="#333333" xmlns="http://www.w3.org/2000/svg" xmlns:xlink="http://www.w3.org/1999/xlink" version="1.1" x="0px" y="0px" viewBox="-0.377 40.48 100 32.04" enable-background="new -0.377 40.48 100 32.04" xml:space="preserve"><circle cx="29.101" cy="48.826" r="6.744"></circle><path d="M82.787,62.411c-0.149-0.267-12.173-14.4-12.173-14.4c-1.306-1.528-3.298-1.97-4.449-0.987  c-1.151,0.983-1.025,3.02,0.281,4.549l7.352,9.494l-13.456-1.693c-0.291-0.264-0.629-0.504-1.031-0.709c0,0-4.592-1.074-6.027-1.7  c-3.666-1.599-11.565-6.251-11.565-6.251c-2.689-1.37-5.047,0.175-6.417,2.864c-0.451,0.886-0.735,1.783-0.821,2.64L31.74,66.221  c-0.005,0.016-0.006,0.031-0.01,0.047h-11c-1.156,0-2.093,0.937-2.093,2.093s0.704,1.163,1.86,1.163l13.953,0.93  c2.325,0,2.677-1.748,2.894-2.418l2.46-5.79c2.978,1.723,7.431,4.207,10.001,5.212c1.082,0.423,4.548,0.947,4.548,0.947  c1.1,0.561,4.519,0.886,5.33,0.886h18.836c2.762,0,5-2.238,5-5C83.517,63.399,83.245,62.808,82.787,62.411z"></path><path d="M93.673,47.373c-1.228-0.886-3.177-0.281-4.352,1.351l-8.176,10.264c1.513,1.797,2.089,2.495,2.308,2.77  c0.661,0.602,0.996,1.454,0.996,2.533c0,0.208-0.011,0.414-0.033,0.616l9.353-12.977C94.944,50.298,94.901,48.258,93.673,47.373z"></path><path d="M20.466,70.453c-1.046,0-2.76-0.02-2.76-2.093c0-1.667,1.356-3.023,3.023-3.023h6.56l1.347-1.628H14.414l-5.08,3.256  l-4.711,3.953h17.209l0.413-0.346L20.466,70.453z"></path></svg>