<svg height='100px' width='100px'  fill="#000000" xmlns:x="http://ns.adobe.com/Extensibility/1.0/" xmlns:i="http://ns.adobe.com/AdobeIllustrator/10.0/" xmlns:graph="http://ns.adobe.com/Graphs/1.0/" xmlns="http://www.w3.org/2000/svg" xmlns:xlink="http://www.w3.org/1999/xlink" version="1.1" x="0px" y="0px" viewBox="0 0 100 100" style="enable-background:new 0 0 100 100;" xml:space="preserve"><g><g i:extraneous="self"><g><path d="M69.1,83.4c-0.1,1.3-0.7,2.5-1.5,3.6c-1.2,1.5-3,2.5-4.9,2.8c-0.3,0-0.6,0-1,0c-3.7,0-6.8-2.8-7.3-6.4     c-3.1,0.4-5.6,1.2-7.4,2.1c-1.5-0.3-3.3-0.4-5.1-0.4c-5.9,0-10.7,1.5-10.7,3.4c0,2,4.8,3.5,10.7,3.5c1.9,0,3.6-0.1,5.1-0.4     c3.1,1.6,8.5,2.6,14.7,2.6c9.6,0,17.5-2.5,17.5-5.7C79.2,86.3,75.1,84.3,69.1,83.4z"></path><ellipse cx="45.1" cy="95.8" rx="5.4" ry="1.7"></ellipse><path d="M91.9,81.7c-2.7-1.1-7.2-0.1-10.3,1.9c-0.6,0.4-0.3,1.4,0.4,1.4c2-0.2,4.1,0,6.2,2.3c1.8,1.9,4.3,3.8,6.2,1.5     C96.4,86.3,95.2,83,91.9,81.7z"></path><path d="M88.2,76.6c3.3-0.1,7.1-1,6.4-4.7c-0.7-3.7-4.8-5.3-8.8-3.2c-3.3,1.7-6,6.8-6.5,11.3c-0.1,0.9,1.1,1.4,1.7,0.7     C82.4,78.6,84.2,76.8,88.2,76.6z"></path><path d="M24.9,48.4c-0.1-0.4-0.2-0.8-0.1-1.3c0.4-2.4,0.8-4.5,1.1-6.2L37,50.6l15.7,12.3c1.1,0.9,1.9,2.2,2.1,3.6l2.2,16.6     c0.3,2.5,2.5,4.3,4.9,4.3c0.2,0,0.4,0,0.6,0c2.7-0.4,4.7-2.9,4.3-5.6l-2.2-16.6c-0.5-4-2.6-7.7-5.8-10.2l-6.1-4.8l11-2     c1.2-0.2,2.5,0,3.5,0.5l15.4,7.7c0.7,0.4,1.5,0.5,2.2,0.5c1.8,0,3.6-1,4.5-2.8c1.2-2.5,0.2-5.5-2.2-6.7l-15.4-7.7     c-3-1.5-6.5-2-9.8-1.4l-12.3,2.2L36.4,27c1.6-0.5,3.6-1.1,6.2-1.8c4.1-1.2,7.2-4.7,7.7-9l1.2-8.9c0.3-2.3-1.3-4.4-3.6-4.7     c-2.3-0.3-4.4,1.3-4.7,3.6l-1.2,8.9c-0.1,1-0.8,1.8-1.8,2.1c-14,4.1-14.7,4.9-15.6,6.1l-4.1,5.4c-0.7,0.9-1.5,1.9-4,17.1     c-0.3,1.8-0.1,3.6,0.5,5.3l3.6,10.4c0.6,1.7,2.2,2.8,3.9,2.8c0.5,0,0.9-0.1,1.4-0.2c2.2-0.8,3.3-3.1,2.6-5.3L24.9,48.4z"></path><ellipse transform="matrix(0.6409 -0.7677 0.7677 0.6409 -9.2923 17.2949)" cx="13.8" cy="18.6" rx="9.2" ry="9.2"></ellipse></g></g></g></svg>