<svg height='100px' width='100px'  fill="#000000" xmlns="http://www.w3.org/2000/svg" xmlns:xlink="http://www.w3.org/1999/xlink" version="1.1" x="0px" y="0px" viewBox="0 0 100 100" enable-background="new 0 0 100 100" xml:space="preserve"><g><circle fill="#000000" cx="40.5" cy="26.5" r="8.5"></circle><path fill="#000000" d="M94.9,82.3l-5.8-20l1.5-19.6c0.4-4.9-1.3-9.6-4.6-13.2c-1.3-1.4-2.8-2.6-4.5-3.5l9.7-10.6   c0.6-0.7,0.6-1.7-0.1-2.4c-0.7-0.6-1.7-0.6-2.4,0.1L78.6,24.3l-2.2-8.8c-0.5-2-2.6-3.1-4.6-2.4l-14.2,5.2c-4.3,1.5-4.9,2.7-5.4,4.5   c-0.1,0.2-0.1,0.3-0.2,0.5L52,24c0,0.2-0.1,0.4-0.2,0.6c-0.1,0.3-0.1,0.6-0.1,0.9L50,34.2c-0.1,0.3-0.1,0.5,0,0.8   c-0.1,1,0,2.2,0.2,3.7l1.6,8.8l-6.2,9.1c-0.8,1.2-0.8,2.7-0.2,3.8L28.1,79.2h-5.5v3.6h13.9v-3.6h-3.8L48.4,62c1,0,1.9-0.5,2.6-1.3   l4.6-6.4L67.8,41l6.2,1.3l-4.2,17.8l0.1,0c0,0.3-0.1,0.6,0,0.9L71.2,82c0.1,1.2,1.1,2,2.2,1.9l1.2-0.1c1.1-0.1,1.9-0.9,1.9-2   l1-20.8l2.9-6.5l0.9,9.4l0.1,0c0,0.3,0.1,0.6,0.2,0.8l8.2,19.3c0.5,1.1,1.7,1.6,2.7,1.1l1.1-0.5C94.7,84.4,95.2,83.3,94.9,82.3z    M59.2,45.4l-1.1-6.5l5.9,1.3L59.2,45.4z M69.7,22.8l0.8-0.3l0.2,0.5L69.7,22.8z"></path><path fill="#000000" d="M19.6,87.1h16.1l0.7-2.5H22.6C22.6,86.3,19.6,87.1,19.6,87.1z"></path><path fill="#000000" d="M21.4,72.4l0.1-2.4c-0.4,0.1-0.9,0.2-1.3,0.2c-3.5,0-7.2-3.6-9.1-5.7c-0.2,0.1-0.4,0.1-0.6,0.1   c-1,0-1.9-0.8-1.9-1.9c0-1,0.8-1.9,1.9-1.9c1,0,1.9,0.8,1.9,1.9c0,0.3-0.1,0.6-0.2,0.9c2,2.2,6.2,6.4,9.4,4.9l0.7-0.3   c0.3-0.2,0.6-0.4,0.8-0.5c2.7-2,1.5-5.5,0.5-7.2c-0.1-0.1-0.3-0.5-0.6-1c-0.1,0.1-0.1,0.1-0.2,0.1l-0.1,2c0.5,1,1.4,3.4-0.3,4.7   c0,0-0.3,0.2-0.7,0.5l0.4-7.8c0.4,0,0.8-0.4,0.8-0.8c0-0.8-0.1-1.4-1.4-1.4H6.4c-1.2,0-1.4,0.6-1.4,1.4C5,58.7,5.4,59,5.8,59h0.1   l0.7,13.2c0.1,1.3,1.1,2.3,2.4,2.3H19C20.3,74.5,21.4,73.5,21.4,72.4z"></path></g></svg>