<svg height='100px' width='100px'  fill="#000000" xmlns:x="http://ns.adobe.com/Extensibility/1.0/" xmlns:i="http://ns.adobe.com/AdobeIllustrator/10.0/" xmlns:graph="http://ns.adobe.com/Graphs/1.0/" xmlns="http://www.w3.org/2000/svg" xmlns:xlink="http://www.w3.org/1999/xlink" version="1.1" x="0px" y="0px" viewBox="0 0 100 100" style="enable-background:new 0 0 100 100;" xml:space="preserve"><g><g i:extraneous="self"><g><path d="M66.3,60.5l-2,1.5c-0.8,0.6-2,0.4-2.5-0.6c-0.4-0.7-0.1-1.6,0.5-2.2l1.9-1.4c0.2-0.2,0.2-0.5-0.1-0.5     c-1.4-0.5-2.9-0.4-4.2,0.6c-1.4,1-1.9,2.7-1.6,4.3L54,65.2c-0.1,0.4-0.3,0.8-0.5,1.2c-1.2,2.4-3.7,3.8-6.2,3.9     c-0.2,0.3-0.2,0.6-0.2,1c0,0.5,0.2,1,0.5,1.4c0.8,1.1,2.4,1.3,3.5,0.4l9.6-8.1c1.4,0.7,3.1,0.6,4.4-0.3c1.3-0.9,1.9-2.5,1.7-3.9     C66.7,60.4,66.5,60.3,66.3,60.5z"></path><path d="M51.1,65.1c1.2-2.2,0.3-4.9-1.9-6.1l-7.5-3.9c-4.5-7.9-5.7-9.1-6.1-9.4c-0.7-0.6-3.2-2.8-6.3-4.1l-3.4-1.4     c-1.8-0.7-3.9-0.7-5.6,0.1c-1.8,0.8-3.1,2.4-3.7,4.3L9.8,65c-0.6,1.9-0.2,4,1.2,5.4L18,78H7.9c-3,0-5.4,2.4-5.4,5.4     s2.4,5.4,5.4,5.4h22.6c2.2,0,4.1-1.3,5-3.3c0.9-2,0.5-4.3-1-5.9l-9-9.6l5.9-14.8c1,1.6,2.1,3.6,3.1,5.4c0.4,0.8,1.1,1.4,1.8,1.8     L45,67c0.7,0.3,1.4,0.5,2.1,0.5C48.7,67.6,50.3,66.7,51.1,65.1z"></path><ellipse transform="matrix(0.9503 -0.3113 0.3113 0.9503 -7.6685 11.7612)" cx="33" cy="29.9" rx="9.5" ry="9.5"></ellipse><path d="M76,62.7c-1.4-1.2-2.3-3-2.3-4.9v-3.2h-1.4c-3.1,0-5.8-2.1-6.5-5.1l-2.9-11.3h-1.1c-0.5,0-1-0.4-1-1v-2c0-0.5,0.4-1,1-1     h28.3V23.7h-4.5c-0.6,0.9-1.6,1.5-2.8,1.5c-1.2,0-2.2-0.6-2.8-1.5h-0.6c-1.2,0-2.1,0.8-2.5,1.8h0.4c0.3,0,0.5,0.2,0.5,0.5v0.8     c0,0.3-0.2,0.5-0.5,0.5h-5c-0.3,0-0.5-0.2-0.5-0.5V26c0-0.3,0.2-0.5,0.5-0.5h0.7c0.5-3.1,3.2-5.6,6.4-5.6H80     c0.4-0.6,1.1-1.1,1.9-1.4v-1.3h-1.1c-0.5,0-0.9-0.4-0.9-0.9c0-0.5,0.4-0.9,0.9-0.9h4.2c0.5,0,0.9,0.4,0.9,0.9     c0,0.5-0.4,0.9-0.9,0.9h-1.1v1.3c0.8,0.2,1.4,0.7,1.9,1.4h4.5v-7.1c0-0.9,0.7-1.6,1.6-1.6h4.2c0.9,0,1.6,0.7,1.6,1.6V53     c0,0.9-0.7,1.6-1.6,1.6H77.7v3.2c0,1.5,1.2,2.7,2.7,2.7h12.5v-0.1c0-0.6,0.5-1.2,1.2-1.2h2.3c0.6,0,1.2,0.5,1.2,1.2v4.1     c0,0.6-0.5,1.2-1.2,1.2h-2.3c-0.6,0-1.2-0.5-1.2-1.2v-0.1H80.4c-0.9,0-1.7-0.2-2.5-0.5l-0.3-2L76,62.7z"></path><path d="M77.3,66.2c-0.1-0.2-0.3-0.3-0.5-0.3s-0.4,0.1-0.5,0.3c0,0-1.2,2.3-1.5,2.9c-0.3,0.7-0.3,1.4,0,2c0.4,0.8,1.1,1.2,2,1.2     c0.4,0,0.7-0.1,1-0.2c0.5-0.3,0.9-0.7,1.1-1.3c0.2-0.6,0.1-1.2-0.1-1.7L77.3,66.2z"></path><path d="M77.3,74.8c-0.1-0.2-0.3-0.3-0.5-0.3s-0.4,0.1-0.5,0.3c0,0-1.2,2.3-1.5,2.9c-0.3,0.7-0.3,1.4,0,2c0.4,0.8,1.1,1.2,2,1.2     c0.4,0,0.7-0.1,1-0.2c0.5-0.3,0.9-0.7,1.1-1.3c0.2-0.6,0.1-1.2-0.1-1.7L77.3,74.8z"></path></g></g></g></svg>