<svg height='100px' width='100px'  fill="#000000" xmlns="http://www.w3.org/2000/svg" xmlns:xlink="http://www.w3.org/1999/xlink" version="1.1" x="0px" y="0px" viewBox="0 0 869.074 238.004" style="enable-background:new 0 0 869.074 238.004;" xml:space="preserve"><g><g><path d="M47.914,236.207c4.668,2.95,10.845,1.555,13.795-3.115l9.785-15.494c-4.881-10.905-8.895-21.718-12.069-31.249    l-4.897-1.099c1.042-1.317,2.142-2.6,3.285-3.849c-4.082-12.822-6.481-22.621-7.256-25.936l-0.059-0.246    c-0.567-2.539-0.125-5.084,1.236-7.226c1.359-2.144,3.473-3.628,5.949-4.182c0.683-0.151,1.383-0.229,2.08-0.229    c4.405,0,8.301,3.125,9.263,7.429l-0.002-0.004c0.008,0.036,0.016,0.072,0.024,0.103c0.048,0.211,0.167,0.727,0.369,1.558    c0.271,1.126,0.683,2.787,1.234,4.896c1.003,3.833,2.686,9.947,5.009,17.3c3.444,10.904,8.852,26.206,16.055,41.176    c2.521,3.657,5.235,7.35,8.171,11.045c1.481,1.86,3.667,2.83,5.875,2.83c1.637,0.001,3.284-0.533,4.664-1.632    c3.242-2.579,3.779-7.296,1.2-10.539c-13.581-17.061-22.272-34.268-27.528-47.154c-2.629-6.44-4.4-11.796-5.505-15.502    c-0.551-1.852-0.937-3.291-1.18-4.247c-0.121-0.477-0.207-0.833-0.261-1.06c-0.052-0.227-0.063-0.281-0.064-0.281    c-0.083-0.386-0.203-0.754-0.34-1.112c-0.904-3.297-2.662-6.167-5.386-7.816c-8.309-5.029-19.307-5.9-30.037,1.559    C9.31,168.479,11.17,185.527,19.33,195.464l7.513,13.712l-21.044,9.753c-5.012,2.322-7.192,8.266-4.869,13.278    c1.692,3.649,5.306,5.797,9.08,5.797c1.408,0,2.838-0.299,4.2-0.93l30.204-13.997C41.987,227.651,43.463,233.395,47.914,236.207z     M50.731,213.018c-0.104-1.41-0.508-2.795-1.208-4.071l-2.7-4.927l8.4,1.883L50.731,213.018z"></path><path d="M68.715,158.072c-0.555-2.124-0.97-3.799-1.243-4.934c-0.275-1.134-0.396-1.688-0.398-1.689    c-0.903-4.041-4.912-6.586-8.955-5.683c-4.041,0.901-6.587,4.912-5.683,8.953h-0.002c0.102,0.336,9.17,41.296,28.269,77.224    c1.349,2.533,3.943,3.977,6.626,3.977c1.19,0,2.397-0.284,3.52-0.883c3.655-1.947,5.041-6.489,3.094-10.144    c-8.927-16.746-15.706-35.217-20.189-49.425C71.507,168.363,69.827,162.319,68.715,158.072z"></path><ellipse transform="matrix(0.6503 -0.7597 0.7597 0.6503 -69.338 121.2656)" cx="97.038" cy="135.941" rx="19.641" ry="21.765"></ellipse></g><g><path d="M246.879,145.145c-20.513-6.08-32.163-15.27-38.838-22.696c-3.331-3.719-5.401-7.018-6.617-9.299    c-0.397-0.747-0.695-1.371-0.921-1.876c-0.182-0.494-0.377-0.98-0.592-1.456c-0.265-0.786-0.648-1.497-1.125-2.125    c-1.774-2.917-4.251-5.19-7.32-6.026c-9.371-2.551-20.185-0.366-28.452,9.754c-22.432,32.523-17.608,48.475-7.952,56.232    l14.992,26.957L148,221.688c-3.489,4.282-2.845,10.582,1.439,14.069c1.855,1.512,4.089,2.247,6.309,2.247    c2.903,0,5.783-1.259,7.759-3.686l26.334-32.332c2.592-3.185,2.98-7.587,0.984-11.175l-2.128-3.831l10.747,6.096l6.813,36.431    c1.016,5.429,6.239,9.008,11.668,7.994c5.429-1.016,9.008-6.239,7.994-11.668l-0.003-0.002l-7.666-41    c-0.539-2.879-2.348-5.415-4.897-6.859l-28.877-16.38c0.229-3.744,1.185-7.472,2.586-11.118c-2.311-3.374-4.154-6.609-5.61-9.545    c-5.931-11.921-7.016-21.477-7.173-23.272c-0.199-2.574,0.603-5.028,2.255-6.955c1.652-1.927,3.957-3.095,6.487-3.288    c0.247-0.02,0.492-0.028,0.735-0.028c4.912,0,9.066,3.836,9.458,8.738l0.014,0.09c0.018,0.169,0.05,0.432,0.105,0.796    c0.104,0.703,0.31,1.869,0.675,3.382c0.669,2.771,1.982,7.112,4.45,12.06c0.661,1.315,1.376,2.595,2.121,3.852    c8.698,8.409,22.101,17.35,42.05,23.225c0.708,0.21,1.423,0.309,2.126,0.309c3.237,0,6.226-2.114,7.191-5.377    C253.12,150.49,250.85,146.318,246.879,145.145z"></path><path d="M192.066,120.862c-0.375-1.552-0.592-2.772-0.711-3.563c-0.06-0.397-0.096-0.687-0.114-0.854    c-0.01-0.086-0.016-0.14-0.018-0.163h0c-0.331-4.116-3.93-7.192-8.048-6.876c-4.131,0.317-7.221,3.923-6.904,8.053    c0.059,0.66,0.852,10.275,6.977,22.582c6.095,12.289,17.76,27.26,38.842,37.682c1.07,0.531,2.206,0.782,3.325,0.783    c2.76,0,5.415-1.53,6.725-4.17c1.841-3.712,0.323-8.212-3.387-10.05c-17.918-8.914-27.089-21.002-32.082-30.94    C194.194,128.383,192.813,123.966,192.066,120.862z"></path><ellipse transform="matrix(0.6427 -0.7662 0.7662 0.6427 7.7147 196.8529)" cx="214.885" cy="90.156" rx="19.641" ry="21.765"></ellipse></g><g><path d="M303.959,150.47c1.355,4.484,2.854,11.867,2.865,22.672c0,12.384-1.997,29.275-8.627,51.339    c-1.669,5.553,1.481,11.407,7.036,13.076c1.007,0.303,2.025,0.447,3.025,0.447c4.515,0,8.687-2.935,10.053-7.48    c7.142-23.774,9.514-42.731,9.514-57.382c0.001-0.656-0.003-1.304-0.012-1.942c6.975,11.894,13.24,29.674,13.776,56.333    c0.108,5.8,4.898,10.41,10.698,10.3c5.797-0.108,10.408-4.898,10.299-10.696v-0.002c-0.549-30.953-8.381-53.11-17.67-68.26    c-13.387-8.747-23.693-22.269-30.674-40.305c-5.148-13.37-6.647-24.557-6.982-27.667l-0.002-0.015l-0.012-0.114    c-0.495-5.213,3.347-9.857,8.559-10.354c0.306-0.029,0.61-0.043,0.911-0.043c4.917,0,8.977,3.696,9.447,8.6l0.023,0.214v0.002    l0.012,0.098c0.031,0.271,0.084,0.696,0.164,1.254c0.151,1.052,0.425,2.757,0.866,4.917c0.607,2.996,1.636,7.279,3.251,12.108    c0.025-0.187,0.05-0.374,0.075-0.56c1.999,1.89,4.261,3.687,6.821,5.263c5.037,3.112,11.331,5.284,18.474,5.284    c0.023,0,0.046,0,0.07,0c3.917,0.003,8.042-0.656,12.324-1.997l4.735,27.364l3.035,8.32l3.892-1.73l0.588-7.49l-3.916-29.886    c0.338-0.171,0.672-0.323,1.012-0.502c3.663-1.933,5.067-6.471,3.135-10.133c-1.248-2.364-3.58-3.78-6.06-3.972l-2.158-16.472    c4.593-0.455,11.573-1.328,12.321-2.492c1.125-1.75-2.25-8.75-4.125-9.75c-1.396-0.744-5.129,0.089-9.524,2.109l-0.342-2.611    c0,0-1.548-2.811-5.319-2.694c-3.772,0.116-5.359,3.204-5.359,3.204l0.746,4.313c-4.758,0.249-11.306,0.776-11.701,1.805    c-0.625,1.625,0.5,8.75,2.125,10.125c1.2,1.016,6.314,0.265,11.353-1.663l2.975,17.192c-3.745,1.414-6.962,1.957-9.735,1.962    c-4.2-0.015-7.589-1.178-10.697-3.067c-4.632-2.812-8.417-7.513-10.877-11.595c-0.877-1.445-1.585-2.786-2.135-3.913    c-1.67-5.594-5.394-10.371-10.635-10.798c-9.008-0.732-18.107,3.917-22.932,16.523    C287.506,127.073,294.281,143.481,303.959,150.47z"></path><ellipse transform="matrix(0.4484 -0.8939 0.8939 0.4484 136.4812 329.7108)" cx="335.364" cy="54.282" rx="19.641" ry="20.874"></ellipse><path d="M325.264,95.864c-0.437-2.142-0.716-3.868-0.883-5.035c-0.084-0.581-0.139-1.024-0.171-1.308    c-0.017-0.141-0.029-0.243-0.035-0.304c-0.006-0.051-0.004-0.051-0.004-0.051c-0.393-4.123-4.054-7.149-8.177-6.755    c-4.123,0.392-7.148,4.052-6.757,8.175c0.051,0.432,1.198,12.534,6.869,27.262c5.671,14.65,15.995,32.35,35.162,42.461    c1.112,0.584,2.305,0.861,3.479,0.861c2.699,0.001,5.306-1.461,6.648-4.017c1.924-3.668,0.512-8.201-3.156-10.125    c-14.499-7.557-23.2-21.753-28.139-34.582C327.639,106.073,326.134,100.142,325.264,95.864z"></path></g><g><ellipse transform="matrix(0.4483 -0.8939 0.8939 0.4483 229.1937 452.3019)" cx="481.031" cy="40.469" rx="19.641" ry="20.874"></ellipse><path d="M464.252,62.447c-6.47,1.487-13.147,6.516-16.459,16.147c-6.42,19.025-7.795,31.407-5.357,52.357    c1.174,6.041,3.531,9.92,6.485,12.4c0.573,2.365,2.046,9.434,2.043,19.367c-0.017,14.786-3.181,35.691-17.164,57.747    c-3.256,5.129-1.736,11.926,3.394,15.183c1.827,1.159,3.867,1.713,5.883,1.713c3.641,0.001,7.203-1.806,9.3-5.108    c13.69-21.561,18.799-42.599,20.17-59.359c1.561,5.775,2.608,12.73,2.619,21.088c0,8.577-1.122,18.643-4.02,30.384    c-1.455,5.898,2.145,11.86,8.044,13.315c0.885,0.218,1.772,0.323,2.645,0.323c4.941,0.001,9.434-3.354,10.671-8.367    c3.283-13.297,4.66-25.154,4.66-35.655c0.028-21.971-6.113-37.94-12.588-48.264c-2.939-4.702-5.902-8.237-8.355-10.769    c-0.017-0.502-0.037-1.018-0.069-1.561c-0.872-6.501-0.648-13.437,0.088-20.268c-2.566-1.244-4.949-2.995-6.985-5.195    c-4.021-4.273-6.32-9.186-7.702-12.507c-2.855-6.997-4.066-13.581-4.453-16.087l-0.018-0.11c-0.366-2.574,0.276-5.074,1.8-7.103    c1.523-2.029,3.746-3.342,6.26-3.7c0.445-0.063,0.9-0.094,1.347-0.094c4.692,0,8.732,3.509,9.394,8.162l0.004,0.019l0.015,0.1    l0.029,0.177l0.025,0.144c0.06,0.358,0.156,0.899,0.295,1.573c0.252,1.247,0.689,3.186,1.365,5.408    c0.657,2.256,1.531,4.489,2.473,6.399c0.372-1.834,0.732-3.594,1.058-5.261c0.964-3.341,1.121-6.912,0.58-10.222l16.843,11.931    c1.154-1.289,2.397-2.764,3.728-4.452c0.044-0.056,0.096-0.104,0.141-0.159l-85.613-60.647c0.69-3.62-1.577-8.163-8.984-13.411    C398.361,1.373,381.286,0,381.286,0s6.96,15.654,16.436,22.367c7.408,5.249,12.447,5.878,15.632,4.026L464.252,62.447z"></path><path d="M514.142,97.789l67.184,47.592l3.467-4.895l-66.909-47.397c-0.203,0.337-0.422,0.668-0.672,0.986    C516.176,95.386,515.155,96.609,514.142,97.789z"></path><path d="M491.809,95.669c-3.185,2.187-5.216,2.607-6.333,2.603c-1.324-0.038-2.258-0.416-3.871-2.029    c-2.334-2.355-4.636-7.399-5.904-11.752c-0.661-2.172-1.124-4.168-1.411-5.586c-0.146-0.707-0.247-1.273-0.31-1.645    c-0.031-0.185-0.055-0.322-0.066-0.405c-0.013-0.083-0.013-0.083-0.013-0.083c-0.584-4.102-4.379-6.952-8.48-6.37    c-4.102,0.582-6.952,4.378-6.37,8.478c0.065,0.343,1.073,7.742,4.35,15.771c1.669,4.019,3.879,8.258,7.324,11.917    c3.337,3.608,8.495,6.707,14.642,6.707c0.037,0,0.073,0,0.11,0c4.988-0.004,9.976-1.89,14.845-5.253    c4.897-3.387,9.879-8.304,15.319-15.185c2.566-3.252,2.011-7.967-1.241-10.534c-3.251-2.566-7.967-2.01-10.532,1.241    C499.067,89.632,494.963,93.507,491.809,95.669z"></path></g><g><path d="M624.46,34.42l0.089-0.869l-2.395-0.246l0.218-2.124l2.393,0.246l0.238-2.321l-2.393-0.246l0.218-2.125l2.393,0.245    l0.24-2.32l-7.773-0.798l-0.238,2.321l2.395,0.246l-0.218,2.124l-2.394-0.246l-0.238,2.321l2.393,0.246l-0.127,1.239    C620.98,32.841,622.715,33.61,624.46,34.42z"></path><path d="M631.187,37.717l0.115-1.127l2.394,0.246l0.238-2.322l-2.395-0.246l0.218-2.125l2.396,0.246l0.236-2.321l-2.393-0.246    l0.218-2.125l2.394,0.246l0.238-2.321l-7.771-0.797l-0.238,2.32l2.394,0.246l-0.218,2.125l-2.396-0.246l-0.236,2.32l2.394,0.246    l-0.218,2.125l-2.394-0.246l-0.148,1.436C627.731,35.969,629.455,36.822,631.187,37.717z"></path><path d="M608.859,220.443c-3.256,5.131-1.735,11.927,3.396,15.184c1.828,1.159,3.867,1.712,5.882,1.712    c3.641,0,7.204-1.806,9.3-5.108c14.688-23.135,19.794-45.678,20.949-63.277c1.938,6.38,3.288,14.242,3.299,23.907    c0,8.902-1.163,19.34-4.166,31.503c-1.457,5.898,2.144,11.861,8.042,13.318c0.885,0.218,1.771,0.323,2.644,0.323    c4.942,0.001,9.435-3.353,10.674-8.365c3.389-13.725,4.808-25.954,4.808-36.779c0.027-22.648-6.299-39.083-12.96-49.701    c-2.907-4.652-5.843-8.203-8.305-10.78c-0.016-0.685-0.043-1.402-0.088-2.165c-0.631-4.703-0.698-9.627-0.43-14.58l-38.746-36.587    l-6.666,64.966l14.922,1.53l0.726-7.085c0.78,0.94,1.623,1.746,2.514,2.437c0.655,2.842,2.012,9.914,2.007,19.639    C626.646,175.875,623.361,197.569,608.859,220.443z"></path><path d="M636.477,87.314c-2.152-5.794-3.135-10.712-3.507-12.934l-0.022-0.121c-0.795-5.252,2.783-10.103,7.961-10.886    c0.475-0.07,0.955-0.107,1.43-0.107c4.65,0,8.684,3.474,9.384,8.08l0.021,0.126l0.064,0.353c0.078,0.438,0.204,1.066,0.387,1.859    c0.339,1.472,0.932,3.763,1.847,6.339c0.684,1.976,1.493,3.843,2.376,5.566c0.379-1.866,0.744-3.656,1.076-5.355    c1.465-5.08,1.146-10.671-0.671-15.155c-3.91-3.126-7.863-6.024-11.827-8.703c-4.899-0.192-10.483,1.65-15.051,6.012l1.266-12.342    l-1.275-0.131l0.26-2.541c-0.955-0.519-1.908-1.026-2.858-1.52l-0.385,3.754l-6.404-0.657l0.629-6.137    c-0.964-0.452-1.925-0.891-2.88-1.316l-0.733,7.146l-1.273-0.131l-1.847,17.994L636.477,87.314z"></path><path d="M667.326,57.262c12.15,0,22-9.85,22-22c0-12.15-9.85-22-22-22s-22,9.85-22,22c0,5.213,1.817,10,4.848,13.77    c3.167,2.147,6.326,4.429,9.468,6.848C662.034,56.771,664.623,57.262,667.326,57.262z"></path><path d="M716.474,173.854c-0.898,3.033-2.234,5.491-3.939,7.284l3.637,3.431c4.582-4.891,6.6-12.196,6.611-20.857    c-0.046-16.599-7.467-38.84-22.127-61.042c-0.217,0.194-0.441,0.382-0.679,0.559c-1.137,0.841-2.26,1.626-3.374,2.377    c14.147,21.536,21.223,42.962,21.178,58.107c0.002,1.045-0.033,2.054-0.098,3.03l-55.547-52.45    c-4.493-1.165-8.717-3.363-12.311-6.474c-4.235-3.631-7.745-8.333-10.726-14.366c-0.268-0.549-0.523-1.096-0.771-1.641    l-66.304-62.606c1.492-0.144,3.066-0.219,4.723-0.216c23.605-0.056,61.701,15.061,92.957,44.64    c5.713,5.381,10.907,10.981,15.604,16.677c1.071-0.702,2.191-1.481,3.362-2.349c0.243-0.18,0.494-0.343,0.75-0.498    c-4.896-5.959-10.319-11.819-16.284-17.464c-32.188-30.333-70.853-45.948-96.389-46.005c-9.697,0.015-17.725,2.244-22.717,7.477    l3.635,3.434c1.672-1.798,4.094-3.236,7.154-4.247L716.474,173.854z"></path><path d="M689.862,89.566c-9.113,6.752-15.738,8.712-20.099,8.691c-3.738-0.041-6.306-1.214-8.891-3.36    c-3.827-3.186-6.933-9.058-8.716-14.201c-0.909-2.557-1.53-4.901-1.91-6.561c-0.191-0.831-0.323-1.492-0.402-1.923    c-0.042-0.217-0.067-0.376-0.085-0.474c-0.015-0.089-0.015-0.089-0.015-0.089c-0.621-4.096-4.439-6.914-8.535-6.295    c-4.096,0.619-6.914,4.44-6.295,8.535c0.082,0.423,1.362,9.215,5.978,18.682c2.335,4.726,5.529,9.696,10.241,13.738    c4.635,4.012,11.057,6.95,18.484,6.95c0.049,0,0.096,0,0.144-0.001c8.799-0.023,18.335-3.729,29.023-11.634    c3.326-2.465,4.028-7.162,1.564-10.49C697.887,87.804,693.19,87.103,689.862,89.566z"></path></g><g><ellipse transform="matrix(0.2268 -0.9739 0.9739 0.2268 594.1165 806.42)" cx="804.971" cy="29.013" rx="22.494" ry="22.495"></ellipse><path d="M754.286,235.157c2.039,1.251,4.297,1.848,6.526,1.848c4.203,0,8.307-2.119,10.666-5.964    c10.077-16.489,15.769-33.452,18.931-48.698c0.954,5.382,1.539,11.329,1.543,17.878c0,6.959-0.656,14.598-2.242,22.953    c-1.286,6.783,3.169,13.322,9.951,14.61c0.787,0.149,1.571,0.221,2.344,0.221c5.887,0.001,11.13-4.176,12.269-10.172    c1.87-9.856,2.68-19.075,2.68-27.612c0.011-23.726-6.276-42.066-12.704-54.428c-3.574-6.878-7.169-11.933-9.785-15.196    c-0.017-0.462-0.038-0.936-0.067-1.431c-1.055-7.861-0.604-16.322,0.45-24.532c-4.172-3.302-7.769-7.561-10.976-13.016    c-4.438-7.624-6.536-14.872-7.232-17.634l-0.032-0.123c-0.629-2.673-0.191-5.355,1.216-7.627c1.408-2.269,3.614-3.856,6.216-4.466    c0.753-0.177,1.524-0.268,2.293-0.268c4.652,0,8.651,3.168,9.724,7.702l0.113,0.431c0.097,0.355,0.257,0.923,0.484,1.637    c0.417,1.328,1.131,3.392,2.158,5.693c2.284,5.232,5.461,9.729,8.507,12.043c2.413,1.834,4.505,2.591,7.215,2.612    c4.162,0,9.192-2.096,14.95-6.233c1.713-1.23,3.729-1.881,5.833-1.881c3.212,0,6.249,1.553,8.122,4.157    c1.277,1.774,1.914,3.868,1.874,6.013l23.763-26.636L853.91,53.154l-12.852,21.397c-0.86,0.224-1.699,0.587-2.477,1.115    c-6.453,4.358-11.486,5.649-15.587,5.662c-3.69-0.008-6.887-1.066-9.951-2.87c-4.567-2.68-8.559-7.209-11.221-11.119    c-0.957-1.391-1.742-2.683-2.358-3.766c-1.588-4.773-4.737-8.554-9.194-9.665c-8.535-2.128-20.912,2.508-25.945,17.15    c-6.809,20.174-8.267,33.305-5.682,55.521c1.69,8.694,5.687,13.171,10.447,15.436c0.03,1.166,0.049,2.411,0.049,3.746    c0.041,16.842-2.951,46.219-18.971,72.202C746.556,223.849,748.4,231.545,754.286,235.157z"></path><path d="M841.815,88.829c-2.58-3.585-7.58-4.4-11.165-1.82c-7.204,5.175-12.468,6.615-16.135,6.61    c-3.341-0.028-5.841-1.072-8.408-3.023c-3.803-2.889-7.1-8.184-9.125-12.818c-1.026-2.304-1.769-4.415-2.238-5.906    c-0.235-0.743-0.402-1.336-0.508-1.718c-0.052-0.192-0.087-0.332-0.108-0.415c-0.011-0.041-0.018-0.067-0.02-0.078l-0.001,0.001    c-1.015-4.295-5.314-6.958-9.612-5.947c-4.303,1.009-6.969,5.313-5.96,9.616c0.123,0.441,1.981,8.548,7.06,17.272    c2.561,4.356,5.951,8.926,10.694,12.628c4.676,3.676,10.94,6.39,18.116,6.39c0.036,0,0.073,0,0.11,0    c7.972-0.004,16.481-3.138,25.481-9.624C843.581,97.414,844.397,92.415,841.815,88.829z"></path></g></g></svg>