<svg height='100px' width='100px'  fill="#000000" xmlns="http://www.w3.org/2000/svg" xmlns:xlink="http://www.w3.org/1999/xlink" version="1.1" x="0px" y="0px" viewBox="0 0 100 100" style="enable-background:new 0 0 100 100;" xml:space="preserve"><g><path d="M12.2,23.7l21.1,10.5c0.2,0.1,0.3,0.1,0.5,0.1c0.2,0,0.3,0,0.5-0.1l29.7-13.2c0.4-0.2,0.7-0.6,0.7-1.1c0-0.5-0.3-0.9-0.7-1   l-21.1-8.9c-0.3-0.1-0.6-0.1-0.9,0L12.3,21.6c-0.4,0.2-0.7,0.6-0.7,1C11.5,23.1,11.8,23.5,12.2,23.7z M42.3,12.4l18.2,7.7   L33.8,31.9l-18.3-9.1L42.3,12.4z"></path><path d="M87.8,73.2l-20.4-9.6c-0.3-0.1-0.6-0.1-0.9,0L38.2,76c-0.4,0.2-0.7,0.6-0.7,1c0,0.4,0.2,0.8,0.6,1.1l20.4,11.8   c0.2,0.1,0.4,0.2,0.6,0.2c0.2,0,0.4,0,0.5-0.1l28.3-14.7c0.4-0.2,0.6-0.6,0.6-1C88.4,73.7,88.2,73.3,87.8,73.2z M59,87.6L41.1,77.2   l25.7-11.3l17.8,8.4L59,87.6z"></path><path d="M64.5,25.4c-0.3-0.6-0.9-0.8-1.5-0.6l-29.2,13L13.2,27.5c-0.6-0.3-1.3-0.1-1.5,0.5c-0.3,0.6-0.1,1.3,0.5,1.5l21.1,10.5   c0.2,0.1,0.3,0.1,0.5,0.1c0.2,0,0.3,0,0.5-0.1l29.7-13.2C64.5,26.6,64.7,26,64.5,25.4z"></path><path d="M64.5,31.2c-0.3-0.6-0.9-0.8-1.5-0.6l-29.2,13L13.2,33.3c-0.6-0.3-1.3-0.1-1.5,0.5c-0.3,0.6-0.1,1.3,0.5,1.5l21.1,10.5   c0.2,0.1,0.3,0.1,0.5,0.1c0.2,0,0.3,0,0.5-0.1l29.7-13.2C64.5,32.5,64.7,31.8,64.5,31.2z"></path><path d="M64.5,37c-0.3-0.6-0.9-0.8-1.5-0.6l-29.2,13L13.2,39.1c-0.6-0.3-1.3-0.1-1.5,0.5c-0.3,0.6-0.1,1.3,0.5,1.5l21.1,10.5   c0.2,0.1,0.3,0.1,0.5,0.1c0.2,0,0.3,0,0.5-0.1l29.7-13.2C64.5,38.3,64.7,37.6,64.5,37z"></path><path d="M64.5,42.9c-0.3-0.6-0.9-0.8-1.5-0.6l-29.2,13L13.2,45c-0.6-0.3-1.3-0.1-1.5,0.5c-0.3,0.6-0.1,1.3,0.5,1.5l21.1,10.5   c0.2,0.1,0.3,0.1,0.5,0.1c0.2,0,0.3,0,0.5-0.1l29.7-13.2C64.5,44.1,64.7,43.5,64.5,42.9z"></path><path d="M64.5,48.7c-0.3-0.6-0.9-0.8-1.5-0.6l-29.2,13L13.2,50.8c-0.6-0.3-1.3-0.1-1.5,0.5c-0.3,0.6-0.1,1.3,0.5,1.5l21.1,10.5   c0.2,0.1,0.3,0.1,0.5,0.1c0.2,0,0.3,0,0.5-0.1l29.7-13.2C64.5,50,64.7,49.3,64.5,48.7z"></path><path d="M63,54l-29.2,13L13.2,56.6c-0.6-0.3-1.3-0.1-1.5,0.5c-0.3,0.6-0.1,1.3,0.5,1.5l21.1,10.5c0.2,0.1,0.3,0.1,0.5,0.1   c0.2,0,0.3,0,0.5-0.1L63.9,56c0.6-0.3,0.8-0.9,0.6-1.5C64.2,54,63.5,53.7,63,54z"></path><path d="M64.5,60.4c-0.3-0.6-0.9-0.8-1.5-0.6l-29.2,13L13.2,62.5c-0.6-0.3-1.3-0.1-1.5,0.5c-0.3,0.6-0.1,1.3,0.5,1.5L33.3,75   c0.2,0.1,0.3,0.1,0.5,0.1c0.2,0,0.3,0,0.5-0.1l29.7-13.2C64.5,61.6,64.7,60.9,64.5,60.4z"></path></g></svg>