<svg height='100px' width='100px'  fill="#1A1A1A" xmlns="http://www.w3.org/2000/svg" xmlns:xlink="http://www.w3.org/1999/xlink" version="1.1" x="0px" y="0px" viewBox="0 0 100 100" style="enable-background:new 0 0 100 100;" xml:space="preserve"><g><path d="M40.89077,28.36791c-2.27116,0-4.2867-0.85636-5.99154-2.54547c-3.71252-3.68302-4.70357-10.01672-4.70357-13.17963   c0-1.02055,0.13961-1.9939,0.41687-2.89254c0.27333-0.88684,1.20932-1.38433,2.10402-1.11395   c0.8888,0.27333,1.38826,1.2162,1.11296,2.105c-0.17697,0.57713-0.26743,1.21719-0.26743,1.90148   c0,3.53358,1.27421,8.37381,3.70858,10.78753c1.06577,1.05594,2.24953,1.57015,3.62009,1.57015c0.0177,0,0.03343,0,0.04916-0.00098   c5.1932-0.04424,7.34834-8.07,7.34834-12.3567c0-0.6843-0.09045-1.32435-0.26743-1.90148   c-0.27333-0.8888,0.22417-1.83168,1.11297-2.105c0.89273-0.27234,1.8307,0.22515,2.10402,1.11395   c0.27726,0.89863,0.41687,1.87199,0.41687,2.89254c0,6.491-3.31531,15.66021-10.68725,15.7251   C40.94189,28.36791,40.91633,28.36791,40.89077,28.36791z"></path><path d="M32.21906,11.93c-0.83374,0-1.55737-0.61843-1.66749-1.46593c-0.11995-0.92223,0.52895-1.76777,1.45119-1.88772   c3.80297-0.49651,7.14777-1.25553,10.22712-2.32032c0.877-0.30479,1.83856,0.16124,2.14138,1.04218   c0.30479,0.87799-0.16124,1.83758-1.04021,2.14138c-3.29958,1.13951-6.86068,1.94966-10.89175,2.47567   C32.36457,11.92508,32.29181,11.93,32.21906,11.93z"></path><path d="M32.22102,11.93c-0.64104,0-1.25455-0.3687-1.53574-0.99302c-1.38433-3.07443-0.62531-5.34362,0.25563-6.70632   C32.65166,1.58195,36.39563,0,40.95369,0c0.9301,0,1.68322,0.7541,1.68322,1.6842s-0.75312,1.6842-1.68322,1.6842   c-3.36053,0-6.11346,1.03038-7.18513,2.69c-0.62138,0.95959-0.62531,2.13647-0.0118,3.49621   c0.38148,0.84751,0.00393,1.84446-0.84357,2.22594C32.68902,11.88182,32.45305,11.93,32.22102,11.93z"></path><path d="M49.62934,11.93c-0.23203,0-0.46799-0.04818-0.69216-0.14944c-0.84751-0.38148-1.22505-1.37843-0.84357-2.22594   c0.61351-1.36171,0.60957-2.54056-0.01377-3.5031c-1.05201-1.63012-3.85016-2.68312-7.12614-2.68312   c-0.9301,0-1.68322-0.7541-1.68322-1.6842S40.0236,0,40.95369,0c4.52463,0,8.24697,1.579,9.95575,4.22377   c0.88094,1.36368,1.64193,3.63583,0.25563,6.7132C50.88388,11.56032,50.27038,11.93,49.62934,11.93z"></path><path d="M49.63131,11.93c-0.0236,0-0.0472-0.00098-0.06882-0.00197c-3.15013-0.12585-5.79491-1.06381-7.86157-2.78734   c-0.71379-0.59581-0.80818-1.65765-0.21237-2.37145c0.59385-0.71576,1.65569-0.8072,2.37145-0.21433   c1.48265,1.23685,3.44509,1.91328,5.8362,2.00865c0.9301,0.03736,1.65176,0.81998,1.61636,1.74909   C51.2752,11.21915,50.52994,11.93,49.63131,11.93z"></path><path d="M38.89883,100h-5.19516c-2.0293,0-3.68105-1.65176-3.68105-3.68105V40.49651c0-0.9301,0.75312-1.6842,1.68322-1.6842   c0.9301,0,1.68322,0.7541,1.68322,1.6842v55.82244c0,0.15337,0.16124,0.31462,0.31462,0.31462h5.19516   c0.21237,0,0.37164-0.16714,0.37164-0.31462V69.20657c0-0.93009,0.75312-1.68321,1.68322-1.68321s1.68322,0.75312,1.68322,1.68321   v27.11238C42.63691,98.34824,40.95959,100,38.89883,100z"></path><path d="M12.86992,43.77937c-0.34215,0-0.68823-0.1052-0.98712-0.3215c-0.75312-0.54665-0.92026-1.59965-0.37361-2.35277   c0.68233-0.93698,1.34893-1.87494,2.01553-2.81192c0.67447-0.94681,1.34893-1.89264,2.0352-2.83945   c0.54075-0.74132,1.57507-0.91928,2.32819-0.38934c0.86127,0.60269,1.72255,1.22013,2.58382,1.83758   c0.43457,0.31167,0.86914,0.62334,1.30371,0.93304c0.37951-0.4739,0.77082-0.98811,1.17393-1.51804   c2.41668-3.17471,5.42523-7.12614,9.75912-7.48697c1.45118-0.11602,2.50909-0.73837,3.31924-3.4795   c0.26349-0.89077,1.19359-1.40006,2.09026-1.13853c0.89273,0.26349,1.40202,1.20047,1.13853,2.09222   c-0.69806,2.36555-2.10795,5.54911-6.2747,5.88241c-2.83551,0.23597-5.23449,3.38905-7.35227,6.1695   c-0.80228,1.05496-1.5613,2.04995-2.33409,2.88467c-0.57025,0.61941-1.51214,0.71674-2.20037,0.23597   c-0.86127-0.6027-1.72254-1.22014-2.58382-1.83758c-0.39917-0.28611-0.79835-0.57222-1.19752-0.85734   c-0.35002,0.48864-0.69806,0.97631-1.04415,1.46397c-0.67447,0.94681-1.34893,1.89264-2.0352,2.83945   C13.90424,43.53849,13.39101,43.77937,12.86992,43.77937z"></path><path d="M21.72648,51.71173c-1.91525,0-3.52571-0.76295-4.72717-2.20431l-5.40753-6.31698   c-0.60368-0.70691-0.52109-1.76974,0.18484-2.3744c0.7079-0.60269,1.76974-0.52207,2.37538,0.18386l5.4213,6.33468   c0.57025,0.68626,1.24865,1.01072,2.08829,1.01072c0.85931-0.03736,1.53967-0.35395,2.07256-0.99203l6.68371-7.94121   c0.59974-0.71183,1.66552-0.8013,2.37145-0.20352c0.71183,0.59876,0.80425,1.6606,0.2045,2.37243L26.316,49.51332   c-1.1287,1.3568-2.71556,2.11975-4.58362,2.19841C21.73041,51.71173,21.72844,51.71173,21.72648,51.71173z"></path><path d="M13.38511,43.09409c-2.55039,0-4.66817-1.90148-4.9297-4.42237c-0.25563-2.47763,1.3686-4.79992,3.77741-5.40163   c2.51696-0.52404,5.01229,0.84259,5.86963,3.16095c0.32249,0.87209-0.12191,1.84053-0.99499,2.16301   c-0.87307,0.32445-1.84053-0.1229-2.16301-0.99499c-0.28512-0.76885-1.12673-1.21915-1.96244-1.0471   c-0.72559,0.18287-1.26045,0.95271-1.17589,1.77367c0.08259,0.81113,0.74722,1.40006,1.579,1.40006   c0.9301,0,1.68322,0.75411,1.68322,1.6842C15.06833,42.33998,14.31521,43.09409,13.38511,43.09409z"></path><path d="M58.19093,53.76659c-0.93009,0-1.68322-0.75312-1.68322-1.68322V37.69934c0-2.8306-2.39111-5.22171-5.22269-5.22171   c-0.9301,0-1.68322-0.7541-1.68322-1.6842s0.75312-1.6842,1.68322-1.6842c4.65638,0,8.58913,3.93373,8.58913,8.59011v14.38403   C59.87415,53.01347,59.12103,53.76659,58.19093,53.76659z"></path><path d="M51.28503,32.47763c-6.53426,0-7.52139-2.21217-8.58913-5.82047l-0.10225-0.34805   c-0.26743-0.89077,0.2399-1.82873,1.13067-2.09517c0.8947-0.26743,1.83069,0.24088,2.09419,1.13165l0.10618,0.35591   c0.81605,2.75391,1.00875,3.40773,5.36034,3.40773c0.9301,0,1.68322,0.7541,1.68322,1.6842S52.21512,32.47763,51.28503,32.47763z"></path><path d="M48.14473,100h-5.1932c-2.0293,0-3.68106-1.65176-3.68106-3.68105c0-0.9301,0.75312-1.68322,1.68322-1.68322   s1.68322,0.75312,1.68322,1.68322c0,0.15534,0.15928,0.31462,0.31462,0.31462h5.1932c0.21827,0,0.37164-0.16518,0.37164-0.31462   v-6.39268c0-0.9301,0.75312-1.68322,1.68322-1.68322c0.93009,0,1.68322,0.75312,1.68322,1.68322v6.39268   C51.8828,98.34824,50.20549,100,48.14473,100z M50.19959,57.36309c-0.9301,0-1.68322-0.75312-1.68322-1.68322V40.49651   c0-0.9301,0.75312-1.6842,1.68322-1.6842c0.93009,0,1.68322,0.7541,1.68322,1.6842v15.18336   C51.8828,56.60997,51.12968,57.36309,50.19959,57.36309z"></path><path d="M4.13725,29.33831c-0.32052,0-0.64497-0.09144-0.93206-0.28316C1.19752,27.71704,0,25.46554,0,23.03117   c0-3.94946,3.21306-7.1635,7.1635-7.1635c3.94848,0,7.16154,3.21404,7.16154,7.1635c0,0.93009-0.75312,1.6842-1.68322,1.6842   s-1.68322-0.7541-1.68322-1.6842c0-2.09321-1.70288-3.7951-3.7951-3.7951c-2.09419,0-3.79707,1.7019-3.79707,3.7951   c0,1.32534,0.62334,2.49926,1.70681,3.2219c0.77279,0.51519,0.98319,1.5613,0.468,2.33507   C5.21679,29.07482,4.68194,29.33831,4.13725,29.33831z"></path><path d="M12.64182,36.58736c-0.9301,0-1.68322-0.7541-1.68322-1.6842V23.03117c0-0.9301,0.75312-1.6842,1.68322-1.6842   s1.68322,0.7541,1.68322,1.6842v11.87199C14.32504,35.83325,13.57192,36.58736,12.64182,36.58736z"></path><path d="M12.64182,100c-0.9301,0-1.68322-0.75312-1.68322-1.68322V49.51529c0-0.9301,0.75312-1.6842,1.68322-1.6842   s1.68322,0.7541,1.68322,1.6842v48.80149C14.32504,99.24688,13.57192,100,12.64182,100z"></path><path d="M65.78114,90.75214c-2.12172,0-4.10973-0.74329-5.71035-2.11975c-0.99499,0.38541-2.02733,0.58008-3.07934,0.58008   c-4.36142,0-7.95202-3.11277-8.65795-7.36407c-2.15121-1.68125-3.41363-4.21788-3.41363-6.93344   c0-2.80798,1.39416-5.45866,3.64173-7.07699c-0.06882-0.43063-0.10225-0.8652-0.10225-1.31354   c0-4.83138,3.92881-8.76217,8.7602-8.76217c0.32445,0,0.643,0.02163,0.95369,0.05899   c1.62029-2.39308,4.37125-3.88162,7.32278-3.88162c1.86019,0,3.64369,0.58991,5.14404,1.68518   c1.28995-0.72559,2.76669-1.11494,4.2749-1.11494c3.08721,0,5.92075,1.64782,7.50368,4.2867   c3.23862,0.11798,6.19604,2.05683,7.60004,5.00639c0.39918,0.83964,0.04327,1.84446-0.79638,2.24363   c-0.84357,0.40704-1.84643,0.0413-2.24363-0.79638c-0.89471-1.87789-2.80602-3.09311-4.87268-3.09311   c-0.31659,0.03933-0.50143,0.05703-0.6843,0.05703c-0.6725,0-1.27814-0.39917-1.54557-1.01465   c-0.87308-2.01947-2.81979-3.32317-4.96117-3.32317c-1.22308,0-2.40685,0.41491-3.33498,1.16606   c-0.66267,0.54076-1.63995,0.49553-2.24953-0.11798c-1.04415-1.04218-2.40685-1.61833-3.83443-1.61833   c-2.10009,0-4.035,1.21522-4.9297,3.09311c-0.33232,0.69806-1.09134,1.08544-1.85626,0.92616   c-0.46603-0.09439-1.00481-0.19664-1.49051-0.19664c-2.97316,0-5.39377,2.4206-5.39377,5.39573   c0,0.55255,0.08259,1.05398,0.2576,1.58097c0.2635,0.79441-0.09635,1.66355-0.84554,2.03716   c-1.79333,0.8947-2.95153,2.76865-2.95153,4.77239c0,1.83659,0.95173,3.54931,2.54252,4.57969   c0.44244,0.28512,0.72363,0.76099,0.76492,1.28404c0.2222,2.8886,2.54252,5.06734,5.3977,5.06734   c0.90257,0,1.75597-0.23006,2.60938-0.70396c0.68823-0.37754,1.55344-0.23399,2.07649,0.35789   c2.0293,2.28886,5.66906,2.4383,7.79471,0.41097c0.50339-0.48373,1.24865-0.60368,1.88182-0.30479   c2.12368,1.00285,4.60132,0.65087,6.22161-0.89273c0.52502-0.50143,1.31157-0.60958,1.94868-0.27136   c1.71271,0.90257,3.88162,0.78262,5.49995-0.34805c0.76099-0.53092,1.81104-0.34805,2.34392,0.41687   c0.53289,0.76099,0.34608,1.81103-0.41687,2.34392c-2.30262,1.61047-5.36427,1.98014-7.94022,1.03628   c-2.27902,1.66159-5.33674,2.10599-8.07197,1.17393C69.45236,90.16026,67.65707,90.75214,65.78114,90.75214z"></path><path d="M90.61056,83.50408c-5.29741,0-9.44646-3.42149-9.44646-7.79078c0-0.93206,0.2104-1.87003,0.60564-2.73129   c-0.24776-0.33822-0.48962-0.7079-0.7197-1.10117c-1.03234-1.77171-1.41382-3.71841-1.01858-5.20696   c0.23793-0.89667,0.74133-1.5908,1.45905-2.0057c0.7197-0.42277,1.57507-0.50732,2.47764-0.25366   c1.49051,0.42081,2.96922,1.76384,3.95634,3.59257c0.03933,0.06882,0.07669,0.13961,0.11601,0.2104   c0.81212-0.19467,1.68125-0.29496,2.57005-0.29496c5.17747,0,9.38944,3.49425,9.38944,7.79078   C100,80.08259,95.87651,83.50408,90.61056,83.50408z M83.25042,67.73179c-0.03736,0.46603,0.09241,1.39416,0.70986,2.45403   c0.33821,0.58008,0.71182,1.08741,1.05201,1.42956c0.58598,0.58794,0.6548,1.51411,0.16518,2.18267   c-0.41687,0.56828-0.64694,1.24865-0.64694,1.91525c0,2.4383,2.72736,4.42435,6.08003,4.42435   c3.32121,0,6.02301-1.98605,6.02301-4.42435c0-2.39701-2.75883-4.42435-6.02301-4.42435   c-1.03628,0-2.00373,0.18681-2.79815,0.54076c-0.43063,0.19467-0.9301,0.19664-1.36466,0.00197   c-0.43457-0.19074-0.76689-0.55845-0.9183-1.00875c-0.13175-0.39721-0.31856-0.76689-0.55846-1.19753   C84.38502,68.53996,83.66729,67.94415,83.25042,67.73179z"></path><path d="M55.79392,100c-0.9301,0-1.68322-0.75312-1.68322-1.68322V87.4152c0-0.93009,0.75312-1.68322,1.68322-1.68322   s1.68322,0.75313,1.68322,1.68322v10.90158C57.47714,99.24688,56.72402,100,55.79392,100z"></path><path d="M60.30282,100c-0.9301,0-1.68322-0.75312-1.68322-1.68322V87.4152c0-0.93009,0.75312-1.68322,1.68322-1.68322   s1.68322,0.75313,1.68322,1.68322v10.90158C61.98604,99.24688,61.23292,100,60.30282,100z"></path><path d="M78.11031,100c-0.93009,0-1.68322-0.75312-1.68322-1.68322V87.12811c0-0.9301,0.75313-1.68322,1.68322-1.68322   s1.68322,0.75312,1.68322,1.68322v11.18867C79.79353,99.24688,79.04041,100,78.11031,100z"></path><path d="M82.61921,100c-0.93009,0-1.68321-0.75312-1.68321-1.68322V87.12811c0-0.9301,0.75312-1.68322,1.68321-1.68322   c0.9301,0,1.68322,0.75312,1.68322,1.68322v11.18867C84.30243,99.24688,83.54931,100,82.61921,100z"></path></g></svg>