<svg height='100px' width='100px'  fill="#1A1A1A" xmlns="http://www.w3.org/2000/svg" xmlns:xlink="http://www.w3.org/1999/xlink" version="1.1" x="0px" y="0px" viewBox="0 0 100 100" enable-background="new 0 0 100 100" xml:space="preserve"><g><path d="M57.404,75.137h-3.589v-14.93h3.589V75.137z"></path><path d="M67.099,71.168c0-0.526-0.187-0.937-0.559-1.23s-1.027-0.598-1.963-0.913s-1.702-0.619-2.297-0.913   c-1.935-0.95-2.902-2.256-2.902-3.917c0-0.827,0.241-1.557,0.723-2.189c0.482-0.632,1.164-1.125,2.046-1.477   s1.873-0.528,2.974-0.528c1.073,0,2.035,0.191,2.887,0.574c0.851,0.383,1.512,0.928,1.984,1.636   c0.472,0.707,0.708,1.516,0.708,2.425h-3.589c0-0.608-0.187-1.08-0.559-1.415c-0.373-0.335-0.877-0.502-1.513-0.502   c-0.643,0-1.15,0.142-1.522,0.425c-0.373,0.284-0.559,0.645-0.559,1.082c0,0.383,0.205,0.73,0.615,1.041s1.131,0.632,2.164,0.964   s1.88,0.688,2.543,1.071c1.613,0.93,2.42,2.211,2.42,3.845c0,1.306-0.492,2.331-1.477,3.076s-2.334,1.118-4.05,1.118   c-1.21,0-2.306-0.217-3.287-0.651c-0.981-0.434-1.719-1.028-2.215-1.784c-0.496-0.755-0.743-1.625-0.743-2.609h3.609   c0,0.8,0.207,1.39,0.62,1.769c0.414,0.38,1.085,0.569,2.015,0.569c0.595,0,1.064-0.128,1.41-0.385   C66.926,71.994,67.099,71.633,67.099,71.168z"></path><path d="M84.662,67.979c0,1.456-0.27,2.745-0.81,3.866s-1.308,1.984-2.302,2.589c-0.995,0.604-2.128,0.907-3.399,0.907   s-2.399-0.292-3.384-0.877c-0.984-0.584-1.752-1.42-2.302-2.507c-0.551-1.087-0.839-2.334-0.867-3.743v-0.841   c0-1.463,0.268-2.753,0.805-3.871c0.536-1.118,1.305-1.981,2.307-2.589s2.142-0.913,3.42-0.913c1.265,0,2.393,0.301,3.384,0.902   s1.762,1.458,2.312,2.568c0.55,1.111,0.829,2.384,0.835,3.82V67.979z M81.001,67.354c0-1.483-0.248-2.61-0.743-3.378   c-0.496-0.77-1.205-1.154-2.128-1.154c-1.805,0-2.758,1.354-2.861,4.061l-0.01,1.097c0,1.463,0.243,2.587,0.728,3.374   s1.207,1.179,2.164,1.179c0.909,0,1.61-0.386,2.102-1.159s0.742-1.883,0.749-3.333V67.354z"></path></g><g><polygon points="70.039,5.051 70.039,20.012 85,20.012  "></polygon></g><polygon points="85,55 85,25 65,25 65,5 15,5 15,95 85,95 85,80 25,80 25,55 "></polygon></svg>