<?xml version="1.0" encoding="UTF-8" standalone="no"?>
<svg
   xmlns:dc="http://purl.org/dc/elements/1.1/"
   xmlns:cc="http://creativecommons.org/ns#"
   xmlns:rdf="http://www.w3.org/1999/02/22-rdf-syntax-ns#"
   xmlns:svg="http://www.w3.org/2000/svg"
   xmlns="http://www.w3.org/2000/svg"
   xmlns:sodipodi="http://sodipodi.sourceforge.net/DTD/sodipodi-0.dtd"
   xmlns:inkscape="http://www.inkscape.org/namespaces/inkscape"
   height="14.528"
   width="89.891998"
   version="1.1"
   x="0px"
   y="0px"
   viewBox="0 0 89.891998 14.528"
   enable-background="new 0 0 100 100"
   xml:space="preserve"
   id="svg3927"
   sodipodi:docname="noun_rating stars_292113.svg"
   style="fill:#4d4d4d"
   inkscape:version="0.92.2 5c3e80d, 2017-08-06"><metadata
     id="metadata3933"><rdf:RDF><cc:Work
         rdf:about=""><dc:format>image/svg+xml</dc:format><dc:type
           rdf:resource="http://purl.org/dc/dcmitype/StillImage" /><dc:title></dc:title></cc:Work></rdf:RDF></metadata><defs
     id="defs3931" /><sodipodi:namedview
     pagecolor="#ffffff"
     bordercolor="#666666"
     borderopacity="1"
     objecttolerance="10"
     gridtolerance="10"
     guidetolerance="10"
     inkscape:pageopacity="0"
     inkscape:pageshadow="2"
     inkscape:window-width="1199"
     inkscape:window-height="807"
     id="namedview3929"
     showgrid="false"
     fit-margin-top="0"
     fit-margin-left="0"
     fit-margin-right="0"
     fit-margin-bottom="0"
     inkscape:zoom="6.01"
     inkscape:cx="15.162306"
     inkscape:cy="7.264"
     inkscape:window-x="0"
     inkscape:window-y="0"
     inkscape:window-maximized="0"
     inkscape:current-layer="svg3927" /><g
     id="g3925"
     style="fill:#000000;fill-opacity:1"
     transform="translate(-5.054,-42.736)"><polygon
       points="10.247,47.403 5.054,48.285 8.737,52.052 7.971,57.264 12.691,54.926 17.412,57.264 16.646,52.052 20.329,48.285 15.136,47.403 12.691,42.736 "
       id="polygon3915"
       style="clip-rule:evenodd;fill:#000000;fill-opacity:1;fill-rule:evenodd" /><polygon
       points="28.901,47.403 23.708,48.285 27.391,52.052 26.625,57.264 31.345,54.926 36.066,57.264 35.301,52.052 38.984,48.285 33.79,47.403 31.345,42.736 "
       id="polygon3917"
       style="clip-rule:evenodd;fill:#000000;fill-opacity:1;fill-rule:evenodd" /><polygon
       points="47.556,47.403 42.362,48.285 46.045,52.052 45.279,57.264 50,54.926 54.721,57.264 53.955,52.052 57.638,48.285 52.445,47.403 50,42.736 "
       id="polygon3919"
       style="clip-rule:evenodd;fill:#000000;fill-opacity:1;fill-rule:evenodd" /><polygon
       points="66.209,47.403 61.017,48.285 64.699,52.052 63.934,57.264 68.654,54.926 73.375,57.264 72.608,52.052 76.292,48.285 71.099,47.403 68.654,42.736 "
       id="polygon3921"
       style="clip-rule:evenodd;fill:#000000;fill-opacity:1;fill-rule:evenodd" /><polygon
       points="87.308,42.736 84.863,47.403 79.67,48.285 83.353,52.052 82.587,57.264 87.308,54.926 92.029,57.264 91.264,52.052 94.946,48.285 89.753,47.403 "
       id="polygon3923"
       style="clip-rule:evenodd;fill:#000000;fill-opacity:1;fill-rule:evenodd" /></g></svg>