<svg height='100px' width='100px'  fill="#000000" xmlns="http://www.w3.org/2000/svg" xmlns:xlink="http://www.w3.org/1999/xlink" version="1.1" x="0px" y="0px" viewBox="0 0 50 50" enable-background="new 0 0 50 50" xml:space="preserve"><path d="M36.473,10.51l-1.701,2.354c3.902,2.822,6.369,7.207,6.828,11.951c-0.148-0.012-0.295-0.023-0.447-0.023  c-1.705,0-3.088,0.721-3.088,1.611c0,0.889,1.383,1.61,3.088,1.61c0.156,0,0.309-0.013,0.461-0.024  c-0.752,7.94-7.086,14.275-15.027,15.027c0.014-0.152,0.023-0.305,0.023-0.464c0-1.704-0.719-3.085-1.609-3.085  s-1.609,1.381-1.609,3.085c0,0.159,0.012,0.312,0.023,0.464c-7.941-0.752-14.275-7.087-15.027-15.027  C8.539,28,8.691,28.012,8.85,28.012c1.703,0,3.086-0.72,3.086-1.609c0-0.891-1.383-1.611-3.086-1.611  c-0.158,0-0.311,0.012-0.463,0.024c0.723-7.614,6.578-13.735,14.059-14.892v1.689c0,0.798,0.566,1.125,1.258,0.727l1.65-0.953  c0.691-0.399,1.824-1.053,2.516-1.451l1.648-0.955c0.693-0.398,0.693-1.053,0-1.451l-1.648-0.955  c-0.691-0.398-1.824-1.053-2.516-1.451l-1.65-0.953c-0.691-0.398-1.258-0.072-1.258,0.727v1.906c0,0.055,0,0.127,0,0.187  C12.844,8.248,5.402,16.463,5.402,26.402C5.402,37.208,14.193,46,25,46c10.809,0,19.598-8.792,19.598-19.598  C44.598,20.129,41.561,14.189,36.473,10.51z"></path><path d="M28.779,15.418l-3.98,8.101c-1.506,0.104-2.701,1.349-2.701,2.884c0,1.602,1.301,2.902,2.902,2.902  c0.279,0,0.543-0.052,0.799-0.125l7.088,6.799c0.283,0.27,0.645,0.404,1.006,0.404c0.381,0,0.762-0.15,1.047-0.447  c0.555-0.579,0.535-1.498-0.043-2.053l-7.084-6.795c0.055-0.221,0.092-0.449,0.092-0.686c0-0.6-0.182-1.154-0.492-1.617l3.973-8.087  c0.352-0.72,0.055-1.59-0.664-1.942C30,14.398,29.131,14.697,28.779,15.418z"></path></svg>