<svg height='100px' width='100px'  fill="#000000" xmlns:x="http://ns.adobe.com/Extensibility/1.0/" xmlns:i="http://ns.adobe.com/AdobeIllustrator/10.0/" xmlns:graph="http://ns.adobe.com/Graphs/1.0/" xmlns="http://www.w3.org/2000/svg" xmlns:xlink="http://www.w3.org/1999/xlink" version="1.1" x="0px" y="0px" viewBox="0 0 100 100" style="enable-background:new 0 0 100 100;" xml:space="preserve"><g><g i:extraneous="self"><g><path d="M5273.1,2400.1v-2c0-2.8-5-4-9.7-4s-9.7,1.3-9.7,4v2c0,1.8,0.7,3.6,2,4.9l5,4.9c0.3,0.3,0.4,0.6,0.4,1v6.4     c0,0.4,0.2,0.7,0.6,0.8l2.9,0.9c0.5,0.1,1-0.2,1-0.8v-7.2c0-0.4,0.2-0.7,0.4-1l5.1-5C5272.4,2403.7,5273.1,2401.9,5273.1,2400.1z      M5263.4,2400c-4.8,0-7.4-1.3-7.5-1.8v0c0.1-0.5,2.7-1.8,7.5-1.8c4.8,0,7.3,1.3,7.5,1.8C5270.7,2398.7,5268.2,2400,5263.4,2400z"></path><path d="M5268.4,2410.3c-0.6,0-1,0.4-1,1c0,0.6,0.4,1,1,1h4.3c0.6,0,1-0.4,1-1c0-0.6-0.4-1-1-1H5268.4z"></path><path d="M5272.7,2413.7h-4.3c-0.6,0-1,0.4-1,1c0,0.6,0.4,1,1,1h4.3c0.6,0,1-0.4,1-1C5273.7,2414.1,5273.3,2413.7,5272.7,2413.7z"></path><path d="M5272.7,2417h-4.3c-0.6,0-1,0.4-1,1c0,0.6,0.4,1,1,1h4.3c0.6,0,1-0.4,1-1C5273.7,2417.5,5273.3,2417,5272.7,2417z"></path></g><g><path d="M19.8,51.8c-1,0-1.7,0.8-1.7,1.7V61c0,1,0.8,1.7,1.7,1.7h5.4c1,0,1.7-0.8,1.7-1.7v-7.4c0-1-0.8-1.7-1.7-1.7H19.8z"></path><path d="M32.6,46.1c-1,0-1.7,0.8-1.7,1.7V61c0,1,0.8,1.7,1.7,1.7h5.4c1,0,1.7-0.8,1.7-1.7V47.8c0-1-0.8-1.7-1.7-1.7H32.6z"></path><path d="M44.6,35.9l13.6-13.6v4.4c0,1.3,1,2.3,2.3,2.3s2.3-1,2.3-2.3v-9.9c0-1.3-1-2.3-2.3-2.3h-9.9c-1.3,0-2.3,1-2.3,2.3     s1,2.3,2.3,2.3h4.4L43,31l-5.6-5.6c-0.9-0.9-2.4-0.9-3.3,0L18.9,40.6c-0.9,0.9-0.9,2.4,0,3.3c0.5,0.5,1,0.7,1.6,0.7     c0.6,0,1.2-0.2,1.6-0.7l13.5-13.5l5.6,5.6C42.2,36.8,43.7,36.8,44.6,35.9z"></path><path d="M52.6,42c0-1-0.8-1.8-1.7-1.8h-5.4c-1,0-1.7,0.8-1.7,1.8v19c0,1,0.8,1.7,1.7,1.7h1.2c1.2-3.6,3.3-6.7,5.9-9.3V42z"></path><path d="M65.5,36.2c0-1-0.8-1.8-1.7-1.8h-5.4c-1,0-1.7,0.8-1.7,1.8v14.1c2.7-1.7,5.7-2.9,8.9-3.5V36.2z"></path><path d="M45.4,68.9H9.5V8.3h64.7v38.5c2,0.4,4,1,5.8,1.8V8c0-3-2.5-5.5-5.5-5.5H9.2C6.2,2.5,3.7,5,3.7,8v61.1     c0,3,2.5,5.5,5.5,5.5h36.4c-0.2-1.2-0.3-2.4-0.3-3.7C45.3,70.3,45.3,69.6,45.4,68.9z"></path><path d="M94.5,88.5l-9.3-7.6c1.8-2.9,2.9-6.2,2.9-9.9c0-10.1-8.2-18.3-18.3-18.3S51.6,60.9,51.6,71s8.2,18.3,18.3,18.3     c3.6,0,7-1.1,9.9-2.9l7.6,9.3c0.2,0.3,0.5,0.5,0.7,0.7c2.2,1.8,5.4,1.4,7.2-0.7C97,93.5,96.6,90.3,94.5,88.5z M57.9,71     c0-6.6,5.3-11.9,11.9-11.9S81.7,64.4,81.7,71s-5.3,11.9-11.9,11.9S57.9,77.6,57.9,71z"></path></g></g></g></svg>