<svg height='100px' width='100px'  fill="#000000" xmlns="http://www.w3.org/2000/svg" xmlns:xlink="http://www.w3.org/1999/xlink" version="1.1" x="0px" y="0px" viewBox="0 0 100 100" enable-background="new 0 0 100 100" xml:space="preserve"><g><path d="M42.303,75.295c-1.746-4.133-4.981-6.715-7.225-5.767c-2.242,0.949-2.644,5.067-0.897,9.2   c1.435,3.393,3.87,5.741,5.938,5.949c0.451,0.046,0.885-0.011,1.287-0.181C43.649,83.547,44.051,79.428,42.303,75.295z    M40.874,80.29c-0.086,0.881-0.373,1.38-0.62,1.484c-0.028,0.013-0.114,0.049-0.292,0.024c-0.979-0.131-2.571-1.577-3.594-3.995   c-1.247-2.954-0.8-5.274-0.14-5.554c0.028-0.012,0.114-0.048,0.292-0.024c0.979,0.132,2.572,1.577,3.594,3.994   C40.712,77.632,40.988,79.116,40.874,80.29z"></path><path d="M53.547,76.661c-2.242,0.948-2.643,5.067-0.897,9.2c1.749,4.134,4.982,6.715,7.226,5.767   c2.243-0.949,2.646-5.067,0.897-9.201C59.025,78.294,55.791,75.712,53.547,76.661z M59.349,87.423   c-0.086,0.88-0.373,1.379-0.62,1.483c-0.027,0.013-0.114,0.049-0.293,0.025c-0.979-0.132-2.57-1.577-3.594-3.995   c-1.246-2.954-0.799-5.275-0.139-5.554c0.028-0.012,0.114-0.048,0.292-0.024c0.979,0.132,2.572,1.577,3.594,3.994   C59.187,84.766,59.463,86.249,59.349,87.423z"></path><path d="M59.023,75.473c4.827,0.578,8.508,4.173,8.855,8.511l27.121-10.832c0.064-0.025,0.13-0.037,0.194-0.036l0.004-12.929   C82.47,65.157,68.182,70.839,55.375,75.844c0.353,0.129,0.845,0.181,1.179,0.351c1.856,0.658,3.851,2.805,5.093,5.745   c1.009,2.386,1.291,4.756,0.926,6.524c-0.075,0.692-0.219,1.378-0.44,2.021c-0.014,0.039-0.033,0.073-0.047,0.112   c10.652-4.321,22.564-9.187,33.105-13.459l0.001-2.987L67.59,85.175c-0.06,0.024-0.123,0.036-0.186,0.036   c-0.099,0-0.198-0.029-0.282-0.087c-0.138-0.094-0.219-0.25-0.218-0.417c0.033-4.728-4.098-7.775-8.001-8.242   c-0.274-0.033-0.47-0.282-0.437-0.556C58.5,75.636,58.74,75.438,59.023,75.473z"></path><path d="M22.491,30.352c0.547,0.127,1.029-0.078,1.224-0.216c1.694-14.041,6.545-17.433,8.84-18.251   c-0.546-0.3-1.308-0.598-2.175-0.598c-2.356,0-6.646,2.363-8.95,18.157C21.524,29.659,21.821,30.197,22.491,30.352z"></path><path d="M71.564,40.296c-0.036,1.796-0.186,2.917-0.192,2.966l-0.029,0.202l-0.162,0.124c-0.109,0.083-11.093,8.353-28.542,8.353   c-0.001,0,0,0-0.002,0c-8.997,0-18.177-2.169-27.283-6.446l-0.263-0.124l-0.023-0.289c-0.008-0.104-0.117-1.525-0.051-3.731   c-2.523,2.295-13.537,13.301,2.191,17.495c17.601,4.693,31.083,2.398,51.139-10.952C70.455,46.492,74.746,41.833,71.564,40.296z"></path><path d="M44.175,30.141c0.551,0.129,1.032-0.08,1.226-0.217c1.975-15.167,6.783-17.453,9.488-17.458   c-0.856-0.589-2.014-1.166-3.265-1.166c-2.86,0-6.662,3.066-8.552,17.654C43.163,29.21,43.489,29.983,44.175,30.141z"></path><path d="M42.637,50.941c15.958,0,26.351-7.011,27.77-8.026c0.25-2.215,1.939-21.684-14.336-28.879   c-0.021-0.01-0.515-0.244-1.371-0.565c-2.417,0.122-6.518,2.569-8.332,16.773l-0.021,0.162l-0.113,0.119   c-0.064,0.067-0.658,0.661-1.676,0.661c-0.2,0-0.405-0.024-0.608-0.071c-1.412-0.326-1.853-1.919-1.871-1.986l-0.025-0.095   l0.012-0.098c1.148-8.938,3.15-14.673,5.965-17.177c-1.446-0.217-3.027-0.362-4.711-0.362c-0.487,0-0.962,0.039-1.442,0.062   c-1.143,0.753-2.37,2.202-3.479,4.866c-0.141,0.338-0.294,0.677-0.458,1.038c-1.057,2.333-2.505,5.527-3.729,15.771l-0.02,0.165   l-0.114,0.12c-0.064,0.068-0.658,0.662-1.676,0.662c-0.2,0-0.405-0.024-0.608-0.071c-1.395-0.322-1.836-1.634-1.854-1.69   l-0.03-0.092l0.006-0.096c0.403-5.97,2.324-11.388,4.428-16.875c0.423-1.103,0.869-2.031,1.303-2.826   c-1.809,0.507-3.55,1.209-5.224,2.087c-2.111,2.105-4.636,6.547-5.74,15.931l-0.02,0.166l-0.115,0.121   c-0.064,0.067-0.658,0.661-1.676,0.661c-0.2,0-0.405-0.024-0.608-0.071c-1.401-0.324-1.812-1.626-1.829-1.681l-0.032-0.107   l0.016-0.11c0.454-3.141,0.992-5.782,1.586-8.01c-6.434,8.544-6.069,21.231-5.961,23.296   C24.932,48.847,33.876,50.941,42.637,50.941z"></path><path d="M30.923,32.089c0.093,0.211,0.406,0.788,1.097,0.947c0.547,0.127,1.028-0.079,1.224-0.216   c1.237-10.243,2.709-13.493,3.787-15.869c0.159-0.351,0.309-0.681,0.446-1.01c2.189-5.26,4.965-6.288,6.845-6.215   c-0.81-0.578-1.878-1.129-3.008-1.129c-1.291,0-2.457,0.736-3.466,2.188c-0.789,1.135-1.711,2.597-2.569,4.832   C33.217,20.994,31.333,26.301,30.923,32.089z"></path><path d="M50.625,80.375c0-1.807,1.01-3.399,2.479-4.278C53.844,75.573,95,59.625,95,59.625l-0.078-3.949L49.276,72.469   C49.22,72.49,49.161,72.5,49.103,72.5c-0.104,0-0.208-0.033-0.295-0.096L48.1,71.882c-2.562-1.894-4.411-3.262-7.68-2.448   c-0.269,0.067-0.539-0.096-0.606-0.364c-0.066-0.268,0.096-0.54,0.364-0.606c3.724-0.931,5.839,0.634,8.516,2.614l0.488,0.359   l45.703-16.813l-0.296-8.406c-19.306,6.77-38.744,15.294-57.911,22.49c0.204,0.034,0.398,0.087,0.594,0.146   c2.061,0.227,4.48,2.565,5.906,5.941c0.772,1.825,1.12,3.644,1.08,5.19c0.054,0.586,0.021,1.187-0.124,1.781   c-0.196,0.806-0.519,1.58-0.924,2.308l7.496-2.855c-0.042-0.257-0.081-0.515-0.081-0.782V80.375z"></path></g></svg>