<svg height='100px' width='100px'  fill="#000000" xmlns="http://www.w3.org/2000/svg" xmlns:xlink="http://www.w3.org/1999/xlink" version="1.1" x="0px" y="0px" viewBox="0 0 64 64" style="enable-background:new 0 0 64 64;" xml:space="preserve"><path d="M22,53c0,5.514,4.486,10,10,10s10-4.486,10-10s-4.486-10-10-10S22,47.486,22,53z M32,45c4.411,0,8,3.589,8,8  c0,2.52-1.174,4.768-3,6.235V58c0-1.657-1.343-3-3-3h-2h-2c-1.657,0-3,1.343-3,3v1.235c-1.826-1.468-3-3.715-3-6.235  C24,48.589,27.589,45,32,45z"></path><circle cx="32" cy="52" r="3"></circle><path d="M11,63c5.514,0,10-4.486,10-10s-4.486-10-10-10S1,47.486,1,53S5.486,63,11,63z M11,45c4.411,0,8,3.589,8,8  c0,2.52-1.174,4.768-3,6.235V58c0-1.657-1.343-3-3-3h-2H9c-1.657,0-3,1.343-3,3v1.235C4.174,57.768,3,55.52,3,53  C3,48.589,6.589,45,11,45z"></path><circle cx="11" cy="52" r="3"></circle><path d="M53,43c-5.514,0-10,4.486-10,10s4.486,10,10,10s10-4.486,10-10S58.514,43,53,43z M58,59.235V58c0-1.657-1.343-3-3-3h-2h-2  c-1.657,0-3,1.343-3,3v1.235c-1.826-1.468-3-3.715-3-6.235c0-4.411,3.589-8,8-8s8,3.589,8,8C61,55.52,59.826,57.768,58,59.235z"></path><circle cx="53" cy="52" r="3"></circle><path d="M12,34c0-0.551,0.449-1,1-1h2.586l-1.293,1.293l1.414,1.414l3-3c0.391-0.391,0.391-1.023,0-1.414l-3-3l-1.414,1.414  L15.586,31H13c-1.654,0-3,1.346-3,3v7h2V34z"></path><path d="M48.293,35.707l1.414-1.414L48.414,33H51c0.551,0,1,0.449,1,1v7h2v-7c0-1.654-1.346-3-3-3h-2.586l1.293-1.293l-1.414-1.414  l-3,3c-0.391,0.391-0.391,1.023,0,1.414L48.293,35.707z"></path><path d="M32,39c1.657,0,3-1.343,3-3h-6C29,37.657,30.343,39,32,39z"></path><rect x="28" y="33" width="8" height="2"></rect><rect x="31" y="2" width="2" height="3"></rect><rect x="45" y="17" width="3" height="2"></rect><rect x="16" y="17" width="3" height="2"></rect><rect x="41.253" y="26.753" transform="matrix(0.7071 -0.7071 0.7071 0.7071 -7.6022 38.1524)" width="2" height="3"></rect><rect x="20.747" y="6.247" transform="matrix(0.7071 -0.7071 0.7071 0.7071 0.8916 17.6466)" width="2" height="3"></rect><rect x="40.753" y="6.747" transform="matrix(0.7071 -0.7071 0.7071 0.7071 6.8976 32.1464)" width="3" height="2"></rect><rect x="20.247" y="27.253" transform="matrix(0.7071 -0.7071 0.7071 0.7071 -13.6083 23.6526)" width="3" height="2"></rect><path d="M25.57,25.648c0.904,0.76,1.43,1.876,1.43,3.057V32h4v-5.52l-3.959-3.168C26.379,22.785,26,21.996,26,21.148v-0.377  C26,19.243,27.243,18,28.771,18h0.28c0.929,0,1.791,0.461,2.306,1.234c0.207,0.31,0.518,0.343,0.642,0.343s0.436-0.033,0.642-0.343  C33.157,18.461,34.019,18,34.948,18h0.28C36.757,18,38,19.243,38,20.771v0.495c0,0.74-0.289,1.437-0.812,1.96l-2.481,2.481  l-1.414-1.414l2.481-2.481C35.92,21.666,36,21.472,36,21.266v-0.495C36,20.346,35.654,20,35.229,20h-0.28  c-0.259,0-0.499,0.128-0.642,0.344c-0.515,0.773-1.377,1.234-2.306,1.234s-1.791-0.461-2.306-1.234  C29.55,20.128,29.311,20,29.052,20h-0.28C28.346,20,28,20.346,28,20.771v0.377c0,0.236,0.105,0.455,0.289,0.602l4.335,3.469  C32.862,25.409,33,25.696,33,26v6h4v-3.295c0-1.169,0.505-2.286,1.403-3.034C40.6,23.838,42,21.085,42,18  c0-5.899-5.107-10.604-11.141-9.937c-4.622,0.511-8.358,4.304-8.81,8.933C21.71,20.47,23.154,23.618,25.57,25.648z"></path></svg>