<svg height='100px' width='100px'  fill="#1A1A1A" xmlns="http://www.w3.org/2000/svg" xmlns:xlink="http://www.w3.org/1999/xlink" version="1.1" x="0px" y="0px" viewBox="0 0 128 128" style="enable-background:new 0 0 128 128;" xml:space="preserve"><g><path d="M75.878,9.411l-41.397,73.7l18.036,0.392l21.931-39.985c0.065-0.161,0.171-0.304,0.313-0.415   c0.013-0.01,0.024-0.019,0.038-0.028c0.023-0.016,0.043-0.035,0.068-0.051c0.012-0.007,0.025-0.01,0.037-0.016   c0.041-0.023,0.082-0.041,0.125-0.059c0.012-0.005,0.023-0.011,0.035-0.015c0.264-0.094,0.563-0.082,0.828,0.063   c0.23,0.126,0.389,0.329,0.469,0.559l42.154,75.032l8.205-19.6L75.878,9.411z"></path><path d="M66.291,60.865l23.584,39.118c0.105,0.136,0.174,0.298,0.199,0.476c0.004,0.018,0.005,0.034,0.006,0.052   c0.003,0.026,0.01,0.053,0.01,0.079c0,0.014-0.004,0.026-0.004,0.04c0,0.048-0.006,0.095-0.013,0.141   c-0.002,0.011-0.003,0.023-0.005,0.035c-0.051,0.276-0.212,0.531-0.472,0.687c-0.224,0.136-0.478,0.17-0.715,0.125L1.28,100.602   l13.572,16.986l103.664,1.001L75.383,45.886L66.291,60.865z"></path><path d="M78.917,84.105l-46.021,1c-0.171,0.022-0.347,0.003-0.515-0.065c-0.015-0.006-0.029-0.012-0.044-0.019   c-0.026-0.012-0.052-0.02-0.078-0.034c-0.012-0.006-0.021-0.016-0.033-0.022c-0.039-0.023-0.076-0.051-0.112-0.079   c-0.011-0.008-0.021-0.016-0.032-0.024c-0.212-0.182-0.352-0.447-0.359-0.748c-0.006-0.262,0.091-0.5,0.25-0.684L75.878,9.411   l-21.614,3.384L1.28,100.602l86.08-0.997L78.917,84.105z"></path></g></svg>