<svg height='100px' width='100px'  fill="#000000" xmlns="http://www.w3.org/2000/svg" data-name="Layer 1" viewBox="0 0 100 100" x="0px" y="0px"><title>Founding-Path</title><path d="M55.15,36.83a1.1,1.1,0,0,0,.47.1,1.21,1.21,0,0,0,1.1-.72,16.59,16.59,0,0,1,3.3-4.9,1.19,1.19,0,0,0-1.73-1.64,19.27,19.27,0,0,0-3.77,5.59A1.19,1.19,0,0,0,55.15,36.83Z"></path><path d="M64.08,27.69a1.24,1.24,0,0,0,.64-.18,31.5,31.5,0,0,1,5.48-2.74,1.19,1.19,0,1,0-.87-2.22,33.63,33.63,0,0,0-5.88,2.94,1.19,1.19,0,0,0,.63,2.2Z"></path><path d="M58.78,52.41a1.19,1.19,0,0,0-.13,1.68,39,39,0,0,0,4.65,4.6,1.16,1.16,0,0,0,.77.29,1.24,1.24,0,0,0,.92-.42,1.21,1.21,0,0,0-.14-1.69,37.42,37.42,0,0,1-4.38-4.32A1.2,1.2,0,0,0,58.78,52.41Z"></path><path d="M52.71,90.23A12.9,12.9,0,0,1,48,87a1.19,1.19,0,0,0-1.68-.09,1.2,1.2,0,0,0-.09,1.69,15.29,15.29,0,0,0,5.63,3.9,1.32,1.32,0,0,0,.44.08,1.19,1.19,0,0,0,.45-2.3Z"></path><path d="M64.39,90.46a19.51,19.51,0,0,1-5.72.87h-.2a1.2,1.2,0,0,0,0,2.39h.21a21.9,21.9,0,0,0,6.42-1,1.19,1.19,0,0,0-.7-2.28Z"></path><path d="M73.15,67.83a1.17,1.17,0,0,0,.71-.24,1.18,1.18,0,0,0,.26-1.66A36,36,0,0,0,69.74,61a1.19,1.19,0,0,0-1.64,1.73,34.48,34.48,0,0,1,4.09,4.58A1.18,1.18,0,0,0,73.15,67.83Z"></path><path d="M55.66,41.87a1.19,1.19,0,1,0-2.38.11A16.87,16.87,0,0,0,55,48.54a1.19,1.19,0,1,0,2.15-1A14.79,14.79,0,0,1,55.66,41.87Z"></path><path d="M75.78,71.07a1.19,1.19,0,0,0-.72,1.53,13.7,13.7,0,0,1,.83,4.58,10.93,10.93,0,0,1-.06,1.15,1.2,1.2,0,0,0,1.08,1.3H77a1.19,1.19,0,0,0,1.19-1.08,12.75,12.75,0,0,0,.07-1.38,16.16,16.16,0,0,0-1-5.39A1.2,1.2,0,0,0,75.78,71.07Z"></path><path d="M75.56,83.37a1.19,1.19,0,0,0-1.66.34,15.4,15.4,0,0,1-4.13,4.16,1.19,1.19,0,0,0-.3,1.66,1.17,1.17,0,0,0,1.66.3A17.72,17.72,0,0,0,75.9,85,1.19,1.19,0,0,0,75.56,83.37Z"></path><path d="M82.19,20.05h0a35.77,35.77,0,0,0-6.54.68,1.19,1.19,0,0,0,.23,2.36l.23,0a33.6,33.6,0,0,1,6.1-.63,1.2,1.2,0,0,0,0-2.39Z"></path><path d="M91.21,21.59,94.14,18a1.19,1.19,0,0,0-1.85-1.51L89.45,20l-2.63-3.43A1.2,1.2,0,0,0,84.92,18l2.73,3.56-2.93,3.58a1.19,1.19,0,1,0,1.85,1.51l2.84-3.46L92,26.6a1.19,1.19,0,0,0,.95.47,1.15,1.15,0,0,0,.72-.25,1.19,1.19,0,0,0,.23-1.67Z"></path><path d="M52.15,83.53a1.2,1.2,0,0,0-.54-1.6,20.42,20.42,0,0,0-7.53-2V39.62s0,0,0,0a1.62,1.62,0,0,0,0-.21V16.58a3.73,3.73,0,1,0-2.39,0v1.21c-3.43-1.95-10.83-4.82-17.78,1.4-8,7.13-16.23,3.47-16.58,3.31a1.19,1.19,0,0,0-1.39,1.88l4.62,5.15L6.41,33.65a1.17,1.17,0,0,0-.36.88,1.19,1.19,0,0,0,.4.86c.09.08,9.28,8.18,18.82,1.39,3.44-2.45,6.77-3.22,9.89-2.31a12.08,12.08,0,0,1,6.53,5.16V80.16a18.54,18.54,0,0,0-5.64,2.34,1.2,1.2,0,0,0,1.31,2s3.36-2.18,6.47-2.18a18,18,0,0,1,6.72,1.75A1.2,1.2,0,0,0,52.15,83.53ZM41.55,13.07a1.34,1.34,0,1,1,1.34,1.33A1.34,1.34,0,0,1,41.55,13.07ZM38.62,33.39c-3.18-1.86-8.33-3.11-14.74,1.45S11.4,36.05,9.05,34.39l4-4a1.17,1.17,0,0,0,.05-1.64l-2.69-3A18.15,18.15,0,0,0,25.5,21c7-6.22,14.33-1.71,16.19-.38V35.8A15.36,15.36,0,0,0,38.62,33.39Z"></path></svg>