<svg height='100px' width='100px'  fill="#000000" xmlns:x="http://ns.adobe.com/Extensibility/1.0/" xmlns:i="http://ns.adobe.com/AdobeIllustrator/10.0/" xmlns:graph="http://ns.adobe.com/Graphs/1.0/" xmlns="http://www.w3.org/2000/svg" xmlns:xlink="http://www.w3.org/1999/xlink" version="1.1" x="0px" y="0px" viewBox="0 0 100 100" style="enable-background:new 0 0 100 100;" xml:space="preserve"><g><g i:extraneous="self"><g><path d="M5273.1,2400.1v-2c0-2.8-5-4-9.7-4s-9.7,1.3-9.7,4v2c0,1.8,0.7,3.6,2,4.9l5,4.9c0.3,0.3,0.4,0.6,0.4,1v6.4     c0,0.4,0.2,0.7,0.6,0.8l2.9,0.9c0.5,0.1,1-0.2,1-0.8v-7.2c0-0.4,0.2-0.7,0.4-1l5.1-5C5272.4,2403.7,5273.1,2401.9,5273.1,2400.1z      M5263.4,2400c-4.8,0-7.4-1.3-7.5-1.8v0c0.1-0.5,2.7-1.8,7.5-1.8c4.8,0,7.3,1.3,7.5,1.8C5270.7,2398.7,5268.2,2400,5263.4,2400z"></path><path d="M5268.4,2410.3c-0.6,0-1,0.4-1,1c0,0.6,0.4,1,1,1h4.3c0.6,0,1-0.4,1-1c0-0.6-0.4-1-1-1H5268.4z"></path><path d="M5272.7,2413.7h-4.3c-0.6,0-1,0.4-1,1c0,0.6,0.4,1,1,1h4.3c0.6,0,1-0.4,1-1C5273.7,2414.1,5273.3,2413.7,5272.7,2413.7z"></path><path d="M5272.7,2417h-4.3c-0.6,0-1,0.4-1,1c0,0.6,0.4,1,1,1h4.3c0.6,0,1-0.4,1-1C5273.7,2417.5,5273.3,2417,5272.7,2417z"></path></g><g><ellipse transform="matrix(8.746190e-03 -1 1 8.746190e-03 9.1104 63.5312)" cx="36.6" cy="27.2" rx="8.2" ry="8.2"></ellipse><path d="M16.3,57.7c1.2,0,2.4-0.6,3.1-1.7l2.2-3.2c1.8-2.6,4.3-4.7,7.2-6v13.1l-1.6,11l-5.8,13.9l9.1-0.6l0.8-0.8l4-9.6     c0.1-0.3,0.2-0.7,0.3-1l1.4-9l8.9,3.7l-0.9,9.2l8.7-0.8l1.1-10.7c0.2-1.9-0.9-3.7-2.6-4.4l-7.3-3V44.3l0.4-0.1     c5.1-1.3,9.8-4.3,13.2-8.4l3.3-4.1c1.3-1.6,1.1-4-0.6-5.3c-1.6-1.3-4-1.1-5.3,0.6L52.4,31c-2.3,2.9-5.6,5-9.2,5.9l-1,0.2     c-1.4,0.4-2.8,0.5-4.3,0.5l-2,0c-2.4,0-5,0.4-7.4,1.1c-5.4,1.7-10.1,5.1-13.3,9.8l-2.2,3.2c-1.2,1.7-0.7,4.1,1,5.2     C14.8,57.5,15.5,57.7,16.3,57.7z"></path><path d="M67.2,15.8c0.5,0.5,0.8,1.2,0.6,1.9l-1.1,4.4c-0.4,1.7,1.4,3,2.9,2.1l3.9-2.4c0.6-0.4,1.4-0.4,2,0l3.9,2.4     c1.5,0.9,3.3-0.4,2.9-2.1l-1.1-4.4c-0.2-0.7,0.1-1.4,0.6-1.9l3.5-3c1.3-1.1,0.6-3.2-1.1-3.4l-4.6-0.4C79,9,78.4,8.6,78.1,7.9     l-1.8-4.2c-0.7-1.6-2.9-1.6-3.6,0L71,7.9c-0.3,0.7-0.9,1.1-1.6,1.2l-4.6,0.4c-1.7,0.1-2.4,2.3-1.1,3.4L67.2,15.8z"></path><path d="M87.1,78.2L76,62.8c-0.6-0.9-1.8-1.2-2.7-0.8l-7.7,3.2c-0.4,0.2-0.8,0.5-1.1,0.9L57,78.5c-0.4,0.6-1,1-1.8,1.1L40,80.9     c-0.5,0-1,0.3-1.4,0.7l-5.8,5.8c-0.4,0.4-0.9,0.6-1.5,0.7L17.8,89C17,89,16.3,89.4,16,90.1l-2.2,4c-0.9,1.5,0.2,3.4,2,3.4h69.5     c1.3,0,2.3-1,2.3-2.3V79.5C87.5,79,87.4,78.6,87.1,78.2z"></path></g></g></g></svg>