<svg height='100px' width='100px'  fill="#1A1A1A" xmlns:x="http://ns.adobe.com/Extensibility/1.0/" xmlns:i="http://ns.adobe.com/AdobeIllustrator/10.0/" xmlns:graph="http://ns.adobe.com/Graphs/1.0/" xmlns="http://www.w3.org/2000/svg" xmlns:xlink="http://www.w3.org/1999/xlink" version="1.1" x="0px" y="0px" viewBox="0 0 100 100" style="enable-background:new 0 0 100 100;" xml:space="preserve"><g><g i:extraneous="self"><g><path d="M5273.1,2400.1v-2c0-2.8-5-4-9.7-4s-9.7,1.3-9.7,4v2c0,1.8,0.7,3.6,2,4.9l5,4.9c0.3,0.3,0.4,0.6,0.4,1v6.4     c0,0.4,0.2,0.7,0.6,0.8l2.9,0.9c0.5,0.1,1-0.2,1-0.8v-7.2c0-0.4,0.2-0.7,0.4-1l5.1-5C5272.4,2403.7,5273.1,2401.9,5273.1,2400.1z      M5263.4,2400c-4.8,0-7.4-1.3-7.5-1.8v0c0.1-0.5,2.7-1.8,7.5-1.8c4.8,0,7.3,1.3,7.5,1.8C5270.7,2398.7,5268.2,2400,5263.4,2400z"></path><path d="M5268.4,2410.3c-0.6,0-1,0.4-1,1c0,0.6,0.4,1,1,1h4.3c0.6,0,1-0.4,1-1c0-0.6-0.4-1-1-1H5268.4z"></path><path d="M5272.7,2413.7h-4.3c-0.6,0-1,0.4-1,1c0,0.6,0.4,1,1,1h4.3c0.6,0,1-0.4,1-1C5273.7,2414.1,5273.3,2413.7,5272.7,2413.7z"></path><path d="M5272.7,2417h-4.3c-0.6,0-1,0.4-1,1c0,0.6,0.4,1,1,1h4.3c0.6,0,1-0.4,1-1C5273.7,2417.5,5273.3,2417,5272.7,2417z"></path></g><g><ellipse transform="matrix(8.802854e-03 -1 1 8.802854e-03 -17.4921 66.2085)" cx="24.7" cy="41.9" rx="8.6" ry="8.6"></ellipse><path d="M45.8,37.5c-1.9-0.6-4,0.4-4.6,2.4l-2,6.2c-1,3.1-3.3,5.5-6.3,6.6c-1.4,0.5-2.9,0.8-4.4,0.8l-8.3,0     c-3.5,0-6.8,1.8-8.6,4.8L3.1,71.6c-1.1,1.7-0.6,4,1.2,5.1c0.6,0.4,1.3,0.6,2,0.6c1.2,0,2.4-0.6,3.1-1.7l6.5-10.3v10.4     c0,1.3,1,2.3,2.3,2.3h13.1c1.3,0,2.3-1,2.3-2.3V60c0.6-0.2,1.2-0.3,1.8-0.5c5.2-1.9,9.1-6,10.8-11.2l2-6.2     C48.8,40.2,47.7,38.1,45.8,37.5z"></path><ellipse transform="matrix(1 -8.802854e-03 8.802854e-03 1 -0.3662 0.6649)" cx="75.3" cy="41.9" rx="8.6" ry="8.6"></ellipse><path d="M96.9,71.6l-8.4-13.5c-1.9-3-5.1-4.8-8.6-4.8l-8.3,0c-1.5,0-3-0.3-4.4-0.8c-3-1.1-5.3-3.5-6.3-6.6l-2-6.2     c-0.6-1.9-2.7-3-4.6-2.4c-1.9,0.6-3,2.7-2.4,4.6l2,6.2c1.7,5.2,5.6,9.3,10.8,11.2c0.6,0.2,1.2,0.3,1.8,0.5v15.6     c0,1.3,1,2.3,2.3,2.3h13.1c1.3,0,2.3-1,2.3-2.3V65.2l6.5,10.3c0.7,1.1,1.9,1.7,3.1,1.7c0.7,0,1.3-0.2,2-0.6     C97.5,75.6,98,73.3,96.9,71.6z"></path><path d="M52.3,24.5c0-1.3-1.1-2.4-2.3-2.4s-2.3,1.1-2.3,2.4v3.9c0,1.3,1.1,2.4,2.3,2.4s2.3-1.1,2.3-2.4V24.5z"></path><path d="M39.9,31.7c0.4,0.8,1.2,1.2,2,1.2c0.4,0,0.8-0.1,1.2-0.3c1.1-0.6,1.5-2.1,0.9-3.2L42,26c-0.6-1.1-2.1-1.5-3.2-0.9     c-1.1,0.6-1.5,2.1-0.9,3.2L39.9,31.7z"></path><path d="M56.9,32.5c0.4,0.2,0.8,0.3,1.2,0.3c0.8,0,1.6-0.4,2-1.2l1.9-3.4c0.6-1.1,0.3-2.6-0.9-3.2c-1.1-0.7-2.6-0.3-3.2,0.9     L56,29.3C55.4,30.4,55.8,31.9,56.9,32.5z"></path></g></g></g></svg>