<svg height='100px' width='100px'  fill="#000000" xmlns="http://www.w3.org/2000/svg" xmlns:xlink="http://www.w3.org/1999/xlink" version="1.1" x="0px" y="0px" viewBox="0 0 100 100" enable-background="new 0 0 100 100" xml:space="preserve"><path d="M1.799,60.836c0,0.408,0.331,0.739,0.739,0.739h81.057c3.852,0,6.5-1.082,7.657-3.129c0.781-1.38,1.216-3.851-1.148-7.784  c-0.067-0.111-0.163-0.189-0.268-0.25c-5.181-7.4-12.489-9.721-18.367-11.585c-3.009-0.954-5.608-1.778-7.185-3.084  c-3.424-2.841-7.697-4.405-12.033-4.405H2.538c-0.408,0-0.739,0.331-0.739,0.739c0,0.408,0.331,0.739,0.739,0.739H52.25  c0.137,0,0.274,0.015,0.411,0.018v4.646l0.299,0.127c0.083,0.036,2.08,0.871,6.06,0.871c0.001,0,0.001,0,0.001,0  c1.848,0,3.838-0.187,5.914-0.545c1.661,0.898,3.755,1.564,6.086,2.303c5.688,1.803,12.766,4.047,17.662,11.103  c0.055,0.08,0.132,0.132,0.208,0.183c1.53,2.585,1.906,4.727,1.074,6.197c-0.868,1.534-3.13,2.379-6.371,2.379H2.538  C2.13,60.097,1.799,60.428,1.799,60.836z M59.021,37.493C59.021,37.493,59.021,37.493,59.021,37.493  c-2.908,0-4.704-0.47-5.375-0.686v-3.929c3.505,0.295,6.904,1.687,9.695,4.002c0.106,0.088,0.225,0.167,0.338,0.25  C62.053,37.364,60.487,37.493,59.021,37.493z"></path><path d="M97.765,65.801c0.816,0,1.477-0.662,1.477-1.477c0-0.816-0.662-1.477-1.477-1.477H2.261c-0.816,0-1.477,0.662-1.477,1.477  c0,0.816,0.661,1.477,1.477,1.477H97.765z"></path><path d="M97.99,66.946h-1.477c-0.544,0-0.985,0.441-0.985,0.985c0,0.544,0.441,0.985,0.985,0.985h1.477  c0.544,0,0.985-0.44,0.985-0.985C98.975,67.386,98.534,66.946,97.99,66.946z"></path><path d="M12.639,66.946H9.747c-0.544,0-0.985,0.441-0.985,0.985c0,0.544,0.441,0.985,0.985,0.985h2.892  c0.544,0,0.985-0.44,0.985-0.985C13.624,67.386,13.183,66.946,12.639,66.946z"></path><path d="M64.698,66.946h-2.892c-0.544,0-0.985,0.441-0.985,0.985c0,0.544,0.441,0.985,0.985,0.985h2.892  c0.544,0,0.985-0.44,0.985-0.985C65.683,67.386,65.243,66.946,64.698,66.946z"></path><path d="M21.316,66.946h-2.892c-0.544,0-0.985,0.441-0.985,0.985c0,0.544,0.441,0.985,0.985,0.985h2.892  c0.544,0,0.985-0.44,0.985-0.985C22.301,67.386,21.86,66.946,21.316,66.946z"></path><path d="M56.022,66.946H53.13c-0.544,0-0.985,0.441-0.985,0.985c0,0.544,0.441,0.985,0.985,0.985h2.892  c0.544,0,0.985-0.44,0.985-0.985C57.007,67.386,56.566,66.946,56.022,66.946z"></path><path d="M73.376,66.946h-2.892c-0.544,0-0.985,0.441-0.985,0.985c0,0.544,0.441,0.985,0.985,0.985h2.892  c0.544,0,0.985-0.44,0.985-0.985C74.361,67.386,73.92,66.946,73.376,66.946z"></path><path d="M90.728,66.946h-2.892c-0.544,0-0.985,0.441-0.985,0.985c0,0.544,0.44,0.985,0.985,0.985h2.892  c0.544,0,0.985-0.44,0.985-0.985C91.713,67.386,91.273,66.946,90.728,66.946z"></path><path d="M82.052,66.946H79.16c-0.544,0-0.985,0.441-0.985,0.985c0,0.544,0.44,0.985,0.985,0.985h2.892  c0.544,0,0.985-0.44,0.985-0.985C83.037,67.386,82.596,66.946,82.052,66.946z"></path><path d="M29.992,66.946H27.1c-0.544,0-0.985,0.441-0.985,0.985c0,0.544,0.441,0.985,0.985,0.985h2.892  c0.544,0,0.985-0.44,0.985-0.985C30.977,67.386,30.536,66.946,29.992,66.946z"></path><path d="M38.669,66.946h-2.893c-0.544,0-0.985,0.441-0.985,0.985c0,0.544,0.441,0.985,0.985,0.985h2.893  c0.544,0,0.985-0.44,0.985-0.985C39.654,67.386,39.213,66.946,38.669,66.946z"></path><path d="M47.346,66.946h-2.892c-0.544,0-0.985,0.441-0.985,0.985c0,0.544,0.441,0.985,0.985,0.985h2.892  c0.544,0,0.985-0.44,0.985-0.985C48.331,67.386,47.89,66.946,47.346,66.946z"></path><path d="M3.963,66.946H2.486c-0.544,0-0.985,0.441-0.985,0.985c0,0.544,0.441,0.985,0.985,0.985h1.477  c0.544,0,0.985-0.44,0.985-0.985C4.948,67.386,4.507,66.946,3.963,66.946z"></path><path d="M2.538,53.463h71.096c-2.264-3.899-10.817-5.409-10.817-5.409H2.538V53.463z"></path><path d="M4.59,39.282v7.526h5.513v-7.526H4.59z M9.118,45.823H5.574v-5.556h3.543V45.823z"></path><path d="M14.652,39.282v7.526h5.513v-7.526H14.652z M19.18,45.823h-3.543v-5.556h3.543V45.823z"></path><path d="M24.715,39.282v7.526h5.513v-7.526H24.715z M29.243,45.823h-3.543v-5.556h3.543V45.823z"></path><path d="M34.777,39.282v7.526h5.513v-7.526H34.777z M39.306,45.823h-3.543v-5.556h3.543V45.823z"></path></svg>