<svg height='100px' width='100px'  fill="#1A1A1A" xmlns="http://www.w3.org/2000/svg" xmlns:xlink="http://www.w3.org/1999/xlink" version="1.1" x="0px" y="0px" viewBox="0 0 100 100" enable-background="new 0 0 100 100" xml:space="preserve"><path d="M38.3314171,18.3795776c0.9736328,0.2431641,1.9573364,0.4384766,2.9483032,0.5864258  c0.2164917,1.4667969,1.3481445,2.7749023,2.6524658,3.3830566c0.1242065,0.0585938,0.2493286,0.1115723,0.3753662,0.1589355  c-0.0776367,0.1445313-0.1452026,0.2978516-0.2000122,0.4621582c-0.2639771,0.7836914-0.1589355,1.6403809,0.296814,2.411377  c0.5581055,0.9462891,1.5773926,1.6567383,2.6606445,1.8540039c1.0951538,0.1955566,2.1838379-0.0144043,3.149292-0.3286133  c0.0621338,0.2409668,0.1598511,0.4804688,0.2941284,0.7124023c0.4685059,0.809082,1.2457886,1.2805176,2.0596313,1.2805176  c0.1424561,0,0.2858887-0.0129395,0.4283447-0.0439453c0.5059814-0.1040039,0.8311768-0.5991211,0.7270508-1.1032715  c-0.104126-0.5078125-0.6010132-0.842041-1.1051636-0.7270508c-0.1635132,0.0292969-0.3772583-0.1442871-0.491394-0.3435059  c-0.1151123-0.1972656-0.1699219-0.4675293-0.0529785-0.5991211c0.2886353-0.3251953,0.314209-0.807373,0.0603027-1.1618652  c-0.2530518-0.355957-0.7207031-0.4875488-1.1188965-0.3212891c-1.331665,0.5515137-2.5254517,0.9899902-3.6169434,0.7944336  c-0.5462036-0.0986328-1.1015015-0.4858398-1.3828125-0.9626465c-0.1242065-0.2099609-0.2484741-0.5314941-0.1351929-0.8659668  c0.0721436-0.215332,0.2319946-0.4255371,0.4036865-0.6098633c0.9261475,0.0947266,1.8358765,0.0600586,2.6396484,0.0273438  c2.5802612-0.1005859,5.1559448-0.4768066,6.5269165-2.5410156c0.1644287-0.246582,0.2018433-0.559082,0.0995483-0.8383789  c-0.1022949-0.277832-0.3306274-0.4934082-0.6156006-0.5756836c-0.8019409-0.2355957-1.6303711-0.3615723-2.4606323-0.3852539  c0.4046631-0.0839844,0.8083496-0.1772461,1.2102051-0.279541c1.1033936-0.2775879,2.4907837-0.9719238,3.0744019-2.0842285  c0.3132935-0.5974121,0.3562012-1.2441406,0.123291-1.8669434c-0.2675781-0.7197266-1.0110474-1.6184082-3.0286865-1.8195801  c-0.3388672-0.034668-0.6777344-0.0566406-1.0175171-0.0693359c0.0648804-0.107666,0.1096191-0.2319336,0.1269531-0.3652344  c0.0648804-0.5134277-0.2977295-0.980957-0.8101196-1.046875c-5.0436401-0.6391602-10.2835693,0.3544922-14.7408447,2.8095703  c-0.4082642,0.2246094-1.3636475,0.7526855-1.5270996,1.7993164C35.6945152,16.9347534,36.631649,17.9540405,38.3314171,18.3795776z   M45.6748619,20.9699097c-0.331543-0.072998-0.6512451-0.175293-0.9517212-0.315918  c-0.6119385-0.2851563-1.1737061-0.8383789-1.4421997-1.4521484c1.8650513,0.1550293,3.7457275,0.1496582,5.6126099-0.0202637  C47.7244835,19.5744019,46.6256676,20.1771851,45.6748619,20.9699097z M52.4794273,20.5114136  c-0.9535522,0.4038086-2.1692505,0.5371094-3.4096069,0.5917969c0.9855347-0.3908691,2.0450439-0.597168,3.1063843-0.597168  C52.2775841,20.5060425,52.3789635,20.5077515,52.4794273,20.5114136z M53.6677208,14.4523315  c0.8019409,0.0803223,1.3490601,0.3105469,1.4622803,0.6137695c0.0374756,0.1020508,0.0475464,0.1989746-0.0283203,0.3452148  c-0.229248,0.4365234-1.0357056,0.9277344-1.8751221,1.1379395c-3.149292,0.7946777-6.4163818,1.0632324-9.6497192,0.8000488  c0.2904663-0.3342285,0.7224731-0.6647949,1.3134155-1.0063477C47.5225792,14.822937,50.6417198,14.1598511,53.6677208,14.4523315z   M38.3149376,15.5592651c3.2972412-1.815918,7.0557861-2.7675781,10.8188477-2.7675781c0.0283203,0,0.0566406,0,0.0849609,0  c-1.8477783,0.3415527-3.6379395,0.9936523-5.2637329,1.9326172c-0.8129272,0.4694824-1.9089355,1.2111816-2.4259033,2.3876953  c-0.9216309-0.138916-1.838623-0.3215332-2.7446899-0.5480957c-0.6759033-0.1682129-1.0229492-0.4621582-1.0512695-0.5554199  C37.734066,16.0031128,37.7614708,15.8641968,38.3149376,15.5592651z M83.0605469,44.7457886  c-0.8462524-0.9987793-1.8963013-1.6660156-3.0167236-2.0332031c-0.0187378-0.0073242-0.0340576-0.019043-0.0529175-0.0253906  l-15.1207275-5.6137695c-0.8292236-0.3068848-1.6859779-0.3479004-2.4949989-0.1943359  c-2.7423706-3.8964844-7.2658081-6.454834-12.3825073-6.454834c-5.1160889,0-9.6392822,2.557373-12.3817139,6.4538574  c-0.8092041-0.1542969-1.6659546-0.1132813-2.4946289,0.1953125l-15.1207275,5.6118164  c-0.02948,0.0109863-0.0537109,0.0292969-0.0828247,0.0400391c-1.1011353,0.3671875-2.1347656,1.0180664-2.9688721,2.0014648  c-2.1545401,2.5385742-1.9198599,6.3496094,0.2509766,8.875l10.8885498,12.6647949  c0.3497314,0.4064941,0.7420044,0.751709,1.1586914,1.0522461v15.7600098c0,2.0661621,1.6750488,3.7412109,3.7411499,3.7412109  h34.0188026c2.0662842,0,3.7411499-1.6750488,3.7411499-3.7412109V67.3187866  c0.416687-0.3005371,0.8092041-0.645752,1.1589355-1.0522461l10.9213257-12.703125  C84.9810181,51.053894,85.1995239,47.2711792,83.0605469,44.7457886z M62.8669395,56.4689331  c-1.3386841,1.5708008-2.8764648,2.9902344-4.680542,3.9912109c-2.4302368,1.3491211-5.2216187,2.1201172-8.1937256,2.1201172  c-2.9714966,0-5.7625122-0.7709961-8.1923218-2.1191406c-1.8046875-1.0009766-3.3428955-2.4213867-4.6817627-3.9921875  L30.5376549,48.74823l4.4017334-1.6333008c0.2935181,2.8408203,1.3743896,5.4482422,3.0205078,7.6066895  c2.7686157,3.6306152,7.1252441,5.9880371,12.0327759,5.9880371s9.2641602-2.3574219,12.0328369-5.9880371  c1.6459961-2.1584473,2.7266884-4.7658691,3.0203896-7.6066895l4.4012451,1.6342773L62.8669395,56.4689331z"></path></svg>