<svg height='100px' width='100px'  fill="#000000" xmlns="http://www.w3.org/2000/svg" xmlns:xlink="http://www.w3.org/1999/xlink" version="1.1" x="0px" y="0px" viewBox="0 0 100 100" enable-background="new 0 0 100 100" xml:space="preserve"><g><circle cx="34.933" cy="23.993" r="8.207"></circle><path d="M69.503,5.804c-0.207,0-0.409,0.033-0.601,0.096c-0.31,0.102-0.578,0.288-0.813,0.532   c-0.032,0.018-0.068,0.031-0.098,0.057c-0.061,0.054-6.178,5.411-11.582,7.189l-8.031,2.642c-0.224,0.073-0.372,0.288-0.358,0.524   c0.002,0.013,0.003,0.063,0.01,0.139l-1.264,0.416c-0.274,0.09-0.422,0.385-0.333,0.658l0.041,0.124l-0.826,0.271   c-0.128,0.042-0.235,0.133-0.297,0.252c-0.035,0.066-0.856,1.659-0.183,3.704c0.664,2.019,2.304,3.022,2.375,3.063   c0.13,0.078,0.288,0.095,0.432,0.048l0.825-0.271l0.041,0.124c0.072,0.219,0.275,0.358,0.496,0.358   c0.053,0,0.108-0.008,0.163-0.026l1.263-0.416c0.042,0.064,0.069,0.106,0.077,0.117c0.098,0.15,0.264,0.236,0.437,0.236   c0.053,0,0.108-0.009,0.162-0.026l0.299-0.098c0.226,0.444,0.639,1.049,1.284,1.252c-0.159,0.233-0.292,0.488-0.389,0.768   l-3.779,10.936c-1.322-0.749-2.796-1.547-3.998-2.103c-5.406-2.495-12.115-2.581-15.477-1.222   c-0.853,0.345-3.446,1.394-11.26,15.139c-0.258,0.451-0.404,0.958-0.424,1.478l-0.572,14.057c-0.073,1.799,1.326,3.317,3.124,3.39   c0.046,0.003,0.09,0.003,0.135,0.003c1.739,0,3.184-1.373,3.254-3.128l0.54-13.26c0.445-0.773,0.911-1.563,1.385-2.348v13.909   c0,0.236,0.026,0.466,0.075,0.689l-2.991,25.735c-0.208,1.789,1.074,3.407,2.862,3.615c0.128,0.014,0.254,0.021,0.379,0.021   c1.632,0,3.042-1.223,3.234-2.883l2.779-23.919h6.002l2.778,23.919c0.192,1.66,1.603,2.883,3.233,2.883   c0.126,0,0.252-0.008,0.382-0.021c1.788-0.208,3.068-1.826,2.861-3.615l-3.125-26.893c-0.008-0.07-0.023-0.141-0.035-0.21V43.238   c2.327,1.248,4.894,2.821,4.926,2.842c0.843,0.519,1.875,0.626,2.806,0.293c0.931-0.333,1.66-1.071,1.983-2.004l4.36-12.618   l3.107-1.846c0.243-0.145,0.327-0.457,0.188-0.704l-1.996-3.552c0.035-0.021,0.071-0.037,0.1-0.066l0.467-0.461   c0.186-0.184,0.206-0.479,0.048-0.687l-0.993-1.305l0.473-0.156c5.406-1.777,13.508-1.098,13.588-1.091   c0.097,0.01,0.185-0.015,0.264-0.052c0.065,0.006,0.132,0.017,0.197,0.017c0.207,0,0.408-0.031,0.602-0.095   c2.029-0.668,2.44-4.58,0.953-9.098C73.744,8.621,71.455,5.804,69.503,5.804z M49.669,24.551l-0.041-0.125   c-0.09-0.272-0.382-0.423-0.658-0.332l-1.076,0.354c-0.395-0.292-1.312-1.081-1.734-2.366c-0.418-1.273-0.119-2.309,0.036-2.712   l1.102-0.362c0.272-0.089,0.421-0.384,0.332-0.658l-0.041-0.124l0.535-0.177c0.098,0.911,0.273,2.152,0.572,3.061l0.151,0.462   c0.3,0.908,0.895,2.011,1.358,2.802L49.669,24.551z M60.21,29.268l-3.237,1.924c-0.657-1.157-2.346-4.126-2.959-5.147   c-0.095-0.157-0.301-0.25-0.49-0.25c-0.018,0-0.035,0-0.052,0.001c-0.282,0-0.544-0.303-0.729-0.615l4.364-1.435L60.21,29.268z    M59.486,21.874c-0.434-0.549-1.4-1.86-1.799-3.072l-0.234-0.709c-0.396-1.21-0.397-2.841-0.376-3.541   c3.903-1.376,7.968-4.339,10.099-6.034c-0.286,1.681-0.047,3.986,0.772,6.479c0.827,2.516,2.029,4.557,3.29,5.738   C68.527,20.636,63.465,20.657,59.486,21.874z M73.791,20.762c-0.266,0.087-0.585,0.03-0.934-0.143   c-1.238-0.612-2.87-2.763-3.917-5.947c-1.051-3.194-1.022-5.896-0.383-7.119c0.181-0.342,0.404-0.574,0.671-0.662   c0.085-0.028,0.179-0.043,0.274-0.043c1.23,0,3.329,2.345,4.576,6.133C75.424,17.068,75.005,20.361,73.791,20.762z"></path><path d="M81.31,10.603c-0.09-0.273-0.382-0.424-0.658-0.333l-3.005,0.989c-0.274,0.09-0.422,0.384-0.332,0.658   c0.07,0.22,0.274,0.359,0.494,0.359c0.053,0,0.11-0.008,0.163-0.027l3.006-0.988C81.252,11.171,81.4,10.876,81.31,10.603z"></path><path d="M82.311,14.94l-3.232,0.293c-0.288,0.025-0.499,0.279-0.473,0.566c0.023,0.271,0.252,0.474,0.518,0.474   c0.018,0,0.032-0.001,0.049-0.002l3.232-0.293c0.287-0.025,0.5-0.279,0.474-0.566C82.852,15.126,82.614,14.918,82.311,14.94z"></path><path d="M79.717,5.8c-0.15-0.246-0.471-0.324-0.718-0.175l-2.776,1.684c-0.245,0.15-0.324,0.471-0.175,0.717   c0.099,0.162,0.271,0.251,0.447,0.251c0.092,0,0.185-0.025,0.269-0.076l2.777-1.685C79.787,6.367,79.865,6.047,79.717,5.8z"></path></g></svg>