<?xml version="1.0" encoding="UTF-8" standalone="no"?>
<svg
   xmlns:dc="http://purl.org/dc/elements/1.1/"
   xmlns:cc="http://creativecommons.org/ns#"
   xmlns:rdf="http://www.w3.org/1999/02/22-rdf-syntax-ns#"
   xmlns:svg="http://www.w3.org/2000/svg"
   xmlns="http://www.w3.org/2000/svg"
   xmlns:sodipodi="http://sodipodi.sourceforge.net/DTD/sodipodi-0.dtd"
   xmlns:inkscape="http://www.inkscape.org/namespaces/inkscape"
   version="1.1"
   viewBox="0 0 100 56.560131"
   stroke-miterlimit="10"
   id="svg29484"
   sodipodi:docname="okr-time-scopes.svg"
   width="100"
   height="56.560131"
   style="fill:none;stroke:none;stroke-linecap:square;stroke-miterlimit:10"
   inkscape:version="0.92.3 (2405546, 2018-03-11)">
  <metadata
     id="metadata29490">
    <rdf:RDF>
      <cc:Work
         rdf:about="">
        <dc:format>image/svg+xml</dc:format>
        <dc:type
           rdf:resource="http://purl.org/dc/dcmitype/StillImage" />
        <dc:title></dc:title>
      </cc:Work>
    </rdf:RDF>
  </metadata>
  <defs
     id="defs29488" />
  <sodipodi:namedview
     pagecolor="#ffffff"
     bordercolor="#666666"
     borderopacity="1"
     objecttolerance="10"
     gridtolerance="10"
     guidetolerance="10"
     inkscape:pageopacity="0"
     inkscape:pageshadow="2"
     inkscape:window-width="1920"
     inkscape:window-height="1172"
     id="namedview29486"
     showgrid="false"
     fit-margin-top="0"
     fit-margin-left="0"
     fit-margin-right="0"
     fit-margin-bottom="0"
     showborder="false"
     inkscape:zoom="11.4"
     inkscape:cx="57.062383"
     inkscape:cy="23.797709"
     inkscape:window-x="1680"
     inkscape:window-y="0"
     inkscape:window-maximized="1"
     inkscape:current-layer="g29482" />
  <clipPath
     id="g618e30b810_0_53.0">
    <path
       d="M 0,0 H 960 V 540 H 0 Z"
       id="path29329"
       inkscape:connector-curvature="0"
       style="clip-rule:nonzero" />
  </clipPath>
  <g
     clip-path="url(#g618e30b810_0_53.0)"
     id="g29482"
     transform="translate(-428.27952,-244.22893)">
    <path
       d="m 516.22363,274.7494 1.75176,-16.37699 2.12762,16.34718 z"
       id="path29334"
       inkscape:connector-curvature="0"
       style="fill:#000000;fill-opacity:0;fill-rule:evenodd;stroke-width:0.12481859" />
    <path
       d="m 516.22363,274.7494 1.75176,-16.37699 2.12762,16.34718 z"
       id="path29336"
       inkscape:connector-curvature="0"
       style="fill-rule:evenodd;stroke:#ff9900;stroke-width:0.24963719;stroke-linecap:butt;stroke-linejoin:round" />
    <path
       d="m 477.84775,274.7494 1.75176,-16.37699 2.12762,16.34718 z"
       id="path29338"
       inkscape:connector-curvature="0"
       style="fill:#000000;fill-opacity:0;fill-rule:evenodd;stroke-width:0.12481859" />
    <path
       d="m 477.84775,274.7494 1.75176,-16.37699 2.12762,16.34718 z"
       id="path29340"
       inkscape:connector-curvature="0"
       style="fill-rule:evenodd;stroke:#ff9900;stroke-width:0.24963719;stroke-linecap:butt;stroke-linejoin:round" />
    <path
       d="m 509.92981,274.7515 2.5727,-25.90887 3.12472,25.86169 z"
       id="path29342"
       inkscape:connector-curvature="0"
       style="fill:#000000;fill-opacity:0;fill-rule:evenodd;stroke-width:0.12481859" />
    <path
       d="m 509.92981,274.7515 2.5727,-25.90887 3.12472,25.86169 z"
       id="path29344"
       inkscape:connector-curvature="0"
       style="fill-rule:evenodd;stroke:#ff0000;stroke-width:0.24963719;stroke-linecap:butt;stroke-linejoin:round" />
    <path
       d="m 520.82829,274.75249 1.18499,-6.6819 1.43925,6.66973 z"
       id="path29346"
       inkscape:connector-curvature="0"
       style="fill:#000000;fill-opacity:0;fill-rule:evenodd;stroke-width:0.12481859" />
    <path
       d="m 520.82829,274.75249 1.18499,-6.6819 1.43925,6.66973 z"
       id="path29348"
       inkscape:connector-curvature="0"
       style="fill-rule:evenodd;stroke:#38761d;stroke-width:0.24963719;stroke-linecap:butt;stroke-linejoin:round" />
    <path
       d="m 482.42368,274.75249 1.18498,-6.6819 1.43925,6.66973 z"
       id="path29350"
       inkscape:connector-curvature="0"
       style="fill:#000000;fill-opacity:0;fill-rule:evenodd;stroke-width:0.12481859" />
    <path
       d="m 482.42368,274.75249 1.18498,-6.6819 1.43925,6.66973 z"
       id="path29352"
       inkscape:connector-curvature="0"
       style="fill-rule:evenodd;stroke:#38761d;stroke-width:0.24963719;stroke-linecap:butt;stroke-linejoin:round" />
    <path
       d="m 450.2546,274.75249 1.18499,-6.6819 1.43925,6.66973 z"
       id="path29354"
       inkscape:connector-curvature="0"
       style="fill:#000000;fill-opacity:0;fill-rule:evenodd;stroke-width:0.12481859" />
    <path
       d="m 450.2546,274.75249 1.18499,-6.6819 1.43925,6.66973 z"
       id="path29356"
       inkscape:connector-curvature="0"
       style="fill-rule:evenodd;stroke:#38761d;stroke-width:0.24963719;stroke-linecap:butt;stroke-linejoin:round" />
    <path
       d="m 461.10215,274.75249 1.18499,-6.6819 1.43924,6.66973 z"
       id="path29358"
       inkscape:connector-curvature="0"
       style="fill:#000000;fill-opacity:0;fill-rule:evenodd;stroke-width:0.12481859" />
    <path
       d="m 461.10215,274.75249 1.18499,-6.6819 1.43924,6.66973 z"
       id="path29360"
       inkscape:connector-curvature="0"
       style="fill-rule:evenodd;stroke:#38761d;stroke-width:0.24963719;stroke-linecap:butt;stroke-linejoin:round" />
    <path
       d="m 471.76291,274.75249 1.18499,-6.6819 1.43925,6.66973 z"
       id="path29362"
       inkscape:connector-curvature="0"
       style="fill:#000000;fill-opacity:0;fill-rule:evenodd;stroke-width:0.12481859" />
    <path
       d="m 471.76291,274.75249 1.18499,-6.6819 1.43925,6.66973 z"
       id="path29364"
       inkscape:connector-curvature="0"
       style="fill-rule:evenodd;stroke:#38761d;stroke-width:0.24963719;stroke-linecap:butt;stroke-linejoin:round" />
    <path
       d="m 439.59384,274.75249 1.18499,-6.6819 1.43925,6.66973 z"
       id="path29366"
       inkscape:connector-curvature="0"
       style="fill:#000000;fill-opacity:0;fill-rule:evenodd;stroke-width:0.12481859" />
    <path
       d="m 439.59384,274.75249 1.18499,-6.6819 1.43925,6.66973 z"
       id="path29368"
       inkscape:connector-curvature="0"
       style="fill-rule:evenodd;stroke:#38761d;stroke-width:0.24963719;stroke-linecap:butt;stroke-linejoin:round" />
    <path
       d="m 434.98918,274.7494 1.75176,-16.37699 2.12762,16.34718 z"
       id="path29370"
       inkscape:connector-curvature="0"
       style="fill:#000000;fill-opacity:0;fill-rule:evenodd;stroke-width:0.12481859" />
    <path
       d="m 434.98918,274.7494 1.75176,-16.37699 2.12762,16.34718 z"
       id="path29372"
       inkscape:connector-curvature="0"
       style="fill-rule:evenodd;stroke:#ff9900;stroke-width:0.24963719;stroke-linecap:butt;stroke-linejoin:round" />
    <path
       d="m 428.72409,274.7515 2.5727,-25.90887 3.12472,25.86169 z"
       id="path29374"
       inkscape:connector-curvature="0"
       style="fill:#000000;fill-opacity:0;fill-rule:evenodd;stroke-width:0.12481859" />
    <path
       d="m 428.72409,274.7515 2.5727,-25.90887 3.12472,25.86169 z"
       id="path29376"
       inkscape:connector-curvature="0"
       style="fill-rule:evenodd;stroke:#ff0000;stroke-width:0.24963719;stroke-linecap:butt;stroke-linejoin:round" />
    <path
       d="m 428.27952,274.7515 h 99.45781"
       id="path29378"
       inkscape:connector-curvature="0"
       style="fill:#000000;fill-opacity:0;fill-rule:evenodd;stroke-width:0.12481859" />
    <path
       d="M 428.27952,274.7515 H 525.4906"
       id="path29380"
       inkscape:connector-curvature="0"
       style="fill-rule:evenodd;stroke:#000000;stroke-width:0.37445578;stroke-linecap:butt;stroke-linejoin:round" />
    <path
       d="m 525.4906,275.37 1.69932,-0.6185 -1.69932,-0.6185 z"
       id="path29382"
       inkscape:connector-curvature="0"
       style="fill:#000000;fill-rule:evenodd;stroke:#000000;stroke-width:0.37445578;stroke-linecap:butt" />
    <path
       d="m 440.88686,273.35065 v 2.80301"
       id="path29384"
       inkscape:connector-curvature="0"
       style="fill:#000000;fill-opacity:0;fill-rule:evenodd;stroke-width:0.12481859" />
    <path
       d="m 440.88686,273.35065 v 2.80301"
       id="path29386"
       inkscape:connector-curvature="0"
       style="fill-rule:evenodd;stroke:#000000;stroke-width:0.37445578;stroke-linecap:butt;stroke-linejoin:round" />
    <path
       d="m 522.08577,273.35065 v 2.80301"
       id="path29388"
       inkscape:connector-curvature="0"
       style="fill:#000000;fill-opacity:0;fill-rule:evenodd;stroke-width:0.12481859" />
    <path
       d="m 522.08577,273.35065 v 2.80301"
       id="path29390"
       inkscape:connector-curvature="0"
       style="fill-rule:evenodd;stroke:#000000;stroke-width:0.37445578;stroke-linecap:butt;stroke-linejoin:round" />
    <path
       d="M 451.61273,273.34999 V 276.153"
       id="path29392"
       inkscape:connector-curvature="0"
       style="fill:#000000;fill-opacity:0;fill-rule:evenodd;stroke-width:0.12481859" />
    <path
       d="M 451.61273,273.34999 V 276.153"
       id="path29394"
       inkscape:connector-curvature="0"
       style="fill-rule:evenodd;stroke:#000000;stroke-width:0.12481859;stroke-linecap:butt;stroke-linejoin:round" />
    <path
       d="m 436.44253,278.30736 h 8.88865 v 5.17358 h -8.88865 z"
       id="path29396"
       inkscape:connector-curvature="0"
       style="fill:#000000;fill-opacity:0;fill-rule:evenodd;stroke-width:0.12481859" />
    <path
       d="m 437.71022,282.13164 -0.0234,-0.19113 q 0.0683,0.0175 0.11702,0.0175 0.0683,0 0.10922,-0.0234 0.041,-0.0215 0.0683,-0.0624 0.0195,-0.0312 0.0624,-0.15212 0.006,-0.0175 0.0176,-0.0507 l -0.45832,-1.20918 h 0.22038 l 0.25159,0.6982 q 0.0488,0.13458 0.0878,0.28085 0.0351,-0.14042 0.0839,-0.27499 l 0.25938,-0.70406 h 0.20478 l -0.46026,1.22673 q -0.0741,0.20088 -0.11507,0.27499 -0.0546,0.10142 -0.12482,0.14823 -0.0702,0.0468 -0.16772,0.0468 -0.0605,0 -0.13262,-0.0254 z m 2.00099,-0.85228 0.21064,0.0254 q -0.0507,0.18527 -0.18528,0.28864 -0.13457,0.10142 -0.3452,0.10142 -0.26524,0 -0.42127,-0.16188 -0.15407,-0.16382 -0.15407,-0.45832 0,-0.30619 0.15602,-0.47392 0.15798,-0.16772 0.40761,-0.16772 0.24184,0 0.39396,0.16577 0.15408,0.16383 0.15408,0.46222 0,0.0195 0,0.0546 h -0.90104 q 0.0117,0.19893 0.11312,0.30619 0.10141,0.10532 0.25159,0.10532 0.11311,0 0.19307,-0.0585 0.08,-0.0605 0.12677,-0.18918 z m -0.67285,-0.33155 h 0.6748 q -0.0137,-0.15212 -0.078,-0.22818 -0.0975,-0.11897 -0.25354,-0.11897 -0.14042,0 -0.23793,0.0956 -0.0956,0.0936 -0.10532,0.25158 z m 1.92893,0.57144 q -0.11507,0.0956 -0.22038,0.13652 -0.10337,0.039 -0.22429,0.039 -0.19893,0 -0.30619,-0.0975 -0.10727,-0.0975 -0.10727,-0.24769 0,-0.0897 0.041,-0.16187 0.041,-0.0741 0.10531,-0.11702 0.0663,-0.0448 0.14823,-0.0683 0.0585,-0.0156 0.18137,-0.0312 0.24769,-0.0293 0.36471,-0.0702 0.002,-0.0429 0.002,-0.0527 0,-0.12482 -0.0585,-0.17748 -0.078,-0.0683 -0.23404,-0.0683 -0.14432,0 -0.21258,0.0507 -0.0683,0.0507 -0.10142,0.17748 l -0.20088,-0.0273 q 0.0273,-0.12677 0.0897,-0.20478 0.0624,-0.08 0.18137,-0.12287 0.11897,-0.0429 0.27304,-0.0429 0.15603,0 0.25159,0.0371 0.0975,0.0351 0.14237,0.0917 0.0468,0.0546 0.0644,0.13847 0.01,0.0526 0.01,0.18917 v 0.27305 q 0,0.28474 0.0137,0.3608 0.0137,0.0741 0.0507,0.14432 h -0.21258 q -0.0331,-0.0644 -0.041,-0.14822 z m -0.0175,-0.45832 q -0.11117,0.0468 -0.3335,0.078 -0.12677,0.0176 -0.17943,0.041 -0.0527,0.0234 -0.0819,0.0663 -0.0273,0.0429 -0.0273,0.0975 0,0.0819 0.0624,0.13652 0.0624,0.0546 0.18138,0.0546 0.11702,0 0.20868,-0.0507 0.0936,-0.0527 0.13652,-0.14237 0.0332,-0.0702 0.0332,-0.20478 z m 0.52277,0.60654 v -1.20723 h 0.18332 v 0.18333 q 0.0702,-0.12872 0.12872,-0.16968 0.0605,-0.041 0.13262,-0.041 0.10337,0 0.21063,0.0663 l -0.0702,0.18918 q -0.0761,-0.0449 -0.15017,-0.0449 -0.0683,0 -0.12092,0.041 -0.0527,0.041 -0.0761,0.11117 -0.0351,0.10922 -0.0351,0.23989 v 0.63189 z m 2.13818,0 h -0.20478 v -1.30474 q -0.0741,0.0702 -0.19503,0.14237 -0.11897,0.0702 -0.21453,0.10531 v -0.19893 q 0.17163,-0.08 0.30035,-0.19502 0.12871,-0.11507 0.18137,-0.22234 h 0.13262 z"
       id="path29398"
       inkscape:connector-curvature="0"
       style="fill:#000000;fill-rule:nonzero;stroke-width:0.12481859" />
    <path
       d="m 515.89202,279.22695 h 12.3875 v 5.17359 h -12.3875 z"
       id="path29400"
       inkscape:connector-curvature="0"
       style="fill:#000000;fill-opacity:0;fill-rule:evenodd;stroke-width:0.12481859" />
    <path
       d="m 517.15971,283.05124 -0.0234,-0.19113 q 0.0683,0.0175 0.11702,0.0175 0.0683,0 0.10921,-0.0234 0.041,-0.0215 0.0683,-0.0624 0.0195,-0.0312 0.0624,-0.15213 0.006,-0.0176 0.0176,-0.0507 l -0.45831,-1.20918 h 0.22038 l 0.25159,0.6982 q 0.0488,0.13457 0.0878,0.28084 0.0351,-0.14042 0.0839,-0.27499 l 0.25939,-0.70405 h 0.20478 l -0.46027,1.22673 q -0.0741,0.20088 -0.11506,0.27499 -0.0546,0.10141 -0.12482,0.14822 -0.0702,0.0468 -0.16773,0.0468 -0.0605,0 -0.13262,-0.0254 z m 2.001,-0.85228 0.21063,0.0254 q -0.0507,0.18528 -0.18528,0.28864 -0.13457,0.10142 -0.3452,0.10142 -0.26524,0 -0.42126,-0.16187 -0.15407,-0.16383 -0.15407,-0.45832 0,-0.3062 0.15602,-0.47392 0.15797,-0.16773 0.40761,-0.16773 0.24184,0 0.39396,0.16578 0.15407,0.16382 0.15407,0.46222 0,0.0195 0,0.0546 h -0.90103 q 0.0117,0.19893 0.11311,0.3062 0.10142,0.10532 0.25159,0.10532 0.11312,0 0.19308,-0.0585 0.08,-0.0605 0.12677,-0.18918 z m -0.67285,-0.33155 h 0.6748 q -0.0136,-0.15212 -0.078,-0.22819 -0.0975,-0.11896 -0.25354,-0.11896 -0.14042,0 -0.23794,0.0956 -0.0956,0.0936 -0.10531,0.25159 z m 1.92892,0.57143 q -0.11507,0.0956 -0.22038,0.13652 -0.10337,0.039 -0.22429,0.039 -0.19893,0 -0.30619,-0.0975 -0.10727,-0.0975 -0.10727,-0.24769 0,-0.0897 0.041,-0.16188 0.041,-0.0741 0.10532,-0.11701 0.0663,-0.0449 0.14822,-0.0683 0.0585,-0.0156 0.18137,-0.0312 0.24769,-0.0292 0.36471,-0.0702 0.002,-0.0429 0.002,-0.0527 0,-0.12481 -0.0585,-0.17747 -0.078,-0.0683 -0.23404,-0.0683 -0.14432,0 -0.21258,0.0507 -0.0683,0.0507 -0.10141,0.17748 l -0.20088,-0.0273 q 0.0273,-0.12677 0.0897,-0.20478 0.0624,-0.08 0.18138,-0.12287 0.11896,-0.0429 0.27304,-0.0429 0.15602,0 0.25158,0.0371 0.0975,0.0351 0.14238,0.0917 0.0468,0.0546 0.0643,0.13847 0.01,0.0527 0.01,0.18918 v 0.27304 q 0,0.28474 0.0136,0.3608 0.0137,0.0741 0.0507,0.14433 h -0.21258 q -0.0331,-0.0644 -0.041,-0.14823 z m -0.0176,-0.45831 q -0.11117,0.0468 -0.3335,0.078 -0.12677,0.0176 -0.17943,0.041 -0.0527,0.0234 -0.0819,0.0663 -0.0273,0.0429 -0.0273,0.0975 0,0.0819 0.0624,0.13652 0.0624,0.0546 0.18138,0.0546 0.11702,0 0.20868,-0.0507 0.0936,-0.0527 0.13652,-0.14237 0.0332,-0.0702 0.0332,-0.20478 z m 0.52277,0.60654 v -1.20723 h 0.18332 v 0.18332 q 0.0702,-0.12872 0.12872,-0.16967 0.0605,-0.041 0.13262,-0.041 0.10337,0 0.21064,0.0663 l -0.0702,0.18918 q -0.0761,-0.0449 -0.15017,-0.0449 -0.0683,0 -0.12092,0.041 -0.0526,0.041 -0.0761,0.11117 -0.0351,0.10921 -0.0351,0.23988 v 0.6319 z m 1.36782,-0.43687 0.21453,-0.0175 q 0.0234,0.15602 0.10922,0.23598 0.0878,0.078 0.21063,0.078 0.14822,0 0.24964,-0.11117 0.10336,-0.11117 0.10336,-0.2945 0,-0.17552 -0.0995,-0.27694 -0.0975,-0.10141 -0.25744,-0.10141 -0.0975,0 -0.17748,0.0448 -0.08,0.0449 -0.12481,0.11702 l -0.19308,-0.0254 0.16187,-0.85618 h 0.82887 v 0.19503 h -0.66504 l -0.0897,0.44857 q 0.15017,-0.10532 0.314,-0.10532 0.21843,0 0.3686,0.15212 0.15018,0.15018 0.15018,0.38811 0,0.22624 -0.13067,0.39201 -0.16188,0.20283 -0.43882,0.20283 -0.22623,0 -0.37055,-0.12677 -0.14433,-0.12872 -0.16383,-0.33935 z m 1.27168,-0.0644 v -0.20478 h 0.628 v 0.20478 z m 1.56922,0.50123 h -0.20478 v -1.30475 q -0.0741,0.0702 -0.19503,0.14237 -0.11896,0.0702 -0.21453,0.10532 v -0.19893 q 0.17163,-0.08 0.30035,-0.19503 0.12872,-0.11507 0.18137,-0.22233 h 0.13262 z m 0.52472,-0.82303 q 0,-0.29449 0.0605,-0.47392 0.0605,-0.18137 0.17943,-0.27889 0.12092,-0.0975 0.3023,-0.0975 0.13456,0 0.23598,0.0546 0.10141,0.0527 0.16577,0.15603 0.0663,0.10141 0.10337,0.24768 0.039,0.14433 0.039,0.39201 0,0.2945 -0.0605,0.47587 -0.0605,0.17943 -0.18138,0.2789 -0.11897,0.0975 -0.30229,0.0975 -0.23989,0 -0.37836,-0.17358 -0.16383,-0.20868 -0.16383,-0.6787 z m 0.20868,0 q 0,0.41151 0.0956,0.54803 0.0975,0.13458 0.23794,0.13458 0.14237,0 0.23793,-0.13653 0.0956,-0.13652 0.0956,-0.54608 0,-0.41151 -0.0956,-0.54608 -0.0956,-0.13457 -0.23989,-0.13457 -0.14042,0 -0.22428,0.11897 -0.10727,0.15212 -0.10727,0.56168 z"
       id="path29402"
       inkscape:connector-curvature="0"
       style="fill:#000000;fill-rule:nonzero;stroke-width:0.12481859" />
    <path
       d="M 462.3351,273.34999 V 276.153"
       id="path29404"
       inkscape:connector-curvature="0"
       style="fill:#000000;fill-opacity:0;fill-rule:evenodd;stroke-width:0.12481859" />
    <path
       d="M 462.3351,273.34999 V 276.153"
       id="path29406"
       inkscape:connector-curvature="0"
       style="fill-rule:evenodd;stroke:#000000;stroke-width:0.12481859;stroke-linecap:butt;stroke-linejoin:round" />
    <path
       d="M 473.01929,273.34999 V 276.153"
       id="path29408"
       inkscape:connector-curvature="0"
       style="fill:#000000;fill-opacity:0;fill-rule:evenodd;stroke-width:0.12481859" />
    <path
       d="M 473.01929,273.34999 V 276.153"
       id="path29410"
       inkscape:connector-curvature="0"
       style="fill-rule:evenodd;stroke:#000000;stroke-width:0.12481859;stroke-linecap:butt;stroke-linejoin:round" />
    <path
       d="M 483.72813,273.34999 V 276.153"
       id="path29412"
       inkscape:connector-curvature="0"
       style="fill:#000000;fill-opacity:0;fill-rule:evenodd;stroke-width:0.12481859" />
    <path
       d="M 483.72813,273.34999 V 276.153"
       id="path29414"
       inkscape:connector-curvature="0"
       style="fill-rule:evenodd;stroke:#000000;stroke-width:0.37445578;stroke-linecap:butt;stroke-linejoin:round" />
    <path
       d="m 442.43382,275.18385 h 6.89156 v 5.17358 h -6.89156 z"
       id="path29416"
       inkscape:connector-curvature="0"
       style="fill:#000000;fill-opacity:0;fill-rule:evenodd;stroke-width:0.12481859" />
    <path
       d="m 445.0004,278.36454 q 0.15407,0.10727 0.28279,0.15602 l -0.0644,0.15213 q -0.17942,-0.0644 -0.35885,-0.20283 -0.18528,0.10336 -0.40956,0.10336 -0.22624,0 -0.41151,-0.10922 -0.18333,-0.10921 -0.2828,-0.30619 -0.0995,-0.19893 -0.0995,-0.44662 0,-0.24768 0.0995,-0.44856 0.10142,-0.20283 0.28475,-0.30815 0.18527,-0.10727 0.41541,-0.10727 0.23013,0 0.41541,0.11117 0.18528,0.10922 0.28279,0.3062 0.0975,0.19698 0.0975,0.44466 0,0.20673 -0.0624,0.37056 -0.0624,0.16382 -0.18918,0.28474 z m -0.48562,-0.28084 q 0.19113,0.0527 0.31399,0.15992 0.19503,-0.17747 0.19503,-0.53438 0,-0.20283 -0.0683,-0.353 -0.0683,-0.15212 -0.20088,-0.23404 -0.13262,-0.0839 -0.29839,-0.0839 -0.24574,0 -0.40956,0.16968 -0.16188,0.16772 -0.16188,0.50317 0,0.32375 0.15993,0.49928 0.16187,0.17357 0.41151,0.17357 0.11897,0 0.22233,-0.0449 -0.10336,-0.0663 -0.21843,-0.0956 z m 1.72158,0.46027 h -0.20478 v -1.30475 q -0.0741,0.0702 -0.19503,0.14237 -0.11897,0.0702 -0.21453,0.10532 v -0.19893 q 0.17162,-0.08 0.30034,-0.19503 0.12872,-0.11507 0.18138,-0.22233 h 0.13262 z"
       id="path29418"
       inkscape:connector-curvature="0"
       style="fill:#000000;fill-rule:nonzero;stroke-width:0.12481859" />
    <path
       d="m 454.20089,275.18385 h 6.89156 v 5.17358 h -6.89156 z"
       id="path29420"
       inkscape:connector-curvature="0"
       style="fill:#000000;fill-opacity:0;fill-rule:evenodd;stroke-width:0.12481859" />
    <path
       d="m 456.76747,278.36454 q 0.15407,0.10727 0.28279,0.15602 l -0.0644,0.15213 q -0.17942,-0.0644 -0.35885,-0.20283 -0.18528,0.10336 -0.40956,0.10336 -0.22624,0 -0.41151,-0.10922 -0.18333,-0.10921 -0.28279,-0.30619 -0.0995,-0.19893 -0.0995,-0.44662 0,-0.24768 0.0995,-0.44856 0.10141,-0.20283 0.28474,-0.30815 0.18527,-0.10727 0.41541,-0.10727 0.23013,0 0.41541,0.11117 0.18528,0.10922 0.28279,0.3062 0.0975,0.19698 0.0975,0.44466 0,0.20673 -0.0624,0.37056 -0.0624,0.16382 -0.18918,0.28474 z m -0.48562,-0.28084 q 0.19113,0.0527 0.314,0.15992 0.19502,-0.17747 0.19502,-0.53438 0,-0.20283 -0.0683,-0.353 -0.0683,-0.15212 -0.20088,-0.23404 -0.13262,-0.0839 -0.29839,-0.0839 -0.24574,0 -0.40956,0.16968 -0.16188,0.16772 -0.16188,0.50317 0,0.32375 0.15993,0.49928 0.16187,0.17357 0.41151,0.17357 0.11897,0 0.22233,-0.0449 -0.10336,-0.0663 -0.21843,-0.0956 z m 2.02583,0.26329 v 0.19698 h -1.10192 q -0.002,-0.0741 0.0234,-0.14237 0.0429,-0.11312 0.13457,-0.22234 0.0936,-0.10921 0.26914,-0.25158 0.27109,-0.22234 0.36665,-0.35301 0.0956,-0.13067 0.0956,-0.24573 0,-0.12287 -0.0878,-0.20478 -0.0858,-0.0839 -0.22623,-0.0839 -0.14822,0 -0.23794,0.0897 -0.0878,0.0878 -0.0878,0.24378 l -0.21063,-0.0214 q 0.0214,-0.23599 0.16187,-0.35885 0.14237,-0.12287 0.37836,-0.12287 0.23989,0 0.38031,0.13262 0.14042,0.13262 0.14042,0.3296 0,0.0995 -0.041,0.19698 -0.041,0.0975 -0.13652,0.20478 -0.0936,0.10531 -0.31595,0.29254 -0.18332,0.15407 -0.23598,0.21063 -0.0527,0.0546 -0.0858,0.10922 z"
       id="path29422"
       inkscape:connector-curvature="0"
       style="fill:#000000;fill-rule:nonzero;stroke-width:0.12481859" />
    <path
       d="m 464.96941,275.18385 h 6.89156 v 5.17358 h -6.89156 z"
       id="path29424"
       inkscape:connector-curvature="0"
       style="fill:#000000;fill-opacity:0;fill-rule:evenodd;stroke-width:0.12481859" />
    <path
       d="m 467.53599,278.36454 q 0.15408,0.10727 0.28279,0.15602 l -0.0644,0.15213 q -0.17942,-0.0644 -0.35885,-0.20283 -0.18528,0.10336 -0.40956,0.10336 -0.22623,0 -0.41151,-0.10922 -0.18333,-0.10921 -0.28279,-0.30619 -0.0995,-0.19893 -0.0995,-0.44662 0,-0.24768 0.0995,-0.44856 0.10141,-0.20283 0.28474,-0.30815 0.18528,-0.10727 0.41541,-0.10727 0.23014,0 0.41541,0.11117 0.18528,0.10922 0.2828,0.3062 0.0975,0.19698 0.0975,0.44466 0,0.20673 -0.0624,0.37056 -0.0624,0.16382 -0.18918,0.28474 z m -0.48562,-0.28084 q 0.19113,0.0527 0.314,0.15992 0.19503,-0.17747 0.19503,-0.53438 0,-0.20283 -0.0683,-0.353 -0.0683,-0.15212 -0.20088,-0.23404 -0.13262,-0.0839 -0.2984,-0.0839 -0.24573,0 -0.40956,0.16968 -0.16187,0.16772 -0.16187,0.50317 0,0.32375 0.15992,0.49928 0.16187,0.17357 0.41151,0.17357 0.11897,0 0.22233,-0.0449 -0.10336,-0.0663 -0.21843,-0.0956 z m 0.95122,0.0195 0.20478,-0.0273 q 0.0351,0.17552 0.11897,0.25158 0.0858,0.0761 0.20673,0.0761 0.14432,0 0.24379,-0.0995 0.0995,-0.0995 0.0995,-0.24769 0,-0.14042 -0.0917,-0.23208 -0.0917,-0.0917 -0.23404,-0.0917 -0.0585,0 -0.14432,0.0215 l 0.0234,-0.17943 q 0.0195,0.002 0.0332,0.002 0.13067,0 0.23403,-0.0683 0.10532,-0.0683 0.10532,-0.20868 0,-0.11312 -0.0761,-0.18723 -0.0761,-0.0741 -0.19698,-0.0741 -0.11897,0 -0.19893,0.0761 -0.08,0.0741 -0.10142,0.22428 l -0.20478,-0.0371 q 0.0371,-0.20478 0.16968,-0.3179 0.13262,-0.11312 0.33155,-0.11312 0.13652,0 0.24963,0.0585 0.11507,0.0585 0.17553,0.15993 0.0624,0.10141 0.0624,0.21453 0,0.10726 -0.0585,0.19698 -0.0585,0.0878 -0.17162,0.14042 0.14822,0.0351 0.23013,0.14237 0.0819,0.10727 0.0819,0.26914 0,0.21648 -0.15992,0.3686 -0.15797,0.15213 -0.40176,0.15213 -0.22038,0 -0.36471,-0.13067 -0.14432,-0.13067 -0.16577,-0.33935 z"
       id="path29426"
       inkscape:connector-curvature="0"
       style="fill:#000000;fill-rule:nonzero;stroke-width:0.12481859" />
    <path
       d="m 474.9549,275.18385 h 6.89156 v 5.17358 h -6.89156 z"
       id="path29428"
       inkscape:connector-curvature="0"
       style="fill:#000000;fill-opacity:0;fill-rule:evenodd;stroke-width:0.12481859" />
    <path
       d="m 477.52148,278.36454 q 0.15407,0.10727 0.28279,0.15602 l -0.0644,0.15213 q -0.17942,-0.0644 -0.35885,-0.20283 -0.18528,0.10336 -0.40956,0.10336 -0.22624,0 -0.41151,-0.10922 -0.18333,-0.10921 -0.2828,-0.30619 -0.0995,-0.19893 -0.0995,-0.44662 0,-0.24768 0.0995,-0.44856 0.10142,-0.20283 0.28475,-0.30815 0.18527,-0.10727 0.41541,-0.10727 0.23013,0 0.41541,0.11117 0.18528,0.10922 0.28279,0.3062 0.0975,0.19698 0.0975,0.44466 0,0.20673 -0.0624,0.37056 -0.0624,0.16382 -0.18918,0.28474 z m -0.48562,-0.28084 q 0.19113,0.0527 0.31399,0.15992 0.19503,-0.17747 0.19503,-0.53438 0,-0.20283 -0.0683,-0.353 -0.0683,-0.15212 -0.20088,-0.23404 -0.13262,-0.0839 -0.29839,-0.0839 -0.24574,0 -0.40956,0.16968 -0.16188,0.16772 -0.16188,0.50317 0,0.32375 0.15993,0.49928 0.16187,0.17357 0.41151,0.17357 0.11897,0 0.22233,-0.0449 -0.10336,-0.0663 -0.21843,-0.0956 z m 1.60651,0.46027 v -0.39981 h -0.72355 v -0.18723 l 0.76061,-1.08046 h 0.16773 v 1.08046 h 0.22428 v 0.18723 h -0.22428 v 0.39981 z m 0,-0.58704 v -0.75086 l -0.52267,0.75086 z"
       id="path29430"
       inkscape:connector-curvature="0"
       style="fill:#000000;fill-rule:nonzero;stroke-width:0.12481859" />
    <path
       d="m 479.27236,278.30736 h 8.88866 v 5.17358 h -8.88866 z"
       id="path29432"
       inkscape:connector-curvature="0"
       style="fill:#000000;fill-opacity:0;fill-rule:evenodd;stroke-width:0.12481859" />
    <path
       d="m 480.54005,282.13164 -0.0234,-0.19113 q 0.0683,0.0175 0.11702,0.0175 0.0683,0 0.10921,-0.0234 0.041,-0.0215 0.0683,-0.0624 0.0195,-0.0312 0.0624,-0.15212 0.006,-0.0175 0.0176,-0.0507 l -0.45832,-1.20918 h 0.22038 l 0.25159,0.6982 q 0.0488,0.13458 0.0878,0.28085 0.0351,-0.14042 0.0839,-0.27499 l 0.25939,-0.70406 h 0.20478 l -0.46027,1.22673 q -0.0741,0.20088 -0.11506,0.27499 -0.0546,0.10142 -0.12482,0.14823 -0.0702,0.0468 -0.16773,0.0468 -0.0605,0 -0.13262,-0.0254 z m 2.00101,-0.85228 0.21063,0.0254 q -0.0507,0.18527 -0.18528,0.28864 -0.13457,0.10142 -0.34521,0.10142 -0.26524,0 -0.42126,-0.16188 -0.15407,-0.16382 -0.15407,-0.45832 0,-0.30619 0.15602,-0.47392 0.15797,-0.16772 0.40761,-0.16772 0.24184,0 0.39396,0.16577 0.15408,0.16383 0.15408,0.46222 0,0.0195 0,0.0546 h -0.90104 q 0.0117,0.19893 0.11312,0.30619 0.10141,0.10532 0.25158,0.10532 0.11312,0 0.19308,-0.0585 0.08,-0.0605 0.12678,-0.18918 z m -0.67286,-0.33155 h 0.6748 q -0.0136,-0.15212 -0.078,-0.22818 -0.0975,-0.11897 -0.25354,-0.11897 -0.14042,0 -0.23793,0.0956 -0.0956,0.0936 -0.10532,0.25158 z m 1.92893,0.57144 q -0.11507,0.0956 -0.22039,0.13652 -0.10336,0.039 -0.22428,0.039 -0.19893,0 -0.3062,-0.0975 -0.10726,-0.0975 -0.10726,-0.24769 0,-0.0897 0.0409,-0.16187 0.041,-0.0741 0.10532,-0.11702 0.0663,-0.0448 0.14822,-0.0683 0.0585,-0.0156 0.18138,-0.0312 0.24769,-0.0293 0.3647,-0.0702 0.002,-0.0429 0.002,-0.0527 0,-0.12482 -0.0585,-0.17748 -0.078,-0.0683 -0.23403,-0.0683 -0.14432,0 -0.21258,0.0507 -0.0683,0.0507 -0.10142,0.17748 l -0.20088,-0.0273 q 0.0273,-0.12677 0.0897,-0.20478 0.0624,-0.08 0.18138,-0.12287 0.11897,-0.0429 0.27304,-0.0429 0.15603,0 0.25159,0.0371 0.0975,0.0351 0.14237,0.0917 0.0468,0.0546 0.0644,0.13847 0.01,0.0526 0.01,0.18917 v 0.27305 q 0,0.28474 0.0136,0.3608 0.0136,0.0741 0.0507,0.14432 h -0.21258 q -0.0332,-0.0644 -0.041,-0.14822 z m -0.0176,-0.45832 q -0.11116,0.0468 -0.3335,0.078 -0.12676,0.0176 -0.17942,0.041 -0.0527,0.0234 -0.0819,0.0663 -0.0273,0.0429 -0.0273,0.0975 0,0.0819 0.0624,0.13652 0.0624,0.0546 0.18138,0.0546 0.11701,0 0.20868,-0.0507 0.0936,-0.0527 0.13652,-0.14237 0.0331,-0.0702 0.0331,-0.20478 z m 0.52277,0.60654 v -1.20723 h 0.18333 v 0.18333 q 0.0702,-0.12872 0.12872,-0.16968 0.0605,-0.041 0.13262,-0.041 0.10336,0 0.21063,0.0663 l -0.0702,0.18918 q -0.0761,-0.0449 -0.15017,-0.0449 -0.0683,0 -0.12092,0.041 -0.0527,0.041 -0.0761,0.11117 -0.0351,0.10922 -0.0351,0.23989 v 0.63189 z m 2.44244,-0.19698 v 0.19698 h -1.10192 q -0.002,-0.0741 0.0234,-0.14237 0.0429,-0.11312 0.13457,-0.22233 0.0936,-0.10922 0.26914,-0.25159 0.27109,-0.22233 0.36665,-0.353 0.0956,-0.13067 0.0956,-0.24574 0,-0.12287 -0.0878,-0.20478 -0.0858,-0.0839 -0.22623,-0.0839 -0.14822,0 -0.23794,0.0897 -0.0878,0.0878 -0.0878,0.24379 l -0.21063,-0.0215 q 0.0215,-0.23598 0.16187,-0.35885 0.14237,-0.12287 0.37836,-0.12287 0.23988,0 0.3803,0.13262 0.14043,0.13262 0.14043,0.3296 0,0.0995 -0.041,0.19698 -0.041,0.0975 -0.13652,0.20478 -0.0936,0.10532 -0.31595,0.29254 -0.18332,0.15408 -0.23598,0.21064 -0.0527,0.0546 -0.0858,0.10921 z"
       id="path29434"
       inkscape:connector-curvature="0"
       style="fill:#000000;fill-rule:nonzero;stroke-width:0.12481859" />
    <path
       d="m 494.92587,275.18385 h 6.89156 v 5.17358 h -6.89156 z"
       id="path29436"
       inkscape:connector-curvature="0"
       style="fill:#000000;fill-opacity:0;fill-rule:evenodd;stroke-width:0.12481859" />
    <path
       d="m 496.25987,278.54397 v -0.23404 h 0.23403 v 0.23404 z m 0.64697,0 v -0.23404 h 0.23404 v 0.23404 z m 0.64698,0 v -0.23404 h 0.23403 v 0.23404 z"
       id="path29438"
       inkscape:connector-curvature="0"
       style="fill:#000000;fill-rule:nonzero;stroke-width:0.12481859" />
    <path
       d="m 429.45269,244.22893 h 40.30363 v 5.17359 h -40.30363 z"
       id="path29440"
       inkscape:connector-curvature="0"
       style="fill:#000000;fill-opacity:0;fill-rule:evenodd;stroke-width:0.12481859" />
    <path
       d="m 430.73013,247.58905 v -1.20723 h 0.18332 v 0.16967 q 0.0566,-0.0897 0.15018,-0.14237 0.0956,-0.0546 0.21453,-0.0546 0.13457,0 0.22038,0.0566 0.0858,0.0546 0.12092,0.15408 0.14432,-0.21064 0.37251,-0.21064 0.18137,0 0.27694,0.0995 0.0975,0.0995 0.0975,0.3062 v 0.82887 h -0.20478 v -0.76061 q 0,-0.12287 -0.0195,-0.17553 -0.0195,-0.0546 -0.0722,-0.0878 -0.0527,-0.0332 -0.12287,-0.0332 -0.12677,0 -0.21063,0.0858 -0.0839,0.0839 -0.0839,0.26914 v 0.70211 h -0.20478 v -0.78402 q 0,-0.13652 -0.0507,-0.20478 -0.0507,-0.0683 -0.16383,-0.0683 -0.0858,0 -0.15992,0.0449 -0.0741,0.0448 -0.10727,0.13262 -0.0312,0.0878 -0.0312,0.25354 v 0.62604 z m 1.93978,-1.43152 v -0.23598 h 0.20478 v 0.23598 z m 0,1.43152 v -1.20723 h 0.20478 v 1.20723 z m 0.43544,-0.36081 0.20283,-0.0312 q 0.0156,0.12092 0.0936,0.18723 0.078,0.0644 0.21843,0.0644 0.14042,0 0.20868,-0.0566 0.0683,-0.0585 0.0683,-0.13652 0,-0.0683 -0.0605,-0.10922 -0.041,-0.0273 -0.20869,-0.0683 -0.22623,-0.0585 -0.31399,-0.0995 -0.0858,-0.041 -0.13067,-0.11312 -0.0449,-0.0741 -0.0449,-0.16382 0,-0.08 0.0371,-0.14823 0.037,-0.0702 0.10141,-0.11506 0.0468,-0.0351 0.12872,-0.0585 0.0839,-0.0254 0.17748,-0.0254 0.14237,0 0.24963,0.041 0.10727,0.041 0.15798,0.11117 0.0527,0.0702 0.0722,0.18723 l -0.20088,0.0273 q -0.0136,-0.0936 -0.08,-0.14627 -0.0644,-0.0527 -0.18333,-0.0527 -0.14237,0 -0.20283,0.0468 -0.0585,0.0468 -0.0585,0.10921 0,0.039 0.0234,0.0722 0.0254,0.0332 0.08,0.0546 0.0292,0.0117 0.17942,0.0527 0.21844,0.0566 0.30425,0.0936 0.0858,0.0371 0.13457,0.10727 0.0488,0.0702 0.0488,0.17553 0,0.10336 -0.0605,0.19307 -0.0585,0.0897 -0.17163,0.14043 -0.11312,0.0488 -0.25549,0.0488 -0.23403,0 -0.35885,-0.0975 -0.12287,-0.0975 -0.15602,-0.2906 z m 1.16432,0 0.20283,-0.0312 q 0.0156,0.12092 0.0936,0.18723 0.078,0.0644 0.21844,0.0644 0.14042,0 0.20868,-0.0566 0.0683,-0.0585 0.0683,-0.13652 0,-0.0683 -0.0605,-0.10922 -0.041,-0.0273 -0.20868,-0.0683 -0.22624,-0.0585 -0.314,-0.0995 -0.0858,-0.041 -0.13067,-0.11312 -0.0449,-0.0741 -0.0449,-0.16382 0,-0.08 0.0371,-0.14823 0.0371,-0.0702 0.10142,-0.11506 0.0468,-0.0351 0.12871,-0.0585 0.0839,-0.0254 0.17748,-0.0254 0.14237,0 0.24964,0.041 0.10726,0.041 0.15797,0.11117 0.0527,0.0702 0.0722,0.18723 l -0.20088,0.0273 q -0.0137,-0.0936 -0.08,-0.14627 -0.0644,-0.0527 -0.18333,-0.0527 -0.14237,0 -0.20283,0.0468 -0.0585,0.0468 -0.0585,0.10921 0,0.039 0.0234,0.0722 0.0253,0.0332 0.08,0.0546 0.0292,0.0117 0.17943,0.0527 0.21843,0.0566 0.30424,0.0936 0.0858,0.0371 0.13457,0.10727 0.0488,0.0702 0.0488,0.17553 0,0.10336 -0.0605,0.19307 -0.0585,0.0897 -0.17163,0.14043 -0.11311,0.0488 -0.25548,0.0488 -0.23404,0 -0.35886,-0.0975 -0.12287,-0.0975 -0.15602,-0.2906 z m 1.24623,-1.07071 v -0.23598 h 0.20478 v 0.23598 z m 0,1.43152 v -1.20723 h 0.20478 v 1.20723 z m 0.44129,-0.60459 q 0,-0.33545 0.18528,-0.49538 0.15603,-0.13457 0.38031,-0.13457 0.24963,0 0.40761,0.16383 0.15797,0.16187 0.15797,0.45052 0,0.23208 -0.0702,0.36665 -0.0702,0.13262 -0.20478,0.20673 -0.13262,0.0741 -0.29059,0.0741 -0.25354,0 -0.40956,-0.16187 -0.15603,-0.16383 -0.15603,-0.47002 z m 0.21063,0 q 0,0.23208 0.0995,0.3491 0.10142,0.11507 0.25549,0.11507 0.15212,0 0.25354,-0.11507 0.10141,-0.11702 0.10141,-0.35495 0,-0.22429 -0.10141,-0.33935 -0.10142,-0.11507 -0.25354,-0.11507 -0.15407,0 -0.25549,0.11507 -0.0995,0.11311 -0.0995,0.3452 z m 1.16052,0.60459 v -1.20723 h 0.18332 v 0.17162 q 0.13262,-0.19893 0.38421,-0.19893 0.10922,0 0.20088,0.039 0.0917,0.039 0.13652,0.10337 0.0468,0.0624 0.0644,0.15017 0.0117,0.0566 0.0117,0.19893 v 0.74306 h -0.20478 v -0.73526 q 0,-0.12482 -0.0254,-0.18528 -0.0234,-0.0624 -0.0839,-0.0995 -0.0605,-0.0371 -0.14237,-0.0371 -0.13067,0 -0.22623,0.0839 -0.0936,0.0819 -0.0936,0.314 v 0.6592 z m 2.89379,-0.19698 q -0.10141,0.11312 -0.22038,0.16967 -0.11897,0.0566 -0.25744,0.0566 -0.25549,0 -0.40566,-0.17357 -0.12287,-0.14042 -0.12287,-0.31595 0,-0.15407 0.0995,-0.27889 0.0995,-0.12482 0.29839,-0.21843 -0.11311,-0.12872 -0.15017,-0.20869 -0.037,-0.0819 -0.037,-0.15797 0,-0.15017 0.11701,-0.25939 0.11702,-0.11116 0.29645,-0.11116 0.16967,0 0.27889,0.10531 0.10922,0.10337 0.10922,0.24964 0,0.23793 -0.31595,0.40566 l 0.29839,0.38226 q 0.0527,-0.10142 0.08,-0.23209 l 0.21259,0.0449 q -0.0546,0.21843 -0.14823,0.35885 0.11507,0.15212 0.26134,0.25549 l -0.13847,0.16382 q -0.12287,-0.08 -0.25549,-0.23598 z m -0.41541,-0.86788 q 0.13262,-0.08 0.17163,-0.13847 0.039,-0.0585 0.039,-0.13067 0,-0.0858 -0.0546,-0.13847 -0.0527,-0.0546 -0.13262,-0.0546 -0.0839,0 -0.14042,0.0546 -0.0546,0.0527 -0.0546,0.12872 0,0.039 0.0195,0.0819 0.0214,0.0429 0.0605,0.0917 z m 0.28669,0.70601 -0.37445,-0.46417 q -0.16578,0.0995 -0.22428,0.18332 -0.0585,0.0839 -0.0585,0.16773 0,0.10141 0.08,0.21063 0.0819,0.10922 0.23013,0.10922 0.0917,0 0.18918,-0.0566 0.0995,-0.0585 0.15797,-0.15017 z m 1.71259,0.35885 -0.46026,-1.20723 h 0.21648 l 0.25939,0.72356 q 0.0409,0.11701 0.078,0.24183 0.0253,-0.0956 0.0761,-0.22818 l 0.26719,-0.73721 h 0.21063 l -0.45637,1.20723 z m 0.82888,-1.43152 v -0.23598 h 0.20478 v 0.23598 z m 0,1.43152 v -1.20723 h 0.20478 v 1.20723 z m 0.43544,-0.36081 0.20283,-0.0312 q 0.0156,0.12092 0.0936,0.18723 0.078,0.0644 0.21843,0.0644 0.14042,0 0.20868,-0.0566 0.0683,-0.0585 0.0683,-0.13652 0,-0.0683 -0.0605,-0.10922 -0.041,-0.0273 -0.20868,-0.0683 -0.22623,-0.0585 -0.31399,-0.0995 -0.0858,-0.041 -0.13067,-0.11312 -0.0449,-0.0741 -0.0449,-0.16382 0,-0.08 0.0371,-0.14823 0.037,-0.0702 0.10141,-0.11506 0.0468,-0.0351 0.12872,-0.0585 0.0839,-0.0254 0.17748,-0.0254 0.14237,0 0.24963,0.041 0.10727,0.041 0.15798,0.11117 0.0527,0.0702 0.0722,0.18723 l -0.20088,0.0273 q -0.0136,-0.0936 -0.08,-0.14627 -0.0644,-0.0527 -0.18333,-0.0527 -0.14237,0 -0.20283,0.0468 -0.0585,0.0468 -0.0585,0.10921 0,0.039 0.0234,0.0722 0.0254,0.0332 0.08,0.0546 0.0292,0.0117 0.17942,0.0527 0.21844,0.0566 0.30425,0.0936 0.0858,0.0371 0.13457,0.10727 0.0488,0.0702 0.0488,0.17553 0,0.10336 -0.0605,0.19307 -0.0585,0.0897 -0.17163,0.14043 -0.11312,0.0488 -0.25549,0.0488 -0.23403,0 -0.35885,-0.0975 -0.12287,-0.0975 -0.15602,-0.2906 z m 1.24623,-1.07071 v -0.23598 h 0.20478 v 0.23598 z m 0,1.43152 v -1.20723 h 0.20478 v 1.20723 z m 0.44129,-0.60459 q 0,-0.33545 0.18528,-0.49538 0.15602,-0.13457 0.38031,-0.13457 0.24963,0 0.40761,0.16383 0.15797,0.16187 0.15797,0.45052 0,0.23208 -0.0702,0.36665 -0.0702,0.13262 -0.20478,0.20673 -0.13262,0.0741 -0.29059,0.0741 -0.25354,0 -0.40957,-0.16187 -0.15602,-0.16383 -0.15602,-0.47002 z m 0.21063,0 q 0,0.23208 0.0995,0.3491 0.10141,0.11507 0.25549,0.11507 0.15212,0 0.25353,-0.11507 0.10142,-0.11702 0.10142,-0.35495 0,-0.22429 -0.10142,-0.33935 -0.10141,-0.11507 -0.25353,-0.11507 -0.15408,0 -0.25549,0.11507 -0.0995,0.11311 -0.0995,0.3452 z m 1.16051,0.60459 v -1.20723 h 0.18333 v 0.17162 q 0.13262,-0.19893 0.38421,-0.19893 0.10922,0 0.20088,0.039 0.0917,0.039 0.13652,0.10337 0.0468,0.0624 0.0644,0.15017 0.0117,0.0566 0.0117,0.19893 v 0.74306 h -0.20479 v -0.73526 q 0,-0.12482 -0.0254,-0.18528 -0.0234,-0.0624 -0.0839,-0.0995 -0.0605,-0.0371 -0.14237,-0.0371 -0.13067,0 -0.22624,0.0839 -0.0936,0.0819 -0.0936,0.314 v 0.6592 z m 1.866,-0.60459 q 0,-0.33545 0.18528,-0.49538 0.15602,-0.13457 0.3803,-0.13457 0.24964,0 0.40761,0.16383 0.15798,0.16187 0.15798,0.45052 0,0.23208 -0.0702,0.36665 -0.0702,0.13262 -0.20478,0.20673 -0.13262,0.0741 -0.2906,0.0741 -0.25353,0 -0.40956,-0.16187 -0.15602,-0.16383 -0.15602,-0.47002 z m 0.21063,0 q 0,0.23208 0.0995,0.3491 0.10142,0.11507 0.25549,0.11507 0.15213,0 0.25354,-0.11507 0.10142,-0.11702 0.10142,-0.35495 0,-0.22429 -0.10142,-0.33935 -0.10141,-0.11507 -0.25354,-0.11507 -0.15407,0 -0.25549,0.11507 -0.0995,0.11311 -0.0995,0.3452 z m 1.15856,0.60459 v -1.20723 h 0.18333 v 0.18333 q 0.0702,-0.12872 0.12872,-0.16968 0.0605,-0.041 0.13262,-0.041 0.10336,0 0.21063,0.0663 l -0.0702,0.18918 q -0.0761,-0.0449 -0.15017,-0.0449 -0.0683,0 -0.12092,0.041 -0.0527,0.041 -0.0761,0.11117 -0.0351,0.10922 -0.0351,0.23988 v 0.6319 z m 0.7384,0.0995 0.19893,0.0293 q 0.0137,0.0936 0.0702,0.13457 0.0761,0.0566 0.20869,0.0566 0.14237,0 0.21843,-0.0566 0.078,-0.0566 0.10531,-0.15798 0.0156,-0.0624 0.0137,-0.26328 -0.13262,0.15797 -0.3335,0.15797 -0.24964,0 -0.38616,-0.17943 -0.13652,-0.17942 -0.13652,-0.43101 0,-0.17358 0.0624,-0.31985 0.0644,-0.14627 0.18137,-0.22428 0.11897,-0.08 0.28085,-0.08 0.21258,0 0.35105,0.17163 v -0.14432 h 0.18918 v 1.0434 q 0,0.2828 -0.0585,0.39981 -0.0566,0.11702 -0.18138,0.18528 -0.12287,0.0683 -0.30619,0.0683 -0.21454,0 -0.34911,-0.0975 -0.13262,-0.0956 -0.12872,-0.29255 z m 0.16968,-0.7255 q 0,0.23793 0.0936,0.34715 0.0956,0.10921 0.23794,0.10921 0.14042,0 0.23598,-0.10726 0.0956,-0.10922 0.0956,-0.3413 0,-0.22234 -0.0995,-0.3335 -0.0975,-0.11312 -0.23598,-0.11312 -0.13652,0 -0.23209,0.11117 -0.0956,0.10921 -0.0956,0.32765 z m 1.95233,0.47782 q -0.11507,0.0956 -0.22038,0.13652 -0.10337,0.039 -0.22428,0.039 -0.19893,0 -0.3062,-0.0975 -0.10727,-0.0975 -0.10727,-0.24769 0,-0.0897 0.041,-0.16187 0.041,-0.0741 0.10532,-0.11702 0.0663,-0.0449 0.14822,-0.0683 0.0585,-0.0156 0.18138,-0.0312 0.24768,-0.0292 0.3647,-0.0702 0.002,-0.0429 0.002,-0.0526 0,-0.12482 -0.0585,-0.17748 -0.078,-0.0683 -0.23404,-0.0683 -0.14432,0 -0.21258,0.0507 -0.0683,0.0507 -0.10142,0.17747 l -0.20087,-0.0273 q 0.0273,-0.12677 0.0897,-0.20478 0.0624,-0.08 0.18138,-0.12287 0.11896,-0.0429 0.27304,-0.0429 0.15602,0 0.25158,0.0371 0.0975,0.0351 0.14237,0.0917 0.0468,0.0546 0.0644,0.13847 0.01,0.0527 0.01,0.18918 v 0.27304 q 0,0.28475 0.0137,0.36081 0.0136,0.0741 0.0507,0.14432 h -0.21258 q -0.0332,-0.0644 -0.041,-0.14822 z m -0.0176,-0.45832 q -0.11117,0.0468 -0.3335,0.078 -0.12677,0.0175 -0.17943,0.041 -0.0527,0.0234 -0.0819,0.0663 -0.0273,0.0429 -0.0273,0.0975 0,0.0819 0.0624,0.13652 0.0624,0.0546 0.18137,0.0546 0.11702,0 0.20868,-0.0507 0.0936,-0.0527 0.13652,-0.14237 0.0332,-0.0702 0.0332,-0.20478 z m 0.52471,0.60654 v -1.20723 h 0.18333 v 0.17162 q 0.13262,-0.19893 0.38421,-0.19893 0.10921,0 0.20088,0.039 0.0917,0.039 0.13652,0.10337 0.0468,0.0624 0.0644,0.15017 0.0117,0.0566 0.0117,0.19893 v 0.74306 h -0.20477 v -0.73526 q 0,-0.12482 -0.0254,-0.18528 -0.0234,-0.0624 -0.0839,-0.0995 -0.0605,-0.0371 -0.14237,-0.0371 -0.13067,0 -0.22623,0.0839 -0.0936,0.0819 -0.0936,0.314 v 0.6592 z m 1.29509,-1.43152 v -0.23598 h 0.20478 v 0.23598 z m 0,1.43152 v -1.20723 h 0.20478 v 1.20723 z m 0.40813,0 v -0.16578 l 0.76842,-0.88348 q -0.13067,0.008 -0.23014,0.008 h -0.49147 v -0.16577 h 0.98685 v 0.13457 l -0.6553,0.76646 -0.12482,0.14042 q 0.13652,-0.01 0.25744,-0.01 h 0.55778 v 0.17553 z m 2.06146,-0.14822 q -0.11507,0.0956 -0.22038,0.13652 -0.10337,0.039 -0.22429,0.039 -0.19893,0 -0.30619,-0.0975 -0.10727,-0.0975 -0.10727,-0.24769 0,-0.0897 0.041,-0.16187 0.0409,-0.0741 0.10531,-0.11702 0.0663,-0.0449 0.14822,-0.0683 0.0585,-0.0156 0.18138,-0.0312 0.24769,-0.0292 0.36471,-0.0702 0.002,-0.0429 0.002,-0.0526 0,-0.12482 -0.0585,-0.17748 -0.078,-0.0683 -0.23403,-0.0683 -0.14432,0 -0.21258,0.0507 -0.0683,0.0507 -0.10142,0.17747 l -0.20088,-0.0273 q 0.0273,-0.12677 0.0897,-0.20478 0.0624,-0.08 0.18137,-0.12287 0.11897,-0.0429 0.27304,-0.0429 0.15603,0 0.25159,0.0371 0.0975,0.0351 0.14237,0.0917 0.0468,0.0546 0.0644,0.13847 0.01,0.0527 0.01,0.18918 v 0.27304 q 0,0.28475 0.0136,0.36081 0.0137,0.0741 0.0507,0.14432 h -0.21258 q -0.0332,-0.0644 -0.041,-0.14822 z m -0.0176,-0.45832 q -0.11117,0.0468 -0.3335,0.078 -0.12677,0.0175 -0.17943,0.041 -0.0527,0.0234 -0.0819,0.0663 -0.0273,0.0429 -0.0273,0.0975 0,0.0819 0.0624,0.13652 0.0624,0.0546 0.18138,0.0546 0.11702,0 0.20868,-0.0507 0.0936,-0.0527 0.13652,-0.14237 0.0332,-0.0702 0.0332,-0.20478 z m 0.97133,0.42321 0.0293,0.18138 q -0.0858,0.0175 -0.15408,0.0175 -0.11116,0 -0.17357,-0.0351 -0.0605,-0.0351 -0.0858,-0.0917 -0.0254,-0.0585 -0.0254,-0.24183 v -0.69626 h -0.15017 v -0.15797 h 0.15017 v -0.2984 l 0.20283,-0.12286 v 0.42126 h 0.20673 v 0.15797 h -0.20673 v 0.70796 q 0,0.0858 0.01,0.11116 0.0117,0.0254 0.0351,0.041 0.0254,0.0137 0.0722,0.0137 0.0332,0 0.0897,-0.008 z m 0.20036,-1.24819 v -0.23598 h 0.20478 v 0.23598 z m 0,1.43152 v -1.20723 h 0.20478 v 1.20723 z m 0.44129,-0.60459 q 0,-0.33545 0.18528,-0.49538 0.15602,-0.13457 0.3803,-0.13457 0.24964,0 0.40761,0.16383 0.15798,0.16187 0.15798,0.45052 0,0.23208 -0.0702,0.36665 -0.0702,0.13262 -0.20478,0.20673 -0.13262,0.0741 -0.2906,0.0741 -0.25354,0 -0.40956,-0.16187 -0.15602,-0.16383 -0.15602,-0.47002 z m 0.21063,0 q 0,0.23208 0.0995,0.3491 0.10142,0.11507 0.25549,0.11507 0.15213,0 0.25354,-0.11507 0.10142,-0.11702 0.10142,-0.35495 0,-0.22429 -0.10142,-0.33935 -0.10141,-0.11507 -0.25354,-0.11507 -0.15407,0 -0.25549,0.11507 -0.0995,0.11311 -0.0995,0.3452 z m 1.16051,0.60459 v -1.20723 h 0.18333 v 0.17162 q 0.13262,-0.19893 0.3842,-0.19893 0.10922,0 0.20088,0.039 0.0917,0.039 0.13652,0.10337 0.0468,0.0624 0.0644,0.15017 0.0117,0.0566 0.0117,0.19893 v 0.74306 h -0.20478 v -0.73526 q 0,-0.12482 -0.0254,-0.18528 -0.0234,-0.0624 -0.0839,-0.0995 -0.0605,-0.0371 -0.14237,-0.0371 -0.13067,0 -0.22623,0.0839 -0.0936,0.0819 -0.0936,0.314 v 0.6592 z m 1.9011,-0.81132 q 0,-0.41541 0.22233,-0.64945 0.22233,-0.23598 0.57534,-0.23598 0.23013,0 0.41541,0.11116 0.18528,0.10922 0.28279,0.30815 0.0975,0.19698 0.0975,0.44661 0,0.25354 -0.10337,0.45442 -0.10141,0.19893 -0.28864,0.3023 -0.18723,0.10336 -0.40566,0.10336 -0.23404,0 -0.41932,-0.11311 -0.18527,-0.11507 -0.28084,-0.31205 -0.0956,-0.19698 -0.0956,-0.41541 z m 0.22623,0.002 q 0,0.30229 0.16188,0.47587 0.16187,0.17358 0.40761,0.17358 0.24963,0 0.40956,-0.17553 0.15992,-0.17553 0.15992,-0.49732 0,-0.20284 -0.0683,-0.35496 -0.0683,-0.15212 -0.20088,-0.23403 -0.13262,-0.0839 -0.29644,-0.0839 -0.23599,0 -0.40566,0.16188 -0.16773,0.15992 -0.16773,0.53438 z m 1.64163,0.80937 v -1.6675 h 0.22233 v 0.82692 l 0.82692,-0.82692 h 0.2984 l -0.69821,0.67675 0.72941,0.99075 h -0.29059 l -0.59484,-0.84448 -0.27109,0.26719 v 0.57729 z m 1.56684,0 v -1.6675 h 0.73916 q 0.22233,0 0.3374,0.0449 0.11701,0.0448 0.18527,0.15992 0.0702,0.11312 0.0702,0.25159 0,0.17552 -0.11506,0.29839 -0.11507,0.12092 -0.35495,0.15408 0.0878,0.0429 0.13456,0.0839 0.0956,0.0878 0.18138,0.22038 l 0.29059,0.45442 h -0.27694 l -0.22038,-0.34715 q -0.0975,-0.15018 -0.15992,-0.22819 -0.0624,-0.08 -0.11312,-0.11116 -0.0488,-0.0332 -0.0995,-0.0449 -0.0371,-0.01 -0.12287,-0.01 h -0.25549 v 0.74111 z m 0.22038,-0.93029 h 0.47392 q 0.15212,0 0.23598,-0.0312 0.0858,-0.0332 0.13067,-0.10142 0.0449,-0.0683 0.0449,-0.14822 0,-0.11897 -0.0858,-0.19503 -0.0858,-0.0761 -0.27304,-0.0761 h -0.52658 z m 1.35012,0.56949 0.20283,-0.0312 q 0.0156,0.12092 0.0936,0.18723 0.078,0.0644 0.21843,0.0644 0.14042,0 0.20868,-0.0566 0.0683,-0.0585 0.0683,-0.13652 0,-0.0683 -0.0605,-0.10922 -0.041,-0.0273 -0.20868,-0.0683 -0.22623,-0.0585 -0.314,-0.0995 -0.0858,-0.041 -0.13067,-0.11312 -0.0448,-0.0741 -0.0448,-0.16382 0,-0.08 0.0371,-0.14823 0.0371,-0.0702 0.10142,-0.11506 0.0468,-0.0351 0.12872,-0.0585 0.0839,-0.0254 0.17747,-0.0254 0.14237,0 0.24964,0.041 0.10727,0.041 0.15797,0.11117 0.0527,0.0702 0.0722,0.18723 l -0.20088,0.0273 q -0.0136,-0.0936 -0.08,-0.14627 -0.0644,-0.0527 -0.18332,-0.0527 -0.14238,0 -0.20283,0.0468 -0.0585,0.0468 -0.0585,0.10921 0,0.039 0.0234,0.0722 0.0254,0.0332 0.08,0.0546 0.0293,0.0117 0.17943,0.0527 0.21843,0.0566 0.30424,0.0936 0.0858,0.0371 0.13457,0.10727 0.0488,0.0702 0.0488,0.17553 0,0.10336 -0.0605,0.19308 -0.0585,0.0897 -0.17162,0.14042 -0.11312,0.0488 -0.25549,0.0488 -0.23404,0 -0.35886,-0.0975 -0.12286,-0.0975 -0.15602,-0.29059 z"
       id="path29442"
       inkscape:connector-curvature="0"
       style="fill:#ff0000;fill-rule:nonzero;stroke-width:0.12481859" />
    <path
       d="m 435.06806,253.93071 h 32.44104 v 5.17358 h -32.44104 z"
       id="path29444"
       inkscape:connector-curvature="0"
       style="fill:#000000;fill-opacity:0;fill-rule:evenodd;stroke-width:0.12481859" />
    <path
       d="m 436.26359,256.93002 0.20283,-0.0312 q 0.0156,0.12092 0.0936,0.18723 0.078,0.0644 0.21843,0.0644 0.14042,0 0.20868,-0.0566 0.0683,-0.0585 0.0683,-0.13652 0,-0.0683 -0.0605,-0.10922 -0.041,-0.0273 -0.20868,-0.0683 -0.22623,-0.0585 -0.31399,-0.0995 -0.0858,-0.041 -0.13067,-0.11312 -0.0449,-0.0741 -0.0449,-0.16383 0,-0.08 0.0371,-0.14822 0.0371,-0.0702 0.10141,-0.11507 0.0468,-0.0351 0.12872,-0.0585 0.0839,-0.0254 0.17748,-0.0254 0.14237,0 0.24963,0.041 0.10727,0.041 0.15798,0.11117 0.0526,0.0702 0.0722,0.18722 l -0.20088,0.0273 q -0.0137,-0.0936 -0.08,-0.14627 -0.0644,-0.0527 -0.18333,-0.0527 -0.14237,0 -0.20283,0.0468 -0.0585,0.0468 -0.0585,0.10921 0,0.039 0.0234,0.0722 0.0254,0.0332 0.08,0.0546 0.0292,0.0117 0.17942,0.0527 0.21843,0.0566 0.30425,0.0936 0.0858,0.0371 0.13457,0.10727 0.0488,0.0702 0.0488,0.17552 0,0.10337 -0.0605,0.19308 -0.0585,0.0897 -0.17163,0.14042 -0.11312,0.0488 -0.25549,0.0488 -0.23403,0 -0.35885,-0.0975 -0.12287,-0.0975 -0.15602,-0.2906 z m 1.69285,0.17748 0.0292,0.18138 q -0.0858,0.0175 -0.15407,0.0175 -0.11117,0 -0.17358,-0.0351 -0.0605,-0.0351 -0.0858,-0.0917 -0.0254,-0.0585 -0.0254,-0.24184 v -0.69625 h -0.15018 v -0.15797 h 0.15018 v -0.2984 l 0.20283,-0.12287 v 0.42127 h 0.20673 v 0.15797 h -0.20673 v 0.70796 q 0,0.0858 0.01,0.11116 0.0117,0.0254 0.0351,0.041 0.0254,0.0136 0.0722,0.0136 0.0332,0 0.0897,-0.008 z m 0.1984,0.18333 v -1.20723 h 0.18333 v 0.18332 q 0.0702,-0.12871 0.12872,-0.16967 0.0605,-0.041 0.13262,-0.041 0.10337,0 0.21063,0.0663 l -0.0702,0.18918 q -0.0761,-0.0449 -0.15017,-0.0449 -0.0683,0 -0.12092,0.041 -0.0527,0.041 -0.0761,0.11117 -0.0351,0.10921 -0.0351,0.23988 v 0.6319 z m 1.56533,-0.14823 q -0.11507,0.0956 -0.22038,0.13652 -0.10337,0.039 -0.22429,0.039 -0.19893,0 -0.30619,-0.0975 -0.10727,-0.0975 -0.10727,-0.24769 0,-0.0897 0.041,-0.16188 0.0409,-0.0741 0.10531,-0.11701 0.0663,-0.0449 0.14822,-0.0683 0.0585,-0.0156 0.18138,-0.0312 0.24769,-0.0292 0.36471,-0.0702 0.002,-0.0429 0.002,-0.0527 0,-0.12481 -0.0585,-0.17747 -0.078,-0.0683 -0.23403,-0.0683 -0.14432,0 -0.21258,0.0507 -0.0683,0.0507 -0.10142,0.17747 l -0.20088,-0.0273 q 0.0273,-0.12677 0.0897,-0.20478 0.0624,-0.08 0.18137,-0.12287 0.11897,-0.0429 0.27304,-0.0429 0.15603,0 0.25159,0.0371 0.0975,0.0351 0.14237,0.0917 0.0468,0.0546 0.0644,0.13847 0.01,0.0527 0.01,0.18918 v 0.27304 q 0,0.28474 0.0137,0.3608 0.0136,0.0741 0.0507,0.14433 h -0.21258 q -0.0332,-0.0644 -0.041,-0.14823 z m -0.0175,-0.45831 q -0.11117,0.0468 -0.3335,0.078 -0.12677,0.0176 -0.17943,0.041 -0.0527,0.0234 -0.0819,0.0663 -0.0273,0.0429 -0.0273,0.0975 0,0.0819 0.0624,0.13652 0.0624,0.0546 0.18138,0.0546 0.11702,0 0.20868,-0.0507 0.0936,-0.0527 0.13652,-0.14237 0.0332,-0.0702 0.0332,-0.20478 z m 0.97133,0.42321 0.0292,0.18138 q -0.0858,0.0175 -0.15407,0.0175 -0.11116,0 -0.17357,-0.0351 -0.0605,-0.0351 -0.0858,-0.0917 -0.0254,-0.0585 -0.0254,-0.24184 v -0.69625 h -0.15017 v -0.15797 h 0.15017 v -0.2984 l 0.20283,-0.12287 v 0.42127 h 0.20673 v 0.15797 h -0.20673 v 0.70796 q 0,0.0858 0.01,0.11116 0.0117,0.0254 0.0351,0.041 0.0254,0.0136 0.0722,0.0136 0.0332,0 0.0897,-0.008 z m 1.02728,-0.20478 0.21063,0.0254 q -0.0507,0.18528 -0.18528,0.28865 -0.13457,0.10141 -0.3452,0.10141 -0.26524,0 -0.42126,-0.16187 -0.15407,-0.16383 -0.15407,-0.45832 0,-0.3062 0.15602,-0.47392 0.15797,-0.16773 0.40761,-0.16773 0.24184,0 0.39396,0.16578 0.15407,0.16382 0.15407,0.46222 0,0.0195 0,0.0546 h -0.90103 q 0.0117,0.19893 0.11311,0.3062 0.10142,0.10532 0.25159,0.10532 0.11312,0 0.19308,-0.0585 0.08,-0.0605 0.12677,-0.18918 z m -0.67285,-0.33155 h 0.6748 q -0.0136,-0.15212 -0.078,-0.22818 -0.0975,-0.11897 -0.25354,-0.11897 -0.14042,0 -0.23793,0.0956 -0.0956,0.0936 -0.10532,0.25159 z m 1.102,0.81912 0.19893,0.0293 q 0.0137,0.0936 0.0702,0.13457 0.0761,0.0566 0.20868,0.0566 0.14238,0 0.21844,-0.0566 0.078,-0.0566 0.10531,-0.15798 0.0156,-0.0624 0.0137,-0.26329 -0.13262,0.15798 -0.33349,0.15798 -0.24964,0 -0.38616,-0.17943 -0.13652,-0.17943 -0.13652,-0.43101 0,-0.17358 0.0624,-0.31985 0.0644,-0.14627 0.18137,-0.22429 0.11897,-0.08 0.28084,-0.08 0.21259,0 0.35106,0.17163 v -0.14432 h 0.18918 v 1.0434 q 0,0.28279 -0.0585,0.39981 -0.0566,0.11702 -0.18138,0.18528 -0.12287,0.0683 -0.3062,0.0683 -0.21453,0 -0.3491,-0.0975 -0.13262,-0.0956 -0.12872,-0.29255 z m 0.16968,-0.72551 q 0,0.23794 0.0936,0.34716 0.0956,0.10921 0.23794,0.10921 0.14042,0 0.23598,-0.10726 0.0956,-0.10922 0.0956,-0.34131 0,-0.22233 -0.0995,-0.3335 -0.0975,-0.11311 -0.23598,-0.11311 -0.13652,0 -0.23209,0.11116 -0.0956,0.10922 -0.0956,0.32765 z m 1.16441,-0.80547 v -0.23598 h 0.20478 v 0.23598 z m 0,1.43152 v -1.20723 h 0.20478 v 1.20723 z m 1.30527,-0.44272 0.20088,0.0273 q -0.0332,0.20673 -0.16968,0.32569 -0.13457,0.11702 -0.3335,0.11702 -0.24768,0 -0.39785,-0.16187 -0.15018,-0.16188 -0.15018,-0.46417 0,-0.19698 0.0644,-0.34325 0.0644,-0.14628 0.19698,-0.21844 0.13262,-0.0741 0.28864,-0.0741 0.19698,0 0.3218,0.0995 0.12482,0.0995 0.15993,0.28279 l -0.19893,0.0292 q -0.0293,-0.12091 -0.10142,-0.18137 -0.0722,-0.0624 -0.17357,-0.0624 -0.15408,0 -0.25159,0.11116 -0.0975,0.11117 -0.0975,0.35106 0,0.24378 0.0936,0.35495 0.0936,0.10922 0.24378,0.10922 0.12092,0 0.20088,-0.0741 0.0819,-0.0741 0.10337,-0.22818 z m 0.94732,-0.16187 q 0,-0.33545 0.18527,-0.49538 0.15603,-0.13457 0.38031,-0.13457 0.24964,0 0.40761,0.16383 0.15798,0.16187 0.15798,0.45051 0,0.23209 -0.0702,0.36666 -0.0702,0.13262 -0.20479,0.20673 -0.13262,0.0741 -0.29059,0.0741 -0.25354,0 -0.40956,-0.16187 -0.15602,-0.16383 -0.15602,-0.47002 z m 0.21063,0 q 0,0.23208 0.0995,0.3491 0.10142,0.11507 0.25549,0.11507 0.15212,0 0.25354,-0.11507 0.10141,-0.11702 0.10141,-0.35495 0,-0.22429 -0.10141,-0.33935 -0.10142,-0.11507 -0.25354,-0.11507 -0.15407,0 -0.25549,0.11507 -0.0995,0.11311 -0.0995,0.3452 z m 1.15856,0.60459 v -1.20723 h 0.18333 v 0.18332 q 0.0702,-0.12871 0.12872,-0.16967 0.0605,-0.041 0.13262,-0.041 0.10336,0 0.21063,0.0663 l -0.0702,0.18918 q -0.0761,-0.0449 -0.15017,-0.0449 -0.0683,0 -0.12092,0.041 -0.0527,0.041 -0.0761,0.11117 -0.0351,0.10921 -0.0351,0.23988 v 0.6319 z m 0.7384,0.0995 0.19893,0.0293 q 0.0137,0.0936 0.0702,0.13457 0.0761,0.0566 0.20868,0.0566 0.14237,0 0.21844,-0.0566 0.078,-0.0566 0.10531,-0.15798 0.0156,-0.0624 0.0136,-0.26329 -0.13262,0.15798 -0.3335,0.15798 -0.24963,0 -0.38615,-0.17943 -0.13652,-0.17943 -0.13652,-0.43101 0,-0.17358 0.0624,-0.31985 0.0643,-0.14627 0.18137,-0.22429 0.11897,-0.08 0.28084,-0.08 0.21259,0 0.35106,0.17163 v -0.14432 h 0.18917 v 1.0434 q 0,0.28279 -0.0585,0.39981 -0.0566,0.11702 -0.18138,0.18528 -0.12287,0.0683 -0.3062,0.0683 -0.21453,0 -0.3491,-0.0975 -0.13262,-0.0956 -0.12872,-0.29255 z m 0.16968,-0.72551 q 0,0.23794 0.0936,0.34716 0.0956,0.10921 0.23794,0.10921 0.14042,0 0.23598,-0.10726 0.0956,-0.10922 0.0956,-0.34131 0,-0.22233 -0.0995,-0.3335 -0.0975,-0.11311 -0.23598,-0.11311 -0.13652,0 -0.23209,0.11116 -0.0956,0.10922 -0.0956,0.32765 z m 1.95233,0.47782 q -0.11507,0.0956 -0.22038,0.13652 -0.10337,0.039 -0.22429,0.039 -0.19893,0 -0.30619,-0.0975 -0.10727,-0.0975 -0.10727,-0.24769 0,-0.0897 0.041,-0.16188 0.041,-0.0741 0.10531,-0.11701 0.0663,-0.0449 0.14822,-0.0683 0.0585,-0.0156 0.18138,-0.0312 0.24769,-0.0292 0.36471,-0.0702 0.002,-0.0429 0.002,-0.0527 0,-0.12481 -0.0585,-0.17747 -0.078,-0.0683 -0.23403,-0.0683 -0.14432,0 -0.21258,0.0507 -0.0683,0.0507 -0.10142,0.17747 l -0.20088,-0.0273 q 0.0273,-0.12677 0.0897,-0.20478 0.0624,-0.08 0.18137,-0.12287 0.11897,-0.0429 0.27304,-0.0429 0.15603,0 0.25159,0.0371 0.0975,0.0351 0.14237,0.0917 0.0468,0.0546 0.0644,0.13847 0.01,0.0527 0.01,0.18918 v 0.27304 q 0,0.28474 0.0136,0.3608 0.0137,0.0741 0.0507,0.14433 h -0.21258 q -0.0332,-0.0644 -0.041,-0.14823 z m -0.0176,-0.45831 q -0.11117,0.0468 -0.3335,0.078 -0.12677,0.0176 -0.17943,0.041 -0.0527,0.0234 -0.0819,0.0663 -0.0273,0.0429 -0.0273,0.0975 0,0.0819 0.0624,0.13652 0.0624,0.0546 0.18138,0.0546 0.11702,0 0.20868,-0.0507 0.0936,-0.0527 0.13652,-0.14237 0.0332,-0.0702 0.0332,-0.20478 z m 0.52471,0.60654 v -1.20723 h 0.18333 v 0.17162 q 0.13262,-0.19893 0.38421,-0.19893 0.10921,0 0.20087,0.039 0.0917,0.039 0.13653,0.10336 0.0468,0.0624 0.0644,0.15018 0.0117,0.0566 0.0117,0.19893 v 0.74306 h -0.20478 v -0.73526 q 0,-0.12482 -0.0254,-0.18528 -0.0234,-0.0624 -0.0839,-0.0995 -0.0605,-0.0371 -0.14237,-0.0371 -0.13067,0 -0.22623,0.0839 -0.0936,0.0819 -0.0936,0.314 v 0.6592 z m 1.29509,-1.43152 v -0.23598 h 0.20478 v 0.23598 z m 0,1.43152 v -1.20723 h 0.20478 v 1.20723 z m 0.40813,0 v -0.16578 l 0.76841,-0.88348 q -0.13067,0.008 -0.23013,0.008 h -0.49148 v -0.16577 h 0.98685 v 0.13457 l -0.6553,0.76646 -0.12481,0.14042 q 0.13652,-0.01 0.25743,-0.01 h 0.55779 v 0.17553 z m 2.06146,-0.14823 q -0.11507,0.0956 -0.22039,0.13652 -0.10336,0.039 -0.22428,0.039 -0.19893,0 -0.3062,-0.0975 -0.10726,-0.0975 -0.10726,-0.24769 0,-0.0897 0.041,-0.16188 0.041,-0.0741 0.10532,-0.11701 0.0663,-0.0449 0.14822,-0.0683 0.0585,-0.0156 0.18138,-0.0312 0.24768,-0.0292 0.3647,-0.0702 0.002,-0.0429 0.002,-0.0527 0,-0.12481 -0.0585,-0.17747 -0.078,-0.0683 -0.23403,-0.0683 -0.14433,0 -0.21259,0.0507 -0.0683,0.0507 -0.10141,0.17747 l -0.20088,-0.0273 q 0.0273,-0.12677 0.0897,-0.20478 0.0624,-0.08 0.18138,-0.12287 0.11897,-0.0429 0.27304,-0.0429 0.15602,0 0.25159,0.0371 0.0975,0.0351 0.14237,0.0917 0.0468,0.0546 0.0644,0.13847 0.01,0.0527 0.01,0.18918 v 0.27304 q 0,0.28474 0.0136,0.3608 0.0137,0.0741 0.0507,0.14433 h -0.21259 q -0.0331,-0.0644 -0.041,-0.14823 z m -0.0176,-0.45831 q -0.11116,0.0468 -0.3335,0.078 -0.12677,0.0176 -0.17942,0.041 -0.0527,0.0234 -0.0819,0.0663 -0.0273,0.0429 -0.0273,0.0975 0,0.0819 0.0624,0.13652 0.0624,0.0546 0.18138,0.0546 0.11701,0 0.20868,-0.0507 0.0936,-0.0527 0.13652,-0.14237 0.0331,-0.0702 0.0331,-0.20478 z m 0.97134,0.42321 0.0292,0.18138 q -0.0858,0.0175 -0.15407,0.0175 -0.11117,0 -0.17358,-0.0351 -0.0605,-0.0351 -0.0858,-0.0917 -0.0254,-0.0585 -0.0254,-0.24184 v -0.69625 h -0.15017 v -0.15797 h 0.15017 v -0.2984 l 0.20283,-0.12287 v 0.42127 h 0.20673 v 0.15797 h -0.20673 v 0.70796 q 0,0.0858 0.01,0.11116 0.0117,0.0254 0.0351,0.041 0.0254,0.0136 0.0722,0.0136 0.0332,0 0.0897,-0.008 z m 0.20035,-1.24819 v -0.23598 h 0.20478 v 0.23598 z m 0,1.43152 v -1.20723 h 0.20478 v 1.20723 z m 0.44129,-0.60459 q 0,-0.33545 0.18528,-0.49538 0.15602,-0.13457 0.38031,-0.13457 0.24964,0 0.40761,0.16383 0.15797,0.16187 0.15797,0.45051 0,0.23209 -0.0702,0.36666 -0.0702,0.13262 -0.20478,0.20673 -0.13262,0.0741 -0.29059,0.0741 -0.25354,0 -0.40956,-0.16187 -0.15603,-0.16383 -0.15603,-0.47002 z m 0.21064,0 q 0,0.23208 0.0995,0.3491 0.10141,0.11507 0.25549,0.11507 0.15212,0 0.25354,-0.11507 0.10141,-0.11702 0.10141,-0.35495 0,-0.22429 -0.10141,-0.33935 -0.10142,-0.11507 -0.25354,-0.11507 -0.15408,0 -0.25549,0.11507 -0.0995,0.11311 -0.0995,0.3452 z m 1.16051,0.60459 v -1.20723 h 0.18332 v 0.17162 q 0.13262,-0.19893 0.38421,-0.19893 0.10922,0 0.20088,0.039 0.0917,0.039 0.13652,0.10336 0.0468,0.0624 0.0644,0.15018 0.0117,0.0566 0.0117,0.19893 v 0.74306 h -0.20478 v -0.73526 q 0,-0.12482 -0.0254,-0.18528 -0.0234,-0.0624 -0.0839,-0.0995 -0.0605,-0.0371 -0.14237,-0.0371 -0.13067,0 -0.22624,0.0839 -0.0936,0.0819 -0.0936,0.314 v 0.6592 z m 1.90109,-0.81132 q 0,-0.41542 0.22234,-0.64945 0.22233,-0.23599 0.57533,-0.23599 0.23014,0 0.41542,0.11117 0.18527,0.10922 0.28279,0.30815 0.0975,0.19698 0.0975,0.44661 0,0.25354 -0.10336,0.45442 -0.10142,0.19893 -0.28865,0.3023 -0.18722,0.10336 -0.40566,0.10336 -0.23403,0 -0.41931,-0.11312 -0.18528,-0.11506 -0.28084,-0.31204 -0.0956,-0.19698 -0.0956,-0.41541 z m 0.22624,0.002 q 0,0.3023 0.16187,0.47587 0.16188,0.17358 0.40761,0.17358 0.24964,0 0.40956,-0.17553 0.15993,-0.17552 0.15993,-0.49732 0,-0.20283 -0.0683,-0.35495 -0.0683,-0.15213 -0.20088,-0.23404 -0.13262,-0.0839 -0.29645,-0.0839 -0.23598,0 -0.40566,0.16187 -0.16772,0.15993 -0.16772,0.53438 z m 1.64162,0.80937 v -1.6675 h 0.22233 v 0.82693 l 0.82693,-0.82693 h 0.29839 l -0.6982,0.67676 0.72941,0.99074 h -0.2906 l -0.59484,-0.84447 -0.27109,0.26719 v 0.57728 z m 1.56684,0 v -1.6675 h 0.73916 q 0.22233,0 0.3374,0.0449 0.11702,0.0449 0.18528,0.15992 0.0702,0.11312 0.0702,0.25159 0,0.17553 -0.11507,0.2984 -0.11506,0.12091 -0.35495,0.15407 0.0878,0.0429 0.13457,0.0839 0.0956,0.0878 0.18138,0.22039 l 0.29059,0.45441 h -0.27694 l -0.22038,-0.34715 q -0.0975,-0.15017 -0.15993,-0.22818 -0.0624,-0.08 -0.11311,-0.11117 -0.0488,-0.0331 -0.0995,-0.0449 -0.037,-0.01 -0.12287,-0.01 h -0.25549 v 0.74111 z m 0.22038,-0.93029 h 0.47393 q 0.15212,0 0.23598,-0.0312 0.0858,-0.0332 0.13067,-0.10142 0.0449,-0.0683 0.0449,-0.14822 0,-0.11897 -0.0858,-0.19503 -0.0858,-0.0761 -0.27304,-0.0761 h -0.52658 z m 1.35013,0.56949 0.20283,-0.0312 q 0.0156,0.12092 0.0936,0.18723 0.078,0.0644 0.21844,0.0644 0.14042,0 0.20868,-0.0566 0.0683,-0.0585 0.0683,-0.13652 0,-0.0683 -0.0605,-0.10921 -0.041,-0.0273 -0.20868,-0.0683 -0.22624,-0.0585 -0.314,-0.0995 -0.0858,-0.041 -0.13067,-0.11311 -0.0449,-0.0741 -0.0449,-0.16383 0,-0.08 0.0371,-0.14822 0.037,-0.0702 0.10141,-0.11507 0.0468,-0.0351 0.12872,-0.0585 0.0839,-0.0254 0.17748,-0.0254 0.14237,0 0.24964,0.041 0.10726,0.041 0.15797,0.11117 0.0527,0.0702 0.0722,0.18723 l -0.20088,0.0273 q -0.0136,-0.0936 -0.08,-0.14627 -0.0644,-0.0527 -0.18333,-0.0527 -0.14237,0 -0.20283,0.0468 -0.0585,0.0468 -0.0585,0.10922 0,0.039 0.0234,0.0722 0.0254,0.0331 0.08,0.0546 0.0292,0.0117 0.17943,0.0527 0.21843,0.0566 0.30424,0.0936 0.0858,0.0371 0.13457,0.10726 0.0488,0.0702 0.0488,0.17553 0,0.10337 -0.0605,0.19308 -0.0585,0.0897 -0.17163,0.14042 -0.11311,0.0488 -0.25548,0.0488 -0.23404,0 -0.35886,-0.0975 -0.12287,-0.0975 -0.15602,-0.29059 z"
       id="path29446"
       inkscape:connector-curvature="0"
       style="fill:#ff9900;fill-rule:nonzero;stroke-width:0.12481859" />
    <path
       d="m 438.97854,263.63249 h 35.40917 v 5.17358 h -35.40917 z"
       id="path29448"
       inkscape:connector-curvature="0"
       style="fill:#000000;fill-opacity:0;fill-rule:evenodd;stroke-width:0.12481859" />
    <path
       d="m 440.7026,266.80928 0.0292,0.18138 q -0.0858,0.0176 -0.15407,0.0176 -0.11117,0 -0.17358,-0.0351 -0.0605,-0.0351 -0.0858,-0.0917 -0.0254,-0.0585 -0.0254,-0.24184 v -0.69625 h -0.15017 v -0.15797 h 0.15017 v -0.2984 l 0.20283,-0.12287 v 0.42127 h 0.20673 v 0.15797 h -0.20673 v 0.70796 q 0,0.0858 0.01,0.11116 0.0117,0.0254 0.0351,0.041 0.0254,0.0136 0.0722,0.0136 0.0332,0 0.0897,-0.008 z m 0.98827,0.0351 q -0.11506,0.0956 -0.22038,0.13652 -0.10337,0.039 -0.22428,0.039 -0.19893,0 -0.3062,-0.0975 -0.10727,-0.0975 -0.10727,-0.24769 0,-0.0897 0.041,-0.16187 0.041,-0.0741 0.10532,-0.11702 0.0663,-0.0449 0.14822,-0.0683 0.0585,-0.0156 0.18138,-0.0312 0.24768,-0.0292 0.3647,-0.0702 0.002,-0.0429 0.002,-0.0526 0,-0.12482 -0.0585,-0.17748 -0.078,-0.0683 -0.23404,-0.0683 -0.14432,0 -0.21258,0.0507 -0.0683,0.0507 -0.10141,0.17747 l -0.20088,-0.0273 q 0.0273,-0.12677 0.0897,-0.20478 0.0624,-0.08 0.18138,-0.12287 0.11896,-0.0429 0.27304,-0.0429 0.15602,0 0.25158,0.0371 0.0975,0.0351 0.14238,0.0917 0.0468,0.0546 0.0644,0.13847 0.01,0.0527 0.01,0.18918 v 0.27304 q 0,0.28474 0.0137,0.36081 0.0136,0.0741 0.0507,0.14432 h -0.21258 q -0.0332,-0.0644 -0.041,-0.14822 z m -0.0176,-0.45832 q -0.11117,0.0468 -0.3335,0.078 -0.12677,0.0175 -0.17943,0.0409 -0.0527,0.0234 -0.0819,0.0663 -0.0273,0.0429 -0.0273,0.0975 0,0.0819 0.0624,0.13652 0.0624,0.0546 0.18137,0.0546 0.11702,0 0.20868,-0.0507 0.0936,-0.0527 0.13653,-0.14237 0.0331,-0.0702 0.0331,-0.20478 z m 1.31264,0.16382 0.20087,0.0273 q -0.0331,0.20674 -0.16967,0.3257 -0.13457,0.11702 -0.3335,0.11702 -0.24769,0 -0.39786,-0.16187 -0.15017,-0.16188 -0.15017,-0.46417 0,-0.19698 0.0644,-0.34325 0.0644,-0.14627 0.19698,-0.21844 0.13262,-0.0741 0.28864,-0.0741 0.19698,0 0.3218,0.0995 0.12482,0.0995 0.15992,0.28279 l -0.19893,0.0292 q -0.0292,-0.12091 -0.10141,-0.18137 -0.0722,-0.0624 -0.17358,-0.0624 -0.15407,0 -0.25159,0.11116 -0.0975,0.11117 -0.0975,0.35106 0,0.24378 0.0936,0.35495 0.0936,0.10922 0.24379,0.10922 0.12092,0 0.20088,-0.0741 0.0819,-0.0741 0.10337,-0.22819 z m 0.82302,0.25939 0.0292,0.18138 q -0.0858,0.0176 -0.15407,0.0176 -0.11117,0 -0.17358,-0.0351 -0.0605,-0.0351 -0.0858,-0.0917 -0.0254,-0.0585 -0.0254,-0.24184 v -0.69625 h -0.15018 v -0.15797 h 0.15018 v -0.2984 l 0.20283,-0.12287 v 0.42127 h 0.20673 v 0.15797 h -0.20673 v 0.70796 q 0,0.0858 0.01,0.11116 0.0117,0.0254 0.0351,0.041 0.0254,0.0136 0.0722,0.0136 0.0332,0 0.0897,-0.008 z m 0.20035,-1.24819 v -0.23598 h 0.20478 v 0.23598 z m 0,1.43152 v -1.20723 h 0.20478 v 1.20723 z m 1.30527,-0.44272 0.20088,0.0273 q -0.0332,0.20674 -0.16967,0.3257 -0.13457,0.11702 -0.3335,0.11702 -0.24769,0 -0.39786,-0.16187 -0.15017,-0.16188 -0.15017,-0.46417 0,-0.19698 0.0644,-0.34325 0.0644,-0.14627 0.19698,-0.21844 0.13262,-0.0741 0.28865,-0.0741 0.19698,0 0.32179,0.0995 0.12482,0.0995 0.15993,0.28279 l -0.19893,0.0292 q -0.0292,-0.12091 -0.10142,-0.18137 -0.0722,-0.0624 -0.17357,-0.0624 -0.15407,0 -0.25159,0.11116 -0.0975,0.11117 -0.0975,0.35106 0,0.24378 0.0936,0.35495 0.0936,0.10922 0.24379,0.10922 0.12092,0 0.20088,-0.0741 0.0819,-0.0741 0.10336,-0.22819 z m 1.16433,0.2945 q -0.11507,0.0956 -0.22039,0.13652 -0.10336,0.039 -0.22428,0.039 -0.19893,0 -0.3062,-0.0975 -0.10726,-0.0975 -0.10726,-0.24769 0,-0.0897 0.041,-0.16187 0.041,-0.0741 0.10532,-0.11702 0.0663,-0.0449 0.14822,-0.0683 0.0585,-0.0156 0.18138,-0.0312 0.24769,-0.0292 0.3647,-0.0702 0.002,-0.0429 0.002,-0.0526 0,-0.12482 -0.0585,-0.17748 -0.078,-0.0683 -0.23403,-0.0683 -0.14432,0 -0.21258,0.0507 -0.0683,0.0507 -0.10142,0.17747 l -0.20088,-0.0273 q 0.0273,-0.12677 0.0897,-0.20478 0.0624,-0.08 0.18138,-0.12287 0.11897,-0.0429 0.27304,-0.0429 0.15602,0 0.25159,0.0371 0.0975,0.0351 0.14237,0.0917 0.0468,0.0546 0.0644,0.13847 0.01,0.0527 0.01,0.18918 v 0.27304 q 0,0.28474 0.0137,0.36081 0.0136,0.0741 0.0507,0.14432 h -0.21258 q -0.0332,-0.0644 -0.041,-0.14822 z m -0.0176,-0.45832 q -0.11116,0.0468 -0.3335,0.078 -0.12677,0.0175 -0.17942,0.0409 -0.0527,0.0234 -0.0819,0.0663 -0.0273,0.0429 -0.0273,0.0975 0,0.0819 0.0624,0.13652 0.0624,0.0546 0.18138,0.0546 0.11701,0 0.20868,-0.0507 0.0936,-0.0527 0.13652,-0.14237 0.0331,-0.0702 0.0331,-0.20478 z m 0.51887,0.60654 v -1.6675 h 0.20478 v 1.6675 z m 1.61679,-0.18333 0.0292,0.18138 q -0.0858,0.0176 -0.15407,0.0176 -0.11117,0 -0.17357,-0.0351 -0.0605,-0.0351 -0.0858,-0.0917 -0.0254,-0.0585 -0.0254,-0.24184 v -0.69625 h -0.15017 v -0.15797 h 0.15017 v -0.2984 l 0.20283,-0.12287 v 0.42127 h 0.20673 v 0.15797 h -0.20673 v 0.70796 q 0,0.0858 0.01,0.11116 0.0117,0.0254 0.0351,0.041 0.0254,0.0136 0.0722,0.0136 0.0332,0 0.0897,-0.008 z m 1.02728,-0.20478 0.21063,0.0254 q -0.0507,0.18528 -0.18528,0.28865 -0.13457,0.10141 -0.3452,0.10141 -0.26524,0 -0.42126,-0.16187 -0.15407,-0.16383 -0.15407,-0.45832 0,-0.3062 0.15602,-0.47392 0.15797,-0.16773 0.40761,-0.16773 0.24184,0 0.39396,0.16578 0.15407,0.16382 0.15407,0.46222 0,0.0195 0,0.0546 h -0.90103 q 0.0117,0.19893 0.11311,0.3062 0.10142,0.10532 0.25159,0.10532 0.11312,0 0.19308,-0.0585 0.08,-0.0605 0.12677,-0.18918 z m -0.67285,-0.33155 h 0.6748 q -0.0136,-0.15212 -0.078,-0.22818 -0.0975,-0.11897 -0.25354,-0.11897 -0.14042,0 -0.23794,0.0956 -0.0956,0.0936 -0.10531,0.25159 z m 1.92893,0.57144 q -0.11507,0.0956 -0.22039,0.13652 -0.10336,0.039 -0.22428,0.039 -0.19893,0 -0.3062,-0.0975 -0.10726,-0.0975 -0.10726,-0.24769 0,-0.0897 0.041,-0.16187 0.041,-0.0741 0.10532,-0.11702 0.0663,-0.0449 0.14822,-0.0683 0.0585,-0.0156 0.18138,-0.0312 0.24769,-0.0292 0.3647,-0.0702 0.002,-0.0429 0.002,-0.0526 0,-0.12482 -0.0585,-0.17748 -0.078,-0.0683 -0.23403,-0.0683 -0.14432,0 -0.21258,0.0507 -0.0683,0.0507 -0.10142,0.17747 l -0.20088,-0.0273 q 0.0273,-0.12677 0.0897,-0.20478 0.0624,-0.08 0.18138,-0.12287 0.11897,-0.0429 0.27304,-0.0429 0.15603,0 0.25159,0.0371 0.0975,0.0351 0.14237,0.0917 0.0468,0.0546 0.0644,0.13847 0.01,0.0527 0.01,0.18918 v 0.27304 q 0,0.28474 0.0136,0.36081 0.0136,0.0741 0.0507,0.14432 h -0.21258 q -0.0332,-0.0644 -0.041,-0.14822 z m -0.0176,-0.45832 q -0.11116,0.0468 -0.3335,0.078 -0.12676,0.0175 -0.17942,0.0409 -0.0527,0.0234 -0.0819,0.0663 -0.0273,0.0429 -0.0273,0.0975 0,0.0819 0.0624,0.13652 0.0624,0.0546 0.18138,0.0546 0.11701,0 0.20868,-0.0507 0.0936,-0.0527 0.13652,-0.14237 0.0331,-0.0702 0.0331,-0.20478 z m 0.52472,0.60654 v -1.20723 h 0.18333 v 0.16967 q 0.0566,-0.0897 0.15017,-0.14237 0.0956,-0.0546 0.21453,-0.0546 0.13457,0 0.22038,0.0566 0.0858,0.0546 0.12092,0.15407 0.14432,-0.21063 0.37251,-0.21063 0.18137,0 0.27694,0.0995 0.0975,0.0995 0.0975,0.30619 v 0.82888 h -0.20478 v -0.76062 q 0,-0.12287 -0.0195,-0.17552 -0.0195,-0.0546 -0.0722,-0.0878 -0.0527,-0.0332 -0.12287,-0.0332 -0.12677,0 -0.21063,0.0858 -0.0839,0.0839 -0.0839,0.26914 v 0.70211 h -0.20478 v -0.78402 q 0,-0.13652 -0.0507,-0.20478 -0.0507,-0.0683 -0.16383,-0.0683 -0.0858,0 -0.15992,0.0449 -0.0741,0.0448 -0.10727,0.13262 -0.0312,0.0878 -0.0312,0.25353 v 0.62605 z m 3.5385,-0.19698 q -0.10142,0.11311 -0.22039,0.16967 -0.11896,0.0566 -0.25743,0.0566 -0.25549,0 -0.40567,-0.17357 -0.12286,-0.14043 -0.12286,-0.31595 0,-0.15408 0.0995,-0.27889 0.0995,-0.12482 0.2984,-0.21844 -0.11312,-0.12872 -0.15018,-0.20868 -0.037,-0.0819 -0.037,-0.15797 0,-0.15017 0.11702,-0.25939 0.11701,-0.11117 0.29644,-0.11117 0.16967,0 0.27889,0.10532 0.10922,0.10337 0.10922,0.24964 0,0.23793 -0.31595,0.40566 l 0.2984,0.38225 q 0.0526,-0.10141 0.08,-0.23208 l 0.21258,0.0449 q -0.0546,0.21843 -0.14822,0.35885 0.11506,0.15212 0.26134,0.25549 l -0.13848,0.16382 q -0.12286,-0.08 -0.25548,-0.23598 z m -0.41542,-0.86788 q 0.13262,-0.08 0.17163,-0.13847 0.039,-0.0585 0.039,-0.13067 0,-0.0858 -0.0546,-0.13847 -0.0527,-0.0546 -0.13262,-0.0546 -0.0839,0 -0.14042,0.0546 -0.0546,0.0527 -0.0546,0.12872 0,0.039 0.0195,0.0819 0.0215,0.0429 0.0605,0.0917 z m 0.2867,0.706 -0.37446,-0.46417 q -0.16577,0.0995 -0.22428,0.18333 -0.0585,0.0839 -0.0585,0.16773 0,0.10141 0.08,0.21063 0.0819,0.10921 0.23014,0.10921 0.0917,0 0.18917,-0.0566 0.0995,-0.0585 0.15798,-0.15018 z m 1.37713,-1.07266 v -0.23598 h 0.20478 v 0.23598 z m 0,1.43152 v -1.20723 h 0.20478 v 1.20723 z m 0.51736,0 v -1.20723 h 0.18333 v 0.17162 q 0.13262,-0.19893 0.3842,-0.19893 0.10922,0 0.20088,0.039 0.0917,0.039 0.13652,0.10336 0.0468,0.0624 0.0644,0.15018 0.0117,0.0566 0.0117,0.19893 v 0.74306 h -0.20478 v -0.73526 q 0,-0.12482 -0.0254,-0.18528 -0.0234,-0.0624 -0.0839,-0.0995 -0.0605,-0.0371 -0.14237,-0.0371 -0.13067,0 -0.22623,0.0839 -0.0936,0.0819 -0.0936,0.314 v 0.6592 z m 2.07714,0 v -0.15213 q -0.11311,0.17943 -0.3374,0.17943 -0.14432,0 -0.26524,-0.08 -0.12091,-0.08 -0.18722,-0.22233 -0.0663,-0.14238 -0.0663,-0.32765 0,-0.18138 0.0605,-0.32765 0.0605,-0.14822 0.17942,-0.22624 0.12092,-0.078 0.27109,-0.078 0.10922,0 0.19308,0.0468 0.0858,0.0449 0.13847,0.11897 v -0.59874 h 0.20478 v 1.6675 z m -0.64554,-0.60264 q 0,0.23208 0.0975,0.34715 0.0975,0.11507 0.23014,0.11507 0.13457,0 0.22818,-0.10922 0.0936,-0.11117 0.0936,-0.33545 0,-0.24769 -0.0956,-0.36275 -0.0956,-0.11702 -0.23598,-0.11702 -0.13457,0 -0.22624,0.11116 -0.0917,0.11117 -0.0917,0.35106 z m 1.15856,-0.82888 v -0.23598 h 0.20478 v 0.23598 z m 0,1.43152 v -1.20723 h 0.20478 v 1.20723 z m 0.8528,0 -0.46027,-1.20723 h 0.21648 l 0.25939,0.72356 q 0.041,0.11701 0.078,0.24183 0.0254,-0.0956 0.0761,-0.22818 l 0.26719,-0.73721 h 0.21063 l -0.45637,1.20723 z m 0.82887,-1.43152 v -0.23598 h 0.20479 v 0.23598 z m 0,1.43152 v -1.20723 h 0.20479 v 1.20723 z m 1.29942,0 v -0.15213 q -0.11311,0.17943 -0.3374,0.17943 -0.14432,0 -0.26524,-0.08 -0.12091,-0.08 -0.18722,-0.22233 -0.0663,-0.14238 -0.0663,-0.32765 0,-0.18138 0.0605,-0.32765 0.0605,-0.14822 0.17943,-0.22624 0.12092,-0.078 0.27109,-0.078 0.10922,0 0.19308,0.0468 0.0858,0.0449 0.13847,0.11897 v -0.59874 h 0.20478 v 1.6675 z m -0.64554,-0.60264 q 0,0.23208 0.0975,0.34715 0.0975,0.11507 0.23014,0.11507 0.13457,0 0.22818,-0.10922 0.0936,-0.11117 0.0936,-0.33545 0,-0.24769 -0.0956,-0.36275 -0.0956,-0.11702 -0.23599,-0.11702 -0.13456,0 -0.22623,0.11116 -0.0917,0.11117 -0.0917,0.35106 z m 1.94842,0.60264 v -0.17748 q -0.14042,0.20478 -0.38225,0.20478 -0.10727,0 -0.20088,-0.041 -0.0917,-0.041 -0.13652,-0.10336 -0.0449,-0.0624 -0.0624,-0.15212 -0.0136,-0.0585 -0.0136,-0.19113 v -0.74696 h 0.20478 v 0.66895 q 0,0.15992 0.0137,0.21648 0.0195,0.08 0.0819,0.12677 0.0624,0.0468 0.15407,0.0468 0.0917,0 0.17163,-0.0468 0.0819,-0.0488 0.11507,-0.12872 0.0332,-0.0819 0.0332,-0.23599 v -0.64749 h 0.20478 v 1.20723 z m 1.29314,-0.14822 q -0.11507,0.0956 -0.22038,0.13652 -0.10337,0.039 -0.22429,0.039 -0.19893,0 -0.30619,-0.0975 -0.10727,-0.0975 -0.10727,-0.24769 0,-0.0897 0.041,-0.16187 0.041,-0.0741 0.10531,-0.11702 0.0663,-0.0449 0.14823,-0.0683 0.0585,-0.0156 0.18137,-0.0312 0.24769,-0.0292 0.36471,-0.0702 0.002,-0.0429 0.002,-0.0526 0,-0.12482 -0.0585,-0.17748 -0.078,-0.0683 -0.23404,-0.0683 -0.14432,0 -0.21258,0.0507 -0.0683,0.0507 -0.10142,0.17747 l -0.20088,-0.0273 q 0.0273,-0.12677 0.0897,-0.20478 0.0624,-0.08 0.18137,-0.12287 0.11897,-0.0429 0.27305,-0.0429 0.15602,0 0.25158,0.0371 0.0975,0.0351 0.14237,0.0917 0.0468,0.0546 0.0644,0.13847 0.01,0.0527 0.01,0.18918 v 0.27304 q 0,0.28474 0.0136,0.36081 0.0137,0.0741 0.0507,0.14432 h -0.21258 q -0.0332,-0.0644 -0.041,-0.14822 z m -0.0175,-0.45832 q -0.11117,0.0468 -0.3335,0.078 -0.12677,0.0175 -0.17943,0.0409 -0.0527,0.0234 -0.0819,0.0663 -0.0273,0.0429 -0.0273,0.0975 0,0.0819 0.0624,0.13652 0.0624,0.0546 0.18138,0.0546 0.11702,0 0.20868,-0.0507 0.0936,-0.0527 0.13652,-0.14237 0.0332,-0.0702 0.0332,-0.20478 z m 0.51886,0.60654 v -1.6675 h 0.20478 v 1.6675 z m 1.12922,-0.81132 q 0,-0.41542 0.22233,-0.64945 0.22234,-0.23599 0.57534,-0.23599 0.23013,0 0.41541,0.11117 0.18528,0.10922 0.28279,0.30815 0.0975,0.19698 0.0975,0.44661 0,0.25354 -0.10337,0.45442 -0.10141,0.19893 -0.28864,0.3023 -0.18723,0.10336 -0.40566,0.10336 -0.23404,0 -0.41931,-0.11312 -0.18528,-0.11506 -0.28085,-0.31204 -0.0956,-0.19698 -0.0956,-0.41541 z m 0.22623,0.002 q 0,0.3023 0.16188,0.47587 0.16187,0.17358 0.40761,0.17358 0.24963,0 0.40956,-0.17553 0.15992,-0.17552 0.15992,-0.49732 0,-0.20283 -0.0683,-0.35495 -0.0683,-0.15213 -0.20088,-0.23404 -0.13262,-0.0839 -0.29644,-0.0839 -0.23599,0 -0.40566,0.16187 -0.16773,0.15993 -0.16773,0.53438 z m 1.64163,0.80937 v -1.66749 h 0.22233 v 0.82692 l 0.82692,-0.82692 h 0.2984 l -0.69821,0.67675 0.72941,0.99074 h -0.29059 l -0.59484,-0.84447 -0.27109,0.26719 v 0.57728 z m 1.56684,0 v -1.66749 h 0.73916 q 0.22233,0 0.3374,0.0448 0.11702,0.0449 0.18527,0.15993 0.0702,0.11311 0.0702,0.25158 0,0.17553 -0.11507,0.2984 -0.11507,0.12092 -0.35495,0.15407 0.0878,0.0429 0.13457,0.0839 0.0956,0.0878 0.18137,0.22039 l 0.2906,0.45441 h -0.27695 l -0.22038,-0.34715 q -0.0975,-0.15017 -0.15992,-0.22818 -0.0624,-0.08 -0.11312,-0.11117 -0.0488,-0.0332 -0.0995,-0.0448 -0.0371,-0.01 -0.12287,-0.01 h -0.25549 v 0.74111 z m 0.22038,-0.93028 h 0.47392 q 0.15212,0 0.23599,-0.0312 0.0858,-0.0332 0.13067,-0.10141 0.0448,-0.0683 0.0448,-0.14823 0,-0.11896 -0.0858,-0.19503 -0.0858,-0.0761 -0.27304,-0.0761 h -0.52658 z m 1.35012,0.56948 0.20283,-0.0312 q 0.0156,0.12091 0.0936,0.18722 0.078,0.0644 0.21843,0.0644 0.14042,0 0.20868,-0.0566 0.0683,-0.0585 0.0683,-0.13652 0,-0.0683 -0.0605,-0.10921 -0.041,-0.0273 -0.20868,-0.0683 -0.22623,-0.0585 -0.314,-0.0995 -0.0858,-0.041 -0.13066,-0.11311 -0.0449,-0.0741 -0.0449,-0.16383 0,-0.08 0.037,-0.14822 0.0371,-0.0702 0.10142,-0.11507 0.0468,-0.0351 0.12872,-0.0585 0.0839,-0.0254 0.17747,-0.0254 0.14238,0 0.24964,0.041 0.10727,0.041 0.15798,0.11116 0.0526,0.0702 0.0722,0.18723 l -0.20088,0.0273 q -0.0137,-0.0936 -0.08,-0.14627 -0.0644,-0.0527 -0.18332,-0.0527 -0.14237,0 -0.20283,0.0468 -0.0585,0.0468 -0.0585,0.10922 0,0.039 0.0234,0.0722 0.0254,0.0332 0.08,0.0546 0.0293,0.0117 0.17943,0.0527 0.21843,0.0565 0.30425,0.0936 0.0858,0.0371 0.13456,0.10727 0.0488,0.0702 0.0488,0.17552 0,0.10337 -0.0605,0.19308 -0.0585,0.0897 -0.17162,0.14042 -0.11312,0.0488 -0.25549,0.0488 -0.23403,0 -0.35885,-0.0975 -0.12287,-0.0975 -0.15603,-0.29059 z"
       id="path29450"
       inkscape:connector-curvature="0"
       style="fill:#38761d;fill-rule:nonzero;stroke-width:0.12481859" />
    <path
       d="m 451.55508,284.28423 v 0 c 0,0.63074 -0.0852,1.14204 -0.19034,1.14204 h -4.9541 c -0.10511,0 -0.19033,0.51131 -0.19033,1.14204 v 0 c 0,-0.63073 -0.0852,-1.14204 -0.19033,-1.14204 h -4.9541 c -0.10512,0 -0.19033,-0.5113 -0.19033,-1.14204 z"
       id="path29452"
       inkscape:connector-curvature="0"
       style="fill:#000000;fill-opacity:0;fill-rule:evenodd;stroke-width:0.12481859" />
    <path
       d="m 451.55508,284.28423 v 0 c 0,0.63074 -0.0852,1.14204 -0.19034,1.14204 h -4.9541 c -0.10511,0 -0.19033,0.51131 -0.19033,1.14204 v 0 c 0,-0.63073 -0.0852,-1.14204 -0.19033,-1.14204 h -4.9541 c -0.10512,0 -0.19033,-0.5113 -0.19033,-1.14204"
       id="path29454"
       inkscape:connector-curvature="0"
       style="fill:#000000;fill-opacity:0;fill-rule:evenodd;stroke-width:0.12481859" />
    <path
       d="m 451.55508,284.28423 v 0 c 0,0.63074 -0.0852,1.14204 -0.19034,1.14204 h -4.9541 c -0.10511,0 -0.19033,0.51131 -0.19033,1.14204 v 0 c 0,-0.63073 -0.0852,-1.14204 -0.19033,-1.14204 h -4.9541 c -0.10512,0 -0.19033,-0.5113 -0.19033,-1.14204"
       id="path29456"
       inkscape:connector-curvature="0"
       style="fill-rule:evenodd;stroke:#38761d;stroke-width:0.37445578;stroke-linecap:butt;stroke-linejoin:round" />
    <path
       d="m 440.00912,285.41912 h 12.38751 v 5.17358 h -12.38751 z"
       id="path29458"
       inkscape:connector-curvature="0"
       style="fill:#000000;fill-opacity:0;fill-rule:evenodd;stroke-width:0.12481859" />
    <path
       d="m 442.11348,288.39113 0.21063,0.0254 q -0.0507,0.18528 -0.18527,0.28864 -0.13457,0.10142 -0.34521,0.10142 -0.26523,0 -0.42126,-0.16188 -0.15407,-0.16382 -0.15407,-0.45831 0,-0.3062 0.15602,-0.47392 0.15798,-0.16773 0.40761,-0.16773 0.24184,0 0.39396,0.16578 0.15407,0.16382 0.15407,0.46221 0,0.0195 0,0.0546 h -0.90103 q 0.0117,0.19893 0.11312,0.3062 0.10141,0.10531 0.25158,0.10531 0.11312,0 0.19308,-0.0585 0.08,-0.0605 0.12677,-0.18918 z m -0.67285,-0.33155 h 0.6748 q -0.0136,-0.15213 -0.078,-0.22819 -0.0975,-0.11896 -0.25354,-0.11896 -0.14042,0 -0.23793,0.0956 -0.0956,0.0936 -0.10532,0.25159 z m 1.00449,0.71966 0.44077,-0.628 -0.40761,-0.57924 h 0.25548 l 0.18528,0.2828 q 0.0527,0.08 0.0839,0.13457 0.0507,-0.0741 0.0917,-0.13262 l 0.20478,-0.28475 h 0.24378 l -0.41736,0.56754 0.44857,0.6397 h -0.25159 l -0.24769,-0.37446 -0.0643,-0.10142 -0.3179,0.47588 z m 2.12777,-0.38811 0.21063,0.0254 q -0.0507,0.18528 -0.18528,0.28864 -0.13457,0.10142 -0.3452,0.10142 -0.26524,0 -0.42126,-0.16188 -0.15407,-0.16382 -0.15407,-0.45831 0,-0.3062 0.15602,-0.47392 0.15797,-0.16773 0.40761,-0.16773 0.24183,0 0.39396,0.16578 0.15407,0.16382 0.15407,0.46221 0,0.0195 0,0.0546 h -0.90103 q 0.0117,0.19893 0.11311,0.3062 0.10142,0.10531 0.25159,0.10531 0.11312,0 0.19308,-0.0585 0.08,-0.0605 0.12677,-0.18918 z m -0.67285,-0.33155 h 0.6748 q -0.0136,-0.15213 -0.078,-0.22819 -0.0975,-0.11896 -0.25354,-0.11896 -0.14042,0 -0.23794,0.0956 -0.0956,0.0936 -0.10531,0.25159 z m 1.92892,0.27694 0.20088,0.0273 q -0.0331,0.20673 -0.16967,0.3257 -0.13457,0.11702 -0.3335,0.11702 -0.24769,0 -0.39786,-0.16188 -0.15017,-0.16187 -0.15017,-0.46416 0,-0.19698 0.0644,-0.34326 0.0644,-0.14627 0.19698,-0.21843 0.13262,-0.0741 0.28864,-0.0741 0.19698,0 0.3218,0.0995 0.12482,0.0995 0.15992,0.28279 l -0.19893,0.0292 q -0.0293,-0.12092 -0.10141,-0.18138 -0.0722,-0.0624 -0.17358,-0.0624 -0.15407,0 -0.25159,0.11116 -0.0975,0.11117 -0.0975,0.35106 0,0.24378 0.0936,0.35495 0.0936,0.10921 0.24379,0.10921 0.12092,0 0.20088,-0.0741 0.0819,-0.0741 0.10336,-0.22818 z m 1.16628,0.44272 v -0.17748 q -0.14042,0.20478 -0.38226,0.20478 -0.10727,0 -0.20088,-0.041 -0.0917,-0.041 -0.13652,-0.10336 -0.0449,-0.0624 -0.0624,-0.15212 -0.0136,-0.0585 -0.0136,-0.19113 V 287.572 h 0.20478 v 0.66895 q 0,0.15993 0.0137,0.21649 0.0195,0.08 0.0819,0.12677 0.0624,0.0468 0.15408,0.0468 0.0917,0 0.17162,-0.0468 0.0819,-0.0488 0.11507,-0.12872 0.0331,-0.0819 0.0331,-0.23599 v -0.6475 h 0.20479 v 1.20724 z m 0.95183,-0.18333 0.0292,0.18137 q -0.0858,0.0176 -0.15407,0.0176 -0.11117,0 -0.17357,-0.0351 -0.0605,-0.0351 -0.0858,-0.0917 -0.0254,-0.0585 -0.0254,-0.24184 v -0.69625 h -0.15017 V 287.572 h 0.15017 v -0.29839 l 0.20283,-0.12287 v 0.42126 h 0.20673 v 0.15798 h -0.20673 v 0.70795 q 0,0.0858 0.01,0.11117 0.0117,0.0254 0.0351,0.041 0.0254,0.0136 0.0722,0.0136 0.0332,0 0.0897,-0.008 z m 0.20036,-1.24819 v -0.23598 h 0.20478 v 0.23598 z m 0,1.43152 V 287.572 h 0.20478 v 1.20724 z m 0.44129,-0.60459 q 0,-0.33545 0.18527,-0.49538 0.15603,-0.13457 0.38031,-0.13457 0.24964,0 0.40761,0.16383 0.15797,0.16187 0.15797,0.45051 0,0.23209 -0.0702,0.36666 -0.0702,0.13262 -0.20478,0.20673 -0.13262,0.0741 -0.29059,0.0741 -0.25354,0 -0.40956,-0.16188 -0.15602,-0.16382 -0.15602,-0.47001 z m 0.21063,0 q 0,0.23208 0.0995,0.3491 0.10142,0.11506 0.25549,0.11506 0.15212,0 0.25354,-0.11506 0.10141,-0.11702 0.10141,-0.35496 0,-0.22428 -0.10141,-0.33935 -0.10142,-0.11506 -0.25354,-0.11506 -0.15407,0 -0.25549,0.11506 -0.0995,0.11312 -0.0995,0.34521 z m 1.16051,0.60459 V 287.572 h 0.18333 v 0.17163 q 0.13262,-0.19893 0.3842,-0.19893 0.10922,0 0.20088,0.039 0.0917,0.039 0.13652,0.10336 0.0468,0.0624 0.0644,0.15017 0.0117,0.0566 0.0117,0.19893 v 0.74307 h -0.20478 v -0.73527 q 0,-0.12481 -0.0254,-0.18527 -0.0234,-0.0624 -0.0839,-0.0995 -0.0605,-0.0371 -0.14237,-0.0371 -0.13067,0 -0.22623,0.0839 -0.0936,0.0819 -0.0936,0.314 v 0.6592 z"
       id="path29460"
       inkscape:connector-curvature="0"
       style="fill:#38761d;fill-rule:nonzero;stroke-width:0.12481859" />
    <path
       d="m 483.88211,290.27553 v 0 c 0,0.63073 -0.0852,1.14204 -0.19033,1.14204 h -21.11762 c -0.10512,0 -0.19033,0.5113 -0.19033,1.14204 v 0 c 0,-0.63074 -0.0852,-1.14204 -0.19034,-1.14204 h -21.11761 c -0.10512,0 -0.19034,-0.51131 -0.19034,-1.14204 z"
       id="path29462"
       inkscape:connector-curvature="0"
       style="fill:#000000;fill-opacity:0;fill-rule:evenodd;stroke-width:0.12481859" />
    <path
       d="m 483.88211,290.27553 v 0 c 0,0.63073 -0.0852,1.14204 -0.19033,1.14204 h -21.11762 c -0.10512,0 -0.19033,0.5113 -0.19033,1.14204 v 0 c 0,-0.63074 -0.0852,-1.14204 -0.19034,-1.14204 h -21.11761 c -0.10512,0 -0.19034,-0.51131 -0.19034,-1.14204"
       id="path29464"
       inkscape:connector-curvature="0"
       style="fill:#000000;fill-opacity:0;fill-rule:evenodd;stroke-width:0.12481859" />
    <path
       d="m 483.88211,290.27553 v 0 c 0,0.63073 -0.0852,1.14204 -0.19033,1.14204 h -21.11762 c -0.10512,0 -0.19033,0.5113 -0.19033,1.14204 v 0 c 0,-0.63074 -0.0852,-1.14204 -0.19034,-1.14204 h -21.11761 c -0.10512,0 -0.19034,-0.51131 -0.19034,-1.14204"
       id="path29466"
       inkscape:connector-curvature="0"
       style="fill-rule:evenodd;stroke:#ff9900;stroke-width:0.37445578;stroke-linecap:butt;stroke-linejoin:round" />
    <path
       d="m 456.52481,291.41036 h 11.73098 v 5.17358 h -11.73098 z"
       id="path29468"
       inkscape:connector-curvature="0"
       style="fill:#000000;fill-opacity:0;fill-rule:evenodd;stroke-width:0.12481859" />
    <path
       d="m 457.72034,294.40967 0.20283,-0.0312 q 0.0156,0.12091 0.0936,0.18722 0.078,0.0644 0.21844,0.0644 0.14042,0 0.20868,-0.0565 0.0683,-0.0585 0.0683,-0.13653 0,-0.0683 -0.0605,-0.10921 -0.041,-0.0273 -0.20868,-0.0683 -0.22624,-0.0585 -0.314,-0.0995 -0.0858,-0.041 -0.13067,-0.11311 -0.0449,-0.0741 -0.0449,-0.16383 0,-0.08 0.0371,-0.14822 0.0371,-0.0702 0.10142,-0.11507 0.0468,-0.0351 0.12872,-0.0585 0.0839,-0.0254 0.17747,-0.0254 0.14237,0 0.24964,0.041 0.10727,0.0409 0.15797,0.11116 0.0527,0.0702 0.0722,0.18723 l -0.20088,0.0273 q -0.0137,-0.0936 -0.08,-0.14628 -0.0644,-0.0527 -0.18333,-0.0527 -0.14237,0 -0.20283,0.0468 -0.0585,0.0468 -0.0585,0.10922 0,0.039 0.0234,0.0722 0.0254,0.0331 0.08,0.0546 0.0293,0.0117 0.17943,0.0527 0.21843,0.0565 0.30424,0.0936 0.0858,0.0371 0.13457,0.10726 0.0488,0.0702 0.0488,0.17553 0,0.10337 -0.0605,0.19308 -0.0585,0.0897 -0.17162,0.14042 -0.11312,0.0488 -0.25549,0.0488 -0.23404,0 -0.35886,-0.0975 -0.12286,-0.0975 -0.15602,-0.29059 z m 1.69285,0.17748 0.0293,0.18137 q -0.0858,0.0176 -0.15408,0.0176 -0.11116,0 -0.17357,-0.0351 -0.0605,-0.0351 -0.0858,-0.0917 -0.0254,-0.0585 -0.0254,-0.24184 v -0.69625 h -0.15017 v -0.15798 h 0.15017 v -0.29839 l 0.20283,-0.12287 v 0.42126 h 0.20673 v 0.15798 h -0.20673 v 0.70795 q 0,0.0858 0.01,0.11117 0.0117,0.0254 0.0351,0.041 0.0254,0.0136 0.0722,0.0136 0.0331,0 0.0897,-0.008 z m 0.19841,0.18332 v -1.20723 h 0.18332 v 0.18333 q 0.0702,-0.12872 0.12872,-0.16967 0.0605,-0.041 0.13262,-0.041 0.10337,0 0.21063,0.0663 l -0.0702,0.18918 q -0.0761,-0.0449 -0.15017,-0.0449 -0.0683,0 -0.12092,0.041 -0.0526,0.041 -0.0761,0.11116 -0.0351,0.10922 -0.0351,0.23989 v 0.63189 z m 1.56532,-0.14822 q -0.11506,0.0956 -0.22038,0.13652 -0.10337,0.039 -0.22428,0.039 -0.19893,0 -0.3062,-0.0975 -0.10727,-0.0975 -0.10727,-0.24768 0,-0.0897 0.041,-0.16188 0.041,-0.0741 0.10532,-0.11702 0.0663,-0.0448 0.14822,-0.0682 0.0585,-0.0156 0.18137,-0.0312 0.24769,-0.0293 0.36471,-0.0702 0.002,-0.0429 0.002,-0.0527 0,-0.12482 -0.0585,-0.17747 -0.078,-0.0683 -0.23404,-0.0683 -0.14432,0 -0.21258,0.0507 -0.0683,0.0507 -0.10141,0.17748 l -0.20088,-0.0273 q 0.0273,-0.12677 0.0897,-0.20479 0.0624,-0.08 0.18138,-0.12286 0.11896,-0.0429 0.27304,-0.0429 0.15602,0 0.25159,0.0371 0.0975,0.0351 0.14237,0.0917 0.0468,0.0546 0.0644,0.13847 0.01,0.0527 0.01,0.18918 v 0.27304 q 0,0.28474 0.0137,0.3608 0.0136,0.0741 0.0507,0.14432 h -0.21258 q -0.0331,-0.0644 -0.041,-0.14822 z m -0.0175,-0.45832 q -0.11117,0.0468 -0.3335,0.078 -0.12677,0.0176 -0.17943,0.041 -0.0526,0.0234 -0.0819,0.0663 -0.0273,0.0429 -0.0273,0.0975 0,0.0819 0.0624,0.13652 0.0624,0.0546 0.18137,0.0546 0.11702,0 0.20868,-0.0507 0.0936,-0.0527 0.13652,-0.14237 0.0332,-0.0702 0.0332,-0.20479 z m 0.97134,0.42322 0.0292,0.18137 q -0.0858,0.0176 -0.15407,0.0176 -0.11117,0 -0.17358,-0.0351 -0.0605,-0.0351 -0.0858,-0.0917 -0.0254,-0.0585 -0.0254,-0.24184 v -0.69625 h -0.15017 v -0.15798 h 0.15017 v -0.29839 l 0.20283,-0.12287 v 0.42126 h 0.20674 v 0.15798 h -0.20674 v 0.70795 q 0,0.0858 0.01,0.11117 0.0117,0.0254 0.0351,0.041 0.0253,0.0136 0.0722,0.0136 0.0331,0 0.0897,-0.008 z m 1.02727,-0.20478 0.21063,0.0254 q -0.0507,0.18528 -0.18527,0.28864 -0.13457,0.10142 -0.3452,0.10142 -0.26524,0 -0.42127,-0.16188 -0.15407,-0.16382 -0.15407,-0.45831 0,-0.3062 0.15602,-0.47392 0.15798,-0.16773 0.40761,-0.16773 0.24184,0 0.39396,0.16577 0.15408,0.16383 0.15408,0.46222 0,0.0195 0,0.0546 h -0.90104 q 0.0117,0.19893 0.11312,0.3062 0.10141,0.10531 0.25159,0.10531 0.11311,0 0.19307,-0.0585 0.08,-0.0605 0.12677,-0.18917 z m -0.67285,-0.33155 h 0.6748 q -0.0136,-0.15213 -0.078,-0.22819 -0.0975,-0.11896 -0.25354,-0.11896 -0.14042,0 -0.23793,0.0956 -0.0956,0.0936 -0.10532,0.25159 z m 1.10201,0.81912 0.19893,0.0292 q 0.0136,0.0936 0.0702,0.13457 0.0761,0.0566 0.20868,0.0566 0.14237,0 0.21843,-0.0566 0.078,-0.0566 0.10532,-0.15797 0.0156,-0.0624 0.0136,-0.26329 -0.13262,0.15797 -0.3335,0.15797 -0.24964,0 -0.38616,-0.17942 -0.13652,-0.17943 -0.13652,-0.43102 0,-0.17357 0.0624,-0.31984 0.0644,-0.14628 0.18138,-0.22429 0.11897,-0.08 0.28084,-0.08 0.21258,0 0.35105,0.17163 v -0.14433 h 0.18918 v 1.04341 q 0,0.28279 -0.0585,0.39981 -0.0566,0.11702 -0.18138,0.18528 -0.12286,0.0683 -0.30619,0.0683 -0.21453,0 -0.3491,-0.0975 -0.13262,-0.0956 -0.12872,-0.29254 z m 0.16967,-0.72551 q 0,0.23794 0.0936,0.34715 0.0956,0.10922 0.23793,0.10922 0.14042,0 0.23599,-0.10727 0.0956,-0.10921 0.0956,-0.3413 0,-0.22233 -0.0995,-0.3335 -0.0975,-0.11311 -0.23599,-0.11311 -0.13652,0 -0.23208,0.11116 -0.0956,0.10922 -0.0956,0.32765 z m 1.15466,1.09021 -0.0234,-0.19113 q 0.0683,0.0176 0.11702,0.0176 0.0683,0 0.10921,-0.0234 0.041,-0.0215 0.0683,-0.0624 0.0195,-0.0312 0.0624,-0.15212 0.006,-0.0175 0.0176,-0.0507 l -0.45832,-1.20918 h 0.22038 l 0.25159,0.69821 q 0.0487,0.13457 0.0878,0.28084 0.0351,-0.14042 0.0839,-0.27499 l 0.25939,-0.70406 h 0.20478 l -0.46027,1.22674 q -0.0741,0.20088 -0.11506,0.27499 -0.0546,0.10141 -0.12482,0.14822 -0.0702,0.0468 -0.16773,0.0468 -0.0605,0 -0.13262,-0.0254 z"
       id="path29470"
       inkscape:connector-curvature="0"
       style="fill:#ff9900;fill-rule:nonzero;stroke-width:0.12481859" />
    <path
       d="m 522.35146,296.26682 v 0 c 0,0.63073 -0.0852,1.14204 -0.19033,1.14204 h -40.35148 c -0.10511,0 -0.19033,0.51131 -0.19033,1.14204 v 0 c 0,-0.63073 -0.0852,-1.14204 -0.19033,-1.14204 h -40.35147 c -0.10512,0 -0.19034,-0.51131 -0.19034,-1.14204 z"
       id="path29472"
       inkscape:connector-curvature="0"
       style="fill:#000000;fill-opacity:0;fill-rule:evenodd;stroke-width:0.12481859" />
    <path
       d="m 522.35146,296.26682 v 0 c 0,0.63073 -0.0852,1.14204 -0.19033,1.14204 h -40.35148 c -0.10511,0 -0.19033,0.51131 -0.19033,1.14204 v 0 c 0,-0.63073 -0.0852,-1.14204 -0.19033,-1.14204 h -40.35147 c -0.10512,0 -0.19034,-0.51131 -0.19034,-1.14204"
       id="path29474"
       inkscape:connector-curvature="0"
       style="fill:#000000;fill-opacity:0;fill-rule:evenodd;stroke-width:0.12481859" />
    <path
       d="m 522.35146,296.26682 v 0 c 0,0.63073 -0.0852,1.14204 -0.19033,1.14204 h -40.35148 c -0.10511,0 -0.19033,0.51131 -0.19033,1.14204 v 0 c 0,-0.63073 -0.0852,-1.14204 -0.19033,-1.14204 h -40.35147 c -0.10512,0 -0.19034,-0.51131 -0.19034,-1.14204"
       id="path29476"
       inkscape:connector-curvature="0"
       style="fill-rule:evenodd;stroke:#ff0000;stroke-width:0.37445578;stroke-linecap:butt;stroke-linejoin:round" />
    <path
       d="m 470.2633,471.93964 h 71.21259 v 41.44879 H 470.2633 Z"
       id="path29478"
       inkscape:connector-curvature="0"
       style="fill:#000000;fill-opacity:0;fill-rule:evenodd" />
    <path
       d="m 478.89184,300.76177 -0.46027,-1.20723 h 0.21648 l 0.25939,0.72355 q 0.041,0.11702 0.078,0.24184 0.0254,-0.0956 0.0761,-0.22818 l 0.2672,-0.73721 h 0.21063 l -0.45637,1.20723 z m 0.82887,-1.43152 v -0.23598 h 0.20478 v 0.23598 z m 0,1.43152 v -1.20723 h 0.20478 v 1.20723 z m 0.43544,-0.36081 0.20283,-0.0312 q 0.0156,0.12092 0.0936,0.18722 0.078,0.0644 0.21844,0.0644 0.14042,0 0.20868,-0.0566 0.0683,-0.0585 0.0683,-0.13652 0,-0.0683 -0.0605,-0.10922 -0.041,-0.0273 -0.20868,-0.0683 -0.22624,-0.0585 -0.314,-0.0995 -0.0858,-0.041 -0.13067,-0.11311 -0.0448,-0.0741 -0.0448,-0.16383 0,-0.08 0.0371,-0.14822 0.0371,-0.0702 0.10142,-0.11507 0.0468,-0.0351 0.12871,-0.0585 0.0839,-0.0254 0.17748,-0.0254 0.14237,0 0.24964,0.041 0.10726,0.041 0.15797,0.11116 0.0527,0.0702 0.0722,0.18723 l -0.20088,0.0273 q -0.0137,-0.0936 -0.08,-0.14628 -0.0644,-0.0527 -0.18333,-0.0527 -0.14237,0 -0.20283,0.0468 -0.0585,0.0468 -0.0585,0.10922 0,0.039 0.0234,0.0722 0.0254,0.0332 0.08,0.0546 0.0293,0.0117 0.17943,0.0527 0.21843,0.0566 0.30424,0.0936 0.0858,0.0371 0.13457,0.10727 0.0488,0.0702 0.0488,0.17552 0,0.10337 -0.0605,0.19308 -0.0585,0.0897 -0.17162,0.14042 -0.11312,0.0488 -0.25549,0.0488 -0.23404,0 -0.35886,-0.0975 -0.12286,-0.0975 -0.15602,-0.2906 z m 1.24624,-1.07071 v -0.23598 h 0.20478 v 0.23598 z m 0,1.43152 v -1.20723 h 0.20478 v 1.20723 z m 0.44129,-0.60459 q 0,-0.33545 0.18527,-0.49538 0.15603,-0.13457 0.38031,-0.13457 0.24964,0 0.40761,0.16383 0.15797,0.16187 0.15797,0.45051 0,0.23209 -0.0702,0.36666 -0.0702,0.13262 -0.20478,0.20673 -0.13262,0.0741 -0.29059,0.0741 -0.25354,0 -0.40956,-0.16187 -0.15602,-0.16383 -0.15602,-0.47002 z m 0.21063,0 q 0,0.23208 0.0995,0.3491 0.10142,0.11507 0.25549,0.11507 0.15212,0 0.25354,-0.11507 0.10141,-0.11702 0.10141,-0.35496 0,-0.22428 -0.10141,-0.33935 -0.10142,-0.11506 -0.25354,-0.11506 -0.15407,0 -0.25549,0.11506 -0.0995,0.11312 -0.0995,0.34521 z m 1.16051,0.60459 v -1.20723 h 0.18333 v 0.17162 q 0.13262,-0.19893 0.3842,-0.19893 0.10922,0 0.20088,0.039 0.0917,0.039 0.13652,0.10336 0.0468,0.0624 0.0644,0.15018 0.0117,0.0566 0.0117,0.19892 v 0.74307 h -0.20478 v -0.73526 q 0,-0.12482 -0.0254,-0.18528 -0.0234,-0.0624 -0.0839,-0.0995 -0.0605,-0.0371 -0.14237,-0.0371 -0.13067,0 -0.22623,0.0839 -0.0936,0.0819 -0.0936,0.314 v 0.6592 z"
       id="path29480"
       inkscape:connector-curvature="0"
       style="fill:#ff0000;fill-rule:nonzero;stroke-width:0.12481859" />
  </g>
</svg>
