<?xml version="1.0" encoding="UTF-8" standalone="no"?>
<svg
   xmlns:dc="http://purl.org/dc/elements/1.1/"
   xmlns:cc="http://creativecommons.org/ns#"
   xmlns:rdf="http://www.w3.org/1999/02/22-rdf-syntax-ns#"
   xmlns:svg="http://www.w3.org/2000/svg"
   xmlns="http://www.w3.org/2000/svg"
   xmlns:sodipodi="http://sodipodi.sourceforge.net/DTD/sodipodi-0.dtd"
   xmlns:inkscape="http://www.inkscape.org/namespaces/inkscape"
   version="1.1"
   viewBox="0 0 99.999993 29.507331"
   stroke-miterlimit="10"
   id="svg30110"
   sodipodi:docname="okr-organization-impact.svg"
   width="99.999992"
   height="29.507332"
   style="fill:none;stroke:none;stroke-linecap:square;stroke-miterlimit:10"
   inkscape:version="0.92.3 (2405546, 2018-03-11)">
  <metadata
     id="metadata30116">
    <rdf:RDF>
      <cc:Work
         rdf:about="">
        <dc:format>image/svg+xml</dc:format>
        <dc:type
           rdf:resource="http://purl.org/dc/dcmitype/StillImage" />
        <dc:title></dc:title>
      </cc:Work>
    </rdf:RDF>
  </metadata>
  <defs
     id="defs30114" />
  <sodipodi:namedview
     pagecolor="#ffffff"
     bordercolor="#666666"
     borderopacity="1"
     objecttolerance="10"
     gridtolerance="10"
     guidetolerance="10"
     inkscape:pageopacity="0"
     inkscape:pageshadow="2"
     inkscape:window-width="1920"
     inkscape:window-height="1172"
     id="namedview30112"
     showgrid="false"
     fit-margin-top="0"
     fit-margin-left="0"
     fit-margin-right="0"
     fit-margin-bottom="0"
     inkscape:zoom="11.4"
     inkscape:cx="54.860966"
     inkscape:cy="21.242463"
     inkscape:window-x="1680"
     inkscape:window-y="0"
     inkscape:window-maximized="1"
     inkscape:current-layer="g30108" />
  <clipPath
     id="g618e30b810_0_97.0">
    <path
       d="M 0,0 H 960 V 540 H 0 Z"
       id="path30035"
       inkscape:connector-curvature="0"
       style="clip-rule:nonzero" />
  </clipPath>
  <g
     clip-path="url(#g618e30b810_0_97.0)"
     id="g30108"
     transform="translate(-434,-251.20137)">
    <path
       d="M 0,0 H 960 V 540 H 0 Z"
       id="path30038"
       inkscape:connector-curvature="0"
       style="fill:#ffffff;fill-rule:evenodd" />
    <path
       d="m 465.87629,251.40732 h 36.51986 v 5.69095 h -36.51986 z"
       id="path30040"
       inkscape:connector-curvature="0"
       style="fill:#000000;fill-opacity:0;fill-rule:evenodd;stroke-width:0.13730083" />
    <path
       d="m 467.19781,254.4384 q 0,-0.36899 0.20381,-0.54491 0.17162,-0.14803 0.41833,-0.14803 0.27461,0 0.44838,0.18021 0.17377,0.17806 0.17377,0.49557 0,0.25529 -0.0772,0.40332 -0.0772,0.14588 -0.22526,0.22741 -0.14588,0.0815 -0.31966,0.0815 -0.27889,0 -0.45051,-0.17806 -0.17163,-0.18021 -0.17163,-0.51703 z m 0.2317,0 q 0,0.2553 0.10941,0.38402 0.11155,0.12657 0.28103,0.12657 0.16734,0 0.2789,-0.12657 0.11155,-0.12872 0.11155,-0.39045 0,-0.24671 -0.11155,-0.37329 -0.11156,-0.12657 -0.2789,-0.12657 -0.16948,0 -0.28103,0.12657 -0.10941,0.12443 -0.10941,0.37972 z m 1.27442,0.66505 v -1.32795 h 0.20166 v 0.20166 q 0.0772,-0.14159 0.14159,-0.18664 0.0665,-0.0451 0.14588,-0.0451 0.11371,0 0.2317,0.0729 l -0.0772,0.2081 q -0.0837,-0.0493 -0.16519,-0.0493 -0.0751,0 -0.13301,0.0451 -0.0579,0.0451 -0.0837,0.12228 -0.0386,0.12014 -0.0386,0.26388 v 0.69508 z m 0.81224,0.10942 0.21882,0.0322 q 0.015,0.10297 0.0772,0.14802 0.0837,0.0622 0.22955,0.0622 0.15661,0 0.24028,-0.0622 0.0858,-0.0622 0.11585,-0.17377 0.0172,-0.0686 0.015,-0.28962 -0.14589,0.17377 -0.36685,0.17377 -0.27461,0 -0.42478,-0.19737 -0.15017,-0.19737 -0.15017,-0.47411 0,-0.19094 0.0686,-0.35184 0.0708,-0.1609 0.19951,-0.24671 0.13087,-0.088 0.30893,-0.088 0.23384,0 0.38616,0.18879 v -0.15875 h 0.2081 v 1.14775 q 0,0.31107 -0.0644,0.43979 -0.0622,0.12872 -0.19952,0.2038 -0.13515,0.0751 -0.33682,0.0751 -0.23598,0 -0.38401,-0.10727 -0.14588,-0.10512 -0.14159,-0.32179 z m 0.18664,-0.79807 q 0,0.26173 0.10298,0.38187 0.10512,0.12014 0.26173,0.12014 0.15446,0 0.25958,-0.11799 0.10512,-0.12014 0.10512,-0.37543 0,-0.24457 -0.10941,-0.36685 -0.10726,-0.12443 -0.25958,-0.12443 -0.15017,0 -0.2553,0.12228 -0.10512,0.12014 -0.10512,0.36041 z m 2.14758,0.52561 q -0.12658,0.10512 -0.24243,0.15017 -0.1137,0.0429 -0.24671,0.0429 -0.21882,0 -0.33682,-0.10727 -0.11799,-0.10726 -0.11799,-0.27245 0,-0.0987 0.0451,-0.17807 0.0451,-0.0815 0.11585,-0.12872 0.0729,-0.0493 0.16305,-0.0751 0.0644,-0.0172 0.19951,-0.0343 0.27246,-0.0322 0.40118,-0.0772 0.002,-0.0472 0.002,-0.0579 0,-0.1373 -0.0644,-0.19523 -0.0858,-0.0751 -0.25744,-0.0751 -0.15875,0 -0.23384,0.0558 -0.0751,0.0558 -0.11156,0.19522 l -0.22097,-0.03 q 0.03,-0.13944 0.0987,-0.22525 0.0686,-0.088 0.19951,-0.13516 0.13087,-0.0472 0.30035,-0.0472 0.17162,0 0.27675,0.0408 0.10726,0.0386 0.1566,0.10083 0.0515,0.0601 0.0708,0.15232 0.0107,0.0579 0.0107,0.2081 v 0.30034 q 0,0.31322 0.015,0.39689 0.015,0.0815 0.0558,0.15875 h -0.23384 q -0.0365,-0.0708 -0.0451,-0.16304 z m -0.0193,-0.50415 q -0.12229,0.0515 -0.36685,0.0858 -0.13945,0.0193 -0.19737,0.045 -0.0579,0.0258 -0.0901,0.0729 -0.03,0.0472 -0.03,0.10727 0,0.0901 0.0686,0.15017 0.0686,0.0601 0.19951,0.0601 0.12872,0 0.22955,-0.0558 0.10298,-0.0579 0.15018,-0.15661 0.0365,-0.0772 0.0365,-0.22525 z m 0.57719,0.66719 v -1.32795 h 0.20166 v 0.18879 q 0.14588,-0.21883 0.42263,-0.21883 0.12014,0 0.22097,0.0429 0.10083,0.0429 0.15017,0.1137 0.0515,0.0686 0.0708,0.16519 0.0129,0.0622 0.0129,0.21882 v 0.81737 h -0.22526 v -0.80878 q 0,-0.1373 -0.0279,-0.20381 -0.0257,-0.0686 -0.0923,-0.10941 -0.0665,-0.0408 -0.1566,-0.0408 -0.14374,0 -0.24886,0.0923 -0.10298,0.0901 -0.10298,0.34539 v 0.72512 z m 1.42459,-1.57466 v -0.25959 h 0.22526 v 0.25959 z m 0,1.57466 v -1.32795 h 0.22526 v 1.32795 z m 0.44895,0 v -0.18235 l 0.84526,-0.97183 q -0.14374,0.009 -0.25315,0.009 h -0.54062 v -0.18235 h 1.08553 v 0.14803 l -0.72083,0.84311 -0.1373,0.15446 q 0.15017,-0.0107 0.28319,-0.0107 h 0.61356 v 0.19307 z m 2.26761,-0.16304 q -0.12658,0.10512 -0.24242,0.15017 -0.11371,0.0429 -0.24672,0.0429 -0.21882,0 -0.33681,-0.10727 -0.11799,-0.10726 -0.11799,-0.27245 0,-0.0987 0.0451,-0.17807 0.0451,-0.0815 0.11585,-0.12872 0.0729,-0.0493 0.16304,-0.0751 0.0644,-0.0172 0.19951,-0.0343 0.27246,-0.0322 0.40118,-0.0772 0.002,-0.0472 0.002,-0.0579 0,-0.1373 -0.0644,-0.19523 -0.0858,-0.0751 -0.25744,-0.0751 -0.15875,0 -0.23384,0.0558 -0.0751,0.0558 -0.11155,0.19522 l -0.22097,-0.03 q 0.03,-0.13944 0.0987,-0.22525 0.0686,-0.088 0.19952,-0.13516 0.13086,-0.0472 0.30034,-0.0472 0.17163,0 0.27675,0.0408 0.10727,0.0386 0.15661,0.10083 0.0515,0.0601 0.0708,0.15232 0.0107,0.0579 0.0107,0.2081 v 0.30034 q 0,0.31322 0.015,0.39689 0.015,0.0815 0.0558,0.15875 h -0.23384 q -0.0365,-0.0708 -0.0451,-0.16304 z m -0.0193,-0.50415 q -0.12228,0.0515 -0.36685,0.0858 -0.13945,0.0193 -0.19737,0.045 -0.0579,0.0258 -0.0901,0.0729 -0.03,0.0472 -0.03,0.10727 0,0.0901 0.0686,0.15017 0.0686,0.0601 0.19952,0.0601 0.12872,0 0.22955,-0.0558 0.10297,-0.0579 0.15017,-0.15661 0.0365,-0.0772 0.0365,-0.22525 z m 1.06847,0.46553 0.0322,0.19952 q -0.0944,0.0193 -0.16948,0.0193 -0.12228,0 -0.19093,-0.0386 -0.0665,-0.0386 -0.0944,-0.10083 -0.0279,-0.0644 -0.0279,-0.26602 v -0.76588 h -0.1652 v -0.17377 h 0.1652 v -0.32824 l 0.22311,-0.13515 v 0.46339 h 0.2274 v 0.17377 h -0.2274 v 0.77875 q 0,0.0944 0.0107,0.12229 0.0129,0.0279 0.0386,0.0451 0.0279,0.015 0.0794,0.015 0.0365,0 0.0987,-0.009 z m 0.22039,-1.373 v -0.25959 h 0.22526 v 0.25959 z m 0,1.57466 v -1.32795 h 0.22526 v 1.32795 z m 0.48542,-0.66505 q 0,-0.36899 0.20381,-0.54491 0.17163,-0.14803 0.41834,-0.14803 0.2746,0 0.44837,0.18021 0.17377,0.17806 0.17377,0.49557 0,0.25529 -0.0772,0.40332 -0.0772,0.14588 -0.22526,0.22741 -0.14588,0.0815 -0.31965,0.0815 -0.27889,0 -0.45052,-0.17806 -0.17163,-0.18021 -0.17163,-0.51703 z m 0.2317,0 q 0,0.2553 0.10941,0.38402 0.11156,0.12657 0.28104,0.12657 0.16733,0 0.27889,-0.12657 0.11156,-0.12872 0.11156,-0.39045 0,-0.24671 -0.11156,-0.37329 -0.11156,-0.12657 -0.27889,-0.12657 -0.16948,0 -0.28104,0.12657 -0.10941,0.12443 -0.10941,0.37972 z m 1.27657,0.66505 v -1.32795 h 0.20166 v 0.18879 q 0.14588,-0.21883 0.42263,-0.21883 0.12014,0 0.22097,0.0429 0.10083,0.0429 0.15017,0.1137 0.0515,0.0686 0.0708,0.16519 0.0129,0.0622 0.0129,0.21882 v 0.81737 h -0.22526 v -0.80878 q 0,-0.1373 -0.0279,-0.20381 -0.0257,-0.0686 -0.0922,-0.10941 -0.0665,-0.0408 -0.1566,-0.0408 -0.14374,0 -0.24886,0.0923 -0.10298,0.0901 -0.10298,0.34539 v 0.72512 z m 2.13627,0 v -1.32795 h 0.20166 v 0.18664 q 0.0622,-0.0987 0.16519,-0.15661 0.10512,-0.0601 0.23598,-0.0601 0.14803,0 0.24242,0.0622 0.0944,0.0601 0.13301,0.16948 0.15876,-0.2317 0.40976,-0.2317 0.19952,0 0.30464,0.10942 0.10726,0.10941 0.10726,0.33681 v 0.91176 h -0.22526 v -0.83667 q 0,-0.13516 -0.0215,-0.19308 -0.0215,-0.0601 -0.0794,-0.0965 -0.0579,-0.0365 -0.13516,-0.0365 -0.13945,0 -0.2317,0.0944 -0.0922,0.0923 -0.0922,0.29606 v 0.77231 h -0.22526 V 254.241 q 0,-0.15017 -0.0558,-0.22526 -0.0558,-0.0751 -0.18021,-0.0751 -0.0944,0 -0.17592,0.0493 -0.0815,0.0493 -0.11799,0.14588 -0.0343,0.0965 -0.0343,0.27889 v 0.68865 z m 2.13376,-1.57466 v -0.25959 h 0.22526 v 0.25959 z m 0,1.57466 v -1.32795 h 0.22526 v 1.32795 z m 0.47898,-0.39688 0.22312,-0.0343 q 0.0172,0.13301 0.10297,0.20595 0.0858,0.0708 0.24028,0.0708 0.15446,0 0.22955,-0.0622 0.0751,-0.0644 0.0751,-0.15018 0,-0.0751 -0.0665,-0.12014 -0.0451,-0.03 -0.22955,-0.0751 -0.24886,-0.0644 -0.3454,-0.10941 -0.0944,-0.0451 -0.14373,-0.12443 -0.0494,-0.0815 -0.0494,-0.18021 0,-0.088 0.0408,-0.16304 0.0408,-0.0772 0.11156,-0.12658 0.0515,-0.0386 0.14159,-0.0644 0.0923,-0.0279 0.19523,-0.0279 0.15661,0 0.2746,0.0451 0.11799,0.0451 0.17377,0.12228 0.0579,0.0772 0.0794,0.20595 l -0.22097,0.03 q -0.015,-0.10297 -0.088,-0.16089 -0.0708,-0.0579 -0.20166,-0.0579 -0.15661,0 -0.22311,0.0515 -0.0644,0.0515 -0.0644,0.12014 0,0.0429 0.0257,0.0794 0.0279,0.0365 0.088,0.0601 0.0322,0.0129 0.19737,0.0579 0.24028,0.0622 0.33467,0.10297 0.0944,0.0408 0.14803,0.118 0.0536,0.0772 0.0536,0.19308 0,0.1137 -0.0665,0.21238 -0.0644,0.0987 -0.18878,0.15447 -0.12443,0.0536 -0.28104,0.0536 -0.25744,0 -0.39474,-0.10727 -0.13516,-0.10726 -0.17163,-0.31965 z m 1.28076,0 0.22312,-0.0343 q 0.0172,0.13301 0.10297,0.20595 0.0858,0.0708 0.24028,0.0708 0.15446,0 0.22955,-0.0622 0.0751,-0.0644 0.0751,-0.15018 0,-0.0751 -0.0665,-0.12014 -0.0451,-0.03 -0.22955,-0.0751 -0.24886,-0.0644 -0.3454,-0.10941 -0.0944,-0.0451 -0.14374,-0.12443 -0.0493,-0.0815 -0.0493,-0.18021 0,-0.088 0.0408,-0.16304 0.0408,-0.0772 0.11156,-0.12658 0.0515,-0.0386 0.14159,-0.0644 0.0922,-0.0279 0.19523,-0.0279 0.15661,0 0.2746,0.0451 0.11799,0.0451 0.17377,0.12228 0.0579,0.0772 0.0794,0.20595 l -0.22097,0.03 q -0.015,-0.10297 -0.088,-0.16089 -0.0708,-0.0579 -0.20166,-0.0579 -0.15661,0 -0.22311,0.0515 -0.0644,0.0515 -0.0644,0.12014 0,0.0429 0.0257,0.0794 0.0279,0.0365 0.088,0.0601 0.0322,0.0129 0.19737,0.0579 0.24027,0.0622 0.33467,0.10297 0.0944,0.0408 0.14803,0.118 0.0536,0.0772 0.0536,0.19308 0,0.1137 -0.0665,0.21238 -0.0644,0.0987 -0.18878,0.15447 -0.12443,0.0536 -0.28104,0.0536 -0.25744,0 -0.39474,-0.10727 -0.13516,-0.10726 -0.17163,-0.31965 z m 1.37087,-1.17778 v -0.25959 h 0.22525 v 0.25959 z m 0,1.57466 v -1.32795 h 0.22525 v 1.32795 z m 0.48542,-0.66505 q 0,-0.36899 0.2038,-0.54491 0.17163,-0.14803 0.41834,-0.14803 0.2746,0 0.44838,0.18021 0.17377,0.17806 0.17377,0.49557 0,0.25529 -0.0772,0.40332 -0.0772,0.14588 -0.22525,0.22741 -0.14589,0.0815 -0.31966,0.0815 -0.27889,0 -0.45052,-0.17806 -0.17162,-0.18021 -0.17162,-0.51703 z m 0.23169,0 q 0,0.2553 0.10941,0.38402 0.11156,0.12657 0.28104,0.12657 0.16734,0 0.27889,-0.12657 0.11156,-0.12872 0.11156,-0.39045 0,-0.24671 -0.11156,-0.37329 -0.11155,-0.12657 -0.27889,-0.12657 -0.16948,0 -0.28104,0.12657 -0.10941,0.12443 -0.10941,0.37972 z m 1.27656,0.66505 v -1.32795 h 0.20166 v 0.18879 q 0.14589,-0.21883 0.42263,-0.21883 0.12014,0 0.22097,0.0429 0.10083,0.0429 0.15017,0.1137 0.0515,0.0686 0.0708,0.16519 0.0129,0.0622 0.0129,0.21882 v 0.81737 h -0.22525 v -0.80878 q 0,-0.1373 -0.0279,-0.20381 -0.0258,-0.0686 -0.0922,-0.10941 -0.0665,-0.0408 -0.15661,-0.0408 -0.14374,0 -0.24886,0.0923 -0.10297,0.0901 -0.10297,0.34539 v 0.72512 z m 3.1832,-0.21667 q -0.11156,0.12442 -0.24243,0.18664 -0.13086,0.0622 -0.28318,0.0622 -0.28104,0 -0.44623,-0.19093 -0.13515,-0.15446 -0.13515,-0.34754 0,-0.16948 0.10941,-0.30678 0.10941,-0.13731 0.32824,-0.24028 -0.12443,-0.14159 -0.1652,-0.22955 -0.0408,-0.0901 -0.0408,-0.17377 0,-0.16519 0.12872,-0.28533 0.12872,-0.12228 0.32609,-0.12228 0.18665,0 0.30678,0.11584 0.12014,0.11371 0.12014,0.27461 0,0.26172 -0.34754,0.44622 l 0.32823,0.42049 q 0.0579,-0.11156 0.088,-0.2553 l 0.23384,0.0494 q -0.0601,0.24027 -0.16304,0.39474 0.12657,0.16733 0.28747,0.28103 l -0.15232,0.18021 q -0.13515,-0.088 -0.28103,-0.25958 z m -0.45696,-0.95467 q 0.14588,-0.088 0.18879,-0.15232 0.0429,-0.0644 0.0429,-0.14374 0,-0.0944 -0.0601,-0.15232 -0.0579,-0.0601 -0.14588,-0.0601 -0.0922,0 -0.15447,0.0601 -0.0601,0.0579 -0.0601,0.14159 0,0.0429 0.0215,0.0901 0.0236,0.0472 0.0665,0.10083 z m 0.31537,0.7766 -0.41191,-0.51058 q -0.18235,0.10941 -0.24671,0.20166 -0.0644,0.0923 -0.0644,0.1845 0,0.11155 0.088,0.23169 0.0901,0.12014 0.25315,0.12014 0.10083,0 0.20809,-0.0622 0.10942,-0.0644 0.17378,-0.16519 z m 1.88384,0.39474 -0.50629,-1.32795 h 0.23813 l 0.28533,0.79591 q 0.0451,0.12872 0.0858,0.26602 0.0279,-0.10512 0.0837,-0.251 l 0.29391,-0.81093 h 0.23169 l -0.50201,1.32795 z m 0.91177,-1.57466 v -0.25959 h 0.22526 v 0.25959 z m 0,1.57466 v -1.32795 h 0.22526 v 1.32795 z m 0.47898,-0.39688 0.22312,-0.0343 q 0.0172,0.13301 0.10297,0.20595 0.0858,0.0708 0.24028,0.0708 0.15446,0 0.22955,-0.0622 0.0751,-0.0644 0.0751,-0.15018 0,-0.0751 -0.0665,-0.12014 -0.0451,-0.03 -0.22955,-0.0751 -0.24886,-0.0644 -0.3454,-0.10941 -0.0944,-0.0451 -0.14374,-0.12443 -0.0493,-0.0815 -0.0493,-0.18021 0,-0.088 0.0408,-0.16304 0.0408,-0.0772 0.11156,-0.12658 0.0515,-0.0386 0.14159,-0.0644 0.0923,-0.0279 0.19523,-0.0279 0.15661,0 0.2746,0.0451 0.11799,0.0451 0.17377,0.12228 0.0579,0.0772 0.0794,0.20595 l -0.22097,0.03 q -0.015,-0.10297 -0.088,-0.16089 -0.0708,-0.0579 -0.20166,-0.0579 -0.15661,0 -0.22311,0.0515 -0.0644,0.0515 -0.0644,0.12014 0,0.0429 0.0257,0.0794 0.0279,0.0365 0.088,0.0601 0.0322,0.0129 0.19737,0.0579 0.24027,0.0622 0.33467,0.10297 0.0944,0.0408 0.14803,0.118 0.0536,0.0772 0.0536,0.19308 0,0.1137 -0.0665,0.21238 -0.0644,0.0987 -0.18878,0.15447 -0.12443,0.0536 -0.28104,0.0536 -0.25744,0 -0.39474,-0.10727 -0.13516,-0.10726 -0.17163,-0.31965 z m 1.37087,-1.17778 v -0.25959 h 0.22525 v 0.25959 z m 0,1.57466 v -1.32795 h 0.22525 v 1.32795 z m 0.48542,-0.66505 q 0,-0.36899 0.2038,-0.54491 0.17163,-0.14803 0.41834,-0.14803 0.2746,0 0.44837,0.18021 0.17378,0.17806 0.17378,0.49557 0,0.25529 -0.0772,0.40332 -0.0772,0.14588 -0.22526,0.22741 -0.14588,0.0815 -0.31965,0.0815 -0.27889,0 -0.45052,-0.17806 -0.17162,-0.18021 -0.17162,-0.51703 z m 0.23169,0 q 0,0.2553 0.10941,0.38402 0.11156,0.12657 0.28104,0.12657 0.16734,0 0.27889,-0.12657 0.11156,-0.12872 0.11156,-0.39045 0,-0.24671 -0.11156,-0.37329 -0.11155,-0.12657 -0.27889,-0.12657 -0.16948,0 -0.28104,0.12657 -0.10941,0.12443 -0.10941,0.37972 z m 1.27657,0.66505 v -1.32795 h 0.20166 v 0.18879 q 0.14588,-0.21883 0.42263,-0.21883 0.12014,0 0.22097,0.0429 0.10083,0.0429 0.15017,0.1137 0.0515,0.0686 0.0708,0.16519 0.0129,0.0622 0.0129,0.21882 v 0.81737 h -0.22526 v -0.80878 q 0,-0.1373 -0.0279,-0.20381 -0.0257,-0.0686 -0.0922,-0.10941 -0.0665,-0.0408 -0.1566,-0.0408 -0.14374,0 -0.24886,0.0923 -0.10298,0.0901 -0.10298,0.34539 v 0.72512 z"
       id="path30042"
       inkscape:connector-curvature="0"
       style="fill:#ff0000;fill-rule:nonzero;stroke-width:0.13730083" />
    <path
       d="m 469.17151,259.09616 h 29.92942 v 5.69096 h -29.92942 z"
       id="path30044"
       inkscape:connector-curvature="0"
       style="fill:#000000;fill-opacity:0;fill-rule:evenodd;stroke-width:0.13730083" />
    <path
       d="m 470.49303,262.12725 q 0,-0.369 0.20381,-0.54491 0.17162,-0.14803 0.41833,-0.14803 0.27461,0 0.44838,0.18021 0.17377,0.17806 0.17377,0.49557 0,0.25529 -0.0772,0.40332 -0.0772,0.14588 -0.22526,0.2274 -0.14588,0.0815 -0.31966,0.0815 -0.27889,0 -0.45051,-0.17807 -0.17163,-0.1802 -0.17163,-0.51702 z m 0.2317,0 q 0,0.25529 0.10941,0.38401 0.11155,0.12658 0.28103,0.12658 0.16734,0 0.2789,-0.12658 0.11155,-0.12872 0.11155,-0.39045 0,-0.24671 -0.11155,-0.37328 -0.11156,-0.12658 -0.2789,-0.12658 -0.16948,0 -0.28103,0.12658 -0.10941,0.12443 -0.10941,0.37972 z m 1.27442,0.66505 v -1.32796 h 0.20166 v 0.20166 q 0.0772,-0.14159 0.14159,-0.18664 0.0665,-0.0451 0.14588,-0.0451 0.11371,0 0.2317,0.0729 l -0.0772,0.2081 q -0.0837,-0.0494 -0.16519,-0.0494 -0.0751,0 -0.13301,0.0451 -0.0579,0.0451 -0.0837,0.12228 -0.0386,0.12014 -0.0386,0.26388 v 0.69508 z m 0.81224,0.10941 0.21882,0.0322 q 0.015,0.10298 0.0772,0.14803 0.0837,0.0622 0.22955,0.0622 0.15661,0 0.24028,-0.0622 0.0858,-0.0622 0.11585,-0.17377 0.0172,-0.0686 0.015,-0.28962 -0.14589,0.17377 -0.36685,0.17377 -0.27461,0 -0.42478,-0.19737 -0.15017,-0.19737 -0.15017,-0.47412 0,-0.19093 0.0686,-0.35183 0.0708,-0.1609 0.19951,-0.24671 0.13087,-0.088 0.30893,-0.088 0.23384,0 0.38616,0.18879 v -0.15876 h 0.2081 v 1.14775 q 0,0.31108 -0.0644,0.43979 -0.0622,0.12872 -0.19952,0.20381 -0.13515,0.0751 -0.33682,0.0751 -0.23598,0 -0.38401,-0.10727 -0.14588,-0.10512 -0.14159,-0.3218 z m 0.18664,-0.79806 q 0,0.26173 0.10298,0.38187 0.10512,0.12014 0.26173,0.12014 0.15446,0 0.25958,-0.118 0.10512,-0.12013 0.10512,-0.37543 0,-0.24456 -0.10941,-0.36685 -0.10726,-0.12443 -0.25958,-0.12443 -0.15017,0 -0.2553,0.12229 -0.10512,0.12013 -0.10512,0.36041 z m 2.14758,0.52561 q -0.12658,0.10512 -0.24243,0.15017 -0.1137,0.0429 -0.24671,0.0429 -0.21882,0 -0.33682,-0.10727 -0.11799,-0.10727 -0.11799,-0.27246 0,-0.0987 0.0451,-0.17806 0.0451,-0.0815 0.11585,-0.12872 0.0729,-0.0493 0.16305,-0.0751 0.0644,-0.0172 0.19951,-0.0343 0.27246,-0.0322 0.40118,-0.0772 0.002,-0.0472 0.002,-0.0579 0,-0.1373 -0.0644,-0.19522 -0.0858,-0.0751 -0.25744,-0.0751 -0.15875,0 -0.23384,0.0558 -0.0751,0.0558 -0.11156,0.19523 l -0.22097,-0.03 q 0.03,-0.13944 0.0987,-0.22526 0.0686,-0.088 0.19951,-0.13515 0.13087,-0.0472 0.30035,-0.0472 0.17162,0 0.27675,0.0408 0.10726,0.0386 0.1566,0.10083 0.0515,0.0601 0.0708,0.15232 0.0107,0.0579 0.0107,0.2081 v 0.30034 q 0,0.31322 0.015,0.39689 0.015,0.0815 0.0558,0.15875 h -0.23384 q -0.0365,-0.0708 -0.0451,-0.16304 z m -0.0193,-0.50416 q -0.12229,0.0515 -0.36685,0.0858 -0.13945,0.0193 -0.19737,0.0451 -0.0579,0.0257 -0.0901,0.0729 -0.03,0.0472 -0.03,0.10727 0,0.0901 0.0686,0.15017 0.0687,0.0601 0.19951,0.0601 0.12872,0 0.22955,-0.0558 0.10298,-0.0579 0.15018,-0.15661 0.0365,-0.0772 0.0365,-0.22526 z m 0.57719,0.6672 v -1.32796 h 0.20166 v 0.18879 q 0.14588,-0.21882 0.42263,-0.21882 0.12014,0 0.22097,0.0429 0.10083,0.0429 0.15017,0.1137 0.0515,0.0686 0.0708,0.16519 0.0129,0.0622 0.0129,0.21882 v 0.81737 h -0.22526 v -0.80879 q 0,-0.1373 -0.0279,-0.2038 -0.0257,-0.0687 -0.0922,-0.10941 -0.0665,-0.0408 -0.1566,-0.0408 -0.14374,0 -0.24886,0.0923 -0.10298,0.0901 -0.10298,0.3454 v 0.72512 z m 1.42459,-1.57467 v -0.25958 h 0.22526 v 0.25958 z m 0,1.57467 v -1.32796 h 0.22526 v 1.32796 z m 0.44895,0 v -0.18235 l 0.84526,-0.97183 q -0.14374,0.009 -0.25315,0.009 h -0.54062 v -0.18236 h 1.08553 v 0.14803 l -0.72083,0.84311 -0.1373,0.15447 q 0.15018,-0.0107 0.28319,-0.0107 h 0.61356 v 0.19308 z m 2.26761,-0.16304 q -0.12658,0.10512 -0.24242,0.15017 -0.11371,0.0429 -0.24672,0.0429 -0.21882,0 -0.33681,-0.10727 -0.11799,-0.10727 -0.11799,-0.27246 0,-0.0987 0.0451,-0.17806 0.0451,-0.0815 0.11585,-0.12872 0.0729,-0.0493 0.16304,-0.0751 0.0644,-0.0172 0.19951,-0.0343 0.27246,-0.0322 0.40118,-0.0772 0.002,-0.0472 0.002,-0.0579 0,-0.1373 -0.0644,-0.19522 -0.0858,-0.0751 -0.25744,-0.0751 -0.15875,0 -0.23384,0.0558 -0.0751,0.0558 -0.11155,0.19523 l -0.22097,-0.03 q 0.03,-0.13944 0.0987,-0.22526 0.0687,-0.088 0.19952,-0.13515 0.13086,-0.0472 0.30034,-0.0472 0.17163,0 0.27675,0.0408 0.10727,0.0386 0.15661,0.10083 0.0515,0.0601 0.0708,0.15232 0.0107,0.0579 0.0107,0.2081 v 0.30034 q 0,0.31322 0.015,0.39689 0.015,0.0815 0.0558,0.15875 h -0.23384 q -0.0365,-0.0708 -0.0451,-0.16304 z m -0.0193,-0.50416 q -0.12228,0.0515 -0.36685,0.0858 -0.13945,0.0193 -0.19737,0.0451 -0.0579,0.0257 -0.0901,0.0729 -0.03,0.0472 -0.03,0.10727 0,0.0901 0.0686,0.15017 0.0687,0.0601 0.19952,0.0601 0.12872,0 0.22955,-0.0558 0.10297,-0.0579 0.15017,-0.15661 0.0365,-0.0772 0.0365,-0.22526 z m 1.06847,0.46554 0.0322,0.19952 q -0.0944,0.0193 -0.16948,0.0193 -0.12228,0 -0.19093,-0.0386 -0.0665,-0.0386 -0.0944,-0.10083 -0.0279,-0.0644 -0.0279,-0.26602 v -0.76588 h -0.1652 v -0.17378 h 0.1652 v -0.32823 l 0.22311,-0.13516 v 0.46339 h 0.2274 v 0.17378 h -0.2274 v 0.77875 q 0,0.0944 0.0107,0.12228 0.0129,0.0279 0.0386,0.0451 0.0279,0.015 0.0794,0.015 0.0365,0 0.0987,-0.009 z m 0.22039,-1.37301 v -0.25958 h 0.22526 v 0.25958 z m 0,1.57467 v -1.32796 h 0.22526 v 1.32796 z m 0.48542,-0.66505 q 0,-0.369 0.20381,-0.54491 0.17163,-0.14803 0.41834,-0.14803 0.2746,0 0.44837,0.18021 0.17377,0.17806 0.17377,0.49557 0,0.25529 -0.0772,0.40332 -0.0772,0.14588 -0.22526,0.2274 -0.14588,0.0815 -0.31965,0.0815 -0.27889,0 -0.45052,-0.17807 -0.17163,-0.1802 -0.17163,-0.51702 z m 0.2317,0 q 0,0.25529 0.10941,0.38401 0.11156,0.12658 0.28104,0.12658 0.16733,0 0.27889,-0.12658 0.11156,-0.12872 0.11156,-0.39045 0,-0.24671 -0.11156,-0.37328 -0.11156,-0.12658 -0.27889,-0.12658 -0.16948,0 -0.28104,0.12658 -0.10941,0.12443 -0.10941,0.37972 z m 1.27657,0.66505 v -1.32796 h 0.20166 v 0.18879 q 0.14588,-0.21882 0.42263,-0.21882 0.12014,0 0.22097,0.0429 0.10083,0.0429 0.15017,0.1137 0.0515,0.0686 0.0708,0.16519 0.0129,0.0622 0.0129,0.21882 v 0.81737 h -0.22526 v -0.80879 q 0,-0.1373 -0.0279,-0.2038 -0.0257,-0.0687 -0.0923,-0.10941 -0.0665,-0.0408 -0.1566,-0.0408 -0.14374,0 -0.24886,0.0923 -0.10298,0.0901 -0.10298,0.3454 v 0.72512 z m 2.0526,-0.66505 q 0,-0.369 0.2038,-0.54491 0.17163,-0.14803 0.41834,-0.14803 0.27461,0 0.44838,0.18021 0.17377,0.17806 0.17377,0.49557 0,0.25529 -0.0772,0.40332 -0.0772,0.14588 -0.22526,0.2274 -0.14589,0.0815 -0.31966,0.0815 -0.27889,0 -0.45051,-0.17807 -0.17163,-0.1802 -0.17163,-0.51702 z m 0.23169,0 q 0,0.25529 0.10942,0.38401 0.11155,0.12658 0.28103,0.12658 0.16734,0 0.2789,-0.12658 0.11155,-0.12872 0.11155,-0.39045 0,-0.24671 -0.11155,-0.37328 -0.11156,-0.12658 -0.2789,-0.12658 -0.16948,0 -0.28103,0.12658 -0.10942,0.12443 -0.10942,0.37972 z m 1.48252,0.66505 h -0.2081 v -1.83425 h 0.22526 v 0.65432 q 0.14374,-0.17806 0.36471,-0.17806 0.12228,0 0.23169,0.0493 0.10941,0.0493 0.18021,0.13945 0.0708,0.088 0.10941,0.21453 0.0408,0.12658 0.0408,0.27031 0,0.34111 -0.16948,0.52775 -0.16733,0.18665 -0.40546,0.18665 -0.23384,0 -0.369,-0.19737 z m -0.002,-0.67363 q 0,0.23813 0.0665,0.3454 0.10512,0.17377 0.28748,0.17377 0.14802,0 0.25529,-0.12872 0.10727,-0.12872 0.10727,-0.38187 0,-0.25958 -0.10298,-0.38401 -0.10297,-0.12443 -0.251,-0.12443 -0.14589,0 -0.2553,0.12872 -0.10726,0.12872 -0.10726,0.37114 z m 1.21864,-0.89889 v -0.26173 h 0.22526 v 0.26173 z m -0.28533,2.0874 0.0429,-0.19094 q 0.0686,0.0172 0.10726,0.0172 0.0686,0 0.10083,-0.0451 0.0343,-0.0451 0.0343,-0.22955 v -1.39447 h 0.22526 v 1.4009 q 0,0.24457 -0.0644,0.34111 -0.0815,0.12443 -0.27031,0.12443 -0.0901,0 -0.17592,-0.0236 z m 1.76618,-0.9418 0.2317,0.0279 q -0.0558,0.20381 -0.20381,0.31751 -0.14803,0.11156 -0.37972,0.11156 -0.29177,0 -0.46339,-0.17807 -0.16948,-0.1802 -0.16948,-0.50415 0,-0.33681 0.17162,-0.52131 0.17377,-0.1845 0.44838,-0.1845 0.26602,0 0.43335,0.18235 0.16948,0.18021 0.16948,0.50844 0,0.0215 0,0.0601 h -0.99114 q 0.0129,0.21883 0.12443,0.33682 0.11156,0.11585 0.27675,0.11585 0.12443,0 0.21239,-0.0644 0.088,-0.0665 0.13944,-0.2081 z m -0.74014,-0.3647 h 0.74229 q -0.015,-0.16734 -0.0858,-0.25101 -0.10726,-0.13086 -0.27889,-0.13086 -0.15446,0 -0.26173,0.10512 -0.10512,0.10297 -0.11585,0.27675 z m 2.12183,0.30463 0.22097,0.03 q -0.0365,0.2274 -0.18664,0.35827 -0.14803,0.12872 -0.36685,0.12872 -0.27246,0 -0.43765,-0.17807 -0.16519,-0.17806 -0.16519,-0.51058 0,-0.21668 0.0708,-0.37758 0.0708,-0.1609 0.21667,-0.24028 0.14588,-0.0815 0.31751,-0.0815 0.21668,0 0.35398,0.10941 0.1373,0.10941 0.17592,0.31107 l -0.21883,0.0322 q -0.0322,-0.13301 -0.11155,-0.19951 -0.0794,-0.0686 -0.19094,-0.0686 -0.16948,0 -0.27674,0.12228 -0.10727,0.12228 -0.10727,0.38616 0,0.26817 0.10298,0.39045 0.10297,0.12014 0.26816,0.12014 0.13301,0 0.22097,-0.0815 0.0901,-0.0815 0.1137,-0.25101 z m 0.90533,0.28533 0.0322,0.19952 q -0.0944,0.0193 -0.16948,0.0193 -0.12229,0 -0.19094,-0.0386 -0.0665,-0.0386 -0.0944,-0.10083 -0.0279,-0.0644 -0.0279,-0.26602 v -0.76588 h -0.16519 v -0.17378 h 0.16519 v -0.32823 l 0.22311,-0.13516 v 0.46339 h 0.22741 v 0.17378 h -0.22741 v 0.77875 q 0,0.0944 0.0107,0.12228 0.0129,0.0279 0.0386,0.0451 0.0279,0.015 0.0794,0.015 0.0365,0 0.0987,-0.009 z m 0.22039,-1.37301 v -0.25958 h 0.22526 v 0.25958 z m 0,1.57467 v -1.32796 h 0.22526 v 1.32796 z m 0.93808,0 -0.50629,-1.32796 h 0.23813 l 0.28533,0.79592 q 0.0451,0.12872 0.0858,0.26602 0.0279,-0.10512 0.0837,-0.251 l 0.29391,-0.81094 h 0.23169 l -0.502,1.32796 z m 1.82139,-0.42692 0.23169,0.0279 q -0.0558,0.20381 -0.20381,0.31751 -0.14802,0.11156 -0.37972,0.11156 -0.29176,0 -0.46339,-0.17807 -0.16948,-0.1802 -0.16948,-0.50415 0,-0.33681 0.17163,-0.52131 0.17377,-0.1845 0.44837,-0.1845 0.26602,0 0.43336,0.18235 0.16948,0.18021 0.16948,0.50844 0,0.0215 0,0.0601 h -0.99114 q 0.0129,0.21883 0.12443,0.33682 0.11155,0.11585 0.27674,0.11585 0.12443,0 0.21239,-0.0644 0.088,-0.0665 0.13945,-0.2081 z m -0.74014,-0.3647 h 0.74228 q -0.015,-0.16734 -0.0858,-0.25101 -0.10727,-0.13086 -0.27889,-0.13086 -0.15447,0 -0.26173,0.10512 -0.10512,0.10297 -0.11585,0.27675 z m 1.165,0.39474 0.22312,-0.0343 q 0.0172,0.13301 0.10297,0.20595 0.0858,0.0708 0.24028,0.0708 0.15446,0 0.22955,-0.0622 0.0751,-0.0644 0.0751,-0.15017 0,-0.0751 -0.0665,-0.12014 -0.0451,-0.03 -0.22955,-0.0751 -0.24886,-0.0644 -0.3454,-0.10942 -0.0944,-0.0451 -0.14373,-0.12443 -0.0494,-0.0815 -0.0494,-0.1802 0,-0.088 0.0408,-0.16305 0.0408,-0.0772 0.11156,-0.12657 0.0515,-0.0386 0.14159,-0.0644 0.0923,-0.0279 0.19523,-0.0279 0.15661,0 0.2746,0.0451 0.11799,0.0451 0.17377,0.12228 0.0579,0.0772 0.0794,0.20596 l -0.22097,0.03 q -0.015,-0.10297 -0.088,-0.1609 -0.0708,-0.0579 -0.20166,-0.0579 -0.15661,0 -0.22311,0.0515 -0.0644,0.0515 -0.0644,0.12013 0,0.0429 0.0257,0.0794 0.0279,0.0365 0.088,0.0601 0.0322,0.0129 0.19737,0.0579 0.24028,0.0622 0.33467,0.10298 0.0944,0.0408 0.14803,0.11799 0.0536,0.0772 0.0536,0.19308 0,0.1137 -0.0665,0.21239 -0.0644,0.0987 -0.18878,0.15446 -0.12443,0.0536 -0.28104,0.0536 -0.25744,0 -0.39474,-0.10727 -0.13516,-0.10727 -0.17163,-0.31965 z"
       id="path30046"
       inkscape:connector-curvature="0"
       style="fill:#ff9900;fill-rule:nonzero;stroke-width:0.13730083" />
    <path
       d="m 446.10497,275.01774 h 26.36176 v 5.69096 h -26.36176 z"
       id="path30048"
       inkscape:connector-curvature="0"
       style="fill:#000000;fill-opacity:0;fill-rule:evenodd;stroke-width:0.13730083" />
    <path
       d="m 447.51016,277.13921 v -0.25959 h 0.22526 v 0.25959 z m 0,1.57467 v -1.32796 h 0.22526 v 1.32796 z m 0.56909,0 v -1.32796 h 0.20166 v 0.18879 q 0.14588,-0.21882 0.42263,-0.21882 0.12013,0 0.22096,0.0429 0.10084,0.0429 0.15018,0.11371 0.0515,0.0686 0.0708,0.16519 0.0129,0.0622 0.0129,0.21882 v 0.81737 h -0.22526 v -0.80879 q 0,-0.1373 -0.0279,-0.20381 -0.0257,-0.0686 -0.0922,-0.10941 -0.0665,-0.0408 -0.15661,-0.0408 -0.14374,0 -0.24886,0.0922 -0.10297,0.0901 -0.10297,0.3454 v 0.72512 z m 2.28487,0 v -0.16734 q -0.12443,0.19737 -0.37114,0.19737 -0.15876,0 -0.29177,-0.088 -0.13301,-0.088 -0.20595,-0.24456 -0.0729,-0.15661 -0.0729,-0.36042 0,-0.19951 0.0665,-0.36041 0.0665,-0.16305 0.19737,-0.24886 0.13301,-0.0858 0.2982,-0.0858 0.12014,0 0.21239,0.0515 0.0944,0.0494 0.15232,0.13087 v -0.65862 h 0.22526 v 1.83426 z m -0.71011,-0.66291 q 0,0.2553 0.10727,0.38187 0.10727,0.12657 0.25315,0.12657 0.14803,0 0.251,-0.12013 0.10298,-0.12229 0.10298,-0.369 0,-0.27246 -0.10512,-0.39903 -0.10513,-0.12872 -0.25959,-0.12872 -0.14803,0 -0.24886,0.12228 -0.10083,0.12229 -0.10083,0.38616 z m 1.27442,-0.91176 v -0.25959 h 0.22526 v 0.25959 z m 0,1.57467 v -1.32796 h 0.22526 v 1.32796 z m 0.93809,0 -0.5063,-1.32796 h 0.23813 l 0.28533,0.79592 q 0.045,0.12872 0.0858,0.26602 0.0279,-0.10512 0.0837,-0.25101 l 0.29391,-0.81093 h 0.2317 l -0.50201,1.32796 z m 0.91176,-1.57467 v -0.25959 h 0.22526 v 0.25959 z m 0,1.57467 v -1.32796 h 0.22526 v 1.32796 z m 1.42937,0 v -0.16734 q -0.12443,0.19737 -0.37114,0.19737 -0.15876,0 -0.29177,-0.088 -0.13301,-0.088 -0.20595,-0.24456 -0.0729,-0.15661 -0.0729,-0.36042 0,-0.19951 0.0665,-0.36041 0.0665,-0.16305 0.19737,-0.24886 0.13301,-0.0858 0.2982,-0.0858 0.12014,0 0.21239,0.0515 0.0944,0.0494 0.15232,0.13087 v -0.65862 h 0.22526 v 1.83426 z m -0.71011,-0.66291 q 0,0.2553 0.10727,0.38187 0.10727,0.12657 0.25315,0.12657 0.14803,0 0.251,-0.12013 0.10298,-0.12229 0.10298,-0.369 0,-0.27246 -0.10512,-0.39903 -0.10512,-0.12872 -0.25959,-0.12872 -0.14802,0 -0.24886,0.12228 -0.10083,0.12229 -0.10083,0.38616 z m 2.14328,0.66291 v -0.19523 q -0.15446,0.22526 -0.42048,0.22526 -0.118,0 -0.22097,-0.0451 -0.10083,-0.0451 -0.15017,-0.1137 -0.0494,-0.0686 -0.0686,-0.16734 -0.015,-0.0644 -0.015,-0.21024 v -0.82166 h 0.22526 v 0.73585 q 0,0.17591 0.015,0.23813 0.0215,0.088 0.0901,0.13944 0.0686,0.0515 0.16948,0.0515 0.10083,0 0.18879,-0.0515 0.0901,-0.0536 0.12657,-0.14159 0.0365,-0.0901 0.0365,-0.25958 v -0.71225 h 0.22526 v 1.32796 z m 1.42245,-0.16305 q -0.12658,0.10512 -0.24242,0.15018 -0.11371,0.0429 -0.24672,0.0429 -0.21882,0 -0.33681,-0.10726 -0.118,-0.10727 -0.118,-0.27246 0,-0.0987 0.0451,-0.17806 0.0451,-0.0815 0.11584,-0.12872 0.0729,-0.0493 0.16305,-0.0751 0.0644,-0.0172 0.19951,-0.0343 0.27246,-0.0322 0.40118,-0.0772 0.002,-0.0472 0.002,-0.0579 0,-0.1373 -0.0644,-0.19522 -0.0858,-0.0751 -0.25744,-0.0751 -0.15875,0 -0.23384,0.0558 -0.0751,0.0558 -0.11155,0.19522 l -0.22097,-0.03 q 0.03,-0.13945 0.0987,-0.22526 0.0686,-0.088 0.19952,-0.13516 0.13086,-0.0472 0.30034,-0.0472 0.17163,0 0.27675,0.0408 0.10727,0.0386 0.15661,0.10083 0.0515,0.0601 0.0708,0.15232 0.0107,0.0579 0.0107,0.20809 v 0.30035 q 0,0.31322 0.015,0.39688 0.015,0.0815 0.0558,0.15876 h -0.23384 q -0.0365,-0.0708 -0.0451,-0.16305 z m -0.0193,-0.50415 q -0.12228,0.0515 -0.36685,0.0858 -0.13945,0.0193 -0.19737,0.0451 -0.0579,0.0257 -0.0901,0.0729 -0.03,0.0472 -0.03,0.10726 0,0.0901 0.0686,0.15018 0.0686,0.0601 0.19952,0.0601 0.12872,0 0.22955,-0.0558 0.10297,-0.0579 0.15017,-0.15661 0.0365,-0.0772 0.0365,-0.22526 z m 0.57076,0.6672 v -1.83426 h 0.22526 v 1.83426 z m 1.20352,-0.66505 q 0,-0.369 0.20381,-0.54492 0.17163,-0.14802 0.41834,-0.14802 0.2746,0 0.44837,0.1802 0.17377,0.17807 0.17377,0.49557 0,0.2553 -0.0772,0.40333 -0.0772,0.14588 -0.22526,0.2274 -0.14588,0.0815 -0.31965,0.0815 -0.27889,0 -0.45052,-0.17806 -0.17163,-0.18021 -0.17163,-0.51702 z m 0.2317,0 q 0,0.25529 0.10941,0.38401 0.11156,0.12657 0.28104,0.12657 0.16733,0 0.27889,-0.12657 0.11156,-0.12872 0.11156,-0.39045 0,-0.24671 -0.11156,-0.37329 -0.11156,-0.12657 -0.27889,-0.12657 -0.16948,0 -0.28104,0.12657 -0.10941,0.12443 -0.10941,0.37973 z m 1.48252,0.66505 h -0.2081 v -1.83426 h 0.22526 v 0.65433 q 0.14374,-0.17806 0.36471,-0.17806 0.12228,0 0.23169,0.0493 0.10942,0.0493 0.18021,0.13945 0.0708,0.0879 0.10941,0.21453 0.0408,0.12657 0.0408,0.27031 0,0.34111 -0.16948,0.52775 -0.16733,0.18664 -0.40546,0.18664 -0.23384,0 -0.369,-0.19737 z m -0.002,-0.67363 q 0,0.23813 0.0665,0.34539 0.10512,0.17377 0.28748,0.17377 0.14802,0 0.25529,-0.12872 0.10727,-0.12872 0.10727,-0.38186 0,-0.25959 -0.10298,-0.38402 -0.10297,-0.12442 -0.251,-0.12442 -0.14588,0 -0.2553,0.12871 -0.10726,0.12872 -0.10726,0.37115 z m 1.21864,-0.8989 v -0.26173 h 0.22526 v 0.26173 z m -0.28533,2.08741 0.0429,-0.19094 q 0.0687,0.0172 0.10726,0.0172 0.0686,0 0.10083,-0.0451 0.0343,-0.0451 0.0343,-0.22955 v -1.39446 h 0.22526 v 1.4009 q 0,0.24457 -0.0644,0.34111 -0.0815,0.12442 -0.27031,0.12442 -0.0901,0 -0.17592,-0.0236 z m 1.76618,-0.9418 0.23169,0.0279 q -0.0558,0.2038 -0.2038,0.31751 -0.14803,0.11155 -0.37973,0.11155 -0.29176,0 -0.46339,-0.17806 -0.16948,-0.18021 -0.16948,-0.50415 0,-0.33682 0.17163,-0.52131 0.17377,-0.1845 0.44837,-0.1845 0.26602,0 0.43336,0.18235 0.16948,0.18021 0.16948,0.50844 0,0.0215 0,0.0601 h -0.99114 q 0.0129,0.21882 0.12443,0.33682 0.11155,0.11584 0.27674,0.11584 0.12443,0 0.21239,-0.0644 0.088,-0.0665 0.13945,-0.20809 z m -0.74014,-0.36471 h 0.74228 q -0.015,-0.16733 -0.0858,-0.251 -0.10727,-0.13086 -0.27889,-0.13086 -0.15447,0 -0.26173,0.10512 -0.10512,0.10297 -0.11585,0.27674 z m 2.12183,0.30464 0.22097,0.03 q -0.0365,0.22741 -0.18665,0.35827 -0.14802,0.12872 -0.36685,0.12872 -0.27245,0 -0.43764,-0.17806 -0.16519,-0.17806 -0.16519,-0.51059 0,-0.21668 0.0708,-0.37757 0.0708,-0.1609 0.21668,-0.24028 0.14588,-0.0815 0.31751,-0.0815 0.21668,0 0.35398,0.10941 0.1373,0.10941 0.17591,0.31107 l -0.21882,0.0322 q -0.0322,-0.13301 -0.11156,-0.19951 -0.0794,-0.0686 -0.19093,-0.0686 -0.16948,0 -0.27675,0.12228 -0.10726,0.12228 -0.10726,0.38616 0,0.26816 0.10297,0.39045 0.10298,0.12013 0.26817,0.12013 0.13301,0 0.22097,-0.0815 0.0901,-0.0815 0.1137,-0.251 z m 0.90533,0.28533 0.0322,0.19951 q -0.0944,0.0193 -0.16949,0.0193 -0.12228,0 -0.19093,-0.0386 -0.0665,-0.0386 -0.0944,-0.10083 -0.0279,-0.0644 -0.0279,-0.26602 v -0.76588 h -0.16519 v -0.17377 h 0.16519 v -0.32823 l 0.22311,-0.13516 v 0.46339 h 0.22741 v 0.17377 h -0.22741 v 0.77876 q 0,0.0944 0.0107,0.12228 0.0129,0.0279 0.0386,0.0451 0.0279,0.015 0.0794,0.015 0.0365,0 0.0987,-0.009 z m 0.22039,-1.37301 v -0.25959 h 0.22526 v 0.25959 z m 0,1.57467 v -1.32796 h 0.22526 v 1.32796 z m 0.93808,0 -0.5063,-1.32796 h 0.23814 l 0.28532,0.79592 q 0.0451,0.12872 0.0858,0.26602 0.0279,-0.10512 0.0837,-0.25101 l 0.2939,-0.81093 h 0.2317 l -0.50201,1.32796 z m 1.82138,-0.42692 0.2317,0.0279 q -0.0558,0.2038 -0.20381,0.31751 -0.14803,0.11155 -0.37972,0.11155 -0.29176,0 -0.46339,-0.17806 -0.16948,-0.18021 -0.16948,-0.50415 0,-0.33682 0.17162,-0.52131 0.17378,-0.1845 0.44838,-0.1845 0.26602,0 0.43335,0.18235 0.16948,0.18021 0.16948,0.50844 0,0.0215 0,0.0601 h -0.99114 q 0.0129,0.21882 0.12443,0.33682 0.11156,0.11584 0.27675,0.11584 0.12443,0 0.21239,-0.0644 0.088,-0.0665 0.13944,-0.20809 z m -0.74013,-0.36471 h 0.74228 q -0.015,-0.16733 -0.0858,-0.251 -0.10726,-0.13086 -0.27889,-0.13086 -0.15446,0 -0.26173,0.10512 -0.10512,0.10297 -0.11584,0.27674 z m 1.16501,0.39474 0.22311,-0.0343 q 0.0172,0.13301 0.10298,0.20595 0.0858,0.0708 0.24027,0.0708 0.15447,0 0.22955,-0.0622 0.0751,-0.0644 0.0751,-0.15017 0,-0.0751 -0.0665,-0.12014 -0.0451,-0.03 -0.22954,-0.0751 -0.24886,-0.0644 -0.3454,-0.10941 -0.0944,-0.0451 -0.14374,-0.12443 -0.0493,-0.0815 -0.0493,-0.1802 0,-0.088 0.0408,-0.16305 0.0408,-0.0772 0.11156,-0.12657 0.0515,-0.0386 0.14159,-0.0644 0.0923,-0.0279 0.19522,-0.0279 0.15661,0 0.2746,0.0451 0.118,0.0451 0.17378,0.12228 0.0579,0.0772 0.0794,0.20595 l -0.22097,0.03 q -0.015,-0.10298 -0.0879,-0.1609 -0.0708,-0.0579 -0.20167,-0.0579 -0.1566,0 -0.22311,0.0515 -0.0644,0.0515 -0.0644,0.12014 0,0.0429 0.0257,0.0794 0.0279,0.0365 0.088,0.0601 0.0322,0.0129 0.19737,0.0579 0.24028,0.0622 0.33467,0.10298 0.0944,0.0408 0.14803,0.11799 0.0536,0.0772 0.0536,0.19308 0,0.1137 -0.0665,0.21239 -0.0644,0.0987 -0.18879,0.15446 -0.12443,0.0536 -0.28104,0.0536 -0.25744,0 -0.39474,-0.10726 -0.13515,-0.10727 -0.17162,-0.31966 z"
       id="path30050"
       inkscape:connector-curvature="0"
       style="fill:#38761d;fill-rule:nonzero;stroke-width:0.13730083" />
    <path
       d="m 457.08904,275.57226 c 0.36613,-0.18307 1.46454,-1.0984 2.19681,-1.0984 0.73227,0 1.83068,0.91533 2.19681,1.0984"
       id="path30052"
       inkscape:connector-curvature="0"
       style="fill:#000000;fill-opacity:0;fill-rule:evenodd;stroke-width:0.13730083" />
    <path
       d="m 457.08904,275.57226 c 0.36613,-0.18307 1.46454,-1.0984 2.19681,-1.0984 0.73227,0 1.83068,0.91533 2.19681,1.0984"
       id="path30054"
       inkscape:connector-curvature="0"
       style="fill-rule:evenodd;stroke:#38761d;stroke-width:0.41190249;stroke-linecap:butt;stroke-linejoin:round" />
    <path
       d="m 451.597,270.08023 c 1.28148,-0.5492 5.1259,-3.29522 7.68885,-3.29522 2.56295,0 6.40737,2.74602 7.68885,3.29522"
       id="path30056"
       inkscape:connector-curvature="0"
       style="fill:#000000;fill-opacity:0;fill-rule:evenodd;stroke-width:0.13730083" />
    <path
       d="m 451.597,270.08023 c 1.28148,-0.5492 5.1259,-3.29522 7.68885,-3.29522 2.56295,0 6.40737,2.74602 7.68885,3.29522"
       id="path30058"
       inkscape:connector-curvature="0"
       style="fill-rule:evenodd;stroke:#38761d;stroke-width:0.41190249;stroke-linecap:butt;stroke-linejoin:round" />
    <path
       d="m 434.0225,264.5882 c 8.32958,-0.91534 33.31833,-5.49204 49.9775,-5.49204 16.65916,0 41.64791,4.5767 49.9775,5.49204"
       id="path30060"
       inkscape:connector-curvature="0"
       style="fill:#000000;fill-opacity:0;fill-rule:evenodd;stroke-width:0.13730083" />
    <path
       d="m 434.0225,264.5882 c 8.32958,-0.91534 33.31833,-5.49204 49.9775,-5.49204 16.65916,0 41.64791,4.5767 49.9775,5.49204"
       id="path30062"
       inkscape:connector-curvature="0"
       style="fill-rule:evenodd;stroke:#ff9900;stroke-width:0.41190249;stroke-linecap:butt;stroke-linejoin:round" />
    <path
       d="m 434.0225,256.89935 c 8.32958,-0.91534 33.31833,-5.49203 49.9775,-5.49203 16.65916,0 41.64791,4.57669 49.9775,5.49203"
       id="path30064"
       inkscape:connector-curvature="0"
       style="fill:#000000;fill-opacity:0;fill-rule:evenodd;stroke-width:0.13730083" />
    <path
       d="m 434.0225,256.89935 c 8.32958,-0.91534 33.31833,-5.49203 49.9775,-5.49203 16.65916,0 41.64791,4.57669 49.9775,5.49203"
       id="path30066"
       inkscape:connector-curvature="0"
       style="fill-rule:evenodd;stroke:#ff0000;stroke-width:0.41190249;stroke-linecap:butt;stroke-linejoin:round" />
    <path
       d="m 468.0731,270.08023 c 1.28148,-0.5492 5.1259,-3.29522 7.68885,-3.29522 2.56295,0 6.40737,2.74602 7.68885,3.29522"
       id="path30068"
       inkscape:connector-curvature="0"
       style="fill:#000000;fill-opacity:0;fill-rule:evenodd;stroke-width:0.13730083" />
    <path
       d="m 468.0731,270.08023 c 1.28148,-0.5492 5.1259,-3.29522 7.68885,-3.29522 2.56295,0 6.40737,2.74602 7.68885,3.29522"
       id="path30070"
       inkscape:connector-curvature="0"
       style="fill-rule:evenodd;stroke:#38761d;stroke-width:0.41190249;stroke-linecap:butt;stroke-linejoin:round" />
    <path
       d="m 462.58107,275.57226 c 0.36613,-0.18307 1.46454,-1.0984 2.19681,-1.0984 0.73228,0 1.83068,0.91533 2.19682,1.0984"
       id="path30072"
       inkscape:connector-curvature="0"
       style="fill:#000000;fill-opacity:0;fill-rule:evenodd;stroke-width:0.13730083" />
    <path
       d="m 462.58107,275.57226 c 0.36613,-0.18307 1.46454,-1.0984 2.19681,-1.0984 0.73228,0 1.83068,0.91533 2.19682,1.0984"
       id="path30074"
       inkscape:connector-curvature="0"
       style="fill-rule:evenodd;stroke:#38761d;stroke-width:0.41190249;stroke-linecap:butt;stroke-linejoin:round" />
    <path
       d="m 451.597,275.57226 c 0.36614,-0.18307 1.46454,-1.0984 2.19682,-1.0984 0.73227,0 1.83068,0.91533 2.19681,1.0984"
       id="path30076"
       inkscape:connector-curvature="0"
       style="fill:#000000;fill-opacity:0;fill-rule:evenodd;stroke-width:0.13730083" />
    <path
       d="m 451.597,275.57226 c 0.36614,-0.18307 1.46454,-1.0984 2.19682,-1.0984 0.73227,0 1.83068,0.91533 2.19681,1.0984"
       id="path30078"
       inkscape:connector-curvature="0"
       style="fill-rule:evenodd;stroke:#38761d;stroke-width:0.41190249;stroke-linecap:butt;stroke-linejoin:round" />
    <path
       d="m 457.08904,268.98182 h 21.50109 v 5.69096 h -21.50109 z"
       id="path30080"
       inkscape:connector-curvature="0"
       style="fill:#000000;fill-opacity:0;fill-rule:evenodd;stroke-width:0.13730083" />
    <path
       d="m 458.9855,272.4763 0.0322,0.19951 q -0.0944,0.0193 -0.16948,0.0193 -0.12228,0 -0.19093,-0.0386 -0.0665,-0.0386 -0.0944,-0.10084 -0.0279,-0.0644 -0.0279,-0.26602 v -0.76588 H 458.3698 V 271.35 h 0.16519 v -0.32823 l 0.22311,-0.13516 V 271.35 h 0.2274 v 0.17377 h -0.2274 v 0.77876 q 0,0.0944 0.0107,0.12228 0.0129,0.0279 0.0386,0.0451 0.0279,0.015 0.0794,0.015 0.0365,0 0.0987,-0.009 z m 1.13001,-0.22526 0.2317,0.0279 q -0.0558,0.2038 -0.20381,0.31751 -0.14803,0.11155 -0.37972,0.11155 -0.29177,0 -0.46339,-0.17806 -0.16948,-0.18021 -0.16948,-0.50415 0,-0.33682 0.17162,-0.52132 0.17378,-0.18449 0.44838,-0.18449 0.26602,0 0.43335,0.18235 0.16948,0.18021 0.16948,0.50844 0,0.0215 0,0.0601 h -0.99114 q 0.0129,0.21882 0.12443,0.33682 0.11156,0.11585 0.27675,0.11585 0.12443,0 0.21239,-0.0644 0.088,-0.0665 0.13944,-0.2081 z m -0.74013,-0.36471 h 0.74228 q -0.015,-0.16733 -0.0858,-0.251 -0.10727,-0.13087 -0.2789,-0.13087 -0.15446,0 -0.26173,0.10513 -0.10512,0.10297 -0.11584,0.27674 z m 2.12182,0.62858 q -0.12657,0.10512 -0.24242,0.15018 -0.1137,0.0429 -0.24671,0.0429 -0.21882,0 -0.33682,-0.10726 -0.11799,-0.10727 -0.11799,-0.27246 0,-0.0987 0.0451,-0.17806 0.045,-0.0815 0.11585,-0.12872 0.0729,-0.0493 0.16304,-0.0751 0.0644,-0.0172 0.19952,-0.0343 0.27246,-0.0322 0.40117,-0.0772 0.002,-0.0472 0.002,-0.0579 0,-0.1373 -0.0644,-0.19522 -0.0858,-0.0751 -0.25744,-0.0751 -0.15876,0 -0.23384,0.0558 -0.0751,0.0558 -0.11156,0.19522 l -0.22097,-0.03 q 0.03,-0.13945 0.0987,-0.22526 0.0686,-0.088 0.19951,-0.13516 0.13087,-0.0472 0.30035,-0.0472 0.17162,0 0.27674,0.0408 0.10727,0.0386 0.15661,0.10083 0.0515,0.0601 0.0708,0.15232 0.0107,0.0579 0.0107,0.20809 v 0.30035 q 0,0.31322 0.015,0.39688 0.015,0.0815 0.0558,0.15876 h -0.23384 q -0.0365,-0.0708 -0.0451,-0.16305 z m -0.0193,-0.50415 q -0.12228,0.0515 -0.36685,0.0858 -0.13944,0.0193 -0.19737,0.0451 -0.0579,0.0257 -0.0901,0.0729 -0.03,0.0472 -0.03,0.10726 0,0.0901 0.0686,0.15018 0.0686,0.0601 0.19951,0.0601 0.12872,0 0.22955,-0.0558 0.10298,-0.0579 0.15017,-0.15661 0.0365,-0.0772 0.0365,-0.22526 z m 0.5772,0.6672 V 271.35 h 0.20166 v 0.18665 q 0.0622,-0.0987 0.16519,-0.15661 0.10512,-0.0601 0.23598,-0.0601 0.14803,0 0.24243,0.0622 0.0944,0.0601 0.13301,0.16948 0.15875,-0.23169 0.40975,-0.23169 0.19952,0 0.30464,0.10941 0.10727,0.10941 0.10727,0.33681 v 0.91177 h -0.22526 v -0.83668 q 0,-0.13515 -0.0215,-0.19308 -0.0214,-0.0601 -0.0794,-0.0965 -0.0579,-0.0365 -0.13516,-0.0365 -0.13945,0 -0.23169,0.0944 -0.0922,0.0922 -0.0922,0.29605 v 0.77232 h -0.22526 v -0.86242 q 0,-0.15018 -0.0558,-0.22526 -0.0558,-0.0751 -0.18021,-0.0751 -0.0944,0 -0.17591,0.0493 -0.0815,0.0494 -0.118,0.14589 -0.0343,0.0965 -0.0343,0.27889 v 0.68865 z m 2.76176,-0.66505 q 0,-0.369 0.20381,-0.54492 0.17163,-0.14802 0.41834,-0.14802 0.2746,0 0.44837,0.1802 0.17377,0.17807 0.17377,0.49557 0,0.2553 -0.0772,0.40333 -0.0772,0.14588 -0.22526,0.2274 -0.14588,0.0815 -0.31965,0.0815 -0.27889,0 -0.45052,-0.17806 -0.17163,-0.18021 -0.17163,-0.51702 z m 0.2317,0 q 0,0.25529 0.10941,0.38401 0.11156,0.12658 0.28104,0.12658 0.16733,0 0.27889,-0.12658 0.11156,-0.12872 0.11156,-0.39045 0,-0.24671 -0.11156,-0.37329 -0.11156,-0.12657 -0.27889,-0.12657 -0.16948,0 -0.28104,0.12657 -0.10941,0.12443 -0.10941,0.37973 z m 1.48252,0.66505 h -0.2081 v -1.83426 h 0.22526 v 0.65433 q 0.14374,-0.17806 0.3647,-0.17806 0.12229,0 0.2317,0.0493 0.10941,0.0493 0.18021,0.13945 0.0708,0.0879 0.10941,0.21453 0.0408,0.12657 0.0408,0.27031 0,0.34111 -0.16948,0.52775 -0.16734,0.18664 -0.40547,0.18664 -0.23384,0 -0.36899,-0.19737 z m -0.002,-0.67363 q 0,0.23813 0.0665,0.34539 0.10512,0.17378 0.28747,0.17378 0.14803,0 0.2553,-0.12872 0.10726,-0.12872 0.10726,-0.38187 0,-0.25959 -0.10297,-0.38402 -0.10298,-0.12443 -0.25101,-0.12443 -0.14588,0 -0.25529,0.12872 -0.10727,0.12872 -0.10727,0.37115 z m 1.21865,-0.8989 v -0.26173 h 0.22526 v 0.26173 z m -0.28533,2.08741 0.0429,-0.19094 q 0.0686,0.0172 0.10726,0.0172 0.0686,0 0.10083,-0.0451 0.0343,-0.0451 0.0343,-0.22955 V 271.35 h 0.22526 v 1.4009 q 0,0.24457 -0.0644,0.34111 -0.0815,0.12442 -0.27031,0.12442 -0.0901,0 -0.17592,-0.0236 z m 1.76618,-0.9418 0.2317,0.0279 q -0.0558,0.2038 -0.20381,0.31751 -0.14803,0.11155 -0.37972,0.11155 -0.29177,0 -0.46339,-0.17806 -0.16948,-0.18021 -0.16948,-0.50415 0,-0.33682 0.17162,-0.52132 0.17378,-0.18449 0.44838,-0.18449 0.26602,0 0.43335,0.18235 0.16948,0.18021 0.16948,0.50844 0,0.0215 0,0.0601 h -0.99114 q 0.0129,0.21882 0.12443,0.33682 0.11156,0.11585 0.27675,0.11585 0.12443,0 0.21239,-0.0644 0.088,-0.0665 0.13944,-0.2081 z m -0.74014,-0.36471 h 0.74229 q -0.015,-0.16733 -0.0858,-0.251 -0.10726,-0.13087 -0.27889,-0.13087 -0.15446,0 -0.26173,0.10513 -0.10512,0.10297 -0.11585,0.27674 z m 2.12183,0.30464 0.22097,0.03 q -0.0365,0.22741 -0.18665,0.35827 -0.14802,0.12872 -0.36685,0.12872 -0.27245,0 -0.43764,-0.17806 -0.16519,-0.17806 -0.16519,-0.51059 0,-0.21667 0.0708,-0.37757 0.0708,-0.1609 0.21668,-0.24028 0.14588,-0.0815 0.31751,-0.0815 0.21668,0 0.35398,0.10941 0.1373,0.10941 0.17591,0.31107 l -0.21882,0.0322 q -0.0322,-0.13301 -0.11156,-0.19951 -0.0794,-0.0687 -0.19093,-0.0687 -0.16948,0 -0.27675,0.12229 -0.10726,0.12228 -0.10726,0.38616 0,0.26816 0.10297,0.39045 0.10298,0.12014 0.26817,0.12014 0.13301,0 0.22097,-0.0815 0.0901,-0.0815 0.1137,-0.251 z m 0.90533,0.28533 0.0322,0.19951 q -0.0944,0.0193 -0.16949,0.0193 -0.12228,0 -0.19093,-0.0386 -0.0665,-0.0386 -0.0944,-0.10084 -0.0279,-0.0644 -0.0279,-0.26602 v -0.76588 h -0.16519 V 271.35 h 0.16519 v -0.32823 l 0.22311,-0.13516 V 271.35 h 0.22741 v 0.17377 h -0.22741 v 0.77876 q 0,0.0944 0.0107,0.12228 0.0129,0.0279 0.0386,0.0451 0.0279,0.015 0.0794,0.015 0.0365,0 0.0987,-0.009 z m 0.22039,-1.37301 v -0.25959 h 0.22526 v 0.25959 z m 0,1.57467 V 271.35 h 0.22526 v 1.32796 z m 0.93808,0 -0.5063,-1.32796 h 0.23814 l 0.28532,0.79592 q 0.0451,0.12872 0.0858,0.26602 0.0279,-0.10512 0.0837,-0.25101 l 0.2939,-0.81093 h 0.2317 l -0.50201,1.32796 z m 1.82138,-0.42692 0.2317,0.0279 q -0.0558,0.2038 -0.20381,0.31751 -0.14802,0.11155 -0.37972,0.11155 -0.29176,0 -0.46339,-0.17806 -0.16948,-0.18021 -0.16948,-0.50415 0,-0.33682 0.17162,-0.52132 0.17378,-0.18449 0.44838,-0.18449 0.26602,0 0.43335,0.18235 0.16948,0.18021 0.16948,0.50844 0,0.0215 0,0.0601 h -0.99114 q 0.0129,0.21882 0.12443,0.33682 0.11156,0.11585 0.27675,0.11585 0.12443,0 0.21239,-0.0644 0.088,-0.0665 0.13944,-0.2081 z m -0.74013,-0.36471 h 0.74228 q -0.015,-0.16733 -0.0858,-0.251 -0.10727,-0.13087 -0.2789,-0.13087 -0.15446,0 -0.26173,0.10513 -0.10512,0.10297 -0.11584,0.27674 z m 1.165,0.39474 0.22312,-0.0343 q 0.0172,0.13301 0.10297,0.20595 0.0858,0.0708 0.24028,0.0708 0.15446,0 0.22955,-0.0622 0.0751,-0.0644 0.0751,-0.15017 0,-0.0751 -0.0665,-0.12014 -0.045,-0.03 -0.22955,-0.0751 -0.24886,-0.0644 -0.3454,-0.10941 -0.0944,-0.0451 -0.14373,-0.12443 -0.0494,-0.0815 -0.0494,-0.18021 0,-0.0879 0.0408,-0.16304 0.0408,-0.0772 0.11155,-0.12657 0.0515,-0.0386 0.14159,-0.0644 0.0922,-0.0279 0.19523,-0.0279 0.15661,0 0.2746,0.0451 0.11799,0.0451 0.17377,0.12228 0.0579,0.0772 0.0794,0.20595 l -0.22097,0.03 q -0.015,-0.10298 -0.088,-0.1609 -0.0708,-0.0579 -0.20166,-0.0579 -0.15661,0 -0.22311,0.0515 -0.0644,0.0515 -0.0644,0.12014 0,0.0429 0.0257,0.0794 0.0279,0.0365 0.088,0.0601 0.0322,0.0129 0.19737,0.0579 0.24028,0.0622 0.33467,0.10298 0.0944,0.0408 0.14803,0.11799 0.0536,0.0772 0.0536,0.19308 0,0.1137 -0.0665,0.21239 -0.0644,0.0987 -0.18879,0.15446 -0.12443,0.0536 -0.28104,0.0536 -0.25744,0 -0.39474,-0.10726 -0.13516,-0.10727 -0.17163,-0.31966 z"
       id="path30082"
       inkscape:connector-curvature="0"
       style="fill:#38761d;fill-rule:nonzero;stroke-width:0.13730083" />
    <path
       d="m 483.9511,267.60042 h 7.58073 v 5.69096 h -7.58073 z"
       id="path30084"
       inkscape:connector-curvature="0"
       style="fill:#000000;fill-opacity:0;fill-rule:evenodd;stroke-width:0.13730083" />
    <path
       d="m 485.4185,271.29656 v -0.25744 h 0.25744 v 0.25744 z m 0.71168,0 v -0.25744 h 0.25744 v 0.25744 z m 0.71167,0 v -0.25744 h 0.25744 v 0.25744 z"
       id="path30086"
       inkscape:connector-curvature="0"
       style="fill:#000000;fill-rule:nonzero;stroke-width:0.13730083" />
    <path
       d="m 446.60528,267.60042 h 7.58073 v 5.69096 h -7.58073 z"
       id="path30088"
       inkscape:connector-curvature="0"
       style="fill:#000000;fill-opacity:0;fill-rule:evenodd;stroke-width:0.13730083" />
    <path
       d="m 448.07268,271.29656 v -0.25744 h 0.25744 v 0.25744 z m 0.71167,0 v -0.25744 h 0.25744 v 0.25744 z m 0.71167,0 v -0.25744 h 0.25744 v 0.25744 z"
       id="path30090"
       inkscape:connector-curvature="0"
       style="fill:#000000;fill-rule:nonzero;stroke-width:0.13730083" />
    <path
       d="m 441.93705,273.09245 h 7.58074 v 5.69096 h -7.58074 z"
       id="path30092"
       inkscape:connector-curvature="0"
       style="fill:#000000;fill-opacity:0;fill-rule:evenodd;stroke-width:0.13730083" />
    <path
       d="m 443.40445,276.7886 v -0.25744 h 0.25744 v 0.25744 z m 0.71167,0 v -0.25744 h 0.25744 v 0.25744 z m 0.71168,0 v -0.25744 h 0.25744 v 0.25744 z"
       id="path30094"
       inkscape:connector-curvature="0"
       style="fill:#000000;fill-rule:nonzero;stroke-width:0.13730083" />
    <path
       d="m 471.86863,273.09245 h 7.58074 v 5.69096 h -7.58074 z"
       id="path30096"
       inkscape:connector-curvature="0"
       style="fill:#000000;fill-opacity:0;fill-rule:evenodd;stroke-width:0.13730083" />
    <path
       d="m 473.33603,276.7886 v -0.25744 h 0.25744 v 0.25744 z m 0.71168,0 v -0.25744 h 0.25743 v 0.25744 z m 0.71167,0 v -0.25744 h 0.25743 v 0.25744 z"
       id="path30098"
       inkscape:connector-curvature="0"
       style="fill:#000000;fill-rule:nonzero;stroke-width:0.13730083" />
    <path
       d="m 446.24227,275.57226 c 0.36614,-0.18307 1.46454,-1.0984 2.19681,-1.0984 0.73227,0 1.83068,0.91533 2.19682,1.0984"
       id="path30100"
       inkscape:connector-curvature="0"
       style="fill:#000000;fill-opacity:0;fill-rule:evenodd;stroke-width:0.13730083" />
    <path
       d="m 446.24227,275.57226 c 0.36614,-0.18307 1.46454,-1.0984 2.19681,-1.0984 0.73227,0 1.83068,0.91533 2.19682,1.0984"
       id="path30102"
       inkscape:connector-curvature="0"
       style="fill-rule:evenodd;stroke:#38761d;stroke-width:0.41190249;stroke-linecap:butt;stroke-linejoin:round" />
    <path
       d="m 467.9358,275.57226 c 0.36614,-0.18307 1.46454,-1.0984 2.19682,-1.0984 0.73227,0 1.83067,0.91533 2.19681,1.0984"
       id="path30104"
       inkscape:connector-curvature="0"
       style="fill:#000000;fill-opacity:0;fill-rule:evenodd;stroke-width:0.13730083" />
    <path
       d="m 467.9358,275.57226 c 0.36614,-0.18307 1.46454,-1.0984 2.19682,-1.0984 0.73227,0 1.83067,0.91533 2.19681,1.0984"
       id="path30106"
       inkscape:connector-curvature="0"
       style="fill-rule:evenodd;stroke:#38761d;stroke-width:0.41190249;stroke-linecap:butt;stroke-linejoin:round" />
  </g>
</svg>
