<?xml version="1.0" encoding="UTF-8" standalone="no"?>
<!-- Created with Inkscape (http://www.inkscape.org/) -->

<svg
   xmlns:dc="http://purl.org/dc/elements/1.1/"
   xmlns:cc="http://creativecommons.org/ns#"
   xmlns:rdf="http://www.w3.org/1999/02/22-rdf-syntax-ns#"
   xmlns:svg="http://www.w3.org/2000/svg"
   xmlns="http://www.w3.org/2000/svg"
   xmlns:sodipodi="http://sodipodi.sourceforge.net/DTD/sodipodi-0.dtd"
   xmlns:inkscape="http://www.inkscape.org/namespaces/inkscape"
   width="87.085938mm"
   height="106.4724mm"
   viewBox="0 0 87.085938 106.4724"
   version="1.1"
   id="svg8"
   inkscape:version="0.92.2 5c3e80d, 2017-08-06"
   sodipodi:docname="teams-and-backlog-hierarchies.svg">
  <defs
     id="defs2">
    <marker
       inkscape:stockid="Arrow2Mend"
       orient="auto"
       refY="0.0"
       refX="0.0"
       id="marker1371"
       style="overflow:visible;"
       inkscape:isstock="true">
      <path
         id="path1369"
         style="fill-rule:evenodd;stroke-width:0.625;stroke-linejoin:round;stroke:#0000fd;stroke-opacity:1;fill:#0000fd;fill-opacity:1"
         d="M 8.7185878,4.0337352 L -2.2072895,0.016013256 L 8.7185884,-4.0017078 C 6.9730900,-1.6296469 6.9831476,1.6157441 8.7185878,4.0337352 z "
         transform="scale(0.6) rotate(180) translate(0,0)" />
    </marker>
    <marker
       inkscape:stockid="Arrow2Mstart"
       orient="auto"
       refY="0.0"
       refX="0.0"
       id="marker1367"
       style="overflow:visible"
       inkscape:isstock="true">
      <path
         id="path1125"
         style="fill-rule:evenodd;stroke-width:0.625;stroke-linejoin:round;stroke:#000000;stroke-opacity:1;fill:#000000;fill-opacity:1"
         d="M 8.7185878,4.0337352 L -2.2072895,0.016013256 L 8.7185884,-4.0017078 C 6.9730900,-1.6296469 6.9831476,1.6157441 8.7185878,4.0337352 z "
         transform="scale(0.6) translate(0,0)" />
    </marker>
    <marker
       inkscape:stockid="Arrow2Mend"
       orient="auto"
       refY="0.0"
       refX="0.0"
       id="marker1364"
       style="overflow:visible;"
       inkscape:isstock="true">
      <path
         id="path1128"
         style="fill-rule:evenodd;stroke-width:0.625;stroke-linejoin:round;stroke:#000000;stroke-opacity:1;fill:#000000;fill-opacity:1"
         d="M 8.7185878,4.0337352 L -2.2072895,0.016013256 L 8.7185884,-4.0017078 C 6.9730900,-1.6296469 6.9831476,1.6157441 8.7185878,4.0337352 z "
         transform="scale(0.6) rotate(180) translate(0,0)" />
    </marker>
    <marker
       inkscape:stockid="Arrow2Mstart"
       orient="auto"
       refY="0.0"
       refX="0.0"
       id="Arrow2Mstart"
       style="overflow:visible"
       inkscape:isstock="true">
      <path
         id="path4925"
         style="fill-rule:evenodd;stroke-width:0.625;stroke-linejoin:round;stroke:#f90000;stroke-opacity:1;fill:#f90000;fill-opacity:1"
         d="M 8.7185878,4.0337352 L -2.2072895,0.016013256 L 8.7185884,-4.0017078 C 6.9730900,-1.6296469 6.9831476,1.6157441 8.7185878,4.0337352 z "
         transform="scale(0.6) translate(0,0)" />
    </marker>
    <marker
       inkscape:stockid="Arrow2Lstart"
       orient="auto"
       refY="0.0"
       refX="0.0"
       id="marker7329"
       style="overflow:visible"
       inkscape:isstock="true">
      <path
         id="path7327"
         style="fill-rule:evenodd;stroke-width:0.625;stroke-linejoin:round;stroke:#f90000;stroke-opacity:1;fill:#f90000;fill-opacity:1"
         d="M 8.7185878,4.0337352 L -2.2072895,0.016013256 L 8.7185884,-4.0017078 C 6.9730900,-1.6296469 6.9831476,1.6157441 8.7185878,4.0337352 z "
         transform="scale(1.1) translate(1,0)" />
    </marker>
    <marker
       inkscape:stockid="Arrow2Mend"
       orient="auto"
       refY="0.0"
       refX="0.0"
       id="marker7277"
       style="overflow:visible;"
       inkscape:isstock="true">
      <path
         id="path7275"
         style="fill-rule:evenodd;stroke-width:0.625;stroke-linejoin:round;stroke:#f90000;stroke-opacity:1;fill:#f90000;fill-opacity:1"
         d="M 8.7185878,4.0337352 L -2.2072895,0.016013256 L 8.7185884,-4.0017078 C 6.9730900,-1.6296469 6.9831476,1.6157441 8.7185878,4.0337352 z "
         transform="scale(0.6) rotate(180) translate(0,0)" />
    </marker>
    <marker
       inkscape:stockid="Arrow2Mend"
       orient="auto"
       refY="0.0"
       refX="0.0"
       id="marker5523"
       style="overflow:visible;"
       inkscape:isstock="true">
      <path
         id="path5521"
         style="fill-rule:evenodd;stroke-width:0.625;stroke-linejoin:round;stroke:#00b600;stroke-opacity:1;fill:#00b600;fill-opacity:1"
         d="M 8.7185878,4.0337352 L -2.2072895,0.016013256 L 8.7185884,-4.0017078 C 6.9730900,-1.6296469 6.9831476,1.6157441 8.7185878,4.0337352 z "
         transform="scale(0.6) rotate(180) translate(0,0)" />
    </marker>
    <marker
       inkscape:stockid="Arrow2Mend"
       orient="auto"
       refY="0.0"
       refX="0.0"
       id="Arrow2Mend"
       style="overflow:visible;"
       inkscape:isstock="true">
      <path
         id="path4928"
         style="fill-rule:evenodd;stroke-width:0.625;stroke-linejoin:round;stroke:#0000ff;stroke-opacity:1;fill:#0000ff;fill-opacity:1"
         d="M 8.7185878,4.0337352 L -2.2072895,0.016013256 L 8.7185884,-4.0017078 C 6.9730900,-1.6296469 6.9831476,1.6157441 8.7185878,4.0337352 z "
         transform="scale(0.6) rotate(180) translate(0,0)" />
    </marker>
    <marker
       inkscape:stockid="Arrow1Lend"
       orient="auto"
       refY="0.0"
       refX="0.0"
       id="Arrow1Lend"
       style="overflow:visible;"
       inkscape:isstock="true">
      <path
         id="path4904"
         d="M 0.0,0.0 L 5.0,-5.0 L -12.5,0.0 L 5.0,5.0 L 0.0,0.0 z "
         style="fill-rule:evenodd;stroke:#000000;stroke-width:1pt;stroke-opacity:1;fill:#000000;fill-opacity:1"
         transform="scale(0.8) rotate(180) translate(12.5,0)" />
    </marker>
    <marker
       inkscape:stockid="Arrow2Lstart"
       orient="auto"
       refY="0.0"
       refX="0.0"
       id="marker5197"
       style="overflow:visible"
       inkscape:isstock="true">
      <path
         id="path5195"
         style="fill-rule:evenodd;stroke-width:0.625;stroke-linejoin:round;stroke:#000000;stroke-opacity:1;fill:#000000;fill-opacity:1"
         d="M 8.7185878,4.0337352 L -2.2072895,0.016013256 L 8.7185884,-4.0017078 C 6.9730900,-1.6296469 6.9831476,1.6157441 8.7185878,4.0337352 z "
         transform="scale(1.1) translate(1,0)" />
    </marker>
    <marker
       inkscape:stockid="Arrow2Lstart"
       orient="auto"
       refY="0.0"
       refX="0.0"
       id="Arrow2Lstart"
       style="overflow:visible"
       inkscape:isstock="true">
      <path
         id="path4919"
         style="fill-rule:evenodd;stroke-width:0.625;stroke-linejoin:round;stroke:#000000;stroke-opacity:1;fill:#000000;fill-opacity:1"
         d="M 8.7185878,4.0337352 L -2.2072895,0.016013256 L 8.7185884,-4.0017078 C 6.9730900,-1.6296469 6.9831476,1.6157441 8.7185878,4.0337352 z "
         transform="scale(1.1) translate(1,0)" />
    </marker>
  </defs>
  <sodipodi:namedview
     id="base"
     pagecolor="#ffffff"
     bordercolor="#666666"
     borderopacity="1.0"
     inkscape:pageopacity="0.0"
     inkscape:pageshadow="2"
     inkscape:zoom="2.112102"
     inkscape:cx="152.37358"
     inkscape:cy="205.75405"
     inkscape:document-units="mm"
     inkscape:current-layer="layer1"
     showgrid="false"
     fit-margin-top="0"
     fit-margin-left="0"
     fit-margin-right="0"
     fit-margin-bottom="0"
     inkscape:window-width="1409"
     inkscape:window-height="1153"
     inkscape:window-x="1443"
     inkscape:window-y="0"
     inkscape:window-maximized="0"
     inkscape:snap-global="false"
     showguides="true"
     inkscape:guide-bbox="true">
    <sodipodi:guide
       position="11.775394,54.617788"
       orientation="1,0"
       id="guide10279"
       inkscape:locked="false" />
    <sodipodi:guide
       position="42.34131,55.99576"
       orientation="1,0"
       id="guide10281"
       inkscape:locked="false" />
    <sodipodi:guide
       position="72.907226,69.524937"
       orientation="1,0"
       id="guide10283"
       inkscape:locked="false" />
    <sodipodi:guide
       position="-0.87689103,47.477389"
       orientation="0,1"
       id="guide10873"
       inkscape:locked="false" />
    <sodipodi:guide
       position="-0.87689103,26.306733"
       orientation="0,1"
       id="guide10875"
       inkscape:locked="false" />
    <sodipodi:guide
       position="-22.676319,40.392196"
       orientation="0,1"
       id="guide11295"
       inkscape:locked="false" />
  </sodipodi:namedview>
  <metadata
     id="metadata5">
    <rdf:RDF>
      <cc:Work
         rdf:about="">
        <dc:format>image/svg+xml</dc:format>
        <dc:type
           rdf:resource="http://purl.org/dc/dcmitype/StillImage" />
        <dc:title></dc:title>
      </cc:Work>
    </rdf:RDF>
  </metadata>
  <g
     inkscape:label="Layer 1"
     inkscape:groupmode="layer"
     id="layer1"
     transform="translate(-37.986699,-44.667892)">
    <g
       style="fill:#000000"
       id="g183"
       transform="matrix(0.26458333,0,0,0.26458333,68.48066,45.149961)">
      <path
         id="path172"
         d="M 56.7,38.7 50.1,58.1 43.5,38.7 v -2.5 c -8.7,0.1 -11.3,-3.7 -11.3,-3.7 0,0 5,-0.1 4.7,-13.3 C 36.5,6.1 42.6,3.9 44.8,3 c 6.6,-2.5 9.9,1.5 9.9,1.5 7.7,-0.7 9.8,7.7 8.8,17.2 -0.9,9.5 4.3,11 4.3,11 -3.6,3.7 -11.2,3.4 -11.2,3.4 v 2.4 0 z M 26.5,59.4 h 23.3 0.6 23.3 c 0.6,0 1,-0.5 0.9,-1 L 73.2,51 c -0.4,-2.4 -2,-4.4 -4.2,-5.5 l -8.4,-4.1 c -0.5,-0.2 -1,-0.5 -1.4,-0.8 l 2.6,7.8 -3.7,-0.3 -8.1,10 -8.1,-10 -3.7,0.3 2.7,-8 -1.7,1 -8.2,4 c -2.2,1.1 -3.7,3.1 -4.2,5.5 l -1.3,7.4 c 0,0.6 0.4,1.1 1,1.1 z M 57.9,83.9 H 42.1 c -1.2,0 -2.2,1 -2.2,2.2 v 9.6 c 0,1.2 1,2.2 2.2,2.2 h 15.8 c 1.2,0 2.2,-1 2.2,-2.2 V 86 C 60,84.8 59.1,83.9 57.9,83.9 Z M 23.1,75.1 h 24.6 v 5 h 4.5 v -5 h 24.6 v 5 h 4.5 v -7.3 c 0,-1.2 -1,-2.2 -2.2,-2.2 H 52.2 v -7.4 h -4.5 v 7.4 H 20.9 c -1.2,0 -2.2,1 -2.2,2.2 v 7.3 h 4.5 v -5 z M 87,83.9 H 71.3 c -1.2,0 -2.2,1 -2.2,2.2 v 9.6 c 0,1.2 1,2.2 2.2,2.2 H 87 c 1.2,0 2.2,-1 2.2,-2.2 V 86 c 0,-1.2 -1,-2.1 -2.2,-2.1 z m -58.2,0 H 13 c -1.2,0 -2.2,1 -2.2,2.2 v 9.6 c 0,1.2 1,2.2 2.2,2.2 h 15.8 c 1.2,0 2.2,-1 2.2,-2.2 V 86 c -0.1,-1.2 -1.1,-2.1 -2.2,-2.1 z"
         inkscape:connector-curvature="0" />
    </g>
    <g
       style="fill:#000000"
       id="g223"
       transform="matrix(0.26458333,0,0,0.26458333,38.780416,86.013673)">
      <g
         id="g203">
        <path
           id="path185"
           d="m 58.212,42.35 c -0.028,-0.014 -0.059,-0.024 -0.09,-0.029 L 57.229,43.183 46.22,37.516 c -0.12,-0.011 -0.237,-0.017 -0.351,-0.017 -3.08,0 -3.743,3.959 -3.849,4.796 -0.007,0.056 -0.011,0.098 -0.014,0.124 -0.002,0.021 -0.004,0.031 -0.004,0.031 -0.107,-0.087 -0.216,-0.134 -0.323,-0.134 -0.02,0 -0.04,10e-4 -0.059,0.005 -0.055,0.009 -0.106,0.032 -0.153,0.066 -0.348,0.25 -0.488,1.122 -0.311,2.109 0.134,0.75 0.417,1.376 0.726,1.685 0.132,0.133 0.27,0.208 0.403,0.208 0.02,0 0.041,-0.002 0.061,-0.005 0.073,-0.013 0.14,-0.049 0.2,-0.104 0.731,2.275 2.127,4.542 3.89,5.911 1.038,0.807 2.204,1.302 3.436,1.302 1.224,0 2.383,-0.488 3.417,-1.286 1.771,-1.368 3.176,-3.643 3.91,-5.926 0.06,0.056 0.127,0.092 0.2,0.104 0.02,0.003 0.04,0.005 0.06,0.005 0.111,0 0.227,-0.051 0.34,-0.147 0.332,-0.283 0.646,-0.943 0.788,-1.745 0.187,-1.047 0.018,-1.964 -0.375,-2.148 z"
           inkscape:connector-curvature="0"
           style="fill:none" />
        <path
           id="path187"
           d="m 55.102,52.823 c -0.006,-0.003 -0.012,-0.006 -0.018,-0.009 -0.898,0.885 -1.896,1.586 -2.961,2.008 -0.723,0.287 -1.476,0.446 -2.251,0.446 -0.774,0 -1.528,-0.159 -2.25,-0.446 -1.075,-0.427 -2.082,-1.136 -2.986,-2.032 -0.001,0 -0.001,0 -0.001,0 0,1.104 -0.843,1.732 -1.416,2.032 -0.067,0.036 -0.133,0.067 -0.191,0.094 -0.143,0.065 -0.251,0.104 -0.299,0.119 0,0 0,0 0,0.001 0.034,0.282 0.159,0.556 0.361,0.814 0.946,1.21 3.606,2.958 6.741,2.958 3.135,0 5.795,-1.748 6.74,-2.958 0.203,-0.259 0.328,-0.532 0.362,-0.814 10e-4,-0.009 0.002,-0.017 0.003,-0.024 -0.385,-0.143 -1.812,-0.767 -1.834,-2.189 z"
           inkscape:connector-curvature="0"
           style="fill:none" />
        <path
           id="path189"
           d="m 73.066,46.29 c 0.123,0.124 0.252,0.185 0.374,0.163 0.06,-0.01 0.112,-0.039 0.162,-0.084 0.595,1.853 1.736,3.699 3.177,4.802 0.83,0.635 1.759,1.023 2.738,1.023 1.002,0 1.95,-0.406 2.794,-1.066 1.414,-1.106 2.535,-2.93 3.122,-4.759 0.049,0.045 0.103,0.074 0.162,0.084 0.105,0.019 0.215,-0.024 0.323,-0.115 0.269,-0.228 0.522,-0.761 0.638,-1.408 0.15,-0.845 0.015,-1.585 -0.304,-1.733 -0.022,-0.011 -0.047,-0.019 -0.071,-0.023 -0.098,-0.018 -0.201,0.019 -0.302,0.098 l -0.005,0.006 c 0,-10e-4 -10e-4,-10e-4 -10e-4,-0.002 -0.001,10e-4 -0.002,0.002 -0.002,0.002 -0.002,-0.005 -0.002,-0.011 -0.003,-0.018 -0.381,-1.448 -0.861,-2.334 -1.357,-2.862 -0.097,-0.053 -0.196,-0.099 -0.307,-0.13 -0.013,0.214 0.23,0.538 0.257,0.854 -0.688,-0.32 -1.346,-0.819 -2.307,-0.854 -0.226,-0.008 -0.468,-0.006 -0.718,-10e-4 -2.318,0.828 -4.867,-0.108 -4.867,-0.108 -2.907,-0.27 -3.368,2.75 -3.403,3.095 -0.002,0.009 -0.002,0.018 -0.003,0.025 v 0 c -0.104,-0.083 -0.209,-0.122 -0.311,-0.104 -0.044,0.008 -0.086,0.026 -0.123,0.054 -0.091,0.065 -0.162,0.187 -0.214,0.343 -0.029,0.407 -0.048,0.817 -0.054,1.242 0.007,0.04 0.01,0.078 0.018,0.118 0.11,0.603 0.337,1.108 0.587,1.358 z"
           inkscape:connector-curvature="0"
           style="fill:none" />
        <path
           id="path191"
           d="m 13.995,46.51 c 0.122,0.123 0.249,0.183 0.37,0.162 0.059,-0.01 0.111,-0.038 0.16,-0.083 0.589,1.833 1.718,3.658 3.142,4.748 0.821,0.628 1.74,1.013 2.709,1.013 0.991,0 1.929,-0.401 2.763,-1.055 1.399,-1.094 2.507,-2.897 3.089,-4.707 0.047,0.045 0.101,0.074 0.16,0.084 0.104,0.018 0.212,-0.025 0.319,-0.114 0.266,-0.225 0.517,-0.753 0.631,-1.393 0.149,-0.835 0.015,-1.567 -0.299,-1.715 -0.022,-0.01 -0.046,-0.019 -0.071,-0.023 -0.097,-0.017 -0.199,0.019 -0.298,0.098 l -0.006,0.006 c 0,-10e-4 0,-10e-4 0,-0.002 -0.001,10e-4 -0.002,0.002 -0.003,0.002 0,-0.005 0,-0.012 -0.001,-0.018 -0.377,-1.432 -0.852,-2.31 -1.343,-2.832 -0.096,-0.051 -0.194,-0.097 -0.302,-0.128 -0.013,0.211 0.228,0.533 0.253,0.845 -0.681,-0.317 -1.332,-0.81 -2.282,-0.845 -0.223,-0.008 -0.463,-0.006 -0.709,-10e-4 -2.294,0.819 -4.814,-0.107 -4.814,-0.107 -2.875,-0.267 -3.331,2.72 -3.366,3.062 0,0.008 -10e-4,0.017 -0.002,0.025 v 0 c -0.103,-0.083 -0.207,-0.121 -0.306,-0.103 -0.044,0.007 -0.085,0.025 -0.123,0.052 -0.09,0.065 -0.16,0.185 -0.212,0.34 -0.028,0.402 -0.046,0.809 -0.053,1.228 0.006,0.039 0.01,0.077 0.017,0.117 0.105,0.598 0.33,1.097 0.577,1.344 z"
           inkscape:connector-curvature="0"
           style="fill:none" />
        <path
           id="path193"
           d="m 33.183,55.79 c -1.426,-1.531 -2.841,-1.649 -3.273,-1.75 -1.362,-0.319 -3.013,-0.183 -3.893,-0.458 -0.154,1.289 -2.635,2.314 -5.673,2.314 -3.038,0 -5.519,-1.025 -5.673,-2.314 -0.88,0.276 -2.529,0.139 -3.893,0.458 -0.691,0.161 -3.907,0.368 -5.646,6.354 -0.236,0.813 -0.153,1.697 0.231,2.421 1.425,2.696 8.921,3.526 14.981,3.524 2.771,0.001 5.843,-0.174 8.498,-0.62 -0.148,-0.881 -0.104,-1.801 0.15,-2.677 0.947,-3.26 2.352,-5.682 4.191,-7.252 z"
           inkscape:connector-curvature="0"
           style="fill:#000000" />
        <path
           id="path195"
           d="m 13.331,47.21 c 0.641,1.725 1.656,3.4 2.911,4.626 0.71,0.694 1.498,1.243 2.337,1.577 0.577,0.228 1.179,0.355 1.797,0.355 0.619,0 1.221,-0.128 1.798,-0.355 0.869,-0.345 1.683,-0.921 2.412,-1.65 1.224,-1.222 2.214,-2.872 2.842,-4.567 0.483,-0.142 0.99,-1.048 1.196,-2.205 0.225,-1.254 0.013,-2.35 -0.471,-2.532 0.017,-0.307 0.029,-0.616 0.028,-0.935 -0.012,-4.55 -2.679,-7.554 -6.886,-7.836 -3.667,-0.247 -6.43,1.211 -7.688,3.632 -0.424,0.815 -0.666,2.194 -0.758,3.302 -0.141,0.576 -0.224,1.175 -0.224,1.795 h 0.014 c 0,0.004 -10e-4,0.009 -10e-4,0.015 -0.009,0 -0.018,0 -0.027,0.002 -0.537,0.094 -0.781,1.238 -0.546,2.556 0.215,1.212 0.761,2.15 1.266,2.22 z m 0.121,-3.39 c 0.052,-0.155 0.122,-0.275 0.212,-0.34 0.038,-0.026 0.079,-0.044 0.123,-0.052 0.099,-0.018 0.204,0.02 0.306,0.103 v 0 c 0,-0.008 10e-4,-0.017 0.002,-0.025 0.035,-0.342 0.491,-3.329 3.366,-3.062 0,0 2.521,0.926 4.814,0.107 0.247,-0.005 0.487,-0.007 0.709,10e-4 0.95,0.036 1.601,0.528 2.282,0.845 -0.026,-0.313 -0.267,-0.634 -0.253,-0.845 0.108,0.031 0.207,0.078 0.302,0.128 0.491,0.522 0.966,1.4 1.343,2.832 10e-4,0.005 10e-4,0.012 10e-4,0.018 0.001,0 0.002,-10e-4 0.003,-0.002 0,0.001 0,0.001 0,0.002 l 0.006,-0.006 c 0.099,-0.079 0.201,-0.114 0.298,-0.098 0.025,0.004 0.049,0.013 0.071,0.023 0.313,0.147 0.448,0.88 0.299,1.715 -0.114,0.64 -0.365,1.168 -0.631,1.393 -0.106,0.089 -0.215,0.132 -0.319,0.114 -0.059,-0.01 -0.112,-0.039 -0.16,-0.084 -0.582,1.81 -1.69,3.613 -3.089,4.707 -0.834,0.653 -1.772,1.055 -2.763,1.055 -0.969,0 -1.888,-0.385 -2.709,-1.013 -1.424,-1.09 -2.553,-2.916 -3.142,-4.748 -0.048,0.045 -0.101,0.073 -0.16,0.083 -0.121,0.021 -0.248,-0.039 -0.37,-0.162 -0.247,-0.247 -0.472,-0.747 -0.58,-1.346 -0.007,-0.04 -0.01,-0.078 -0.017,-0.117 0.01,-0.418 0.027,-0.824 0.056,-1.226 z"
           inkscape:connector-curvature="0" />
        <path
           id="path197"
           d="m 94.866,60.328 c -1.76,-6.054 -5.011,-6.262 -5.711,-6.425 -1.377,-0.322 -3.045,-0.185 -3.936,-0.462 -0.104,0.872 -2.644,3.744 -4.308,5.545 l -0.722,-2.78 c 0.543,-0.32 0.66,-1.026 0.66,-1.612 h -2.733 c 0,0.582 0.117,1.28 0.647,1.604 l -0.708,2.788 c -1.665,-1.801 -4.203,-4.672 -4.309,-5.545 -0.889,0.278 -2.559,0.141 -3.936,0.463 -0.443,0.104 -1.912,0.228 -3.377,1.845 1.861,1.57 3.28,4.008 4.236,7.297 0.252,0.869 0.296,1.781 0.152,2.656 2.699,0.46 5.834,0.639 8.66,0.639 6.128,0.001 13.707,-0.838 15.148,-3.563 0.392,-0.734 0.476,-1.628 0.237,-2.45 z"
           inkscape:connector-curvature="0" />
        <path
           id="path199"
           d="m 72.394,46.997 c 0.648,1.744 1.674,3.437 2.943,4.677 0.718,0.702 1.514,1.258 2.362,1.595 0.583,0.231 1.193,0.359 1.817,0.359 0.626,0 1.235,-0.128 1.818,-0.359 0.878,-0.348 1.701,-0.931 2.438,-1.668 1.238,-1.236 2.238,-2.904 2.873,-4.618 0.489,-0.144 1.002,-1.06 1.21,-2.229 0.228,-1.269 0.013,-2.376 -0.477,-2.561 0.018,-0.31 0.029,-0.623 0.028,-0.945 -0.012,-4.6 -2.709,-7.275 -6.962,-7.56 -3.708,-0.249 -6.502,1.224 -7.774,3.673 -0.428,0.824 -0.673,1.854 -0.766,2.975 -0.144,0.583 -0.227,1.189 -0.227,1.815 h 0.013 c 0,0.005 0,0.01 -0.001,0.014 -0.009,10e-4 -0.018,10e-4 -0.027,0.003 -0.542,0.094 -0.789,1.251 -0.551,2.584 0.22,1.227 0.773,2.173 1.283,2.245 z m 0.123,-3.428 c 0.052,-0.156 0.123,-0.278 0.214,-0.343 0.037,-0.028 0.079,-0.046 0.123,-0.054 0.102,-0.018 0.207,0.021 0.311,0.104 v 0 c 10e-4,-0.008 10e-4,-0.017 0.003,-0.025 0.035,-0.345 0.496,-3.365 3.403,-3.095 0,0 2.549,0.937 4.867,0.108 0.25,-0.005 0.492,-0.007 0.718,10e-4 0.961,0.035 1.618,0.534 2.307,0.854 -0.026,-0.316 -0.27,-0.64 -0.257,-0.854 0.11,0.031 0.21,0.078 0.307,0.13 0.496,0.528 0.977,1.415 1.357,2.862 10e-4,0.007 10e-4,0.013 0.002,0.019 0,0 0.002,-0.001 0.003,-0.002 0,0 0.001,10e-4 0.001,0.002 l 0.005,-0.006 c 0.101,-0.079 0.204,-0.116 0.302,-0.098 0.024,0.004 0.049,0.012 0.071,0.023 0.318,0.148 0.454,0.889 0.304,1.733 -0.115,0.647 -0.369,1.181 -0.638,1.408 -0.108,0.091 -0.218,0.134 -0.323,0.115 -0.06,-0.01 -0.113,-0.039 -0.162,-0.084 -0.587,1.829 -1.708,3.652 -3.122,4.759 -0.844,0.66 -1.792,1.066 -2.794,1.066 -0.979,0 -1.908,-0.389 -2.738,-1.023 -1.44,-1.103 -2.582,-2.949 -3.177,-4.802 -0.05,0.045 -0.103,0.074 -0.162,0.084 -0.122,0.022 -0.251,-0.039 -0.374,-0.163 -0.25,-0.25 -0.478,-0.755 -0.586,-1.361 -0.008,-0.041 -0.011,-0.079 -0.018,-0.118 0.005,-0.423 0.023,-0.833 0.053,-1.24 z"
           inkscape:connector-curvature="0" />
        <path
           id="path201"
           d="m 61.808,55.608 c -0.101,-0.023 -0.202,-0.045 -0.305,-0.064 -2.63,-2.43 -0.835,-12.572 -0.835,-12.572 0,-12.917 -7.301,-13.979 -9.702,-13.979 -0.472,0 -0.755,0.041 -0.755,0.041 -0.128,-0.007 -0.254,-0.012 -0.379,-0.017 -0.125,0.004 -0.251,0.01 -0.379,0.017 0,0 -0.282,-0.041 -0.755,-0.041 -2.4,0 -9.702,1.061 -9.702,13.979 0,0 1.794,10.143 -0.835,12.572 -0.103,0.02 -0.205,0.041 -0.304,0.064 -0.868,0.202 -4.893,0.461 -7.072,7.956 -0.295,1.018 -0.19,2.124 0.29,3.031 1.783,3.371 11.154,4.412 18.737,4.412 0.007,0 0.013,0 0.02,0 0.006,0 0.013,0 0.02,0 7.584,0 16.955,-1.04 18.738,-4.412 0.479,-0.907 0.583,-2.014 0.288,-3.031 -2.179,-7.495 -6.203,-7.753 -7.07,-7.956 z m -4.873,-0.572 c -0.034,0.282 -0.159,0.556 -0.362,0.814 -0.945,1.21 -3.605,2.958 -6.74,2.958 -3.135,0 -5.795,-1.748 -6.741,-2.958 -0.202,-0.259 -0.327,-0.532 -0.361,-0.814 0,-0.001 0,-0.001 0,-0.001 0.048,-0.016 0.156,-0.054 0.299,-0.119 0.058,-0.026 0.124,-0.058 0.191,-0.094 0.573,-0.3 1.416,-0.929 1.416,-2.032 0,0 0,0 10e-4,0 0.904,0.896 1.911,1.605 2.986,2.032 0.722,0.287 1.476,0.446 2.25,0.446 0.775,0 1.528,-0.159 2.251,-0.446 1.064,-0.422 2.063,-1.123 2.961,-2.008 0.006,0.003 0.012,0.006 0.018,0.009 0.022,1.422 1.449,2.046 1.836,2.188 -0.003,0.009 -0.004,0.016 -0.005,0.025 z m 1.651,-10.54 c -0.142,0.802 -0.456,1.462 -0.788,1.745 -0.113,0.096 -0.229,0.147 -0.34,0.147 -0.02,0 -0.04,-10e-4 -0.06,-0.005 -0.073,-0.012 -0.141,-0.049 -0.2,-0.104 -0.734,2.283 -2.139,4.558 -3.91,5.926 -1.033,0.798 -2.192,1.286 -3.417,1.286 -1.231,0 -2.397,-0.495 -3.436,-1.302 -1.762,-1.369 -3.159,-3.636 -3.89,-5.911 -0.06,0.055 -0.127,0.092 -0.2,0.104 -0.02,0.003 -0.041,0.005 -0.061,0.005 -0.133,0 -0.271,-0.075 -0.403,-0.208 -0.309,-0.309 -0.592,-0.935 -0.726,-1.685 -0.177,-0.987 -0.037,-1.859 0.311,-2.109 0.047,-0.034 0.099,-0.057 0.153,-0.066 0.02,-0.003 0.04,-0.005 0.059,-0.005 0.107,0 0.216,0.047 0.323,0.134 0,0 0.001,-0.01 0.004,-0.031 0.003,-0.026 0.007,-0.068 0.014,-0.124 0.106,-0.837 0.769,-4.796 3.849,-4.796 0.113,0 0.231,0.005 0.351,0.017 l 11.009,5.667 0.893,-0.862 c 0.031,0.005 0.062,0.016 0.09,0.029 0.394,0.186 0.563,1.103 0.375,2.148 z"
           inkscape:connector-curvature="0" />
      </g>
    </g>
    <text
       xml:space="preserve"
       style="font-style:normal;font-variant:normal;font-weight:normal;font-stretch:normal;font-size:2.82222223px;line-height:1.25;font-family:sans-serif;-inkscape-font-specification:'sans-serif, Normal';font-variant-ligatures:normal;font-variant-caps:normal;font-variant-numeric:normal;font-feature-settings:normal;text-align:start;letter-spacing:0px;word-spacing:0px;writing-mode:lr-tb;text-anchor:start;fill:#000000;fill-opacity:1;stroke:none;stroke-width:0.26458332"
       x="19.073298"
       y="152.26987"
       id="text7882"
       transform="rotate(-19.462943)"><tspan
         sodipodi:role="line"
         id="tspan7884"
         x="19.073298"
         y="152.26987">F3 depends on F2</tspan></text>
    <g
       style="fill:#000000"
       id="g8020"
       transform="matrix(0.26458333,0,0,0.26458333,68.867751,78.351145)">
      <path
         style="fill:#969696;fill-opacity:1;fill-rule:nonzero;stroke:none;stroke-width:1"
         inkscape:connector-curvature="0"
         d="M 13,20 V 80 H 27 V 20 Z m 0,-3 h 14 c 1.656854,0 3,1.343146 3,3 v 60 c 0,1.656854 -1.343146,3 -3,3 H 13 c -1.656854,0 -3,-1.343146 -3,-3 V 20 c 0,-1.656854 1.343146,-3 3,-3 z"
         id="path7970" />
      <path
         style="fill:#0000fd;fill-opacity:1;fill-rule:nonzero;stroke:#0000ff;stroke-width:1;stroke-opacity:1"
         inkscape:connector-curvature="0"
         d="m 37,17 h 14 c 1.656854,0 3,1.343146 3,3 v 13 c 0,1.656854 -1.343146,3 -3,3 H 37 c -1.656854,0 -3,-1.343146 -3,-3 V 20 c 0,-1.656854 1.343146,-3 3,-3 z"
         id="path7972" />
      <rect
         style="fill:#969696;fill-opacity:1;fill-rule:evenodd;stroke:none;stroke-width:1"
         x="58"
         y="18"
         width="32"
         height="3"
         rx="1.5"
         id="rect7974" />
      <rect
         style="fill:#969696;fill-opacity:1;fill-rule:evenodd;stroke:none;stroke-width:1"
         x="58"
         y="25"
         width="32"
         height="3"
         rx="1.5"
         id="rect7976" />
      <rect
         style="fill:#969696;fill-opacity:1;fill-rule:evenodd;stroke:none;stroke-width:1"
         x="58"
         y="32"
         width="32"
         height="3"
         rx="1.5"
         id="rect7978" />
      <rect
         style="fill:#969696;fill-opacity:1;fill-rule:evenodd;stroke:none;stroke-width:1"
         x="58"
         y="41"
         width="32"
         height="3"
         rx="1.5"
         id="rect7980" />
      <rect
         style="fill:#969696;fill-opacity:1;fill-rule:evenodd;stroke:none;stroke-width:1"
         x="58"
         y="48"
         width="32"
         height="3"
         rx="1.5"
         id="rect7982" />
      <rect
         style="fill:#969696;fill-opacity:1;fill-rule:evenodd;stroke:none;stroke-width:1"
         x="58"
         y="55"
         width="32"
         height="3"
         rx="1.5"
         id="rect7984" />
      <rect
         style="fill:#969696;fill-opacity:1;fill-rule:evenodd;stroke:none;stroke-width:1"
         x="58"
         y="65"
         width="32"
         height="3"
         rx="1.5"
         id="rect7986" />
      <rect
         style="fill:#969696;fill-opacity:1;fill-rule:evenodd;stroke:none;stroke-width:1"
         x="58"
         y="72"
         width="32"
         height="3"
         rx="1.5"
         id="rect7988" />
      <rect
         style="fill:#969696;fill-opacity:1;fill-rule:evenodd;stroke:none;stroke-width:1"
         x="58"
         y="79"
         width="32"
         height="3"
         rx="1.5"
         id="rect7990" />
      <path
         style="fill:#00b600;fill-opacity:1;fill-rule:nonzero;stroke:#00b600;stroke-width:1;stroke-opacity:1"
         inkscape:connector-curvature="0"
         d="m 37,40.5 h 14 c 1.656854,0 3,1.343146 3,3 v 13 c 0,1.656854 -1.343146,3 -3,3 H 37 c -1.656854,0 -3,-1.343146 -3,-3 v -13 c 0,-1.656854 1.343146,-3 3,-3 z"
         id="path7992" />
      <path
         style="fill:#0000fd;fill-opacity:1;fill-rule:nonzero;stroke:#0000fd;stroke-width:1;stroke-opacity:1"
         inkscape:connector-curvature="0"
         d="m 37,64 h 14 c 1.656854,0 3,1.343146 3,3 v 13 c 0,1.656854 -1.343146,3 -3,3 H 37 c -1.656854,0 -3,-1.343146 -3,-3 V 67 c 0,-1.656854 1.343146,-3 3,-3 z"
         id="path7994" />
    </g>
    <path
       id="path8152"
       d="m 42.360577,114.05932 v 15.875 h 3.704167 v -15.875 z m 0,-0.79375 h 3.704167 c 0.438376,0 0.79375,0.35537 0.79375,0.79375 v 15.875 c 0,0.43837 -0.355374,0.79375 -0.79375,0.79375 h -3.704167 c -0.438376,0 -0.79375,-0.35538 -0.79375,-0.79375 v -15.875 c 0,-0.43838 0.355374,-0.79375 0.79375,-0.79375 z"
       inkscape:connector-curvature="0"
       style="fill:#0000ff;fill-opacity:1;fill-rule:nonzero;stroke:#0000ff;stroke-width:0.265;stroke-miterlimit:4;stroke-dasharray:none;stroke-opacity:1" />
    <path
       id="path8154"
       d="m 48.710577,113.26557 h 3.704167 c 0.438376,0 0.79375,0.35537 0.79375,0.79375 v 3.43958 c 0,0.43838 -0.355374,0.79375 -0.79375,0.79375 h -3.704167 c -0.438376,0 -0.79375,-0.35537 -0.79375,-0.79375 v -3.43958 c 0,-0.43838 0.355374,-0.79375 0.79375,-0.79375 z"
       inkscape:connector-curvature="0"
       style="fill:#969696;fill-opacity:1;fill-rule:nonzero;stroke:none;stroke-width:0.26458332" />
    <rect
       id="rect8156"
       rx="0.39687499"
       height="0.79374999"
       width="8.4666662"
       y="113.53025"
       x="54.26683"
       style="fill:#969696;fill-opacity:1;fill-rule:evenodd;stroke:none;stroke-width:0.26458332" />
    <rect
       id="rect8158"
       rx="0.39687499"
       height="0.79374999"
       width="8.4666662"
       y="115.38232"
       x="54.26683"
       style="fill:#969696;fill-opacity:1;fill-rule:evenodd;stroke:none;stroke-width:0.26458332" />
    <rect
       id="rect8160"
       rx="0.39687499"
       height="0.79374999"
       width="8.4666662"
       y="117.23442"
       x="54.26683"
       style="fill:#969696;fill-opacity:1;fill-rule:evenodd;stroke:none;stroke-width:0.26458332" />
    <rect
       id="rect8162"
       rx="0.39687499"
       height="0.79374999"
       width="8.4666662"
       y="119.61574"
       x="54.26683"
       style="fill:#969696;fill-opacity:1;fill-rule:evenodd;stroke:none;stroke-width:0.26458332" />
    <rect
       id="rect8164"
       rx="0.39687499"
       height="0.79374999"
       width="8.4666662"
       y="121.4678"
       x="54.26683"
       style="fill:#969696;fill-opacity:1;fill-rule:evenodd;stroke:none;stroke-width:0.26458332" />
    <rect
       id="rect8166"
       rx="0.39687499"
       height="0.79374999"
       width="8.4666662"
       y="123.31992"
       x="54.26683"
       style="fill:#969696;fill-opacity:1;fill-rule:evenodd;stroke:none;stroke-width:0.26458332" />
    <rect
       id="rect8168"
       rx="0.39687499"
       height="0.79374999"
       width="8.4666662"
       y="125.96574"
       x="54.26683"
       style="fill:#969696;fill-opacity:1;fill-rule:evenodd;stroke:none;stroke-width:0.26458332" />
    <rect
       id="rect8170"
       rx="0.39687499"
       height="0.79374999"
       width="8.4666662"
       y="127.81784"
       x="54.26683"
       style="fill:#969696;fill-opacity:1;fill-rule:evenodd;stroke:none;stroke-width:0.26458332" />
    <rect
       id="rect8172"
       rx="0.39687499"
       height="0.79374999"
       width="8.4666662"
       y="129.66991"
       x="54.26683"
       style="fill:#969696;fill-opacity:1;fill-rule:evenodd;stroke:none;stroke-width:0.26458332" />
    <path
       id="path8174"
       d="m 48.710577,119.48327 h 3.704167 c 0.438376,0 0.79375,0.35538 0.79375,0.79375 v 3.43959 c 0,0.43837 -0.355374,0.79375 -0.79375,0.79375 h -3.704167 c -0.438376,0 -0.79375,-0.35538 -0.79375,-0.79375 v -3.43959 c 0,-0.43837 0.355374,-0.79375 0.79375,-0.79375 z"
       inkscape:connector-curvature="0"
       style="fill:#969696;fill-opacity:1;fill-rule:nonzero;stroke:none;stroke-width:0.26458332" />
    <path
       id="path8176"
       d="m 48.710577,125.70098 h 3.704167 c 0.438376,0 0.79375,0.35538 0.79375,0.79375 v 3.43959 c 0,0.43837 -0.355374,0.79375 -0.79375,0.79375 h -3.704167 c -0.438376,0 -0.79375,-0.35538 -0.79375,-0.79375 v -3.43959 c 0,-0.43837 0.355374,-0.79375 0.79375,-0.79375 z"
       inkscape:connector-curvature="0"
       style="fill:#969696;fill-opacity:1;fill-rule:nonzero;stroke:none;stroke-width:0.26458332" />
    <path
       id="path8267"
       d="m 101.72261,113.53014 v 15.875 h 3.70416 v -15.875 z m 0,-0.79375 h 3.70416 c 0.43838,0 0.79375,0.35537 0.79375,0.79375 v 15.875 c 0,0.43837 -0.35537,0.79375 -0.79375,0.79375 h -3.70416 c -0.43838,0 -0.79375,-0.35538 -0.79375,-0.79375 v -15.875 c 0,-0.43838 0.35537,-0.79375 0.79375,-0.79375 z"
       inkscape:connector-curvature="0"
       style="fill:#00b600;fill-opacity:1;fill-rule:nonzero;stroke:#00b600;stroke-width:0.26499999;stroke-miterlimit:4;stroke-dasharray:none;stroke-opacity:1" />
    <path
       id="path8269"
       d="m 108.07261,112.73639 h 3.70416 c 0.43838,0 0.79375,0.35537 0.79375,0.79375 v 3.43958 c 0,0.43838 -0.35537,0.79375 -0.79375,0.79375 h -3.70416 c -0.43838,0 -0.79375,-0.35537 -0.79375,-0.79375 v -3.43958 c 0,-0.43838 0.35537,-0.79375 0.79375,-0.79375 z"
       inkscape:connector-curvature="0"
       style="fill:#969696;fill-opacity:1;fill-rule:nonzero;stroke:none;stroke-width:0.26458332" />
    <rect
       id="rect8271"
       rx="0.39687499"
       height="0.79374999"
       width="8.4666662"
       y="113.00108"
       x="113.62886"
       style="fill:#969696;fill-opacity:1;fill-rule:evenodd;stroke:none;stroke-width:0.26458332" />
    <rect
       id="rect8273"
       rx="0.39687499"
       height="0.79374999"
       width="8.4666662"
       y="114.85316"
       x="113.62886"
       style="fill:#969696;fill-opacity:1;fill-rule:evenodd;stroke:none;stroke-width:0.26458332" />
    <rect
       id="rect8275"
       rx="0.39687499"
       height="0.79374999"
       width="8.4666662"
       y="116.70523"
       x="113.62886"
       style="fill:#969696;fill-opacity:1;fill-rule:evenodd;stroke:none;stroke-width:0.26458332" />
    <rect
       id="rect8277"
       rx="0.39687499"
       height="0.79374999"
       width="8.4666662"
       y="119.08649"
       x="113.62886"
       style="fill:#969696;fill-opacity:1;fill-rule:evenodd;stroke:none;stroke-width:0.26458332" />
    <rect
       id="rect8279"
       rx="0.39687499"
       height="0.79374999"
       width="8.4666662"
       y="120.93861"
       x="113.62886"
       style="fill:#969696;fill-opacity:1;fill-rule:evenodd;stroke:none;stroke-width:0.26458332" />
    <rect
       id="rect8281"
       rx="0.39687499"
       height="0.79374999"
       width="8.4666662"
       y="122.79074"
       x="113.62886"
       style="fill:#969696;fill-opacity:1;fill-rule:evenodd;stroke:none;stroke-width:0.26458332" />
    <rect
       id="rect8283"
       rx="0.39687499"
       height="0.79374999"
       width="8.4666662"
       y="125.43658"
       x="113.62886"
       style="fill:#969696;fill-opacity:1;fill-rule:evenodd;stroke:none;stroke-width:0.26458332" />
    <rect
       id="rect8285"
       rx="0.39687499"
       height="0.79374999"
       width="8.4666662"
       y="127.28867"
       x="113.62886"
       style="fill:#969696;fill-opacity:1;fill-rule:evenodd;stroke:none;stroke-width:0.26458332" />
    <rect
       id="rect8287"
       rx="0.39687499"
       height="0.79374999"
       width="8.4666662"
       y="129.14075"
       x="113.62886"
       style="fill:#969696;fill-opacity:1;fill-rule:evenodd;stroke:none;stroke-width:0.26458332" />
    <path
       id="path8289"
       d="m 108.07261,118.95409 h 3.70416 c 0.43838,0 0.79375,0.35538 0.79375,0.79375 v 3.43959 c 0,0.43837 -0.35537,0.79375 -0.79375,0.79375 h -3.70416 c -0.43838,0 -0.79375,-0.35538 -0.79375,-0.79375 v -3.43959 c 0,-0.43837 0.35537,-0.79375 0.79375,-0.79375 z"
       inkscape:connector-curvature="0"
       style="fill:#969696;fill-opacity:1;fill-rule:nonzero;stroke:none;stroke-width:0.26458332" />
    <path
       id="path8291"
       d="m 108.07261,125.1718 h 3.70416 c 0.43838,0 0.79375,0.35538 0.79375,0.79375 v 3.43959 c 0,0.43837 -0.35537,0.79375 -0.79375,0.79375 h -3.70416 c -0.43838,0 -0.79375,-0.35538 -0.79375,-0.79375 v -3.43959 c 0,-0.43837 0.35537,-0.79375 0.79375,-0.79375 z"
       inkscape:connector-curvature="0"
       style="fill:#969696;fill-opacity:1;fill-rule:nonzero;stroke:none;stroke-width:0.26458332" />
    <g
       style="fill:#000000"
       id="g10277"
       transform="matrix(0.26458333,0,0,0.26458333,39.095843,57.647072)">
      <path
         id="path10266"
         d="M 56.7,38.7 50.1,58.1 43.5,38.7 v -2.5 c -8.7,0.1 -11.3,-3.7 -11.3,-3.7 0,0 5,-0.1 4.7,-13.3 C 36.5,6.1 42.6,3.9 44.8,3 c 6.6,-2.5 9.9,1.5 9.9,1.5 7.7,-0.7 9.8,7.7 8.8,17.2 -0.9,9.5 4.3,11 4.3,11 -3.6,3.7 -11.2,3.4 -11.2,3.4 v 2.4 0 z M 26.5,59.4 h 23.3 0.6 23.3 c 0.6,0 1,-0.5 0.9,-1 L 73.2,51 c -0.4,-2.4 -2,-4.4 -4.2,-5.5 l -8.4,-4.1 c -0.5,-0.2 -1,-0.5 -1.4,-0.8 l 2.6,7.8 -3.7,-0.3 -8.1,10 -8.1,-10 -3.7,0.3 2.7,-8 -1.7,1 -8.2,4 c -2.2,1.1 -3.7,3.1 -4.2,5.5 l -1.3,7.4 c 0,0.6 0.4,1.1 1,1.1 z M 57.9,83.9 H 42.1 c -1.2,0 -2.2,1 -2.2,2.2 v 9.6 c 0,1.2 1,2.2 2.2,2.2 h 15.8 c 1.2,0 2.2,-1 2.2,-2.2 V 86 C 60,84.8 59.1,83.9 57.9,83.9 Z M 23.1,75.1 h 24.6 v 5 h 4.5 v -5 h 24.6 v 5 h 4.5 v -7.3 c 0,-1.2 -1,-2.2 -2.2,-2.2 H 52.2 v -7.4 h -4.5 v 7.4 H 20.9 c -1.2,0 -2.2,1 -2.2,2.2 v 7.3 h 4.5 v -5 z M 87,83.9 H 71.3 c -1.2,0 -2.2,1 -2.2,2.2 v 9.6 c 0,1.2 1,2.2 2.2,2.2 H 87 c 1.2,0 2.2,-1 2.2,-2.2 V 86 c 0,-1.2 -1,-2.1 -2.2,-2.1 z m -58.2,0 H 13 c -1.2,0 -2.2,1 -2.2,2.2 v 9.6 c 0,1.2 1,2.2 2.2,2.2 h 15.8 c 1.2,0 2.2,-1 2.2,-2.2 V 86 c -0.1,-1.2 -1.1,-2.1 -2.2,-2.1 z"
         inkscape:connector-curvature="0" />
    </g>
    <g
       style="fill:#000000"
       id="g10957"
       transform="matrix(0.26458333,0,0,0.26458333,96.731695,57.133626)">
      <path
         id="path10946"
         d="M 56.7,38.7 50.1,58.1 43.5,38.7 v -2.5 c -8.7,0.1 -11.3,-3.7 -11.3,-3.7 0,0 5,-0.1 4.7,-13.3 C 36.5,6.1 42.6,3.9 44.8,3 c 6.6,-2.5 9.9,1.5 9.9,1.5 7.7,-0.7 9.8,7.7 8.8,17.2 -0.9,9.5 4.3,11 4.3,11 -3.6,3.7 -11.2,3.4 -11.2,3.4 v 2.4 0 z M 26.5,59.4 h 23.3 0.6 23.3 c 0.6,0 1,-0.5 0.9,-1 L 73.2,51 c -0.4,-2.4 -2,-4.4 -4.2,-5.5 l -8.4,-4.1 c -0.5,-0.2 -1,-0.5 -1.4,-0.8 l 2.6,7.8 -3.7,-0.3 -8.1,10 -8.1,-10 -3.7,0.3 2.7,-8 -1.7,1 -8.2,4 c -2.2,1.1 -3.7,3.1 -4.2,5.5 l -1.3,7.4 c 0,0.6 0.4,1.1 1,1.1 z M 57.9,83.9 H 42.1 c -1.2,0 -2.2,1 -2.2,2.2 v 9.6 c 0,1.2 1,2.2 2.2,2.2 h 15.8 c 1.2,0 2.2,-1 2.2,-2.2 V 86 C 60,84.8 59.1,83.9 57.9,83.9 Z M 23.1,75.1 h 24.6 v 5 h 4.5 v -5 h 24.6 v 5 h 4.5 v -7.3 c 0,-1.2 -1,-2.2 -2.2,-2.2 H 52.2 v -7.4 h -4.5 v 7.4 H 20.9 c -1.2,0 -2.2,1 -2.2,2.2 v 7.3 h 4.5 v -5 z M 87,83.9 H 71.3 c -1.2,0 -2.2,1 -2.2,2.2 v 9.6 c 0,1.2 1,2.2 2.2,2.2 H 87 c 1.2,0 2.2,-1 2.2,-2.2 V 86 c 0,-1.2 -1,-2.1 -2.2,-2.1 z m -58.2,0 H 13 c -1.2,0 -2.2,1 -2.2,2.2 v 9.6 c 0,1.2 1,2.2 2.2,2.2 h 15.8 c 1.2,0 2.2,-1 2.2,-2.2 V 86 c -0.1,-1.2 -1.1,-2.1 -2.2,-2.1 z"
         inkscape:connector-curvature="0" />
    </g>
    <g
       style="fill:#000000"
       id="g11084"
       transform="matrix(0.26458333,0,0,0.26458333,97.232838,85.454985)">
      <g
         id="g11064">
        <path
           id="path11046"
           d="m 58.212,42.35 c -0.028,-0.014 -0.059,-0.024 -0.09,-0.029 L 57.229,43.183 46.22,37.516 c -0.12,-0.011 -0.237,-0.017 -0.351,-0.017 -3.08,0 -3.743,3.959 -3.849,4.796 -0.007,0.056 -0.011,0.098 -0.014,0.124 -0.002,0.021 -0.004,0.031 -0.004,0.031 -0.107,-0.087 -0.216,-0.134 -0.323,-0.134 -0.02,0 -0.04,10e-4 -0.059,0.005 -0.055,0.009 -0.106,0.032 -0.153,0.066 -0.348,0.25 -0.488,1.122 -0.311,2.109 0.134,0.75 0.417,1.376 0.726,1.685 0.132,0.133 0.27,0.208 0.403,0.208 0.02,0 0.041,-0.002 0.061,-0.005 0.073,-0.013 0.14,-0.049 0.2,-0.104 0.731,2.275 2.127,4.542 3.89,5.911 1.038,0.807 2.204,1.302 3.436,1.302 1.224,0 2.383,-0.488 3.417,-1.286 1.771,-1.368 3.176,-3.643 3.91,-5.926 0.06,0.056 0.127,0.092 0.2,0.104 0.02,0.003 0.04,0.005 0.06,0.005 0.111,0 0.227,-0.051 0.34,-0.147 0.332,-0.283 0.646,-0.943 0.788,-1.745 0.187,-1.047 0.018,-1.964 -0.375,-2.148 z"
           inkscape:connector-curvature="0"
           style="fill:none" />
        <path
           id="path11048"
           d="m 55.102,52.823 c -0.006,-0.003 -0.012,-0.006 -0.018,-0.009 -0.898,0.885 -1.896,1.586 -2.961,2.008 -0.723,0.287 -1.476,0.446 -2.251,0.446 -0.774,0 -1.528,-0.159 -2.25,-0.446 -1.075,-0.427 -2.082,-1.136 -2.986,-2.032 -0.001,0 -0.001,0 -0.001,0 0,1.104 -0.843,1.732 -1.416,2.032 -0.067,0.036 -0.133,0.067 -0.191,0.094 -0.143,0.065 -0.251,0.104 -0.299,0.119 0,0 0,0 0,0.001 0.034,0.282 0.159,0.556 0.361,0.814 0.946,1.21 3.606,2.958 6.741,2.958 3.135,0 5.795,-1.748 6.74,-2.958 0.203,-0.259 0.328,-0.532 0.362,-0.814 10e-4,-0.009 0.002,-0.017 0.003,-0.024 -0.385,-0.143 -1.812,-0.767 -1.834,-2.189 z"
           inkscape:connector-curvature="0"
           style="fill:none" />
        <path
           id="path11050"
           d="m 73.066,46.29 c 0.123,0.124 0.252,0.185 0.374,0.163 0.06,-0.01 0.112,-0.039 0.162,-0.084 0.595,1.853 1.736,3.699 3.177,4.802 0.83,0.635 1.759,1.023 2.738,1.023 1.002,0 1.95,-0.406 2.794,-1.066 1.414,-1.106 2.535,-2.93 3.122,-4.759 0.049,0.045 0.103,0.074 0.162,0.084 0.105,0.019 0.215,-0.024 0.323,-0.115 0.269,-0.228 0.522,-0.761 0.638,-1.408 0.15,-0.845 0.015,-1.585 -0.304,-1.733 -0.022,-0.011 -0.047,-0.019 -0.071,-0.023 -0.098,-0.018 -0.201,0.019 -0.302,0.098 l -0.005,0.006 c 0,-10e-4 -10e-4,-10e-4 -10e-4,-0.002 -0.001,10e-4 -0.002,0.002 -0.002,0.002 -0.002,-0.005 -0.002,-0.011 -0.003,-0.018 -0.381,-1.448 -0.861,-2.334 -1.357,-2.862 -0.097,-0.053 -0.196,-0.099 -0.307,-0.13 -0.013,0.214 0.23,0.538 0.257,0.854 -0.688,-0.32 -1.346,-0.819 -2.307,-0.854 -0.226,-0.008 -0.468,-0.006 -0.718,-10e-4 -2.318,0.828 -4.867,-0.108 -4.867,-0.108 -2.907,-0.27 -3.368,2.75 -3.403,3.095 -0.002,0.009 -0.002,0.018 -0.003,0.025 v 0 c -0.104,-0.083 -0.209,-0.122 -0.311,-0.104 -0.044,0.008 -0.086,0.026 -0.123,0.054 -0.091,0.065 -0.162,0.187 -0.214,0.343 -0.029,0.407 -0.048,0.817 -0.054,1.242 0.007,0.04 0.01,0.078 0.018,0.118 0.11,0.603 0.337,1.108 0.587,1.358 z"
           inkscape:connector-curvature="0"
           style="fill:none" />
        <path
           id="path11052"
           d="m 13.995,46.51 c 0.122,0.123 0.249,0.183 0.37,0.162 0.059,-0.01 0.111,-0.038 0.16,-0.083 0.589,1.833 1.718,3.658 3.142,4.748 0.821,0.628 1.74,1.013 2.709,1.013 0.991,0 1.929,-0.401 2.763,-1.055 1.399,-1.094 2.507,-2.897 3.089,-4.707 0.047,0.045 0.101,0.074 0.16,0.084 0.104,0.018 0.212,-0.025 0.319,-0.114 0.266,-0.225 0.517,-0.753 0.631,-1.393 0.149,-0.835 0.015,-1.567 -0.299,-1.715 -0.022,-0.01 -0.046,-0.019 -0.071,-0.023 -0.097,-0.017 -0.199,0.019 -0.298,0.098 l -0.006,0.006 c 0,-10e-4 0,-10e-4 0,-0.002 -0.001,10e-4 -0.002,0.002 -0.003,0.002 0,-0.005 0,-0.012 -0.001,-0.018 -0.377,-1.432 -0.852,-2.31 -1.343,-2.832 -0.096,-0.051 -0.194,-0.097 -0.302,-0.128 -0.013,0.211 0.228,0.533 0.253,0.845 -0.681,-0.317 -1.332,-0.81 -2.282,-0.845 -0.223,-0.008 -0.463,-0.006 -0.709,-10e-4 -2.294,0.819 -4.814,-0.107 -4.814,-0.107 -2.875,-0.267 -3.331,2.72 -3.366,3.062 0,0.008 -10e-4,0.017 -0.002,0.025 v 0 c -0.103,-0.083 -0.207,-0.121 -0.306,-0.103 -0.044,0.007 -0.085,0.025 -0.123,0.052 -0.09,0.065 -0.16,0.185 -0.212,0.34 -0.028,0.402 -0.046,0.809 -0.053,1.228 0.006,0.039 0.01,0.077 0.017,0.117 0.105,0.598 0.33,1.097 0.577,1.344 z"
           inkscape:connector-curvature="0"
           style="fill:none" />
        <path
           id="path11054"
           d="m 33.183,55.79 c -1.426,-1.531 -2.841,-1.649 -3.273,-1.75 -1.362,-0.319 -3.013,-0.183 -3.893,-0.458 -0.154,1.289 -2.635,2.314 -5.673,2.314 -3.038,0 -5.519,-1.025 -5.673,-2.314 -0.88,0.276 -2.529,0.139 -3.893,0.458 -0.691,0.161 -3.907,0.368 -5.646,6.354 -0.236,0.813 -0.153,1.697 0.231,2.421 1.425,2.696 8.921,3.526 14.981,3.524 2.771,0.001 5.843,-0.174 8.498,-0.62 -0.148,-0.881 -0.104,-1.801 0.15,-2.677 0.947,-3.26 2.352,-5.682 4.191,-7.252 z"
           inkscape:connector-curvature="0"
           style="fill:#000000" />
        <path
           id="path11056"
           d="m 13.331,47.21 c 0.641,1.725 1.656,3.4 2.911,4.626 0.71,0.694 1.498,1.243 2.337,1.577 0.577,0.228 1.179,0.355 1.797,0.355 0.619,0 1.221,-0.128 1.798,-0.355 0.869,-0.345 1.683,-0.921 2.412,-1.65 1.224,-1.222 2.214,-2.872 2.842,-4.567 0.483,-0.142 0.99,-1.048 1.196,-2.205 0.225,-1.254 0.013,-2.35 -0.471,-2.532 0.017,-0.307 0.029,-0.616 0.028,-0.935 -0.012,-4.55 -2.679,-7.554 -6.886,-7.836 -3.667,-0.247 -6.43,1.211 -7.688,3.632 -0.424,0.815 -0.666,2.194 -0.758,3.302 -0.141,0.576 -0.224,1.175 -0.224,1.795 h 0.014 c 0,0.004 -10e-4,0.009 -10e-4,0.015 -0.009,0 -0.018,0 -0.027,0.002 -0.537,0.094 -0.781,1.238 -0.546,2.556 0.215,1.212 0.761,2.15 1.266,2.22 z m 0.121,-3.39 c 0.052,-0.155 0.122,-0.275 0.212,-0.34 0.038,-0.026 0.079,-0.044 0.123,-0.052 0.099,-0.018 0.204,0.02 0.306,0.103 v 0 c 0,-0.008 10e-4,-0.017 0.002,-0.025 0.035,-0.342 0.491,-3.329 3.366,-3.062 0,0 2.521,0.926 4.814,0.107 0.247,-0.005 0.487,-0.007 0.709,10e-4 0.95,0.036 1.601,0.528 2.282,0.845 -0.026,-0.313 -0.267,-0.634 -0.253,-0.845 0.108,0.031 0.207,0.078 0.302,0.128 0.491,0.522 0.966,1.4 1.343,2.832 10e-4,0.005 10e-4,0.012 10e-4,0.018 0.001,0 0.002,-10e-4 0.003,-0.002 0,0.001 0,0.001 0,0.002 l 0.006,-0.006 c 0.099,-0.079 0.201,-0.114 0.298,-0.098 0.025,0.004 0.049,0.013 0.071,0.023 0.313,0.147 0.448,0.88 0.299,1.715 -0.114,0.64 -0.365,1.168 -0.631,1.393 -0.106,0.089 -0.215,0.132 -0.319,0.114 -0.059,-0.01 -0.112,-0.039 -0.16,-0.084 -0.582,1.81 -1.69,3.613 -3.089,4.707 -0.834,0.653 -1.772,1.055 -2.763,1.055 -0.969,0 -1.888,-0.385 -2.709,-1.013 -1.424,-1.09 -2.553,-2.916 -3.142,-4.748 -0.048,0.045 -0.101,0.073 -0.16,0.083 -0.121,0.021 -0.248,-0.039 -0.37,-0.162 -0.247,-0.247 -0.472,-0.747 -0.58,-1.346 -0.007,-0.04 -0.01,-0.078 -0.017,-0.117 0.01,-0.418 0.027,-0.824 0.056,-1.226 z"
           inkscape:connector-curvature="0" />
        <path
           id="path11058"
           d="m 94.866,60.328 c -1.76,-6.054 -5.011,-6.262 -5.711,-6.425 -1.377,-0.322 -3.045,-0.185 -3.936,-0.462 -0.104,0.872 -2.644,3.744 -4.308,5.545 l -0.722,-2.78 c 0.543,-0.32 0.66,-1.026 0.66,-1.612 h -2.733 c 0,0.582 0.117,1.28 0.647,1.604 l -0.708,2.788 c -1.665,-1.801 -4.203,-4.672 -4.309,-5.545 -0.889,0.278 -2.559,0.141 -3.936,0.463 -0.443,0.104 -1.912,0.228 -3.377,1.845 1.861,1.57 3.28,4.008 4.236,7.297 0.252,0.869 0.296,1.781 0.152,2.656 2.699,0.46 5.834,0.639 8.66,0.639 6.128,0.001 13.707,-0.838 15.148,-3.563 0.392,-0.734 0.476,-1.628 0.237,-2.45 z"
           inkscape:connector-curvature="0" />
        <path
           id="path11060"
           d="m 72.394,46.997 c 0.648,1.744 1.674,3.437 2.943,4.677 0.718,0.702 1.514,1.258 2.362,1.595 0.583,0.231 1.193,0.359 1.817,0.359 0.626,0 1.235,-0.128 1.818,-0.359 0.878,-0.348 1.701,-0.931 2.438,-1.668 1.238,-1.236 2.238,-2.904 2.873,-4.618 0.489,-0.144 1.002,-1.06 1.21,-2.229 0.228,-1.269 0.013,-2.376 -0.477,-2.561 0.018,-0.31 0.029,-0.623 0.028,-0.945 -0.012,-4.6 -2.709,-7.275 -6.962,-7.56 -3.708,-0.249 -6.502,1.224 -7.774,3.673 -0.428,0.824 -0.673,1.854 -0.766,2.975 -0.144,0.583 -0.227,1.189 -0.227,1.815 h 0.013 c 0,0.005 0,0.01 -0.001,0.014 -0.009,10e-4 -0.018,10e-4 -0.027,0.003 -0.542,0.094 -0.789,1.251 -0.551,2.584 0.22,1.227 0.773,2.173 1.283,2.245 z m 0.123,-3.428 c 0.052,-0.156 0.123,-0.278 0.214,-0.343 0.037,-0.028 0.079,-0.046 0.123,-0.054 0.102,-0.018 0.207,0.021 0.311,0.104 v 0 c 10e-4,-0.008 10e-4,-0.017 0.003,-0.025 0.035,-0.345 0.496,-3.365 3.403,-3.095 0,0 2.549,0.937 4.867,0.108 0.25,-0.005 0.492,-0.007 0.718,10e-4 0.961,0.035 1.618,0.534 2.307,0.854 -0.026,-0.316 -0.27,-0.64 -0.257,-0.854 0.11,0.031 0.21,0.078 0.307,0.13 0.496,0.528 0.977,1.415 1.357,2.862 10e-4,0.007 10e-4,0.013 0.002,0.019 0,0 0.002,-0.001 0.003,-0.002 0,0 0.001,10e-4 0.001,0.002 l 0.005,-0.006 c 0.101,-0.079 0.204,-0.116 0.302,-0.098 0.024,0.004 0.049,0.012 0.071,0.023 0.318,0.148 0.454,0.889 0.304,1.733 -0.115,0.647 -0.369,1.181 -0.638,1.408 -0.108,0.091 -0.218,0.134 -0.323,0.115 -0.06,-0.01 -0.113,-0.039 -0.162,-0.084 -0.587,1.829 -1.708,3.652 -3.122,4.759 -0.844,0.66 -1.792,1.066 -2.794,1.066 -0.979,0 -1.908,-0.389 -2.738,-1.023 -1.44,-1.103 -2.582,-2.949 -3.177,-4.802 -0.05,0.045 -0.103,0.074 -0.162,0.084 -0.122,0.022 -0.251,-0.039 -0.374,-0.163 -0.25,-0.25 -0.478,-0.755 -0.586,-1.361 -0.008,-0.041 -0.011,-0.079 -0.018,-0.118 0.005,-0.423 0.023,-0.833 0.053,-1.24 z"
           inkscape:connector-curvature="0" />
        <path
           id="path11062"
           d="m 61.808,55.608 c -0.101,-0.023 -0.202,-0.045 -0.305,-0.064 -2.63,-2.43 -0.835,-12.572 -0.835,-12.572 0,-12.917 -7.301,-13.979 -9.702,-13.979 -0.472,0 -0.755,0.041 -0.755,0.041 -0.128,-0.007 -0.254,-0.012 -0.379,-0.017 -0.125,0.004 -0.251,0.01 -0.379,0.017 0,0 -0.282,-0.041 -0.755,-0.041 -2.4,0 -9.702,1.061 -9.702,13.979 0,0 1.794,10.143 -0.835,12.572 -0.103,0.02 -0.205,0.041 -0.304,0.064 -0.868,0.202 -4.893,0.461 -7.072,7.956 -0.295,1.018 -0.19,2.124 0.29,3.031 1.783,3.371 11.154,4.412 18.737,4.412 0.007,0 0.013,0 0.02,0 0.006,0 0.013,0 0.02,0 7.584,0 16.955,-1.04 18.738,-4.412 0.479,-0.907 0.583,-2.014 0.288,-3.031 -2.179,-7.495 -6.203,-7.753 -7.07,-7.956 z m -4.873,-0.572 c -0.034,0.282 -0.159,0.556 -0.362,0.814 -0.945,1.21 -3.605,2.958 -6.74,2.958 -3.135,0 -5.795,-1.748 -6.741,-2.958 -0.202,-0.259 -0.327,-0.532 -0.361,-0.814 0,-0.001 0,-0.001 0,-0.001 0.048,-0.016 0.156,-0.054 0.299,-0.119 0.058,-0.026 0.124,-0.058 0.191,-0.094 0.573,-0.3 1.416,-0.929 1.416,-2.032 0,0 0,0 10e-4,0 0.904,0.896 1.911,1.605 2.986,2.032 0.722,0.287 1.476,0.446 2.25,0.446 0.775,0 1.528,-0.159 2.251,-0.446 1.064,-0.422 2.063,-1.123 2.961,-2.008 0.006,0.003 0.012,0.006 0.018,0.009 0.022,1.422 1.449,2.046 1.836,2.188 -0.003,0.009 -0.004,0.016 -0.005,0.025 z m 1.651,-10.54 c -0.142,0.802 -0.456,1.462 -0.788,1.745 -0.113,0.096 -0.229,0.147 -0.34,0.147 -0.02,0 -0.04,-10e-4 -0.06,-0.005 -0.073,-0.012 -0.141,-0.049 -0.2,-0.104 -0.734,2.283 -2.139,4.558 -3.91,5.926 -1.033,0.798 -2.192,1.286 -3.417,1.286 -1.231,0 -2.397,-0.495 -3.436,-1.302 -1.762,-1.369 -3.159,-3.636 -3.89,-5.911 -0.06,0.055 -0.127,0.092 -0.2,0.104 -0.02,0.003 -0.041,0.005 -0.061,0.005 -0.133,0 -0.271,-0.075 -0.403,-0.208 -0.309,-0.309 -0.592,-0.935 -0.726,-1.685 -0.177,-0.987 -0.037,-1.859 0.311,-2.109 0.047,-0.034 0.099,-0.057 0.153,-0.066 0.02,-0.003 0.04,-0.005 0.059,-0.005 0.107,0 0.216,0.047 0.323,0.134 0,0 0.001,-0.01 0.004,-0.031 0.003,-0.026 0.007,-0.068 0.014,-0.124 0.106,-0.837 0.769,-4.796 3.849,-4.796 0.113,0 0.231,0.005 0.351,0.017 l 11.009,5.667 0.893,-0.862 c 0.031,0.005 0.062,0.016 0.09,0.029 0.394,0.186 0.563,1.103 0.375,2.148 z"
           inkscape:connector-curvature="0" />
      </g>
    </g>
    <path
       style="fill:none;stroke:#00b600;stroke-width:0.51950556;stroke-linecap:butt;stroke-linejoin:miter;stroke-miterlimit:4;stroke-dasharray:none;stroke-opacity:1;marker-end:url(#marker5523)"
       d="m 83.334506,91.50276 c 9.011049,-0.07205 3.305315,15.0534 16.881924,23.84127"
       id="path5513"
       inkscape:connector-curvature="0"
       sodipodi:nodetypes="cc" />
    <path
       style="fill:none;stroke:#0000ff;stroke-width:0.52825725;stroke-linecap:butt;stroke-linejoin:miter;stroke-miterlimit:2.4000001;stroke-dasharray:none;stroke-opacity:1;marker-end:url(#Arrow2Mend)"
       d="M 77.699195,85.360427 C 58.266872,91.025805 85.912324,115.90557 47.240832,115.64698"
       id="path402"
       inkscape:connector-curvature="0"
       sodipodi:nodetypes="cc" />
    <text
       xml:space="preserve"
       style="font-style:normal;font-weight:normal;font-size:3.52777767px;line-height:1.25;font-family:sans-serif;letter-spacing:0px;word-spacing:0px;fill:#000000;fill-opacity:1;stroke:none;stroke-width:0.26458332"
       x="40.812004"
       y="90.637413"
       id="text11289"><tspan
         sodipodi:role="line"
         id="tspan11287"
         x="40.812004"
         y="90.637413"
         style="font-size:3.52777767px;stroke-width:0.26458332">PO &amp; team A</tspan></text>
    <text
       xml:space="preserve"
       style="font-style:normal;font-weight:normal;font-size:3.52777767px;line-height:1.25;font-family:sans-serif;letter-spacing:0px;word-spacing:0px;fill:#000000;fill-opacity:1;stroke:none;stroke-width:0.26458332"
       x="98.933929"
       y="90.108276"
       id="text11293"><tspan
         sodipodi:role="line"
         id="tspan11291"
         x="98.933929"
         y="90.108276"
         style="font-size:3.52777767px;stroke-width:0.26458332">PO &amp; team B</tspan></text>
    <text
       xml:space="preserve"
       style="font-style:normal;font-weight:normal;font-size:3.52777767px;line-height:1.25;font-family:sans-serif;letter-spacing:0px;word-spacing:0px;fill:#000000;fill-opacity:1;stroke:none;stroke-width:0.26458332"
       x="38.585457"
       y="110.00809"
       id="text11299"><tspan
         sodipodi:role="line"
         id="tspan11297"
         x="38.585457"
         y="110.00809"
         style="font-size:3.52777767px;stroke-width:0.26458332">team A backlog</tspan></text>
    <text
       xml:space="preserve"
       style="font-style:normal;font-weight:normal;font-size:3.52777767px;line-height:1.25;font-family:sans-serif;letter-spacing:0px;word-spacing:0px;fill:#000000;fill-opacity:1;stroke:none;stroke-width:0.26458332"
       x="96.889519"
       y="109.81254"
       id="text11303"><tspan
         sodipodi:role="line"
         id="tspan11301"
         x="96.889519"
         y="109.81254"
         style="font-size:3.52777767px;stroke-width:0.26458332">team B backlog</tspan></text>
    <flowRoot
       xml:space="preserve"
       id="flowRoot923"
       style="fill:black;fill-opacity:1;stroke:none;font-family:sans-serif;font-style:normal;font-weight:normal;font-size:40px;line-height:1.25;letter-spacing:0px;word-spacing:0px"><flowRegion
         id="flowRegion925"><rect
           id="rect927"
           width="438.42578"
           height="443.1604"
           x="-59.656208"
           y="-16.125034" /></flowRegion><flowPara
         id="flowPara929"></flowPara></flowRoot>    <text
       xml:space="preserve"
       style="font-style:normal;font-weight:normal;font-size:3.52777767px;line-height:1.25;font-family:sans-serif;text-align:start;letter-spacing:0px;word-spacing:0px;text-anchor:start;fill:#000000;fill-opacity:1;stroke:none;stroke-width:0.26458332"
       x="67.053185"
       y="75.789436"
       id="text11289-4"><tspan
         sodipodi:role="line"
         id="tspan11287-0"
         x="67.053185"
         y="75.789436"
         style="font-size:3.52777767px;text-align:start;text-anchor:start;stroke-width:0.26458332">Program Manager</tspan><tspan
         sodipodi:role="line"
         x="67.053185"
         y="80.199158"
         style="font-size:3.52777767px;text-align:start;text-anchor:start;stroke-width:0.26458332"
         id="tspan1439">program backlog</tspan></text>
    <path
       id="path1012"
       d="m 42.306332,133.62101 v 15.875 h 3.704167 v -15.875 z m 0,-0.79375 h 3.704167 c 0.438376,0 0.79375,0.35537 0.79375,0.79375 v 15.875 c 0,0.43837 -0.355374,0.79375 -0.79375,0.79375 h -3.704167 c -0.438376,0 -0.79375,-0.35538 -0.79375,-0.79375 v -15.875 c 0,-0.43838 0.355374,-0.79375 0.79375,-0.79375 z"
       inkscape:connector-curvature="0"
       style="fill:#0000fd;fill-opacity:1;fill-rule:nonzero;stroke:none;stroke-width:0.2;stroke-miterlimit:4;stroke-dasharray:none" />
    <path
       id="path1014"
       d="m 48.656332,132.82726 h 3.704167 c 0.438376,0 0.79375,0.35537 0.79375,0.79375 v 3.43958 c 0,0.43838 -0.355374,0.79375 -0.79375,0.79375 h -3.704167 c -0.438376,0 -0.79375,-0.35537 -0.79375,-0.79375 v -3.43958 c 0,-0.43838 0.355374,-0.79375 0.79375,-0.79375 z"
       inkscape:connector-curvature="0"
       style="fill:#969696;fill-opacity:1;fill-rule:nonzero;stroke:none;stroke-width:0.26458332" />
    <rect
       id="rect1016"
       rx="0.39687499"
       height="0.79374999"
       width="8.4666662"
       y="133.09184"
       x="54.212582"
       style="fill:#969696;fill-opacity:1;fill-rule:evenodd;stroke:none;stroke-width:0.26458332" />
    <rect
       id="rect1018"
       rx="0.39687499"
       height="0.79374999"
       width="8.4666662"
       y="134.94392"
       x="54.212582"
       style="fill:#969696;fill-opacity:1;fill-rule:evenodd;stroke:none;stroke-width:0.26458332" />
    <rect
       id="rect1020"
       rx="0.39687499"
       height="0.79374999"
       width="8.4666662"
       y="136.79601"
       x="54.212582"
       style="fill:#969696;fill-opacity:1;fill-rule:evenodd;stroke:none;stroke-width:0.26458332" />
    <rect
       id="rect1022"
       rx="0.39687499"
       height="0.79374999"
       width="8.4666662"
       y="139.17726"
       x="54.212582"
       style="fill:#969696;fill-opacity:1;fill-rule:evenodd;stroke:none;stroke-width:0.26458332" />
    <rect
       id="rect1024"
       rx="0.39687499"
       height="0.79374999"
       width="8.4666662"
       y="141.02934"
       x="54.212582"
       style="fill:#969696;fill-opacity:1;fill-rule:evenodd;stroke:none;stroke-width:0.26458332" />
    <rect
       id="rect1026"
       rx="0.39687499"
       height="0.79374999"
       width="8.4666662"
       y="142.88142"
       x="54.212582"
       style="fill:#969696;fill-opacity:1;fill-rule:evenodd;stroke:none;stroke-width:0.26458332" />
    <rect
       id="rect1028"
       rx="0.39687499"
       height="0.79374999"
       width="8.4666662"
       y="145.52725"
       x="54.212582"
       style="fill:#969696;fill-opacity:1;fill-rule:evenodd;stroke:none;stroke-width:0.26458332" />
    <rect
       id="rect1030"
       rx="0.39687499"
       height="0.79374999"
       width="8.4666662"
       y="147.37933"
       x="54.212582"
       style="fill:#969696;fill-opacity:1;fill-rule:evenodd;stroke:none;stroke-width:0.26458332" />
    <rect
       id="rect1032"
       rx="0.39687499"
       height="0.79374999"
       width="8.4666662"
       y="149.23143"
       x="54.212582"
       style="fill:#969696;fill-opacity:1;fill-rule:evenodd;stroke:none;stroke-width:0.26458332" />
    <path
       id="path1034"
       d="m 48.656332,139.04496 h 3.704167 c 0.438376,0 0.79375,0.35538 0.79375,0.79375 v 3.43959 c 0,0.43837 -0.355374,0.79375 -0.79375,0.79375 h -3.704167 c -0.438376,0 -0.79375,-0.35538 -0.79375,-0.79375 v -3.43959 c 0,-0.43837 0.355374,-0.79375 0.79375,-0.79375 z"
       inkscape:connector-curvature="0"
       style="fill:#969696;fill-opacity:1;fill-rule:nonzero;stroke:none;stroke-width:0.26458332" />
    <path
       id="path1036"
       d="m 48.656332,145.26267 h 3.704167 c 0.438376,0 0.79375,0.35538 0.79375,0.79375 v 3.43959 c 0,0.43837 -0.355374,0.79375 -0.79375,0.79375 h -3.704167 c -0.438376,0 -0.79375,-0.35538 -0.79375,-0.79375 v -3.43959 c 0,-0.43837 0.355374,-0.79375 0.79375,-0.79375 z"
       inkscape:connector-curvature="0"
       style="fill:#969696;fill-opacity:1;fill-rule:nonzero;stroke:none;stroke-width:0.26458332" />
    <path
       style="fill:none;stroke:#0000fd;stroke-width:0.51931071;stroke-linecap:butt;stroke-linejoin:miter;stroke-miterlimit:4;stroke-dasharray:none;stroke-opacity:1;marker-end:url(#marker1371)"
       d="m 77.680183,97.525792 c -5.476958,0.110707 -6.426794,20.059198 -11.970204,28.292428 -7.18867,10.67682 -15.264646,9.5196 -17.96148,9.61034"
       id="path1099"
       inkscape:connector-curvature="0"
       sodipodi:nodetypes="csc" />
    <text
       xml:space="preserve"
       style="font-style:normal;font-weight:normal;font-size:10.58333302px;line-height:1.25;font-family:sans-serif;letter-spacing:0px;word-spacing:0px;fill:#000000;fill-opacity:1;stroke:none;stroke-width:0.26458332"
       x="48.737675"
       y="145.8838"
       id="text1400"><tspan
         sodipodi:role="line"
         id="tspan1398"
         x="48.737675"
         y="145.8838"
         style="stroke-width:0.26458332">F3</tspan></text>
    <path
       style="fill:none;stroke:#f90000;stroke-width:0.6190716;stroke-linecap:butt;stroke-linejoin:miter;stroke-miterlimit:4;stroke-dasharray:2.47628632, 0.61907159;stroke-dashoffset:0;stroke-opacity:1;marker-end:url(#Arrow2Mstart)"
       d="m 46.678568,142.01287 c 53.639012,-19.51183 53.439602,-19.4393 53.439602,-19.4393"
       id="path7273"
       inkscape:connector-curvature="0" />
    <text
       xml:space="preserve"
       style="font-style:normal;font-weight:normal;font-size:10.58333302px;line-height:1.25;font-family:sans-serif;letter-spacing:0px;word-spacing:0px;fill:#000000;fill-opacity:1;stroke:none;stroke-width:0.26458332"
       x="48.924358"
       y="126.33807"
       id="text1375"><tspan
         sodipodi:role="line"
         id="tspan1373"
         x="48.924358"
         y="126.33807"
         style="stroke-width:0.26458332">F1</tspan></text>
    <text
       xml:space="preserve"
       style="font-style:normal;font-weight:normal;font-size:10.58333302px;line-height:1.25;font-family:sans-serif;letter-spacing:0px;word-spacing:0px;fill:#000000;fill-opacity:1;stroke:none;stroke-width:0.26458332"
       x="108.31942"
       y="125.74296"
       id="text1404"><tspan
         sodipodi:role="line"
         id="tspan1402"
         x="108.31942"
         y="125.74296"
         style="stroke-width:0.26458332">F2</tspan></text>
  </g>
</svg>
