<svg height='100px' width='100px'  fill="#000000" xmlns="http://www.w3.org/2000/svg" xmlns:xlink="http://www.w3.org/1999/xlink" version="1.1" x="0px" y="0px" viewBox="0 0 100 100" enable-background="new 0 0 100 100" xml:space="preserve"><g><path fill="none" d="M58.212,42.35c-0.028-0.014-0.059-0.024-0.09-0.029l-0.893,0.862l-11.009-5.667   c-0.12-0.011-0.237-0.017-0.351-0.017c-3.08,0-3.743,3.959-3.849,4.796c-0.007,0.056-0.011,0.098-0.014,0.124   c-0.002,0.021-0.004,0.031-0.004,0.031c-0.107-0.087-0.216-0.134-0.323-0.134c-0.02,0-0.04,0.001-0.059,0.005   c-0.055,0.009-0.106,0.032-0.153,0.066c-0.348,0.25-0.488,1.122-0.311,2.109c0.134,0.75,0.417,1.376,0.726,1.685   c0.132,0.133,0.27,0.208,0.403,0.208c0.02,0,0.041-0.002,0.061-0.005c0.073-0.013,0.14-0.049,0.2-0.104   c0.731,2.275,2.127,4.542,3.89,5.911c1.038,0.807,2.204,1.302,3.436,1.302c1.224,0,2.383-0.488,3.417-1.286   c1.771-1.368,3.176-3.643,3.91-5.926c0.06,0.056,0.127,0.092,0.2,0.104c0.02,0.003,0.04,0.005,0.06,0.005   c0.111,0,0.227-0.051,0.34-0.147c0.332-0.283,0.646-0.943,0.788-1.745C58.774,43.451,58.605,42.534,58.212,42.35z"></path><path fill="none" d="M55.102,52.823c-0.006-0.003-0.012-0.006-0.018-0.009c-0.898,0.885-1.896,1.586-2.961,2.008   c-0.723,0.287-1.476,0.446-2.251,0.446c-0.774,0-1.528-0.159-2.25-0.446c-1.075-0.427-2.082-1.136-2.986-2.032   c-0.001,0-0.001,0-0.001,0c0,1.104-0.843,1.732-1.416,2.032c-0.067,0.036-0.133,0.067-0.191,0.094   c-0.143,0.065-0.251,0.104-0.299,0.119c0,0,0,0,0,0.001c0.034,0.282,0.159,0.556,0.361,0.814c0.946,1.21,3.606,2.958,6.741,2.958   c3.135,0,5.795-1.748,6.74-2.958c0.203-0.259,0.328-0.532,0.362-0.814c0.001-0.009,0.002-0.017,0.003-0.024   C56.551,54.869,55.124,54.245,55.102,52.823z"></path><path fill="none" d="M73.066,46.29c0.123,0.124,0.252,0.185,0.374,0.163c0.06-0.01,0.112-0.039,0.162-0.084   c0.595,1.853,1.736,3.699,3.177,4.802c0.83,0.635,1.759,1.023,2.738,1.023c1.002,0,1.95-0.406,2.794-1.066   c1.414-1.106,2.535-2.93,3.122-4.759c0.049,0.045,0.103,0.074,0.162,0.084c0.105,0.019,0.215-0.024,0.323-0.115   c0.269-0.228,0.522-0.761,0.638-1.408c0.15-0.845,0.015-1.585-0.304-1.733c-0.022-0.011-0.047-0.019-0.071-0.023   c-0.098-0.018-0.201,0.019-0.302,0.098l-0.005,0.006c0-0.001-0.001-0.001-0.001-0.002c-0.001,0.001-0.002,0.002-0.002,0.002   c-0.002-0.005-0.002-0.011-0.003-0.018c-0.381-1.448-0.861-2.334-1.357-2.862c-0.097-0.053-0.196-0.099-0.307-0.13   c-0.013,0.214,0.23,0.538,0.257,0.854c-0.688-0.32-1.346-0.819-2.307-0.854c-0.226-0.008-0.468-0.006-0.718-0.001   c-2.318,0.828-4.867-0.108-4.867-0.108c-2.907-0.27-3.368,2.75-3.403,3.095c-0.002,0.009-0.002,0.018-0.003,0.025l0,0   c-0.104-0.083-0.209-0.122-0.311-0.104c-0.044,0.008-0.086,0.026-0.123,0.054c-0.091,0.065-0.162,0.187-0.214,0.343   c-0.029,0.407-0.048,0.817-0.054,1.242c0.007,0.04,0.01,0.078,0.018,0.118C72.589,45.535,72.816,46.04,73.066,46.29z"></path><path fill="none" d="M13.995,46.51c0.122,0.123,0.249,0.183,0.37,0.162c0.059-0.01,0.111-0.038,0.16-0.083   c0.589,1.833,1.718,3.658,3.142,4.748c0.821,0.628,1.74,1.013,2.709,1.013c0.991,0,1.929-0.401,2.763-1.055   c1.399-1.094,2.507-2.897,3.089-4.707c0.047,0.045,0.101,0.074,0.16,0.084c0.104,0.018,0.212-0.025,0.319-0.114   c0.266-0.225,0.517-0.753,0.631-1.393c0.149-0.835,0.015-1.567-0.299-1.715c-0.022-0.01-0.046-0.019-0.071-0.023   c-0.097-0.017-0.199,0.019-0.298,0.098l-0.006,0.006c0-0.001,0-0.001,0-0.002c-0.001,0.001-0.002,0.002-0.003,0.002   c0-0.005,0-0.012-0.001-0.018c-0.377-1.432-0.852-2.31-1.343-2.832c-0.096-0.051-0.194-0.097-0.302-0.128   c-0.013,0.211,0.228,0.533,0.253,0.845c-0.681-0.317-1.332-0.81-2.282-0.845c-0.223-0.008-0.463-0.006-0.709-0.001   c-2.294,0.819-4.814-0.107-4.814-0.107c-2.875-0.267-3.331,2.72-3.366,3.062c0,0.008-0.001,0.017-0.002,0.025h0   c-0.103-0.083-0.207-0.121-0.306-0.103c-0.044,0.007-0.085,0.025-0.123,0.052c-0.09,0.065-0.16,0.185-0.212,0.34   c-0.028,0.402-0.046,0.809-0.053,1.228c0.006,0.039,0.01,0.077,0.017,0.117C13.523,45.764,13.748,46.263,13.995,46.51z"></path><path fill="#000000" d="M33.183,55.79c-1.426-1.531-2.841-1.649-3.273-1.75c-1.362-0.319-3.013-0.183-3.893-0.458   c-0.154,1.289-2.635,2.314-5.673,2.314c-3.038,0-5.519-1.025-5.673-2.314c-0.88,0.276-2.529,0.139-3.893,0.458   c-0.691,0.161-3.907,0.368-5.646,6.354c-0.236,0.813-0.153,1.697,0.231,2.421c1.425,2.696,8.921,3.526,14.981,3.524   c2.771,0.001,5.843-0.174,8.498-0.62c-0.148-0.881-0.104-1.801,0.15-2.677C29.939,59.782,31.344,57.36,33.183,55.79z"></path><path d="M13.331,47.21c0.641,1.725,1.656,3.4,2.911,4.626c0.71,0.694,1.498,1.243,2.337,1.577c0.577,0.228,1.179,0.355,1.797,0.355   c0.619,0,1.221-0.128,1.798-0.355c0.869-0.345,1.683-0.921,2.412-1.65c1.224-1.222,2.214-2.872,2.842-4.567   c0.483-0.142,0.99-1.048,1.196-2.205c0.225-1.254,0.013-2.35-0.471-2.532c0.017-0.307,0.029-0.616,0.028-0.935   c-0.012-4.55-2.679-7.554-6.886-7.836c-3.667-0.247-6.43,1.211-7.688,3.632c-0.424,0.815-0.666,2.194-0.758,3.302   c-0.141,0.576-0.224,1.175-0.224,1.795h0.014c0,0.004-0.001,0.009-0.001,0.015c-0.009,0-0.018,0-0.027,0.002   c-0.537,0.094-0.781,1.238-0.546,2.556C12.28,46.202,12.826,47.14,13.331,47.21z M13.452,43.82c0.052-0.155,0.122-0.275,0.212-0.34   c0.038-0.026,0.079-0.044,0.123-0.052c0.099-0.018,0.204,0.02,0.306,0.103h0c0-0.008,0.001-0.017,0.002-0.025   c0.035-0.342,0.491-3.329,3.366-3.062c0,0,2.521,0.926,4.814,0.107c0.247-0.005,0.487-0.007,0.709,0.001   c0.95,0.036,1.601,0.528,2.282,0.845c-0.026-0.313-0.267-0.634-0.253-0.845c0.108,0.031,0.207,0.078,0.302,0.128   c0.491,0.522,0.966,1.4,1.343,2.832c0.001,0.005,0.001,0.012,0.001,0.018c0.001,0,0.002-0.001,0.003-0.002c0,0.001,0,0.001,0,0.002   l0.006-0.006c0.099-0.079,0.201-0.114,0.298-0.098c0.025,0.004,0.049,0.013,0.071,0.023c0.313,0.147,0.448,0.88,0.299,1.715   c-0.114,0.64-0.365,1.168-0.631,1.393c-0.106,0.089-0.215,0.132-0.319,0.114c-0.059-0.01-0.112-0.039-0.16-0.084   c-0.582,1.81-1.69,3.613-3.089,4.707c-0.834,0.653-1.772,1.055-2.763,1.055c-0.969,0-1.888-0.385-2.709-1.013   c-1.424-1.09-2.553-2.916-3.142-4.748c-0.048,0.045-0.101,0.073-0.16,0.083c-0.121,0.021-0.248-0.039-0.37-0.162   c-0.247-0.247-0.472-0.747-0.58-1.346c-0.007-0.04-0.01-0.078-0.017-0.117C13.406,44.628,13.423,44.222,13.452,43.82z"></path><path d="M94.866,60.328c-1.76-6.054-5.011-6.262-5.711-6.425c-1.377-0.322-3.045-0.185-3.936-0.462   c-0.104,0.872-2.644,3.744-4.308,5.545l-0.722-2.78c0.543-0.32,0.66-1.026,0.66-1.612h-2.733c0,0.582,0.117,1.28,0.647,1.604   l-0.708,2.788c-1.665-1.801-4.203-4.672-4.309-5.545c-0.889,0.278-2.559,0.141-3.936,0.463c-0.443,0.104-1.912,0.228-3.377,1.845   c1.861,1.57,3.28,4.008,4.236,7.297c0.252,0.869,0.296,1.781,0.152,2.656c2.699,0.46,5.834,0.639,8.66,0.639   c6.128,0.001,13.707-0.838,15.148-3.563C95.021,62.044,95.105,61.15,94.866,60.328z"></path><path d="M72.394,46.997c0.648,1.744,1.674,3.437,2.943,4.677c0.718,0.702,1.514,1.258,2.362,1.595   c0.583,0.231,1.193,0.359,1.817,0.359c0.626,0,1.235-0.128,1.818-0.359c0.878-0.348,1.701-0.931,2.438-1.668   c1.238-1.236,2.238-2.904,2.873-4.618c0.489-0.144,1.002-1.06,1.21-2.229c0.228-1.269,0.013-2.376-0.477-2.561   c0.018-0.31,0.029-0.623,0.028-0.945c-0.012-4.6-2.709-7.275-6.962-7.56c-3.708-0.249-6.502,1.224-7.774,3.673   c-0.428,0.824-0.673,1.854-0.766,2.975c-0.144,0.583-0.227,1.189-0.227,1.815h0.013c0,0.005,0,0.01-0.001,0.014   c-0.009,0.001-0.018,0.001-0.027,0.003c-0.542,0.094-0.789,1.251-0.551,2.584C71.331,45.979,71.884,46.925,72.394,46.997z    M72.517,43.569c0.052-0.156,0.123-0.278,0.214-0.343c0.037-0.028,0.079-0.046,0.123-0.054c0.102-0.018,0.207,0.021,0.311,0.104   l0,0c0.001-0.008,0.001-0.017,0.003-0.025c0.035-0.345,0.496-3.365,3.403-3.095c0,0,2.549,0.937,4.867,0.108   c0.25-0.005,0.492-0.007,0.718,0.001c0.961,0.035,1.618,0.534,2.307,0.854c-0.026-0.316-0.27-0.64-0.257-0.854   c0.11,0.031,0.21,0.078,0.307,0.13c0.496,0.528,0.977,1.415,1.357,2.862c0.001,0.007,0.001,0.013,0.002,0.019   c0,0,0.002-0.001,0.003-0.002c0,0,0.001,0.001,0.001,0.002l0.005-0.006c0.101-0.079,0.204-0.116,0.302-0.098   c0.024,0.004,0.049,0.012,0.071,0.023c0.318,0.148,0.454,0.889,0.304,1.733c-0.115,0.647-0.369,1.181-0.638,1.408   c-0.108,0.091-0.218,0.134-0.323,0.115c-0.06-0.01-0.113-0.039-0.162-0.084c-0.587,1.829-1.708,3.652-3.122,4.759   c-0.844,0.66-1.792,1.066-2.794,1.066c-0.979,0-1.908-0.389-2.738-1.023c-1.44-1.103-2.582-2.949-3.177-4.802   c-0.05,0.045-0.103,0.074-0.162,0.084c-0.122,0.022-0.251-0.039-0.374-0.163c-0.25-0.25-0.478-0.755-0.586-1.361   c-0.008-0.041-0.011-0.079-0.018-0.118C72.469,44.386,72.487,43.976,72.517,43.569z"></path><path d="M61.808,55.608c-0.101-0.023-0.202-0.045-0.305-0.064c-2.63-2.43-0.835-12.572-0.835-12.572   c0-12.917-7.301-13.979-9.702-13.979c-0.472,0-0.755,0.041-0.755,0.041c-0.128-0.007-0.254-0.012-0.379-0.017   c-0.125,0.004-0.251,0.01-0.379,0.017c0,0-0.282-0.041-0.755-0.041c-2.4,0-9.702,1.061-9.702,13.979c0,0,1.794,10.143-0.835,12.572   c-0.103,0.02-0.205,0.041-0.304,0.064c-0.868,0.202-4.893,0.461-7.072,7.956c-0.295,1.018-0.19,2.124,0.29,3.031   c1.783,3.371,11.154,4.412,18.737,4.412c0.007,0,0.013,0,0.02,0c0.006,0,0.013,0,0.02,0c7.584,0,16.955-1.04,18.738-4.412   c0.479-0.907,0.583-2.014,0.288-3.031C66.699,56.069,62.675,55.811,61.808,55.608z M56.935,55.036   c-0.034,0.282-0.159,0.556-0.362,0.814c-0.945,1.21-3.605,2.958-6.74,2.958c-3.135,0-5.795-1.748-6.741-2.958   c-0.202-0.259-0.327-0.532-0.361-0.814c0-0.001,0-0.001,0-0.001c0.048-0.016,0.156-0.054,0.299-0.119   c0.058-0.026,0.124-0.058,0.191-0.094c0.573-0.3,1.416-0.929,1.416-2.032c0,0,0,0,0.001,0c0.904,0.896,1.911,1.605,2.986,2.032   c0.722,0.287,1.476,0.446,2.25,0.446c0.775,0,1.528-0.159,2.251-0.446c1.064-0.422,2.063-1.123,2.961-2.008   c0.006,0.003,0.012,0.006,0.018,0.009c0.022,1.422,1.449,2.046,1.836,2.188C56.937,55.02,56.936,55.027,56.935,55.036z    M58.586,44.496c-0.142,0.802-0.456,1.462-0.788,1.745c-0.113,0.096-0.229,0.147-0.34,0.147c-0.02,0-0.04-0.001-0.06-0.005   c-0.073-0.012-0.141-0.049-0.2-0.104c-0.734,2.283-2.139,4.558-3.91,5.926c-1.033,0.798-2.192,1.286-3.417,1.286   c-1.231,0-2.397-0.495-3.436-1.302c-1.762-1.369-3.159-3.636-3.89-5.911c-0.06,0.055-0.127,0.092-0.2,0.104   c-0.02,0.003-0.041,0.005-0.061,0.005c-0.133,0-0.271-0.075-0.403-0.208c-0.309-0.309-0.592-0.935-0.726-1.685   c-0.177-0.987-0.037-1.859,0.311-2.109c0.047-0.034,0.099-0.057,0.153-0.066c0.02-0.003,0.04-0.005,0.059-0.005   c0.107,0,0.216,0.047,0.323,0.134c0,0,0.001-0.01,0.004-0.031c0.003-0.026,0.007-0.068,0.014-0.124   c0.106-0.837,0.769-4.796,3.849-4.796c0.113,0,0.231,0.005,0.351,0.017l11.009,5.667l0.893-0.862   c0.031,0.005,0.062,0.016,0.09,0.029C58.605,42.534,58.774,43.451,58.586,44.496z"></path></g></svg>