<svg height='100px' width='100px'  fill="#000000" xmlns="http://www.w3.org/2000/svg" xmlns:xlink="http://www.w3.org/1999/xlink" viewBox="0 0 100 100" version="1.1" x="0px" y="0px"><title>feature breakdown scrum backlog</title><desc>Created with Sketch.</desc><g stroke="none" stroke-width="1" fill="none" fill-rule="evenodd"><path d="M13,20 L13,80 L27,80 L27,20 L13,20 Z M13,17 L27,17 C28.6568542,17 30,18.3431458 30,20 L30,80 C30,81.6568542 28.6568542,83 27,83 L13,83 C11.3431458,83 10,81.6568542 10,80 L10,20 C10,18.3431458 11.3431458,17 13,17 Z" fill="#000000" fill-rule="nonzero"></path><path d="M37,17 L51,17 C52.6568542,17 54,18.3431458 54,20 L54,33 C54,34.6568542 52.6568542,36 51,36 L37,36 C35.3431458,36 34,34.6568542 34,33 L34,20 C34,18.3431458 35.3431458,17 37,17 Z" fill="#000000" fill-rule="nonzero"></path><rect fill="#000000" x="58" y="18" width="32" height="3" rx="1.5"></rect><rect fill="#000000" x="58" y="25" width="32" height="3" rx="1.5"></rect><rect fill="#000000" x="58" y="32" width="32" height="3" rx="1.5"></rect><rect fill="#000000" x="58" y="41" width="32" height="3" rx="1.5"></rect><rect fill="#000000" x="58" y="48" width="32" height="3" rx="1.5"></rect><rect fill="#000000" x="58" y="55" width="32" height="3" rx="1.5"></rect><rect fill="#000000" x="58" y="65" width="32" height="3" rx="1.5"></rect><rect fill="#000000" x="58" y="72" width="32" height="3" rx="1.5"></rect><rect fill="#000000" x="58" y="79" width="32" height="3" rx="1.5"></rect><path d="M37,40.5 L51,40.5 C52.6568542,40.5 54,41.8431458 54,43.5 L54,56.5 C54,58.1568542 52.6568542,59.5 51,59.5 L37,59.5 C35.3431458,59.5 34,58.1568542 34,56.5 L34,43.5 C34,41.8431458 35.3431458,40.5 37,40.5 Z" fill="#000000" fill-rule="nonzero"></path><path d="M37,64 L51,64 C52.6568542,64 54,65.3431458 54,67 L54,80 C54,81.6568542 52.6568542,83 51,83 L37,83 C35.3431458,83 34,81.6568542 34,80 L34,67 C34,65.3431458 35.3431458,64 37,64 Z" fill="#000000" fill-rule="nonzero"></path></g></svg>